<svg width="17" height="17" viewBox="0 0 17 17" fill="none" xmlns="http://www.w3.org/2000/svg">
<path d="M15.3223 11.3434H12.3223C11.9081 11.3434 11.5723 11.6792 11.5723 12.0934V15.0934C11.5723 15.5076 11.9081 15.8434 12.3223 15.8434H15.3223C15.7365 15.8434 16.0723 15.5076 16.0723 15.0934V12.0934C16.0723 11.6792 15.7365 11.3434 15.3223 11.3434Z" stroke="#202F3E" stroke-linecap="round" stroke-linejoin="round"/>
<path d="M4.82227 11.3434H1.82227C1.40805 11.3434 1.07227 11.6792 1.07227 12.0934V15.0934C1.07227 15.5076 1.40805 15.8434 1.82227 15.8434H4.82227C5.23648 15.8434 5.57227 15.5076 5.57227 15.0934V12.0934C5.57227 11.6792 5.23648 11.3434 4.82227 11.3434Z" stroke="#202F3E" stroke-linecap="round" stroke-linejoin="round"/>
<path d="M10.0723 0.843384H7.07227C6.65805 0.843384 6.32227 1.17917 6.32227 1.59338V4.59338C6.32227 5.0076 6.65805 5.34338 7.07227 5.34338H10.0723C10.4865 5.34338 10.8223 5.0076 10.8223 4.59338V1.59338C10.8223 1.17917 10.4865 0.843384 10.0723 0.843384Z" stroke="#202F3E" stroke-linecap="round" stroke-linejoin="round"/>
<path d="M3.32227 11.3434V9.09338C3.32227 8.89447 3.40128 8.70371 3.54194 8.56305C3.68259 8.4224 3.87335 8.34338 4.07227 8.34338H13.0723C13.2712 8.34338 13.4619 8.4224 13.6026 8.56305C13.7432 8.70371 13.8223 8.89447 13.8223 9.09338V11.3434" stroke="#202F3E" stroke-linecap="round" stroke-linejoin="round"/>
<path d="M8.57227 8.34338V5.34338" stroke="#202F3E" stroke-width="1.5" stroke-linecap="round" stroke-linejoin="round"/>
</svg>
