<svg width="38" height="38" viewBox="0 0 38 38" fill="none" xmlns="http://www.w3.org/2000/svg">
<g clip-path="url(#clip0_489_763)">
<path d="M9.5 30.875H4.75C4.12031 30.8743 3.51661 30.6239 3.07135 30.1786C2.62609 29.7334 2.37566 29.1297 2.375 28.5V23.75H3.75V29.5H9.5V30.875Z" fill="#CDD1D7"/>
<path d="M3.75 14.25H2.375V19H3.75V14.25Z" fill="#CDD1D7"/>
<path d="M30.875 9.5H29.5V3.75H23.75V2.375H28.5C29.1297 2.37566 29.7334 2.62609 30.1786 3.07135C30.6239 3.51661 30.8743 4.12031 30.875 4.75V9.5Z" fill="#CDD1D7"/>
<path d="M19 2.375H14.25V3.75H19V2.375Z" fill="#CDD1D7"/>
<path d="M3.75 9.5H2.375V4.75C2.37566 4.12031 2.62609 3.51661 3.07135 3.07135C3.51661 2.62609 4.12031 2.37566 4.75 2.375H9.5V3.75H3.75V9.5Z" fill="#CDD1D7"/>
<path d="M21.6979 31.2199L19.2695 19.3207C19.152 18.7446 19.7129 18.2634 20.2644 18.4673L32.0737 22.8316C32.7298 23.074 32.7262 24.0032 32.0683 24.2406L26.7349 26.1652C26.5824 26.2203 26.4519 26.3232 26.3628 26.4586L23.0594 31.482C22.6918 32.041 21.8317 31.8754 21.6979 31.2199Z" stroke="#7A8494" stroke-width="2.08333"/>
</g>
<defs>
<clipPath id="clip0_489_763">
<rect width="38" height="38" fill="white"/>
</clipPath>
</defs>
</svg>
