<svg xmlns="http://www.w3.org/2000/svg" width="20" height="20" viewBox="0 0 20 20" fill="none">
<path fill-rule="evenodd" clip-rule="evenodd" d="M15.8 9.5C15.8 12.4271 13.4271 14.8 10.5 14.8C7.57289 14.8 5.2 12.4271 5.2 9.5C5.2 6.57289 7.57289 4.2 10.5 4.2C13.4271 4.2 15.8 6.57289 15.8 9.5ZM17 9.5C17 13.0899 14.0899 16 10.5 16C6.91015 16 4 13.0899 4 9.5C4 5.91015 6.91015 3 10.5 3C14.0899 3 17 5.91015 17 9.5ZM12.3907 7.67954C12.5957 7.88457 12.5957 8.21699 12.3907 8.42202L11.2775 9.53536L12.3915 10.6495C12.5965 10.8545 12.5965 11.1869 12.3915 11.392C12.1865 11.597 11.8541 11.597 11.6491 11.392L10.5352 10.2778L9.42119 11.392C9.21619 11.597 8.88381 11.597 8.67881 11.392C8.4738 11.1869 8.4738 10.8545 8.67881 10.6495L9.79277 9.53536L8.67959 8.42202C8.47459 8.21699 8.47459 7.88457 8.67959 7.67954C8.88459 7.47451 9.21697 7.47451 9.42197 7.67954L10.5352 8.79288L11.6483 7.67954C11.8533 7.47451 12.1857 7.47451 12.3907 7.67954Z" fill="#51A3A3"/>
</svg>
