<?xml version="1.0" encoding="utf-8"?>
<svg viewBox="280.526 67.237 102.709 140.114" width="102.709" height="140.114" xmlns="http://www.w3.org/2000/svg" xmlns:xlink="http://www.w3.org/1999/xlink">
  <defs>
    <linearGradient id="linearGradient10854" y2="480.35" gradientUnits="userSpaceOnUse" x2="439.68" gradientTransform="translate(-420.81 -1.1187)" y1="503.36" x1="439.68" xlink:href="#linearGradient17994"/>
    <linearGradient id="linearGradient17994">
      <stop id="stop17996" style="stop-color:#447821" offset="0"/>
      <stop id="stop17998" style="stop-color:#bcd35f" offset="0.4337"/>
      <stop id="stop18000" style="stop-color:#ffeeaa" offset="1"/>
    </linearGradient>
    <linearGradient id="linearGradient10856" y2="398.79" gradientUnits="userSpaceOnUse" x2="389.08" gradientTransform="matrix(1 0 0 .53779 -420.81 183.47)" y1="505.56" x1="389.08" xlink:href="#linearGradient17994"/>
    <linearGradient id="linearGradient10858" y2="-391.26" gradientUnits="userSpaceOnUse" x2="372.81" gradientTransform="matrix(1 0 0 -1 -420.81 -.70706)" y1="-403.51" x1="372.81" xlink:href="#linearGradient17994"/>
    <linearGradient id="linearGradient10860" y2="-404.21" gradientUnits="userSpaceOnUse" x2="370.43" gradientTransform="translate(-420.81 899.69)" y1="-387.82" x1="370.43" xlink:href="#linearGradient18020"/>
    <linearGradient id="linearGradient18020">
      <stop id="stop18022" style="stop-color:#447821" offset="0"/>
      <stop id="stop18024" style="stop-color:#bcd35f" offset="0.5023"/>
      <stop id="stop18026" style="stop-color:#ffeeaa" offset="1"/>
    </linearGradient>
    <linearGradient id="linearGradient10862" y2="432.99" gradientUnits="userSpaceOnUse" x2="-17.737" gradientTransform="matrix(1 0 0 1.3253 0 -145.12)" y1="456.1" x1="-17.737" xlink:href="#linearGradient17994"/>
    <linearGradient id="linearGradient10864" y2="431.94" gradientUnits="userSpaceOnUse" x2="-16.737" y1="439.7" x1="-16.737" xlink:href="#linearGradient17994"/>
    <linearGradient id="linearGradient10866" y2="457.33" gradientUnits="userSpaceOnUse" x2="-15.862" y1="466.33" x1="-15.862" xlink:href="#linearGradient17994"/>
    <linearGradient id="linearGradient10868" y2="326.03" gradientUnits="userSpaceOnUse" x2="-35.191" gradientTransform="matrix(.80273 0 0 -.80273 23.35 713.5)" y1="376.18" x1="-35.191" xlink:href="#linearGradient18081"/>
    <linearGradient id="linearGradient18081">
      <stop id="stop18083" style="stop-color:#447821" offset="0"/>
      <stop id="stop18085" style="stop-color:#bcd35f" offset="0.6462"/>
      <stop id="stop18087" style="stop-color:#ffeeaa" offset="1"/>
    </linearGradient>
    <linearGradient id="linearGradient10870" y2="383.03" gradientUnits="userSpaceOnUse" x2="-53.995" gradientTransform="matrix(1.0529 0 0 -1.0529 36.178 803.08)" y1="330.93" x1="-53.995" xlink:href="#linearGradient18112"/>
    <linearGradient id="linearGradient18112">
      <stop id="stop18114" style="stop-color:#447821" offset="0"/>
      <stop id="stop18116" style="stop-color:#bcd35f" offset="0.6853"/>
      <stop id="stop18118" style="stop-color:#ffeeaa" offset="1"/>
    </linearGradient>
    <linearGradient id="linearGradient10872" y2="444.1" gradientUnits="userSpaceOnUse" x2="-31.693" y1="406.84" x1="-31.693" xlink:href="#linearGradient18120"/>
    <linearGradient id="linearGradient18120">
      <stop id="stop18122" style="stop-color:#eeffaa" offset="0"/>
      <stop id="stop18124" style="stop-color:#eeffaa;stop-opacity:0" offset="1"/>
    </linearGradient>
    <linearGradient id="linearGradient10874" y2="326.03" gradientUnits="userSpaceOnUse" x2="-35.191" gradientTransform="matrix(1.0023 0 0 1.0023 33.585 67.19)" y1="376.18" x1="-35.191" xlink:href="#linearGradient18081"/>
  </defs>
  <g id="g18599" transform="matrix(1.054726, 0, 0, 1.054726, 183.978389, -328.782983)">
    <g id="g18245" transform="translate(167.23 -15.203)">
      <path id="rect18247" style="fill:url(#linearGradient10854)" d="m-55.312 398.24h75v102.5h-75z"/>
      <path id="rect18249" style="fill:url(#linearGradient10856)" d="m-55.312 398.24h75v55.124h-75z"/>
      <path id="path18251" d="m-53.016 398.25v102.5h3.2188v-102.5h-3.2188zm6.0938 0v102.5h3.25v-102.5h-3.25zm6.125 0v102.5h3.2188v-102.5h-3.2188zm6.0938 0v102.5h3.25v-102.5h-3.25zm6.125 0v102.5h3.2188v-102.5h-3.2188zm6.0938 0v102.5h3.2187v-102.5h-3.2187zm6.125 0v102.5h3.2188v-102.5h-3.2188zm6.0938 0v102.5h3.2187v-102.5h-3.2187zm6.0937 0v102.5h3.25v-102.5h-3.25zm6.125 0v102.5h3.2188v-102.5h-3.2188zm6.0938 0v102.5h3.25v-102.5h-3.25zm6.125 0v102.5h3.2188v-102.5h-3.2188z" style="opacity:.27876;fill:#ffffff"/>
      <path id="rect18253" style="fill:#ffffff" d="m-55.312 451.28h75v27.37h-75z"/>
      <path id="path18255" d="m-55.312 398.66h75l2-7.9854h-79z" style="fill:url(#linearGradient10858)"/>
      <path id="path18257" style="fill:url(#linearGradient10860)" d="m-55.312 500.33h75l2 7.9854h-79z"/>
      <g id="g18259" transform="translate(34.734 15.91)">
        <g id="g18261" transform="translate(0 .0000057220)">
          <path id="rect18263" style="opacity:.60177;fill:url(#linearGradient10862)" d="m-90.047 435.37h75v27.37h-75z"/>
          <g id="text18265" style="fill:#f6ffd5" transform="scale(1.063 .94073)">
            <path id="path13130" style="fill:#f6ffd5" d="m-68.27 471.55-0.94742 1.9037c-0.51356-0.51355-1.34-0.77032-2.4792-0.77033-1.0802 0.00001-1.9657 0.45306-2.6563 1.3591-0.69064 0.9061-1.036 2.0527-1.036 3.4399-0.000003 1.3872 0.32023 2.4881 0.9607 3.3027 0.64046 0.8146 1.4949 1.2219 2.5633 1.2219 1.2219 0 2.1782-0.43681 2.8688-1.3104l1.0714 1.8594c-0.93857 0.99759-2.3139 1.4964-4.1261 1.4964s-3.22-0.59619-4.2235-1.7886-1.5052-2.8186-1.5052-4.8787c0-1.9184 0.55635-3.5226 1.669-4.8123 1.1127-1.2898 2.5368-1.9347 4.2722-1.9347 1.4875 0.00001 2.677 0.30401 3.5683 0.912z"/>
            <path id="path13132" style="fill:#f6ffd5" d="m-58.504 483.83-0.94742-2.6297h-4.4449l-0.90314 2.6297h-2.5589l5.1709-13.149h1.0094l5.2152 13.149zm-3.1787-9.182-1.5584 4.7902h3.1167z"/>
            <path id="path13134" style="fill:#f6ffd5" d="m-46.09 484.01-6.2954-8.208v8.0398h-2.2136v-12.98h1.1068l6.1272 7.8272v-7.8272h2.2136v13.149z"/>
            <path id="path13136" style="fill:#f6ffd5" d="m-39.609 483.83h-2.8777v-12.963c1.8358-0.0649 2.9898-0.0974 3.4621-0.0974 1.8889 0.00001 3.3868 0.55341 4.4936 1.6602s1.6602 2.5752 1.6602 4.405c-0.000011 4.6633-2.2461 6.9949-6.7382 6.9949zm-0.57553-10.953v8.8544c0.37188 0.0354 0.77328 0.0531 1.2042 0.0531 1.1629 0 2.0734-0.42206 2.7316-1.2662 0.65816-0.84411 0.98725-2.0247 0.98726-3.5417-0.000009-2.7744-1.2898-4.1615-3.8694-4.1616-0.24793 0.00001-0.59915 0.0207-1.0537 0.062z"/>
            <path id="path13138" style="fill:#f6ffd5" d="m-25.442 478.51v5.3215h-2.3021v-5.3215l-4.374-7.6502h2.4438l3.0725 5.534 3.0813-5.534h2.4349z"/>
          </g>
        </g>
        <g id="g18269">
          <path id="rect18271" style="fill:url(#linearGradient10864)" d="m-90.047 435.37h75v2.6212h-75z"/>
          <path id="rect18273" style="fill:url(#linearGradient10866)" d="m-90.047 460.12h75v4.7425h-75z"/>
        </g>
      </g>
      <g id="g18275">
        <path id="path18277" d="m-17.812 440.83c-8.1507 0-14.748-6.5969-14.748-14.748 0-8.1507 6.5969-14.748 14.748-14.748 8.1507 0 14.748 6.5969 14.748 14.748 0 8.1507-6.5969 14.748-14.748 14.748zm0-7.2427c4.1446 0 7.5048-3.3602 7.5048-7.5048s-3.3602-7.5048-7.5048-7.5048-7.5048 3.3602-7.5048 7.5048 3.3602 7.5048 7.5048 7.5048z" style="fill:url(#linearGradient10868)"/>
        <path id="path18279" d="m-17.812 445.42c-10.691 0-19.344-8.6528-19.344-19.344s8.6529-19.344 19.344-19.344 19.344 8.6529 19.344 19.344-8.6529 19.344-19.344 19.344zm0-2.0312c9.5673 0 17.312-7.7452 17.312-17.312 0-9.5673-7.7452-17.312-17.312-17.312-9.5673 0-17.312 7.7452-17.312 17.312 0 9.5673 7.7452 17.312 17.312 17.312z" style="stroke:url(#linearGradient10872);stroke-width:.2;fill:url(#linearGradient10870)"/>
        <path id="path18281" d="m-17.812 407.65c-10.177 0-18.428 8.2503-18.428 18.428 0 10.177 8.2503 18.428 18.428 18.428 10.177 0 18.428-8.2503 18.428-18.428 0-10.177-8.2503-18.428-18.428-18.428zm0 9.2905c5.0505 0 9.1372 4.0867 9.1372 9.1372s-4.0867 9.1372-9.1372 9.1372-9.1372-4.0867-9.1372-9.1372 4.0867-9.1372 9.1372-9.1372z" style="fill:url(#linearGradient10874)"/>
      </g>
    </g>
    <path id="rect18307" style="opacity:.23894;fill:#502d16" transform="translate(0 52.362)" d="m111.91 336.31v117.66h60.844l-2-8v-46.969-54.719l2-7.9688h-60.844z"/>
    <g id="g18141" transform="translate(148.85)">
      <path id="rect17938" style="fill:url(#linearGradient10854)" d="m-55.312 398.24h75v102.5h-75z"/>
      <path id="rect17940" style="fill:url(#linearGradient10856)" d="m-55.312 398.24h75v55.124h-75z"/>
      <path id="path17942" style="opacity:.27876;fill:#ffffff" d="m-53.016 398.25v102.5h3.2188v-102.5h-3.2188zm6.0938 0v102.5h3.25v-102.5h-3.25zm6.125 0v102.5h3.2188v-102.5h-3.2188zm6.0938 0v102.5h3.25v-102.5h-3.25zm6.125 0v102.5h3.2188v-102.5h-3.2188zm6.0938 0v102.5h3.2187v-102.5h-3.2187zm6.125 0v102.5h3.2188v-102.5h-3.2188zm6.0938 0v102.5h3.2187v-102.5h-3.2187zm6.0937 0v102.5h3.25v-102.5h-3.25zm6.125 0v102.5h3.2188v-102.5h-3.2188zm6.0938 0v102.5h3.25v-102.5h-3.25zm6.125 0v102.5h3.2188v-102.5h-3.2188z"/>
      <path id="rect17944" style="fill:#ffffff" d="m-55.312 451.28h75v27.37h-75z"/>
      <path id="path17946" style="fill:url(#linearGradient10858)" d="m-55.312 398.66h75l2-7.9854h-79z"/>
      <path id="path17948" d="m-55.312 500.33h75l2 7.9854h-79z" style="fill:url(#linearGradient10860)"/>
      <g id="g17950" transform="translate(34.734 15.91)">
        <g id="g17952" transform="translate(0 .0000057220)">
          <path id="rect17954" style="opacity:.60177;fill:url(#linearGradient10862)" d="m-90.047 435.37h75v27.37h-75z"/>
          <g id="text17956" style="fill:#f6ffd5" transform="scale(1.063 .94073)">
            <path id="path13147" style="fill:#f6ffd5" d="m-68.27 471.55-0.94742 1.9037c-0.51356-0.51355-1.34-0.77032-2.4792-0.77033-1.0802 0.00001-1.9657 0.45306-2.6563 1.3591-0.69064 0.9061-1.036 2.0527-1.036 3.4399-0.000003 1.3872 0.32023 2.4881 0.9607 3.3027 0.64046 0.8146 1.4949 1.2219 2.5633 1.2219 1.2219 0 2.1782-0.43681 2.8688-1.3104l1.0714 1.8594c-0.93857 0.99759-2.3139 1.4964-4.1261 1.4964s-3.22-0.59619-4.2235-1.7886-1.5052-2.8186-1.5052-4.8787c0-1.9184 0.55635-3.5226 1.669-4.8123 1.1127-1.2898 2.5368-1.9347 4.2722-1.9347 1.4875 0.00001 2.677 0.30401 3.5683 0.912z"/>
            <path id="path13149" style="fill:#f6ffd5" d="m-58.504 483.83-0.94742-2.6297h-4.4449l-0.90314 2.6297h-2.5589l5.1709-13.149h1.0094l5.2152 13.149zm-3.1787-9.182-1.5584 4.7902h3.1167z"/>
            <path id="path13151" style="fill:#f6ffd5" d="m-46.09 484.01-6.2954-8.208v8.0398h-2.2136v-12.98h1.1068l6.1272 7.8272v-7.8272h2.2136v13.149z"/>
            <path id="path13153" style="fill:#f6ffd5" d="m-39.609 483.83h-2.8777v-12.963c1.8358-0.0649 2.9898-0.0974 3.4621-0.0974 1.8889 0.00001 3.3868 0.55341 4.4936 1.6602s1.6602 2.5752 1.6602 4.405c-0.000011 4.6633-2.2461 6.9949-6.7382 6.9949zm-0.57553-10.953v8.8544c0.37188 0.0354 0.77328 0.0531 1.2042 0.0531 1.1629 0 2.0734-0.42206 2.7316-1.2662 0.65816-0.84411 0.98725-2.0247 0.98726-3.5417-0.000009-2.7744-1.2898-4.1615-3.8694-4.1616-0.24793 0.00001-0.59915 0.0207-1.0537 0.062z"/>
            <path id="path13155" style="fill:#f6ffd5" d="m-25.442 478.51v5.3215h-2.3021v-5.3215l-4.374-7.6502h2.4438l3.0725 5.534 3.0813-5.534h2.4349z"/>
          </g>
        </g>
        <g id="g17960">
          <path id="rect17962" style="fill:url(#linearGradient10864)" d="m-90.047 435.37h75v2.6212h-75z"/>
          <path id="rect17964" style="fill:url(#linearGradient10866)" d="m-90.047 460.12h75v4.7425h-75z"/>
        </g>
      </g>
      <g id="g18130">
        <path id="path17968" style="fill:url(#linearGradient10868)" d="m-17.812 440.83c-8.1507 0-14.748-6.5969-14.748-14.748 0-8.1507 6.5969-14.748 14.748-14.748 8.1507 0 14.748 6.5969 14.748 14.748 0 8.1507-6.5969 14.748-14.748 14.748zm0-7.2427c4.1446 0 7.5048-3.3602 7.5048-7.5048s-3.3602-7.5048-7.5048-7.5048-7.5048 3.3602-7.5048 7.5048 3.3602 7.5048 7.5048 7.5048z"/>
        <path id="path18068" style="stroke:url(#linearGradient10872);stroke-width:.2;fill:url(#linearGradient10870)" d="m-17.812 445.42c-10.691 0-19.344-8.6528-19.344-19.344s8.6529-19.344 19.344-19.344 19.344 8.6529 19.344 19.344-8.6529 19.344-19.344 19.344zm0-2.0312c9.5673 0 17.312-7.7452 17.312-17.312 0-9.5673-7.7452-17.312-17.312-17.312-9.5673 0-17.312 7.7452-17.312 17.312 0 9.5673 7.7452 17.312 17.312 17.312z"/>
        <path id="path18089" style="fill:url(#linearGradient10874)" d="m-17.812 407.65c-10.177 0-18.428 8.2503-18.428 18.428 0 10.177 8.2503 18.428 18.428 18.428 10.177 0 18.428-8.2503 18.428-18.428 0-10.177-8.2503-18.428-18.428-18.428zm0 9.2905c5.0505 0 9.1372 4.0867 9.1372 9.1372s-4.0867 9.1372-9.1372 9.1372-9.1372-4.0867-9.1372-9.1372 4.0867-9.1372 9.1372-9.1372z"/>
      </g>
    </g>
  </g>
</svg>