<?xml version="1.0" encoding="utf-8"?>
<svg viewBox="385.493 56.433 83.323 150.914" width="83.323" height="150.914" xmlns="http://www.w3.org/2000/svg" xmlns:xlink="http://www.w3.org/1999/xlink">
  <defs>
    <linearGradient id="linearGradient10898" y2="399.58" gradientUnits="userSpaceOnUse" x2="386.3" gradientTransform="translate(-455.55 -28.696)" y1="541.89" x1="386.3" xlink:href="#linearGradient17519"/>
    <linearGradient id="linearGradient17519">
      <stop id="stop17521" style="stop-color:#d40000" offset="0"/>
      <stop id="stop17523" style="stop-color:#ff80b2" offset="0.4432"/>
      <stop id="stop17525" style="stop-color:#ffffff" offset="1"/>
    </linearGradient>
    <linearGradient id="linearGradient10900" y2="389.06" gradientUnits="userSpaceOnUse" x2="386.3" gradientTransform="matrix(1 0 0 .53779 -455.55 155.89)" y1="541.89" x1="386.3" xlink:href="#linearGradient17519"/>
    <linearGradient id="linearGradient10902" y2="336.99" gradientUnits="userSpaceOnUse" x2="-51.884" gradientTransform="matrix(.68733 0 0 .68733 -16.062 158.41)" y1="411.42" x1="-51.884" xlink:href="#linearGradient17438"/>
    <linearGradient id="linearGradient17438">
      <stop id="stop17440" style="stop-color:#d40000" offset="0"/>
      <stop id="stop17455" style="stop-color:#e94059" offset="0.5"/>
      <stop id="stop17442" style="stop-color:#ff80b2" offset="1"/>
    </linearGradient>
    <linearGradient id="linearGradient10904" y2="352.01" gradientUnits="userSpaceOnUse" x2="-51.603" y1="375.6" x1="-51.603" xlink:href="#linearGradient17438"/>
    <linearGradient id="linearGradient10906" y2="-390.16" gradientUnits="userSpaceOnUse" x2="385.41" gradientTransform="matrix(1 0 0 -1 -455.55 -28.284)" y1="-402.72" x1="385.41" xlink:href="#linearGradient17457"/>
    <linearGradient id="linearGradient17457">
      <stop id="stop17459" style="stop-color:#d40000" offset="0"/>
      <stop id="stop17461" style="stop-color:#ff80b2" offset="0.4337"/>
      <stop id="stop17463" style="stop-color:#ffffff" offset="1"/>
    </linearGradient>
    <linearGradient id="linearGradient10908" y2="-402.23" gradientUnits="userSpaceOnUse" x2="380.82" gradientTransform="translate(-455.55 872.12)" y1="-389.31" x1="380.82" xlink:href="#linearGradient17457"/>
    <linearGradient id="linearGradient10910" y2="421.36" gradientUnits="userSpaceOnUse" x2="-83.969" gradientTransform="matrix(1 0 0 1.3253 0 -145.12)" y1="469.46" x1="-83.969" xlink:href="#linearGradient17655"/>
    <linearGradient id="linearGradient17655">
      <stop id="stop17657" style="stop-color:#d40050" offset="0"/>
      <stop id="stop17659" style="stop-color:#ff80b2" offset="0.5585"/>
      <stop id="stop17661" style="stop-color:#ffffff" offset="1"/>
    </linearGradient>
    <linearGradient id="linearGradient10912" y2="434.48" gradientUnits="userSpaceOnUse" x2="-31.113" y1="454.44" x1="-31.113" xlink:href="#linearGradient17645"/>
    <linearGradient id="linearGradient17645">
      <stop id="stop17647" style="stop-color:#d40000" offset="0"/>
      <stop id="stop17649" style="stop-color:#ff80b2" offset="0.8666"/>
      <stop id="stop17651" style="stop-color:#ffffff" offset="1"/>
    </linearGradient>
    <linearGradient id="linearGradient10914" y2="458.2" gradientUnits="userSpaceOnUse" x2="-52.326" y1="471.99" x1="-52.326" xlink:href="#linearGradient17635"/>
    <linearGradient id="linearGradient17635">
      <stop id="stop17637" style="stop-color:#d40000" offset="0"/>
      <stop id="stop17639" style="stop-color:#ff80b2" offset="0.6948"/>
      <stop id="stop17641" style="stop-color:#ffffff" offset="1"/>
    </linearGradient>
    <linearGradient id="linearGradient10918" y2="336.99" gradientUnits="userSpaceOnUse" x2="-51.884" gradientTransform="matrix(1.0529 0 0 1.0529 544.54 -1.9121)" y1="411.42" x1="-51.884" xlink:href="#linearGradient17438"/>
    <linearGradient id="linearGradient10920" y2="367.83" gradientUnits="userSpaceOnUse" x2="-49.724" gradientTransform="matrix(1.0529 0 0 1.0529 544.54 -1.9122)" y1="337.26" x1="-49.724" xlink:href="#linearGradient17438"/>
  </defs>
  <g id="g20413" transform="matrix(1.0286, 0, 0, 1.0286, -107.376098, -316.908825)">
    <g id="g18498" transform="matrix(1.0254 0 0 1.0254 573.55 -9.3557)">
      <g id="g18500">
        <path id="rect18502" style="fill:url(#linearGradient10898)" d="m-90.047 370.67h75v102.5h-75z"/>
        <path id="rect18504" style="fill:url(#linearGradient10900)" d="m-90.047 370.67h75v55.124h-75z"/>
        <path id="path18506" style="opacity:.27876;fill:#ffffff" d="m-87.75 318.31v102.5h3.2188v-102.5h-3.2188zm6.0938 0v102.5h3.25v-102.5h-3.25zm6.125 0v102.5h3.2188v-102.5h-3.2188zm6.0938 0v102.5h3.25v-102.5h-3.25zm6.125 0v102.5h3.2188v-102.5h-3.2188zm6.0938 0v102.5h3.2188v-102.5h-3.2188zm6.125 0v102.5h3.2188v-102.5h-3.2188zm6.0938 0v102.5h3.2188v-102.5h-3.2188zm6.0938 0v102.5h3.25v-102.5h-3.25zm6.125 0v102.5h3.2188v-102.5h-3.2188zm6.0938 0v102.5h3.25v-102.5h-3.25zm6.125 0v102.5h3.2188v-102.5h-3.2188z" transform="translate(0 52.362)"/>
        <g id="g18508" transform="matrix(1.5319 0 0 1.5319 26.053 -221.17)">
          <path id="path18510" style="fill:#ffffff" d="m-48.16 392.77c-6.4846-1.7375-13.152 2.1228-14.89 8.6074-1.7375 6.4846 2.1101 13.149 8.5947 14.886 6.4846 1.7375 13.149-2.1101 14.886-8.5947 1.7375-6.4846-2.1067-13.162-8.5912-14.899zm-0.80247-0.0103c0.07433 0.0164 0.14292 0.0376 0.21647 0.058-0.05732 0.0133-0.116 0.0201-0.17328 0.0355-2.6208 0.70225-4.2629 3.2399-3.9039 5.8598-0.30697 0.0806-0.61167 0.17758-0.90051 0.30463-0.86868-1.6375-0.61588-3.7114 0.76357-5.0908 1.0854-1.0854 2.6029-1.4752 3.9977-1.1671zm3.5051 1.6898c0.84156 0.17389 1.6104 0.60951 2.2115 1.2204-0.05546-0.0168-0.10574-0.042-0.16213-0.0571-2.6146-0.70057-5.2901 0.68008-6.2945 3.1175-0.01695-0.005-0.03391-0.009-0.05094-0.0137-0.30743-0.0824-0.60499-0.12956-0.91184-0.16244 0.06501-1.8553 1.3374-3.5302 3.2241-4.0357 0.67398-0.18059 1.3446-0.20104 1.9838-0.069zm-9.4974-1.3302c-0.03871 0.0365-0.08538 0.0656-0.12326 0.10346-1.9178 1.9178-2.0699 4.9414-0.45084 7.0308-0.22486 0.2225-0.44043 0.46021-0.62926 0.71851-1.5758-0.97918-2.3887-2.9024-1.8829-4.79 0.41727-1.5573 1.6315-2.6813 3.0862-3.0627zm11.987 4.6722c1.5613 0.41835 2.6969 1.6299 3.0755 3.0896-0.03889-0.0414-0.07572-0.0862-0.11619-0.12667-1.9158-1.9158-4.9289-2.061-7.018-0.44744-0.22173-0.22528-0.46098-0.43986-0.71851-0.62926 0.97968-1.574 2.8907-2.3918 4.7772-1.8863zm-17.194-1.3317c-0.01679 0.0555-0.04198 0.10575-0.05709 0.16213-0.70191 2.6196 0.68067 5.3107 3.1268 6.3107-0.0035 0.0127-0.0068 0.0254-0.01024 0.0382-0.08121 0.30308-0.12594 0.59655-0.15902 0.8991-1.8618-0.0581-3.5449-1.3226-4.0519-3.2148-0.41835-1.5613 0.07657-3.1376 1.1514-4.1953zm17.617 5.3073c0.66996 0.19829 1.3076 0.56377 1.8363 1.0926 1.1447 1.1446 1.5106 2.7718 1.1057 4.2269-0.01337-0.0573-0.02011-0.11601-0.03546-0.17328-0.70117-2.6168-3.2315-4.2528-5.8471-3.9005-0.08109-0.31268-0.18815-0.60996-0.31736-0.90392 1.0094-0.54046 2.1793-0.66097 3.2579-0.34172zm-1.9268 3.5235c1.4946 0.35915 2.7456 1.4989 3.1714 3.088 0.41835 1.5613-0.07998 3.1504-1.1548 4.208 0.01679-0.0555 0.04198-0.10574 0.05709-0.16212 0.70057-2.6146-0.68007-5.2901-3.1175-6.2945 0.0048-0.0173 0.009-0.0335 0.01364-0.0509 0.07986-0.29806 0.13846-0.59812 0.17176-0.89569 0.29294 0.0103 0.57948 0.0401 0.8584 0.10718zm-18.536-3.3018c0.01153 0.0482 0.01662 0.0962 0.02955 0.1444 0.70268 2.6224 3.2416 4.2528 5.8632 3.8912 0.0804 0.30974 0.18972 0.61253 0.31736 0.90392-1.6408 0.88221-3.7263 0.64253-5.1104-0.74152-1.1381-1.1381-1.4935-2.7494-1.0998-4.198zm16.536 6.0822c1.5858 0.97794 2.4153 2.9049 1.9083 4.7968-0.41835 1.5613-1.6427 2.6935-3.1024 3.072 0.04142-0.0389 0.0862-0.0757 0.12667-0.11618 1.9178-1.9178 2.0699-4.9414 0.45084-7.0308 0.22496-0.22141 0.42735-0.46481 0.61653-0.72192zm-2.431 1.9417c0.88222 1.6408 0.64253 3.7263-0.74152 5.1104-1.1414 1.1414-2.7588 1.4958-4.2107 1.0964 0.05217-0.0123 0.105-0.0122 0.15713-0.0262 2.6208-0.70225 4.2629-3.2399 3.9039-5.8598 0.30922-0.0803 0.60025-0.19342 0.89118-0.32078zm-6.6714-1.2826c0.22609 0.2299 0.46451 0.45289 0.72783 0.6454-0.98229 1.575-2.9151 2.3852-4.8027 1.8794-1.5573-0.41728-2.6813-1.6315-3.0627-3.0862 0.03722 0.0395 0.0648 0.0846 0.10345 0.12325 1.9203 1.9203 4.9445 2.0638 7.0342 0.43812zm3.6095 1.7587c-0.06036 1.8576-1.3107 3.5367-3.1986 4.0426-1.5613 0.41835-3.1504-0.08-4.208-1.1548 0.05546 0.0168 0.10575 0.042 0.16213 0.0571 2.6196 0.70191 5.3107-0.68066 6.3107-3.1268 0.013 0.003 0.02516 0.007 0.0382 0.0102 0.29806 0.0799 0.59812 0.13845 0.89569 0.17175z"/>
          <path id="path18512" d="m-51.309 391.89c-6.9789 0-12.63 5.6508-12.63 12.63 0 6.9789 5.6508 12.63 12.63 12.63 6.9789 0 12.63-5.6508 12.63-12.63 0-6.9789-5.6508-12.63-12.63-12.63zm-0.70881 0.75177c-2.3498 1.3566-3.2802 4.2208-2.2553 6.6586-0.27565 0.15731-0.54862 0.3395-0.79473 0.53698-1.2629-1.3568-1.5554-3.4226-0.57994-5.112 0.54608-0.94583 1.4046-1.6069 2.3627-1.9331 0.4154-0.0694 0.8385-0.12518 1.2673-0.15036zm3.7589 0.64438c0.41329-0.024 0.82494 0.0119 1.2243 0.10739 0.01512 0.003 0.02787 0.0177 0.04296 0.0215 0.35025 0.13624 0.67626 0.30503 1.0095 0.47254-2.7068 0-4.9445 2.0252-5.2839 4.6395-0.01759-0.00015-0.02534 0-0.04296 0-0.31827 0-0.61871 0.0168-0.9236 0.0644-0.41738-1.8089 0.37046-3.7488 2.062-4.7254 0.60427-0.34888 1.26-0.54208 1.9116-0.57994zm-9.6227 1.3102c-1.3561 2.3488-0.70853 5.2957 1.3961 6.8948-0.15961 0.27312-0.31404 0.56081-0.42958 0.85917-1.7755-0.53797-3.05-2.1912-3.05-4.1455 0-1.1586 0.46164-2.1891 1.2028-2.9641 0.28202-0.22672 0.57839-0.44367 0.88065-0.64437zm12.888 1.2673c1.128 0 2.1504 0.43454 2.9212 1.1384 0.25083 0.30794 0.48928 0.6342 0.70881 0.96657-2.3463-1.3546-5.2945-0.72458-6.8948 1.3747-0.27248-0.16022-0.56139-0.29182-0.85917-0.40811 0.53891-1.774 2.1709-3.0715 4.124-3.0715zm-16.969 3.3508c0.01053 2.7025 2.0462 4.952 4.661 5.2839-0.000085 0.0132 0 0.008 0 0.0214 0 0.31378 0.01809 0.62281 0.06444 0.92361-1.8134 0.42573-3.7674-0.36549-4.7469-2.062-0.56573-0.97988-0.68297-2.0737-0.45106-3.093 0.14067-0.36971 0.29717-0.72293 0.47254-1.074zm17.978 0.38663c0.13929-0.0102 0.28902-0.003 0.42958 0 0.69845 0.0181 1.4144 0.20602 2.062 0.57993 0.94588 0.54611 1.5866 1.4036 1.9116 2.3627 0.0682 0.40853 0.12485 0.82431 0.15035 1.2458-1.3608-2.3266-4.2109-3.2473-6.6371-2.2338-0.15925-0.28104-0.35757-0.52275-0.55846-0.77325 0.73074-0.68539 1.6669-1.11 2.6419-1.1814zm-0.5155 3.9092c1.5366-0.0399 3.0222 0.72313 3.8448 2.1479 0.55796 0.96642 0.6913 2.0601 0.47254 3.0715-0.14324 0.37839-0.293 0.75805-0.47254 1.1169 0-2.7068-2.0252-4.923-4.6395-5.2624 0.000159-0.0179 0-0.0465 0-0.0644 0-0.30856-0.01958-0.60607-0.06444-0.90212 0.28564-0.0659 0.5724-0.1 0.85917-0.1074zm-18.687 1.7613c1.3637 2.3316 4.2291 3.2363 6.6585 2.2124 0.15783 0.27837 0.33827 0.54631 0.53698 0.79473-1.3566 1.2768-3.4384 1.5801-5.1335 0.60142-0.9761-0.56355-1.6238-1.452-1.9331-2.4486-0.0613-0.38037-0.10449-0.76835-0.12888-1.1599zm17.463 1.4391c1.7849 0.53418 3.093 2.1654 3.093 4.124 0 1.1006-0.41799 2.1141-1.0954 2.8782-0.31854 0.26288-0.66445 0.50114-1.0095 0.73029 1.3432-2.3461 0.70342-5.2781-1.3961-6.8733 0.15999-0.27209 0.29192-0.56185 0.4081-0.85917zm-1.8472 2.4916c1.2768 1.3566 1.5801 3.4384 0.60142 5.1335-0.55671 0.96426-1.4238 1.619-2.4057 1.9331-0.39462 0.0644-0.79619 0.10427-1.2028 0.12887 2.331-1.3627 3.255-4.2296 2.2338-6.6585 0.27791-0.15757 0.52519-0.33867 0.77325-0.53698zm-6.7659 0.49402c0.27789 0.16355 0.55499 0.31178 0.85917 0.42958-0.54119 1.7755-2.1913 3.0715-4.1455 3.0715-1.1296 0-2.1523-0.45137-2.9212-1.1599-0.24498-0.30076-0.47218-0.62099-0.68733-0.94508 2.3492 1.3454 5.3009 0.71007 6.8948-1.3962zm3.9307 0.77325c0.42248 1.8099-0.34786 3.7482-2.0405 4.7254-0.95599 0.55194-2.0263 0.68129-3.0286 0.47254-0.39184-0.14653-0.76737-0.30866-1.1384-0.49402 2.702-0.011 4.9305-2.025 5.2624-4.6395 0.01349 0.00009 0.02945 0 0.04296 0 0.30857 0 0.60607-0.0196 0.90213-0.0644z" style="fill:url(#linearGradient10902)"/>
          <path id="path18514" style="fill:url(#linearGradient10904)" transform="matrix(.68733 0 0 .68733 -18.108 157.49)" d="m-41.366 359.41c0 3.832-3.1065 6.9385-6.9385 6.9385s-6.9385-3.1065-6.9385-6.9385 3.1065-6.9385 6.9385-6.9385 6.9385 3.1065 6.9385 6.9385z"/>
        </g>
        <path id="rect18516" style="fill:#ffffff" d="m-90.047 423.7h75v27.37h-75z"/>
        <path id="path18518" style="fill:url(#linearGradient10906)" d="m-90.047 371.08h75l2-7.9854h-79z"/>
        <path id="path18520" d="m-90.047 472.75h75l2 7.9854h-79z" style="fill:url(#linearGradient10908)"/>
        <g id="g18522" transform="translate(0 -11.667)">
          <g id="g18524" transform="translate(0 .0000057220)">
            <path id="rect18526" style="opacity:.60177;fill:url(#linearGradient10910)" d="m-90.047 435.37h75v27.37h-75z"/>
            <g id="text18528" style="fill:#ffffff" transform="scale(1.063 .94073)">
              <path id="path13165" style="fill:#ffffff" d="m-68.27 471.55-0.94742 1.9037c-0.51356-0.51355-1.34-0.77032-2.4792-0.77033-1.0802 0.00001-1.9657 0.45306-2.6563 1.3591-0.69064 0.9061-1.036 2.0527-1.036 3.4399-0.000003 1.3872 0.32023 2.4881 0.9607 3.3027 0.64046 0.8146 1.4949 1.2219 2.5633 1.2219 1.2219 0 2.1782-0.43681 2.8688-1.3104l1.0714 1.8594c-0.93857 0.99759-2.3139 1.4964-4.1261 1.4964s-3.22-0.59619-4.2235-1.7886-1.5052-2.8186-1.5052-4.8787c0-1.9184 0.55635-3.5226 1.669-4.8123 1.1127-1.2898 2.5368-1.9347 4.2722-1.9347 1.4875 0.00001 2.677 0.30401 3.5683 0.912z"/>
              <path id="path13167" style="fill:#ffffff" d="m-58.504 483.83-0.94742-2.6297h-4.4449l-0.90314 2.6297h-2.5589l5.1709-13.149h1.0094l5.2152 13.149zm-3.1787-9.182-1.5584 4.7902h3.1167z"/>
              <path id="path13169" style="fill:#ffffff" d="m-46.09 484.01-6.2954-8.208v8.0398h-2.2136v-12.98h1.1068l6.1272 7.8272v-7.8272h2.2136v13.149z"/>
              <path id="path13171" style="fill:#ffffff" d="m-39.609 483.83h-2.8777v-12.963c1.8358-0.0649 2.9898-0.0974 3.4621-0.0974 1.8889 0.00001 3.3868 0.55341 4.4936 1.6602s1.6602 2.5752 1.6602 4.405c-0.000011 4.6633-2.2461 6.9949-6.7382 6.9949zm-0.57553-10.953v8.8544c0.37188 0.0354 0.77328 0.0531 1.2042 0.0531 1.1629 0 2.0734-0.42206 2.7316-1.2662 0.65816-0.84411 0.98725-2.0247 0.98726-3.5417-0.000009-2.7744-1.2898-4.1615-3.8694-4.1616-0.24793 0.00001-0.59915 0.0207-1.0537 0.062z"/>
              <path id="path13173" style="fill:#ffffff" d="m-25.442 478.51v5.3215h-2.3021v-5.3215l-4.374-7.6502h2.4438l3.0725 5.534 3.0813-5.534h2.4349z"/>
            </g>
          </g>
          <g id="g18532">
            <path id="rect18534" style="fill:url(#linearGradient10912)" d="m-90.047 435.37h75v2.6212h-75z"/>
            <path id="rect18536" style="fill:url(#linearGradient10914)" d="m-90.047 460.12h75v4.7425h-75z"/>
          </g>
        </g>
      </g>
    </g>
    <path id="path18455" style="opacity:.23894;fill:#502d16" d="m481.22 334.66v56.125h76.906v-56.125z" transform="translate(0 52.362)"/>
    <g id="g17702" transform="matrix(1.0254 0 0 1.0254 573.55 16.733)">
      <g id="g17704">
        <path id="rect17706" style="fill:url(#linearGradient10898)" d="m-90.047 370.67h75v102.5h-75z"/>
        <path id="path17710" d="m-87.75 318.31v102.5h3.2188v-102.5h-3.2188zm6.0938 0v102.5h3.25v-102.5h-3.25zm6.125 0v102.5h3.2188v-102.5h-3.2188zm6.0938 0v102.5h3.25v-102.5h-3.25zm6.125 0v102.5h3.2188v-102.5h-3.2188zm6.0938 0v102.5h3.2188v-102.5h-3.2188zm6.125 0v102.5h3.2188v-102.5h-3.2188zm6.0938 0v102.5h3.2188v-102.5h-3.2188zm6.0938 0v102.5h3.25v-102.5h-3.25zm6.125 0v102.5h3.2188v-102.5h-3.2188zm6.0938 0v102.5h3.25v-102.5h-3.25zm6.125 0v102.5h3.2188v-102.5h-3.2188z" style="opacity:.27876;fill:#ffffff" transform="translate(0 52.362)"/>
        <g id="g17712" transform="matrix(1.5319 0 0 1.5319 26.053 -221.17)">
          <path id="path17714" style="fill:#ffffff" d="m489.81 356.47c-7.9328 0.32004-15.087 5.7414-17.25 13.812-2.6617 9.9336 3.2226 20.151 13.156 22.812 9.9336 2.6617 20.151-3.2226 22.812-13.156 2.6617-9.9336-3.2226-20.182-13.156-22.844-1.8626-0.49907-3.7319-0.69885-5.5625-0.625zm2.7188 0.46875c0.54437-0.0156 1.0908 0.0383 1.625 0.15625 0.11386 0.0251 0.19982 0.0625 0.3125 0.0937-0.0878 0.0204-0.16226 0.008-0.25 0.0312-4.0148 1.0758-6.5499 4.9866-6 9-0.47024 0.12347-0.93253 0.24287-1.375 0.4375-1.3307-2.5084-0.92565-5.6681 1.1875-7.7812 1.2471-1.2471 2.8669-1.8908 4.5-1.9375zm-7.5625 0.6875c-0.0593 0.0559-0.12948 0.0983-0.1875 0.15625-2.9379 2.9379-3.1678 7.5806-0.6875 10.781-0.34446 0.34084-0.67948 0.69807-0.96875 1.0938-2.4139-1.5-3.6498-4.4521-2.875-7.3438 0.63921-2.3856 2.4903-4.1032 4.7188-4.6875zm13.03 1.93c0.50827-0.0171 1.0104 0.0239 1.5 0.125 1.2892 0.26638 2.4854 0.90797 3.4062 1.8438-0.085-0.0257-0.16363-0.0394-0.25-0.0625-4.0052-1.0732-8.1176 1.0162-9.6562 4.75-0.026-0.008-0.0364 0.007-0.0625 0-0.47094-0.12623-0.9362-0.19963-1.4062-0.25 0.0996-2.8421 2.0473-5.4131 4.9375-6.1875 0.51623-0.13832 1.023-0.20162 1.5312-0.21875zm-21 3.1875c-0.0257 0.085-0.0706 0.16363-0.0937 0.25-1.0752 4.0128 1.0341 8.1245 4.7812 9.6562-0.005 0.0195 0.005 0.0429 0 0.0625-0.1244 0.46428-0.19932 0.91153-0.25 1.375-2.852-0.089-5.4421-2.0076-6.2188-4.9062-0.64086-2.3917 0.1347-4.8172 1.7812-6.4375zm24.188 1.8438c0.7043-0.0462 1.4025-0.006 2.125 0.1875 2.3917 0.64086 4.1388 2.5139 4.7188 4.75-0.0596-0.0634-0.12551-0.1255-0.1875-0.1875-2.9347-2.9347-7.5498-3.1592-10.75-0.6875-0.33966-0.3451-0.69924-0.67861-1.0938-0.96875 1.1256-1.8084 3.0746-2.9551 5.1875-3.0938zm-10.625 3.1875c4.0348 0 7.2812 3.2777 7.2812 7.3125s-3.2465 7.3125-7.2812 7.3125c-4.0348 0-7.3125-3.2777-7.3125-7.3125s3.2777-7.3125 7.3125-7.3125zm11.5 2.8438c0.6386-0.004 1.2866 0.0666 1.9062 0.25 1.0263 0.30376 2.0025 0.87746 2.8125 1.6875 1.7535 1.7535 2.3078 4.2397 1.6875 6.4688-0.0205-0.0878-0.008-0.16227-0.0312-0.25-1.0741-4.0086-4.9619-6.5396-8.9688-6-0.12422-0.47899-0.30206-0.92469-0.5-1.375 0.96643-0.51745 2.0294-0.7738 3.0938-0.78125zm-29.438 0.59375c0.0177 0.0738 0.0114 0.14491 0.0312 0.21875 1.0764 4.0173 4.984 6.5227 9 5.9688 0.12316 0.47448 0.27322 0.92863 0.46875 1.375-2.5135 1.3514-5.6923 0.9952-7.8125-1.125-1.7434-1.7434-2.2907-4.2184-1.6875-6.4375zm27.094 4.9062c0.44875 0.0158 0.88522 0.0535 1.3125 0.15625 2.2895 0.55017 4.1915 2.2844 4.8438 4.7188 0.64086 2.3917-0.10344 4.8485-1.75 6.4688 0.0257-0.085 0.0394-0.16363 0.0625-0.25 1.0732-4.0052-1.0162-8.1176-4.75-9.6562 0.007-0.0265-0.007-0.0358 0-0.0625 0.12234-0.45659 0.23024-0.91916 0.28125-1.375zm-1.75 4.4062c2.4293 1.4981 3.6828 4.4456 2.9062 7.3438-0.64086 2.3917-2.5139 4.1389-4.75 4.7188 0.0634-0.0596 0.12551-0.12549 0.1875-0.1875 2.9379-2.9379 3.1678-7.5494 0.6875-10.75 0.34461-0.33917 0.67896-0.73114 0.96875-1.125zm-24.875 0.15625c0.057 0.0605 0.097 0.12829 0.15625 0.1875 2.9416 2.9416 7.549 3.1779 10.75 0.6875 0.34634 0.35218 0.72162 0.67385 1.125 0.96875-1.5048 2.4126-4.4521 3.6498-7.3438 2.875-2.3856-0.63922-4.1032-2.4903-4.6875-4.7188zm21.125 2.8125c1.3514 2.5135 0.99519 5.7236-1.125 7.8438-1.7485 1.7485-4.2133 2.2994-6.4375 1.6875 0.0799-0.0188 0.13889-0.041 0.21875-0.0625 4.0148-1.0758 6.5499-4.9554 6-8.9688 0.47369-0.12301 0.89807-0.3049 1.3438-0.5zm-6.0938 0.46875c0.0199 0.005 0.0113-0.005 0.0312 0 0.45659 0.1224 0.91916 0.23024 1.375 0.28125-0.0925 2.8456-1.9829 5.4126-4.875 6.1875-2.3917 0.64086-4.8485-0.13471-6.4688-1.7812 0.085 0.0257 0.16363 0.0706 0.25 0.0937 4.0128 1.0752 8.1557-1.0341 9.6875-4.7812z" transform="matrix(.65279 0 0 .65279 -371.54 159.66)"/>
          <path id="path17716" style="fill:url(#linearGradient10918)" d="m490.56 355.75c-10.691 0-19.375 8.6528-19.375 19.344s8.6841 19.344 19.375 19.344 19.344-8.6529 19.344-19.344-8.6529-19.344-19.344-19.344zm-1.0938 1.1562c-3.5996 2.0782-5.0387 6.4532-3.4688 10.188-0.42226 0.24098-0.84173 0.54123-1.2188 0.84375-1.9346-2.0785-2.3692-5.2557-0.875-7.8438 0.83653-1.4489 2.1574-2.469 3.625-2.9688 0.63634-0.10631 1.2807-0.18018 1.9375-0.21875zm5.75 0.96875c0.63312-0.0368 1.2632 0.0412 1.875 0.1875 0.0232 0.005 0.0394 0.0254 0.0625 0.0312 0.53653 0.2087 1.052 0.46214 1.5625 0.71875-4.1465 0-7.5739 3.0889-8.0938 7.0938-0.0269-0.00023-0.0355 0-0.0625 0-0.48756 0-0.97043 0.0208-1.4375 0.0937-0.63937-2.771 0.56501-5.7227 3.1562-7.2188 0.92567-0.53444 1.9393-0.84825 2.9375-0.90625zm-14.75 2.0312c-2.0774 3.5981-1.0679 8.1129 2.1562 10.562-0.24451 0.41839-0.47924 0.85545-0.65625 1.3125-2.7199-0.82411-4.6875-3.3501-4.6875-6.3438 0-1.7749 0.70833-3.3752 1.8438-4.5625 0.43202-0.34731 0.88073-0.6613 1.3438-0.96875zm19.75 1.9375c1.728 0 3.288 0.67179 4.4688 1.75 0.38424 0.47173 0.75745 0.9596 1.0938 1.4688-3.5943-2.0752-8.1111-1.122-10.562 2.0938-0.41741-0.24544-0.85634-0.44686-1.3125-0.625 0.82554-2.7175 3.3205-4.6875 6.3125-4.6875zm-26 5.125c0.0161 4.1398 3.1507 7.5853 7.1562 8.0938-0.00013 0.0202 0 0.0107 0 0.0312 0 0.48067 0.0227 0.94546 0.0937 1.4062-2.7779 0.65217-5.7808-0.5574-7.2812-3.1562-0.86663-1.5011-1.0428-3.1572-0.6875-4.7188 0.21549-0.56635 0.4501-1.1185 0.71875-1.6562zm27.562 0.59375c0.21338-0.0156 0.44093-0.005 0.65625 0 1.07 0.0277 2.1642 0.30221 3.1562 0.875 1.449 0.83657 2.4083 2.1558 2.9062 3.625 0.10447 0.62582 0.21094 1.2606 0.25 1.9062-2.0846-3.5641-6.471-4.9587-10.188-3.4062-0.24396-0.43052-0.53601-0.80376-0.84375-1.1875 1.1194-1.0499 2.5688-1.7032 4.0625-1.8125zm-11.219 0.21875c4.0348 0 7.2812 3.2777 7.2812 7.3125s-3.2465 7.3125-7.2812 7.3125c-4.0348 0-7.3125-3.2777-7.3125-7.3125s3.2777-7.3125 7.3125-7.3125zm10.406 5.7812c2.3539-0.0611 4.6461 1.0987 5.9062 3.2812 0.85473 1.4804 1.0538 3.1381 0.71875 4.6875-0.21943 0.57965-0.44371 1.169-0.71875 1.7188 0-4.1465-3.1202-7.5426-7.125-8.0625 0.00024-0.0274 0-0.0663 0-0.0937 0-0.47268-0.025-0.92149-0.0937-1.375 0.43756-0.10095 0.8732-0.14491 1.3125-0.15625zm-28.625 2.6875c2.0891 3.5717 6.4971 4.9436 10.219 3.375 0.24178 0.42643 0.5081 0.8382 0.8125 1.2188-2.0781 1.956-5.2783 2.4367-7.875 0.9375-1.4953-0.86329-2.4636-2.2232-2.9375-3.75-0.0939-0.58268-0.1814-1.1815-0.21875-1.7812zm26.75 2.1875c2.7343 0.8183 4.75 3.3434 4.75 6.3438 0 1.6861-0.64973 3.2357-1.6875 4.4062-0.48797 0.4027-1.0026 0.77397-1.5312 1.125 2.0576-3.5939 1.06-8.0876-2.1562-10.531 0.24508-0.41681 0.44702-0.88829 0.625-1.3438zm-2.8125 3.8438c1.9559 2.0781 2.4054 5.2471 0.90625 7.8438-0.85282 1.4771-2.1834 2.4875-3.6875 2.9688-0.60452 0.0987-1.2208 0.14982-1.8438 0.1875 3.5708-2.0875 5.0017-6.4667 3.4375-10.188 0.42573-0.24138 0.8075-0.50871 1.1875-0.8125zm-10.375 0.75c0.42569 0.25054 0.84654 0.47579 1.3125 0.65625-0.82904 2.7199-3.3501 4.6875-6.3438 4.6875-1.7304 0-3.2909-0.66465-4.4688-1.75-0.37528-0.46073-0.73291-0.97228-1.0625-1.4688 3.5987 2.0609 8.1208 1.1015 10.562-2.125zm6.0312 1.1875c0.64718 2.7726-0.53204 5.7217-3.125 7.2188-1.4645 0.84551-3.1209 1.0698-4.6562 0.75-0.60025-0.22447-1.1816-0.4973-1.75-0.78125 4.1392-0.0168 7.5541-3.0887 8.0625-7.0938 0.0207 0.00014 0.0731 0 0.0937 0 0.4727 0 0.92148-0.0251 1.375-0.0937z" transform="matrix(.65279 0 0 .65279 -371.54 159.66)"/>
          <path id="path19743" style="fill:url(#linearGradient10920)" d="m490.56 367.03c-4.4528 0-8.0625 3.6097-8.0625 8.0625s3.6097 8.0625 8.0625 8.0625 8.0625-3.6097 8.0625-8.0625-3.6097-8.0625-8.0625-8.0625zm0 0.75c4.0348 0 7.2812 3.2777 7.2812 7.3125s-3.2465 7.3125-7.2812 7.3125c-4.0348 0-7.3125-3.2777-7.3125-7.3125s3.2777-7.3125 7.3125-7.3125z" transform="matrix(.65279 0 0 .65279 -371.54 159.66)"/>
        </g>
        <path id="rect17720" style="fill:#ffffff" d="m-90.047 423.7h75v27.37h-75z"/>
        <path id="path17722" d="m-90.047 371.08h75l2-7.9854h-79z" style="fill:url(#linearGradient10906)"/>
        <path id="path17724" style="fill:url(#linearGradient10908)" d="m-90.047 472.75h75l2 7.9854h-79z"/>
        <g id="g17726" transform="translate(0 -11.667)">
          <g id="g17728" transform="translate(0 .0000057220)">
            <path id="rect17730" style="opacity:.60177;fill:url(#linearGradient10910)" d="m-90.047 435.37h75v27.37h-75z"/>
            <g id="text17732" style="fill:#ffffff" transform="scale(1.063 .94073)">
              <path id="path13181" style="fill:#ffffff" d="m-68.27 471.55-0.94742 1.9037c-0.51356-0.51355-1.34-0.77032-2.4792-0.77033-1.0802 0.00001-1.9657 0.45306-2.6563 1.3591-0.69064 0.9061-1.036 2.0527-1.036 3.4399-0.000003 1.3872 0.32023 2.4881 0.9607 3.3027 0.64046 0.8146 1.4949 1.2219 2.5633 1.2219 1.2219 0 2.1782-0.43681 2.8688-1.3104l1.0714 1.8594c-0.93857 0.99759-2.3139 1.4964-4.1261 1.4964s-3.22-0.59619-4.2235-1.7886-1.5052-2.8186-1.5052-4.8787c0-1.9184 0.55635-3.5226 1.669-4.8123 1.1127-1.2898 2.5368-1.9347 4.2722-1.9347 1.4875 0.00001 2.677 0.30401 3.5683 0.912z"/>
              <path id="path13183" style="fill:#ffffff" d="m-58.504 483.83-0.94742-2.6297h-4.4449l-0.90314 2.6297h-2.5589l5.1709-13.149h1.0094l5.2152 13.149zm-3.1787-9.182-1.5584 4.7902h3.1167z"/>
              <path id="path13185" style="fill:#ffffff" d="m-46.09 484.01-6.2954-8.208v8.0398h-2.2136v-12.98h1.1068l6.1272 7.8272v-7.8272h2.2136v13.149z"/>
              <path id="path13187" style="fill:#ffffff" d="m-39.609 483.83h-2.8777v-12.963c1.8358-0.0649 2.9898-0.0974 3.4621-0.0974 1.8889 0.00001 3.3868 0.55341 4.4936 1.6602s1.6602 2.5752 1.6602 4.405c-0.000011 4.6633-2.2461 6.9949-6.7382 6.9949zm-0.57553-10.953v8.8544c0.37188 0.0354 0.77328 0.0531 1.2042 0.0531 1.1629 0 2.0734-0.42206 2.7316-1.2662 0.65816-0.84411 0.98725-2.0247 0.98726-3.5417-0.000009-2.7744-1.2898-4.1615-3.8694-4.1616-0.24793 0.00001-0.59915 0.0207-1.0537 0.062z"/>
              <path id="path13189" style="fill:#ffffff" d="m-25.442 478.51v5.3215h-2.3021v-5.3215l-4.374-7.6502h2.4438l3.0725 5.534 3.0813-5.534h2.4349z"/>
            </g>
          </g>
          <g id="g17736">
            <path id="rect17738" style="fill:url(#linearGradient10912)" d="m-90.047 435.37h75v2.6212h-75z"/>
            <path id="rect17740" style="fill:url(#linearGradient10914)" d="m-90.047 460.12h75v4.7425h-75z"/>
          </g>
        </g>
      </g>
    </g>
  </g>
</svg>