<svg id="Layer_1" height="512" viewBox="0 0 55 55" width="512" xmlns="http://www.w3.org/2000/svg" data-name="Layer 1" stroke-width="2" stroke="#333" fill="#fff">
    <path d="m30.1 8.39a5.64 5.64 0 1 1 5.64 5.61 5.65 5.65 0 0 1 -5.64-5.61z" />
    <path
        d="m47.5 29.73a2.65 2.65 0 0 1 -2.37 1.48 2.5 2.5 0 0 1 -1.13-.29l-6.47-3.19a2.64 2.64 0 0 1 -1.1-1l-2.43-4.12-3.37 7.81 4.72 7.28a3.21 3.21 0 0 1 .52 1.76v9.54a3.26 3.26 0 0 1 -1.15 2.49 3.31 3.31 0 0 1 -2.12.77 2.62 2.62 0 0 1 -.55 0 3.35 3.35 0 0 1 -2.69-3.34v-8.48l-3.8-5.86a6.2 6.2 0 0 1 -1.36 0l-2.2 4.65a3.29 3.29 0 0 1 -.9 1.13l-8.5 7a3.31 3.31 0 0 1 -2.07.73 3.25 3.25 0 0 1 -2.53-1.25 3.2 3.2 0 0 1 -.72-2.38 3.28 3.28 0 0 1 1.19-2.21l8-6.48 2.92-6.15a5.81 5.81 0 0 1 .41-3.05l3.81-8.84-2.55 1-3.54 8a2.63 2.63 0 0 1 -4.8-2.15l4-9a2.54 2.54 0 0 1 1.58-1.44l6.86-2.55a5 5 0 0 1 4.15.32.77.77 0 0 1 .37.51 4.27 4.27 0 0 0 4.18 3.44 4 4 0 0 0 1.16-.16.73.73 0 0 1 .68.14 7.49 7.49 0 0 1 1.71 2l3.2 5.48 5.79 2.85a2.65 2.65 0 0 1 1.1 3.56z" />
</svg>
