<svg xmlns="http://www.w3.org/2000/svg" transform="rotate(180)" width="19" height="19" viewBox="0 0 19 19" fill="none">
    <path d="M9.375 18C4.687 18 0.875 14.187 0.875 9.5C0.875 4.812 4.687 1 9.375 1C14.062 1 17.875 4.812 17.875 9.5C17.875 14.187 14.062 18 9.375 18ZM9.375 2.114C5.303 2.114 1.99 5.428 1.99 9.5C1.99 13.572 5.302 16.885 9.375 16.885C13.448 16.885 16.76 13.572 16.76 9.5C16.76 5.428 13.447 2.114 9.375 2.114Z" fill="#1F2937"/>
    <path fill-rule="evenodd" clip-rule="evenodd" d="M6.89628 12.752C6.69124 12.957 6.35881 12.957 6.15378 12.752C5.94874 12.5469 5.94874 12.2145 6.15378 12.0095L9.15395 9.00931L9.5252 8.63806L9.89645 9.00931L12.8966 12.0095C13.1017 12.2145 13.1017 12.5469 12.8966 12.752C12.6916 12.957 12.3591 12.957 12.1541 12.752L9.5252 10.1231L6.89628 12.752ZM6.89628 9.37112C6.69124 9.57616 6.35881 9.57616 6.15378 9.37112C5.94874 9.16609 5.94874 8.83366 6.15378 8.62862L9.15395 5.62845L9.5252 5.2572L9.89645 5.62845L12.8966 8.62862C13.1017 8.83366 13.1017 9.16609 12.8966 9.37112C12.6916 9.57616 12.3591 9.57616 12.1541 9.37112L9.5252 6.74221L6.89628 9.37112Z" fill="#1F2937"/>
</svg>
