<?xml version="1.0" encoding="utf-8"?>
<svg viewBox="384.009 265.945 39.043 75.834" width="39.043" height="75.834" xmlns="http://www.w3.org/2000/svg" xmlns:xlink="http://www.w3.org/1999/xlink">
  <defs>
    <linearGradient id="linearGradient10323" y2="658.11" gradientUnits="userSpaceOnUse" x2="81.25" gradientTransform="matrix(.98221 0 0 1 1.3631 0)" y1="717" x1="81.25" xlink:href="#linearGradient64228"/>
    <linearGradient id="linearGradient64228">
      <stop id="stop64230" style="stop-color:#aa0000" offset="0"/>
      <stop id="stop64232" style="stop-color:#d85d96" offset="1"/>
    </linearGradient>
    <linearGradient id="linearGradient10325" y2="595.97" gradientUnits="userSpaceOnUse" x2="66.998" gradientTransform="matrix(1.0193 0 0 1 -1.8003 52.539)" y1="597.66" x1="66.998" xlink:href="#linearGradient77583"/>
    <linearGradient id="linearGradient77583">
      <stop id="stop77585" style="stop-color:#cccccc" offset="0"/>
      <stop id="stop77587" style="stop-color:#ffffff" offset="1"/>
    </linearGradient>
    <linearGradient id="linearGradient10327" y2="672.34" gradientUnits="userSpaceOnUse" x2="67.882" gradientTransform="matrix(.98221 0 0 1 1.3631 52.362)" y1="666.6" x1="67.882" xlink:href="#linearGradient77621"/>
    <linearGradient id="linearGradient77621">
      <stop id="stop77623" style="stop-color:#ffffff" offset="0"/>
      <stop id="stop77625" style="stop-color:#b3b3b3" offset="1"/>
    </linearGradient>
  </defs>
  <g id="g77907" transform="matrix(1, 0, 0, 1, 326.905081, -382.835022)">
    <path id="path77909" style="fill:url(#linearGradient10323)" d="m60.112 650.36c-1.6719 0-3.008 1.3321-3.008 2.9688v29.125 1.6875 35.656c0 2.665 1.3361 4.8125 3.008 4.8125h33.027c1.6719 0 3.008-2.1475 3.008-4.8125v-35.656-1.6875-29.125c0-1.6367-1.3361-2.9688-3.008-2.9688h-33.027z"/>
    <path id="path77911" style="opacity:.40265;fill:#f4d7d7" d="m73.873 653.09c0.46412 0 0.84174 0.40054 0.84174 0.90649 0 0.50594-0.37762 0.93887-0.84174 0.93887-0.46419 0-0.84174-0.43293-0.84174-0.93887 0-0.50595 0.37756-0.90649 0.84174-0.90649zm-5.3146 2.3423c0.46417 0 0.84174 0.40056 0.84174 0.90649 0 0.50596-0.37757 0.93887-0.84174 0.93887-0.46413 0-0.84174-0.43291-0.84174-0.93887 0-0.50593 0.37756-0.90649 0.84174-0.90649zm24.644-3.6804c0.46423 0 0.84174 0.43292 0.84174 0.93886 0 0.50595-0.37752 0.9065-0.84174 0.9065-0.46412 0-0.83814-0.49417-0.84174-0.9065-0.0037-0.4203 0.37756-0.93886 0.84174-0.93886zm0.20144 18.854c0.46412 0 0.84174 0.43291 0.84174 0.93887 0 0.50594-0.37762 0.90649-0.84174 0.90649-0.46418 0-0.84174-0.40055-0.84174-0.90649 0-0.50596 0.37752-0.93887 0.84174-0.93887zm-13.381-19.38c0.46418 0 0.84174 0.40055 0.84174 0.90649 0 0.50595-0.37756 0.93887-0.84174 0.93887-0.46413 0-0.84174-0.43292-0.84174-0.93887 0-0.50594 0.37762-0.90649 0.84174-0.90649zm5.18 1.5864c0.46428 0 0.84174 0.40056 0.84174 0.9065s-0.37746 0.93886-0.84174 0.93886c-0.46403 0-0.84174-0.43292-0.84174-0.93886s0.37766-0.9065 0.84174-0.9065zm-23.928-0.4661c0.46418 0 0.84174 0.40055 0.84174 0.9065 0 0.50594-0.37757 0.93886-0.84174 0.93886-0.46413 0-0.84174-0.43292-0.84174-0.93886 0-0.50595 0.37761-0.9065 0.84174-0.9065zm3.3022 15.525c0.46413 0 0.84174 0.40055 0.84174 0.90649 0 0.50596-0.37762 0.90649-0.84174 0.90649-0.46418 0-0.84174-0.40053-0.84174-0.90649 0-0.50594 0.37756-0.90649 0.84174-0.90649zm10.188-8.9231c0.46418 0 0.84174 0.43293 0.84174 0.93887 0 0.50595-0.37757 0.90649-0.84174 0.90649-0.46412 0-0.84174-0.40054-0.84174-0.90649 0-0.50594 0.37762-0.93887 0.84174-0.93887zm19.988-1.5062c0.46417 0 0.84174 0.43294 0.84174 0.93887 0 0.50595-0.37757 0.90649-0.84174 0.90649-0.46413 0-0.84174-0.40054-0.84174-0.90649 0-0.50593 0.37762-0.93887 0.84174-0.93887zm-13.862-0.50463c0.46413 0 0.87412 0.43292 0.87412 0.93886s-0.40994 0.9065-0.87412 0.9065c-0.46412 0-0.80937-0.40056-0.80937-0.9065s0.3452-0.93886 0.80937-0.93886zm8.3902 2.868c0.46417 0 0.84174 0.43292 0.84174 0.93887 0 0.50594-0.37757 0.90649-0.84174 0.90649-0.46418 0-0.84174-0.40055-0.84174-0.90649 0-0.50595 0.37757-0.93887 0.84174-0.93887zm-19.425 2.4928c0.46423 0 0.80937 0.40055 0.80937 0.9065 0 0.50594-0.34514 0.93886-0.80937 0.93886-0.46408 0-0.84174-0.43292-0.84174-0.93886 0-0.50595 0.37767-0.9065 0.84174-0.9065zm21.821 2.2339c0.46417 0 0.84174 0.36817 0.84174 0.87412s-0.37752 0.93887-0.84174 0.93887c-0.46413 0-0.84174-0.43292-0.84174-0.93887s0.37762-0.87412 0.84174-0.87412zm-33.281 0.19425c0.46417 0 0.84174 0.43291 0.84174 0.93887 0 0.50594-0.37757 0.90649-0.84174 0.90649-0.46418 0-0.84174-0.40055-0.84174-0.90649 0-0.50596 0.37752-0.93887 0.84174-0.93887zm5.4127-3.8444c0.46423 0 0.84174 0.43292 0.84174 0.93886s-0.37751 0.9065-0.84174 0.9065c-0.46413 0-0.80937-0.40056-0.80937-0.9065s0.34519-0.93886 0.80937-0.93886zm23.917 10.657c0.46418 0 0.84174 0.40057 0.84174 0.9065 0 0.50594-0.37757 0.93886-0.84174 0.93886-0.46413 0-0.80937-0.43292-0.80937-0.93886 0-0.50593 0.34524-0.9065 0.80937-0.9065zm-18.337-1.0889c0.46407 0 0.84174 0.40053 0.84174 0.90649 0 0.50594-0.37762 0.90649-0.84174 0.90649-0.46423 0-0.84174-0.40055-0.84174-0.90649 0-0.50596 0.37752-0.90649 0.84174-0.90649zm-6.6454 5.7527c0.46418 0 0.84174 0.40056 0.84174 0.90649 0 0.50595-0.37757 0.9065-0.84174 0.9065-0.46418 0-0.84174-0.40055-0.84174-0.9065 0-0.50593 0.37757-0.90649 0.84174-0.90649zm28.951 2.0002c0.46418 0 0.84174 0.36818 0.84174 0.87412 0 0.50595-0.37757 0.93887-0.84174 0.93887-0.46412 0-0.84174-0.43292-0.84174-0.93887 0-0.50594 0.37762-0.87412 0.84174-0.87412zm-12.846-0.24c0.46407 0 0.84174 0.43292 0.84174 0.93887s-0.37767 0.90649-0.84174 0.90649c-0.46413 0-0.84174-0.40054-0.84174-0.90649s0.37762-0.93887 0.84174-0.93887zm5.7904-3.6892c0.46414 0 0.84174 0.40055 0.84174 0.9065 0 0.50593-0.37756 0.93886-0.84174 0.93886-0.46417 0-0.84174-0.43293-0.84174-0.93886 0-0.50595 0.37757-0.9065 0.84174-0.9065zm-16.304 11.11c0.46413 0 0.80937 0.40054 0.80937 0.90649s-0.34518 0.90649-0.80937 0.90649c-0.46418 0-0.84174-0.40054-0.84174-0.90649s0.37757-0.90649 0.84174-0.90649zm7.0577 2.8166c0.46412 0 0.80937 0.43292 0.80937 0.93887 0 0.50594-0.34524 0.90649-0.80937 0.90649-0.46409 0-0.87412-0.40055-0.87412-0.90649 0-0.50595 0.41003-0.93887 0.87412-0.93887zm14.464-1.9009c0.46419 0 0.84174 0.40056 0.84174 0.90649 0 0.50595-0.37756 0.93887-0.84174 0.93887-0.46407 0-0.84174-0.43292-0.84174-0.93887 0-0.50593 0.37762-0.90649 0.84174-0.90649zm-6.1435 2.5807c0.46402 0 0.84174 0.40056 0.84174 0.90649 0 0.50596-0.37767 0.93887-0.84174 0.93887-0.46424 0-0.84174-0.43291-0.84174-0.93887 0-0.50593 0.37751-0.90649 0.84174-0.90649zm-25.141 2.8973c0.46413 0 0.84174 0.40054 0.84174 0.90649 0 0.50593-0.37762 0.90649-0.84174 0.90649-0.46407 0-0.84174-0.40056-0.84174-0.90649 0-0.50595 0.37762-0.90649 0.84174-0.90649zm5.4657 2.6707c0.46418 0 0.84174 0.40055 0.84174 0.90649 0 0.50596-0.37757 0.93887-0.84174 0.93887-0.46412 0-0.84174-0.43291-0.84174-0.93887 0-0.50594 0.37762-0.90649 0.84174-0.90649zm6.0459-2.2658c0.46422 0 0.84174 0.43292 0.84174 0.93887s-0.37752 0.90649-0.84174 0.90649c-0.46402 0-0.84174-0.40054-0.84174-0.90649s0.37767-0.93887 0.84174-0.93887zm23.18 0.87412c0.46413 0 0.84174 0.40055 0.84174 0.90649 0 0.50595-0.37757 0.9065-0.84174 0.9065-0.46422 0-0.84174-0.40055-0.84174-0.9065 0-0.50594 0.37752-0.90649 0.84174-0.90649zm-31.941-11.32c0.46412 0 0.84174 0.40054 0.84174 0.90649s-0.37756 0.90649-0.84174 0.90649-0.84174-0.40054-0.84174-0.90649 0.37757-0.90649 0.84174-0.90649zm23.232 13.01c0.46412 0 0.84174 0.40054 0.84174 0.90649 0 0.50596-0.37762 0.93887-0.84174 0.93887-0.46419 0-0.84174-0.43291-0.84174-0.93887 0-0.50595 0.37756-0.90649 0.84174-0.90649zm-21.029 16.47c0.46418 0 0.84174 0.40053 0.84174 0.9065 0 0.50592-0.37757 0.90649-0.84174 0.90649-0.46413 0-0.84174-0.40057-0.84174-0.90649 0-0.50597 0.37761-0.9065 0.84174-0.9065zm-2.756-9.0588c0.46412 0 0.84174 0.40053 0.84174 0.90649 0 0.50594-0.37762 0.90649-0.84174 0.90649-0.46419 0-0.84174-0.40055-0.84174-0.90649 0-0.50596 0.37756-0.90649 0.84174-0.90649zm5.4811 2.8993c0.46423 0 0.84174 0.40054 0.84174 0.90649s-0.37752 0.93887-0.84174 0.93887c-0.46408 0-0.84174-0.43292-0.84174-0.93887s0.37766-0.90649 0.84174-0.90649zm23.063-1.5422c0.46418 0 0.84174 0.40055 0.84174 0.9065 0 0.50594-0.37756 0.90649-0.84174 0.90649s-0.84174-0.40055-0.84174-0.90649c0-0.50595 0.37756-0.9065 0.84174-0.9065zm-6.8958 2.6871c0.46422 0 0.84174 0.40054 0.84174 0.90649s-0.37752 0.90649-0.84174 0.90649c-0.46408 0-0.80937-0.40054-0.80937-0.90649s0.34524-0.90649 0.80937-0.90649zm11.473 0.89158c0.46417 0 0.84174 0.40055 0.84174 0.90649 0 0.50593-0.37757 0.93887-0.84174 0.93887-0.46413 0-0.84174-0.43294-0.84174-0.93887 0-0.50594 0.37762-0.90649 0.84174-0.90649zm-18.401 4.6445c0.46428 0 0.84174 0.40054 0.84174 0.90649 0 0.50596-0.37747 0.93887-0.84174 0.93887-0.46408 0-0.84174-0.43291-0.84174-0.93887 0-0.50595 0.37761-0.90649 0.84174-0.90649zm17.524-0.27236c0.46408 0 0.80937 0.43293 0.80937 0.93886 0 0.50594-0.34524 0.9065-0.80937 0.9065-0.46423 0-0.87412-0.40056-0.87412-0.9065 0-0.50593 0.40988-0.93886 0.87412-0.93886zm-23.991 3.3048c0.46423 0 0.84174 0.40055 0.84174 0.9065 0 0.50594-0.37752 0.90649-0.84174 0.90649-0.46412 0-0.80937-0.40055-0.80937-0.90649 0-0.50595 0.34519-0.9065 0.80937-0.9065zm-10.066 2.738c0.46418 0 0.84174 0.40055 0.84174 0.90649 0 0.50595-0.37757 0.90649-0.84174 0.90649-0.46407 0-0.80937-0.40054-0.80937-0.90649 0-0.50594 0.3453-0.90649 0.80937-0.90649zm31.536-0.52c0.46419 0 0.84174 0.43294 0.84174 0.93887 0 0.50596-0.37756 0.90649-0.84174 0.90649-0.46412 0-0.84174-0.40053-0.84174-0.90649 0-0.50593 0.37762-0.93887 0.84174-0.93887zm-7.07-1.1136c0.46412 0 0.84174 0.36818 0.84174 0.87412 0 0.50595-0.37757 0.93887-0.84174 0.93887-0.46413 0-0.80937-0.43292-0.80937-0.93887 0-0.50594 0.34519-0.87412 0.80937-0.87412z"/>
    <path id="rect77913" style="fill:#ffffff" transform="translate(0 52.362)" d="m86.75 597.62h1v70.5h-1z"/>
    <path id="rect77915" style="fill:url(#linearGradient10325)" d="m58.72 648.78h35.809c0.43734 0 0.78941 0.3548 0.78941 0.7955s-0.35208 0.7955-0.78941 0.7955h-35.809c-0.43734 0-0.78941-0.3548-0.78941-0.7955s0.35208-0.7955 0.78941-0.7955z"/>
    <path id="path77917" style="fill:url(#linearGradient10327)" d="m57.104 718.52v1.2812c0 2.665 1.3361 4.8125 3.008 4.8125h33.027c1.6719 0 3.008-2.1475 3.008-4.8125v-1.2812h-39.043z"/>
    <g id="text77919" style="fill:#ffffff" transform="rotate(-90)">
      <path id="path78098" style="fill:#ffffff" d="m-706.49 83.004 0.8899-2.1599c0.9517 0.66743 1.888 1.0011 2.8088 1.0011 1.4152 0.000002 2.1228-0.49439 2.1228-1.4832-0.00001-0.46349-0.16687-0.90535-0.50057-1.3256-0.33372-0.42023-1.0212-0.89144-2.0625-1.4136-1.0413-0.52219-1.7427-0.95169-2.1042-1.2885-0.36153-0.3368-0.63962-0.73694-0.83428-1.2004-0.19467-0.46348-0.292-0.97641-0.292-1.5388 0-1.0506 0.38469-1.9219 1.1541-2.6141 0.76939-0.69213 1.7566-1.0382 2.9617-1.0382 1.5697 0.000013 2.7222 0.29356 3.4576 0.88063l-0.73232 2.0764c-0.84665-0.60562-1.7396-0.90843-2.679-0.90844-0.55619 0.000011-0.98724 0.14678-1.2931 0.44032-0.30591 0.29356-0.45886 0.67516-0.45885 1.1448-0.00001 0.77867 0.86208 1.5882 2.5863 2.4287 0.90844 0.44496 1.5635 0.85437 1.9652 1.2282 0.40168 0.37389 0.70759 0.80957 0.91771 1.307 0.21011 0.49748 0.31517 1.0521 0.31518 1.6639-0.00001 1.1-0.43415 2.0054-1.3024 2.7161-0.86828 0.71069-2.0316 1.066-3.4901 1.066-1.2669 0-2.4102-0.32753-3.4298-0.9826z"/>
      <path id="path78100" style="fill:#ffffff" d="m-696.77 76.849c0-1.9343 0.52993-3.5704 1.5898-4.9084 1.0598-1.3379 2.4766-2.0069 4.2502-2.0069 1.9528 0.000014 3.4453 0.60564 4.4773 1.8169s1.548 2.9107 1.548 5.0984c-0.00001 2.1877-0.5392 3.9242-1.6176 5.2096s-2.6095 1.9281-4.5932 1.9281c-1.8231 0-3.2213-0.63653-4.1946-1.9096-0.97333-1.273-1.46-3.0158-1.46-5.2282zm2.5028 0c0 1.5882 0.26882 2.818 0.80647 3.6894 0.53765 0.87136 1.3194 1.307 2.3453 1.307 1.2051 0.000002 2.1243-0.42641 2.7578-1.2792 0.63343-0.85282 0.95015-2.0919 0.95016-3.7172-0.00001-3.1826-1.1742-4.7739-3.5225-4.774-1.0753 0.000012-1.9003 0.43106-2.475 1.2931-0.57473 0.8621-0.86209 2.0224-0.86209 3.4808z"/>
      <path id="path78102" style="fill:#ffffff" d="m-679.76 83.755h-3.0127v-13.571c1.9219-0.06796 3.1301-0.10195 3.6245-0.10197 1.9776 0.000013 3.5457 0.57938 4.7044 1.7381s1.7381 2.696 1.7381 4.6117c-0.00001 4.8821-2.3514 7.3231-7.0543 7.3231zm-0.60254-11.467v9.2698c0.38933 0.03708 0.80956 0.05562 1.2607 0.05562 1.2174 0.000002 2.1707-0.44186 2.8597-1.3256 0.68905-0.88372 1.0336-2.1197 1.0336-3.7079-0.00001-2.9045-1.3503-4.3568-4.0509-4.3568-0.25956 0.000011-0.62726 0.02164-1.1031 0.06489z"/>
      <path id="path78104" style="fill:#ffffff" d="m-662.65 83.755-0.99187-2.7531h-4.6534l-0.94552 2.7531h-2.679l5.4136-13.766h1.0568l5.4599 13.766zm-3.3279-9.6128-1.6315 5.015h3.263z"/>
    </g>
  </g>
</svg>