<?xml version="1.0" encoding="utf-8"?>
<svg viewBox="132.212 252.825 53.375 166.027" width="53.375" height="166.027" xmlns="http://www.w3.org/2000/svg" xmlns:xlink="http://www.w3.org/1999/xlink">
  <defs>
    <linearGradient id="linearGradient10503" y2="562.31" gradientUnits="userSpaceOnUse" x2="729.68" gradientTransform="translate(-5.1265)" y1="566.39" x1="729.68" xlink:href="#linearGradient8090"/>
    <linearGradient id="linearGradient8090">
      <stop id="stop8092" style="stop-color:#000000" offset="0"/>
      <stop id="stop8094" style="stop-color:#550000" offset="1"/>
    </linearGradient>
    <linearGradient id="linearGradient10505" y2="513.86" gradientUnits="userSpaceOnUse" x2="728.44" gradientTransform="matrix(.98611 0 0 1 4.9685 52.362)" y1="518.9" x1="728.44" xlink:href="#linearGradient8090"/>
    <linearGradient id="linearGradient10507" y2="551.4" gradientUnits="userSpaceOnUse" x2="741.74" y1="554.47" x1="741.74" xlink:href="#linearGradient7950"/>
    <linearGradient id="linearGradient7950">
      <stop id="stop7952" style="stop-color:#800000" offset="0"/>
      <stop id="stop7954" style="stop-color:#d35f5f" offset="1"/>
    </linearGradient>
    <linearGradient id="linearGradient10509" y2="553.4" gradientUnits="userSpaceOnUse" x2="741.7" y1="560.49" x1="741.7" xlink:href="#linearGradient7950"/>
    <linearGradient id="linearGradient10511" y2="553.62" gradientUnits="userSpaceOnUse" x2="743.77" y1="554.84" x1="743.77" xlink:href="#linearGradient7950"/>
    <linearGradient id="linearGradient10513" y2="553.1" gradientUnits="userSpaceOnUse" x2="1103" gradientTransform="matrix(1.1562 0 0 1.0018 -169.23 .27323)" y1="699.7" x1="1103" xlink:href="#linearGradient7950"/>
    <linearGradient id="linearGradient10515" y2="572.07" gradientUnits="userSpaceOnUse" x2="1090.1" gradientTransform="translate(2.6474 54.04)" y1="611.09" x1="1090.1" xlink:href="#linearGradient8090"/>
    <linearGradient id="linearGradient10481" y2="525.84" gradientUnits="userSpaceOnUse" x2="730.27" gradientTransform="matrix(1 0 0 1.1869 -5.3765 -44.262)" y1="519.51" x1="730.27" xlink:href="#linearGradient7978"/>
    <linearGradient id="linearGradient7978">
      <stop id="stop7980" style="stop-color:#ffffff" offset="0"/>
      <stop id="stop7982" style="stop-color:#cccccc" offset="1"/>
    </linearGradient>
    <linearGradient id="linearGradient10483" y2="517.69" gradientUnits="userSpaceOnUse" x2="725.88" gradientTransform="translate(-5.0953 52.362)" y1="517.06" x1="725.88" xlink:href="#linearGradient7978"/>
  </defs>
  <g id="g9497" transform="matrix(1.0495, 0, 0, 1.0184, -1003.687927, -295.414725)">
    <g id="g8096" transform="translate(318.5 -13.116)">
      <g id="g8020" transform="translate(67.544)">
        <path id="path8022" d="m721.72 554.99c-0.15141 0-0.29153 0.0406-0.40754 0.15625l-9.4362 9.4062h19.688l-9.4362-9.4062c-0.11601-0.11565-0.25613-0.15625-0.40754-0.15625z" style="fill:url(#linearGradient10503)"/>
        <path id="path8024" d="m712.32 564.36c-0.32958 0-0.5855 0.25953-0.5855 0.59375v4.5312h19.969v-4.5312c0-0.33422-0.25592-0.59375-0.5855-0.59375h-18.798z" style="fill:url(#linearGradient10505)"/>
      </g>
      <g id="g7922" style="fill:#ff6600" transform="translate(48.23 .15089)">
        <path id="path7924" style="fill:url(#linearGradient10507)" d="m740.19 551.3-4.9688 2.4375h11.625l-4.9688-2.4375c-0.26171 0.0806-0.54172 0.125-0.84375 0.125s-0.58204-0.0444-0.84375-0.125z"/>
        <path id="path7926" style="fill:url(#linearGradient10509)" d="m734.91 554.61v6h12.25v-6h-12.25z"/>
        <path id="rect7928" style="fill:url(#linearGradient10511)" d="m734.88 553.74h12.312c0.24238 0 0.4375 0.19513 0.4375 0.4375 0 0.24238-0.19512 0.4375-0.4375 0.4375h-12.312c-0.24238 0-0.4375-0.19512-0.4375-0.4375 0-0.24237 0.19512-0.4375 0.4375-0.4375z"/>
      </g>
    </g>
    <path id="path9293" d="m1107.8 560.41c-7.3119-0.025-11.319 5.8825-16.222 9.6422-4.0771 3.6549-9.7841 7.2349-9.105 12.961v115c0.064 3.6488 4.7609 3.4011 7.7682 3.2871 5.8518-0.0195 11.706-0.01 17.559 0 5.8536-0.01 11.708-0.0195 17.559 0 3.0073 0.11398 7.7044 0.36169 7.7681-3.2871v-115c0.6792-5.7257-5.0278-9.3057-9.1049-12.961-4.9034-3.7596-8.9106-9.6671-16.223-9.6422z" style="fill:url(#linearGradient10513)"/>
    <path id="path9295" d="m1082.4 621.15v41.375h50.656v-41.375h-50.656z" style="opacity:.80531;fill:url(#linearGradient10515)"/>
    <g id="g9313" transform="translate(386.05 -13.116)">
      <path id="rect9315" style="fill:url(#linearGradient10481)" d="m712.06 569.3h19.312v7.9375h-19.312z"/>
      <path id="rect9317" style="fill:url(#linearGradient10483)" d="m711.03 569.11h21.375c0.31163 0 0.5625 0.25088 0.5625 0.5625 0 0.31163-0.25087 0.5625-0.5625 0.5625h-21.375c-0.31162 0-0.5625-0.25087-0.5625-0.5625 0-0.31162 0.25088-0.5625 0.5625-0.5625z"/>
    </g>
    <path id="path9319" d="m1089.7 631.67c-0.7562 0.00001-1.361 0.22232-1.8438 0.70075-0.4827 0.47846-0.7187 1.0841-0.7187 1.8103 0 0.38874 0.065 0.75994 0.1875 1.0803 0.1222 0.3204 0.2731 0.58474 0.5 0.81755 0.2269 0.23282 0.6903 0.54418 1.3438 0.90514 0.6534 0.36097 1.0718 0.67305 1.2812 0.96353 0.2094 0.29049 0.3125 0.61395 0.3125 0.93434 0 0.68349-0.4245 1.0219-1.3125 1.0219-0.5778 0-1.1841-0.2394-1.7812-0.70075l-0.5626 1.4891c0.6399 0.45282 1.3613 0.67156 2.1563 0.67156 0.9152 0 1.6427-0.23869 2.1875-0.72995 0.5448-0.49127 0.8125-1.1083 0.8125-1.8687 0-0.42291-0.056-0.82404-0.1875-1.1679-0.1319-0.34389-0.3104-0.6467-0.5625-0.90514s-0.68-0.53917-1.25-0.84674c-1.0819-0.58097-1.625-1.126-1.625-1.6643 0-0.32466 0.089-0.58543 0.2813-0.78835 0.192-0.2029 0.4635-0.32117 0.8124-0.32118 0.5896 0.00001 1.1564 0.22373 1.6876 0.64236l0.4687-1.4307c-0.4615-0.40582-1.2025-0.61315-2.1875-0.61316zm14.188 0c-1.113 0.00001-2.0224 0.44746-2.6875 1.3723-0.6651 0.92486-1 2.0499-1 3.387 0 1.5293 0.3267 2.7406 0.9375 3.6206 0.6108 0.87999 1.481 1.3139 2.625 1.3139 1.2448 0 2.1983-0.42537 2.875-1.3139 0.6767-0.88855 1.0312-2.1083 1.0313-3.6206-0.0001-1.5122-0.3212-2.6665-0.9688-3.5038-0.6476-0.83726-1.5871-1.2555-2.8125-1.2555zm21.875 0c-0.7562 0.00001-1.3922 0.22232-1.875 0.70075-0.4828 0.47846-0.7188 1.0841-0.7187 1.8103-0.0001 0.38874 0.065 0.75994 0.1874 1.0803 0.1222 0.3204 0.3044 0.58474 0.5313 0.81755 0.2269 0.23282 0.6591 0.54418 1.3125 0.90514 0.6534 0.36097 1.0718 0.67305 1.2812 0.96353 0.2095 0.29049 0.3125 0.61395 0.3126 0.93434-0.0001 0.68349-0.4245 1.0219-1.3126 1.0219-0.5778 0-1.184-0.2394-1.7812-0.70075l-0.5312 1.4891c0.6398 0.45282 1.33 0.67156 2.125 0.67156 0.9151 0 1.6739-0.23869 2.2187-0.72995 0.5448-0.49127 0.8125-1.1083 0.8125-1.8687 0-0.42291-0.087-0.82404-0.2188-1.1679-0.1318-0.34389-0.3104-0.6467-0.5624-0.90514-0.2521-0.25844-0.68-0.53917-1.25-0.84674-1.082-0.58097-1.5938-1.126-1.5938-1.6643 0-0.32466 0.089-0.58543 0.2812-0.78835 0.192-0.2029 0.4635-0.32117 0.8126-0.32118 0.5894 0.00001 1.1249 0.22373 1.6562 0.64236l0.4688-1.4307c-0.4615-0.40582-1.1713-0.61315-2.1563-0.61316zm-14.406 0.0584c-0.349 0.00001-0.8049 0.0263-1.375 0.0584-0.57 0.0321-0.8834 0.0292-0.9687 0.0291v9.4018h1.5625v-3.9125c0.4111 0.0256 0.7087 0.0249 0.9375 0.0291l2.2813 3.8833h1.75l-2.5313-4.2337c0.4537-0.18796 0.8576-0.50644 1.1563-0.96353 0.2985-0.45708 0.4374-0.96296 0.4374-1.5183 0-1.8454-1.0861-2.7738-3.25-2.7738zm-15.969 0.0292c-0.1706 0.00001-0.773 0.0406-1.7813 0.0875v9.3726h1.5313v-3.4454c0.287 0.0299 0.5169 0.0291 0.6875 0.0291 2.3034 0 3.4375-1.0588 3.4375-3.2118 0-0.96543-0.3151-1.6765-0.9375-2.1314-0.6224-0.45494-1.5919-0.70075-2.9375-0.70076zm20.125 0.0584v1.4891h2.7187v7.9127h1.5v-7.9127h2.8438v-1.4891h-7.0625zm-11.625 1.3139c1.4736 0.00001 2.1875 1.0994 2.1875 3.2994 0 1.1235-0.1963 1.9799-0.5938 2.5694-0.3974 0.58952-0.9625 0.90514-1.7187 0.90514-0.6437 0-1.1314-0.30281-1.4687-0.90514-0.3374-0.60233-0.5001-1.4716-0.5-2.5694-0.0001-1.0082 0.1706-1.7983 0.5312-2.3942 0.3606-0.59591 0.8877-0.90513 1.5625-0.90514zm-8.3125 0.1168c1.4232 0.00001 2.1562 0.48593 2.1562 1.4599 0 0.57243-0.1507 0.97214-0.4687 1.2263-0.318 0.25418-0.841 0.37959-1.5313 0.37958-0.1473 0.00001-0.3378 0.00071-0.5937-0.0292v-3.0074c0.1474-0.0213 0.2785-0.0292 0.4375-0.0292zm15.5 0c0.6747 0.00001 1.1859 0.0791 1.5 0.26278 0.3141 0.1837 0.4687 0.50218 0.4688 0.96353-0.0001 0.56816-0.1448 0.94222-0.4376 1.1387-0.2927 0.19651-0.7741 0.32119-1.4062 0.32118-0.1474 0.00001-0.3458-0.0328-0.625-0.0584v-2.5986c0.1784-0.0256 0.3371-0.0292 0.5-0.0292zm-9.7812 10.161c-0.3491 0.00001-0.805 0.0263-1.375 0.0584-0.5701 0.032-0.8835 0.0292-0.9688 0.0291v9.4018h1.5625v-3.9417c0.4111 0.0256 0.74 0.0541 0.9687 0.0584l2.25 3.8833h1.75l-2.5-4.2337c0.4538-0.18796 0.8264-0.50645 1.125-0.96354 0.2986-0.45707 0.4375-0.96295 0.4376-1.5183-0.0001-1.8454-1.0862-2.7738-3.25-2.7738zm-7.75 0.0291c-0.3103 0.00001-1.044 0.0407-2.25 0.0875v9.3726h1.875c2.951 0 4.4374-1.7057 4.4374-5.0804 0-1.3243-0.3666-2.3816-1.0937-3.1826-0.7271-0.80096-1.7278-1.1971-2.9687-1.1971zm12.719 0.0584v9.4018h1.5v-9.4018h-1.5zm3.2813 0v9.4018h1.4687v-5.8104l4.125 5.9272h0.625v-9.5186h-1.4687v5.6644l-4.0313-5.6644h-0.7187zm7.9687 0v9.4018h1.5v-2.5694l0.9375-1.4307 2.375 4.0001h1.8125l-3.1875-5.2848 2.6875-4.1169h-1.7187l-2.9063 4.4965v-4.4965h-1.5zm-24.031 1.4307c1.6947 0.00001 2.5625 0.99964 2.5626 3.0074-0.0001 1.0979-0.2239 1.9586-0.6563 2.5694-0.4324 0.61088-1.0486 0.90514-1.8125 0.90514-0.2831 0-0.5369-0.004-0.7812-0.0291v-6.4236c0.2985-0.0299 0.5246-0.0292 0.6874-0.0292zm7.5313 0c0.6747 0.00001 1.1859 0.0791 1.5 0.26278 0.3141 0.1837 0.4687 0.50219 0.4687 0.96354 0 0.56816-0.1447 0.94222-0.4374 1.1387-0.2928 0.19651-0.7742 0.32119-1.4063 0.32118-0.1474 0.00001-0.3458-0.0328-0.625-0.0584v-2.5986c0.1784-0.0256 0.3371-0.0291 0.5-0.0291z" style="fill:#ffffff"/>
    <path id="path9321" d="m1107.7 576.4-2.7813 10.156 1.7187-1.3438v35.719h-4.4687v-29.094l1.7187 1.3438-2.8124-10.125-2.7814 10.125 1.6875-1.3438v29.094h-4.4375v-20.594l1.6875 1.375-2.7811-10.156-2.7814 10.156 1.6875-1.375v20.594h-11.031c0 0.006 0.028 0.0254 0.062 0.0312v4.2188h50.656v-4.2188c0.035-0.006 0.062-0.0256 0.062-0.0312h-11.031v-20.594l1.6874 1.375-2.7812-10.156-2.7812 10.156 1.6874-1.375v20.594h-4.4374v-29.094l1.6874 1.3438-2.7812-10.125-2.8125 10.125 1.7187-1.3438v29.094h-4.4687v-35.719l1.7187 1.3438-2.8124-10.156zm-25.313 83.375v6.25h50.656v-6.25z" style="fill:#ffffff"/>
    <path id="path9323" d="m1090.9 699.8c-0.8814 0-1.5938 0.68109-1.5938 1.5625h36.938c0-0.88141-0.7124-1.5625-1.5938-1.5625h-33.75z" style="opacity:.80531;fill:#4e0808"/>
  </g>
</svg>