<?xml version="1.0" encoding="utf-8"?>
<svg viewBox="475.004 -145.818 101.292 161.16" width="101.292" height="161.16" xmlns="http://www.w3.org/2000/svg" xmlns:xlink="http://www.w3.org/1999/xlink">
  <defs>
    <linearGradient id="linearGradient15683" y2="117.92" gradientUnits="userSpaceOnUse" x2="163.75" gradientTransform="translate(303.19 63.862)" y1="257.51" x1="163.75" xlink:href="#linearGradient9816"/>
    <linearGradient id="linearGradient9816">
      <stop id="stop9818" style="stop-color:#2d5016" offset="0"/>
      <stop id="stop9820" style="stop-color:#abc837" offset="1"/>
    </linearGradient>
    <linearGradient id="linearGradient15685" y2="255.1" gradientUnits="userSpaceOnUse" x2="140.53" gradientTransform="matrix(1 0 0 -.063406 303.19 188.28)" y1="38.143" x1="140.53" xlink:href="#linearGradient9816"/>
    <linearGradient id="linearGradient15687" y2="38.143" gradientUnits="userSpaceOnUse" x2="132.03" gradientTransform="matrix(1 0 0 .063406 303.19 311.44)" y1="258.98" x1="132.03" xlink:href="#linearGradient9816"/>
    <linearGradient id="linearGradient15663" y2="182.78" gradientUnits="userSpaceOnUse" x2="222.5" gradientTransform="matrix(0 .37376 -1.2365 0 689.98 188.64)" y1="182.78" x1="118" xlink:href="#linearGradient9001"/>
    <linearGradient id="linearGradient9001">
      <stop id="stop9003" style="stop-color:#ffe680" offset="0"/>
      <stop id="stop9005" style="stop-color:#ffcc00" offset="1"/>
    </linearGradient>
    <linearGradient id="linearGradient15665" y2="201.66" gradientUnits="userSpaceOnUse" x2="469.25" gradientTransform="matrix(-.80636 0 0 -.75709 845.65 394.37)" y1="233.27" x1="469.25" xlink:href="#linearGradient9001"/>
    <linearGradient id="linearGradient15667" y2="201.66" gradientUnits="userSpaceOnUse" x2="469.25" gradientTransform="matrix(-.80636 0 0 -.75709 845.65 381.2)" y1="233.27" x1="469.25" xlink:href="#linearGradient9001"/>
    <linearGradient id="linearGradient15669" y2="201.66" gradientUnits="userSpaceOnUse" x2="469.25" gradientTransform="matrix(-.80636 0 0 -.75709 845.65 368.03)" y1="233.27" x1="469.25" xlink:href="#linearGradient9001"/>
    <linearGradient id="linearGradient15671" y2="233.27" gradientUnits="userSpaceOnUse" x2="467.39" gradientTransform="matrix(-.80636 0 0 -.75709 845.65 412.97)" y1="201.56" x1="467.39" xlink:href="#linearGradient9001"/>
    <linearGradient id="linearGradient15673" y2="233.27" gradientUnits="userSpaceOnUse" x2="467.39" gradientTransform="matrix(-.80636 0 0 -.75709 845.65 399.8)" y1="201.56" x1="467.39" xlink:href="#linearGradient9001"/>
    <linearGradient id="linearGradient15675" y2="189.32" gradientUnits="userSpaceOnUse" x2="467.57" y1="182.04" x1="467.57" xlink:href="#linearGradient9001"/>
    <linearGradient id="linearGradient15677" y2="318.92" gradientUnits="userSpaceOnUse" x2="466.16" y1="308.13" x1="466.16" xlink:href="#linearGradient9001"/>
    <linearGradient id="linearGradient15679" y2="180.5" gradientUnits="userSpaceOnUse" x2="465.45" y1="172.87" x1="465.45" xlink:href="#linearGradient9001"/>
    <linearGradient id="linearGradient15681" y2="180.5" gradientUnits="userSpaceOnUse" x2="465.45" gradientTransform="translate(0,146.75)" y1="172.16" x1="465.45" xlink:href="#linearGradient9001"/>
  </defs>
  <g id="g9602" transform="matrix(0.99795, 0, 0, 1.0364, 59.667065, -324.192825)">
    <path id="rect9604" style="fill:url(#linearGradient15683)" d="m418.19 180.86h97.5v138h-97.5z"/>
    <path id="path9606" d="m418.19 180.86h97.5l2-8.75h-101.5z" style="fill:url(#linearGradient15685)"/>
    <path id="path9608" style="fill:url(#linearGradient15687)" d="m418.19 318.86h97.5l2 8.75h-101.5z"/>
    <path id="path9610" d="m453.88 233.03c-12.525 0.57188-24.796 1.7367-35.688 2.6562v1.375c11.393-1.0174 23.759-2.0663 36.75-2.375-0.37506-0.54942-0.70868-1.1007-1.0625-1.6562zm26.125 0c-0.35382 0.55558-0.68744 1.1068-1.0625 1.6562 12.991 0.30873 25.357 1.3576 36.75 2.375v-1.375c-10.89-0.92-23.17-2.08-35.69-2.65zm-23.969 3.1875c-13.592 0.24714-25.975 0.97732-37.844 2.0312v13.531 8.2188 13.531c11.868 1.0539 24.252 1.7841 37.844 2.0312 3.7893-5.2115 8.2015-9.625 10.75-9.625 0.0497 0 0.10475 0.0294 0.15625 0.0312 0.0512-0.004 0.10635-0.0312 0.15625-0.0312 2.5485 0 6.9607 4.4135 10.75 9.625 13.616-0.24603 25.958-0.97572 37.844-2.0312v-13.531-8.2188-13.531c-11.886-1.0555-24.228-1.7852-37.844-2.0312-3.7893 5.2115-8.2015 9.625-10.75 9.625-0.0499 0-0.10505-0.0272-0.15625-0.0312-0.0515 0.002-0.10655 0.0312-0.15625 0.0312-2.5485 0-6.9607-4.4135-10.75-9.625zm5.6875 13.188c1.6772 0.00001 3.0262 0.28689 4.0312 0.875l-1.0625 1.8438c-0.57905-0.49675-1.4967-0.74999-2.7812-0.75-1.218 0.00001-2.2213 0.43604-3 1.3125-0.77872 0.87648-1.1875 2.0019-1.1875 3.3438 0 1.3418 0.37161 2.3995 1.0938 3.1875 0.72213 0.78797 1.6703 1.1875 2.875 1.1875 1.3777 0 2.4713-0.43618 3.25-1.2812l1.2188 1.8125c-1.0583 0.96498-2.613 1.4375-4.6562 1.4375-2.0433 0-3.6498-0.56534-4.7812-1.7188-1.1315-1.1534-1.6875-2.726-1.6875-4.7188 0-1.8557 0.62041-3.4086 1.875-4.6562s2.8557-1.875 4.8125-1.875zm26.094 0c2.1032 0.00001 3.701 0.53712 4.8125 1.6562 1.1115 1.1192 1.6562 2.6974 1.6562 4.7188-0.00001 2.0213-0.5886 3.6248-1.75 4.8125s-2.801 1.7812-4.9375 1.7812c-1.9634 0-3.4517-0.57375-4.5-1.75s-1.5938-2.7996-1.5938-4.8438c0-1.7872 0.5773-3.295 1.7188-4.5312 1.1414-1.2362 2.6836-1.8437 4.5938-1.8438zm12.531 0c1.6905 0.00001 2.9267 0.27007 3.7188 0.8125l-0.78125 1.9062c-0.91183-0.55956-1.8634-0.81249-2.875-0.8125-0.59901 0.00001-1.0768 0.13504-1.4062 0.40625-0.32946 0.27123-0.5 0.59731-0.5 1.0312 0 0.71946 0.92432 1.4735 2.7812 2.25 0.97838 0.41112 1.6924 0.81081 2.125 1.1562 0.43261 0.34546 0.7737 0.72786 1 1.1875 0.22628 0.45965 0.34374 0.96597 0.34375 1.5312-0.00001 1.0164-0.47114 1.8746-1.4062 2.5312-0.93513 0.65664-2.1793 0.96875-3.75 0.96875-1.3644 0-2.6206-0.301-3.7188-0.90625l0.96875-2c1.025 0.61667 2.0396 0.9375 3.0312 0.9375 1.5241 0 2.2812-0.46141 2.2812-1.375-0.00001-0.42824-0.17185-0.83047-0.53125-1.2188-0.35941-0.38827-1.0973-0.83001-2.2188-1.3125-1.1215-0.48248-1.8919-0.8763-2.2812-1.1875-0.38936-0.31118-0.6966-0.6655-0.90625-1.0938-0.20965-0.42824-0.3125-0.91789-0.3125-1.4375 0-0.97068 0.42137-1.7667 1.25-2.4062s1.8896-0.96874 3.1875-0.96875zm-53.156 0.0312h1.125l5.875 12.719h-2.8438l-1.0938-2.5312h-5l-1.0312 2.5312h-2.875l5.8438-12.719zm-18.062 0.1875h1.25l6.9062 7.5625v-7.5625h2.5v12.719h-1.0625l-7.0938-7.9375v7.7812h-2.5v-12.562zm39.094 0h2.5938v4.9062h5.8438v-4.9062h2.5625v12.531h-2.5625v-5.625h-5.8438v5.625h-2.5938v-12.531zm19.594 1.75c-1.1581 0.00001-2.0685 0.39098-2.6875 1.1875-0.61898 0.79654-0.90625 1.8712-0.90625 3.2188 0 1.4675 0.2647 2.6012 0.84375 3.4062 0.57904 0.8051 1.4264 1.2188 2.5312 1.2188 1.2978 0 2.2865-0.39953 2.9688-1.1875 0.68219-0.78797 1.0312-1.9358 1.0312-3.4375-0.00001-2.9406-1.2521-4.4062-3.7812-4.4062zm-40.062 1.9062-1.75 4.625h3.5l-1.75-4.625zm-29.562 21.438v1.375c10.892 0.91956 23.163 2.0844 35.688 2.6562 0.35382-0.55558 0.68744-1.1068 1.0625-1.6562-12.991-0.30873-25.357-1.3576-36.75-2.375zm97.5 0c-11.393 1.0174-23.759 2.0663-36.75 2.375 0.37506 0.54942 0.70868 1.1007 1.0625 1.6562 12.525-0.57188 24.796-1.7367 35.688-2.6562v-1.375z" style="fill:url(#linearGradient15663)"/>
    <path id="path9612" d="m467.07 243.58c4.8311 0 17.528-18.456 14.773-22.094-0.94991-1.2547-7.8942-2.8217-14.909-2.9607-7.0149 0.13894-13.959 1.7059-14.909 2.9607-2.7548 3.6388 9.9423 22.094 14.773 22.094 0.0425 0 0.0917-0.0122 0.13569-0.0138 0.0438 0.003 0.093 0.0138 0.13568 0.0138z" style="fill:url(#linearGradient15665)"/>
    <g id="g9614" transform="translate(.00017252)">
      <path id="path9616" d="m467.07 230.41c4.8311 0 17.528-18.456 14.773-22.094-0.94991-1.2547-7.8942-2.8217-14.909-2.9607-7.0149 0.13894-13.959 1.7059-14.909 2.9607-2.7548 3.6388 9.9423 22.094 14.773 22.094 0.0425 0 0.0917-0.0122 0.13569-0.0138 0.0438 0.003 0.093 0.0138 0.13568 0.0138z" style="fill:url(#linearGradient15667)"/>
      <path id="path9618" style="fill:#809f2c" d="m451.69 210c0.30935 5.7735 10.822 20.406 15.125 20.406 0.0425 0 0.081 0.002 0.125 0 0.0438 0.003 0.0823 0 0.125 0 4.3025 0 14.816-14.633 15.125-20.406-0.65084 5.6128-10.898 18.906-15.125 18.906-0.0427 0-0.0812 0.003-0.125 0-0.044 0.001-0.0825 0-0.125 0-4.2272 0-14.474-13.293-15.125-18.906z"/>
    </g>
    <g id="g9620" transform="translate(.00017252)">
      <path id="path9622" style="fill:url(#linearGradient15669)" d="m467.07 217.24c4.8311 0 17.528-18.456 14.773-22.094-0.94991-1.2547-7.8942-2.8217-14.909-2.9607-7.0149 0.13894-13.959 1.7059-14.909 2.9607-2.7548 3.6388 9.9423 22.094 14.773 22.094 0.0425 0 0.0917-0.0122 0.13569-0.0138 0.0438 0.003 0.093 0.0138 0.13568 0.0138z"/>
      <path id="path9624" style="fill:#94b331" d="m451.69 196.83c0.30935 5.7735 10.822 20.406 15.125 20.406 0.0425 0 0.081 0.002 0.125 0 0.0438 0.003 0.0823 0 0.125 0 4.3025 0 14.816-14.633 15.125-20.406-0.65084 5.6128-10.898 18.906-15.125 18.906-0.0427 0-0.0812 0.003-0.125 0-0.044 0.001-0.0825 0-0.125 0-4.2272 0-14.474-13.293-15.125-18.906z"/>
    </g>
    <g id="g9626" transform="matrix(1 0 0 -1 .00018252 530.37)">
      <path id="path9628" d="m467.07 262.17c4.8311 0 17.528-18.456 14.773-22.094-0.94991-1.2547-7.8942-2.8217-14.909-2.9607-7.0149 0.13894-13.959 1.7059-14.909 2.9607-2.7548 3.6388 9.9423 22.094 14.773 22.094 0.0425 0 0.0917-0.0122 0.13569-0.0138 0.0438 0.003 0.093 0.0138 0.13568 0.0138z" style="fill:url(#linearGradient15671)"/>
    </g>
    <g id="g9630" transform="translate(.00018252 65.939)">
      <g id="g9632">
        <path id="path9634" d="m467.07 249c4.8311 0 17.528-18.456 14.773-22.094-0.94991-1.2547-7.8942-2.8217-14.909-2.9607-7.0149 0.13894-13.959 1.7059-14.909 2.9607-2.7548 3.6388 9.9423 22.094 14.773 22.094 0.0425 0 0.0917-0.0122 0.13569-0.0138 0.0438 0.003 0.093 0.0138 0.13568 0.0138z" style="fill:url(#linearGradient15673)" transform="matrix(1 0 0 -1 0 464.43)"/>
        <path id="path9636" style="fill:#4d6f1e" d="m451.69 235.84c0.30935-5.7735 10.822-20.406 15.125-20.406 0.0425 0 0.081-0.002 0.125 0 0.0438-0.003 0.0823 0 0.125 0 4.3025 0 14.816 14.633 15.125 20.406-0.65084-5.6128-10.898-18.906-15.125-18.906-0.0427 0-0.0812-0.003-0.125 0-0.044-0.001-0.0825 0-0.125 0-4.2272 0-14.474 13.293-15.125 18.906z"/>
      </g>
    </g>
    <path id="path9638" style="fill:url(#linearGradient15675)" d="m463.75 180.86v9.875c1.0514-0.0786 2.1142-0.13499 3.1875-0.15625 1.0733 0.0213 2.1361 0.0776 3.1875 0.15625v-9.875z"/>
    <path id="path9640" style="fill:url(#linearGradient15677)" d="m463.75 307.86v11h6.375v-11c-1.0514 0.0786-2.1142 0.13499-3.1875 0.15625-1.0733-0.0213-2.1361-0.0776-3.1875-0.15625z"/>
    <path id="path9642" style="fill:url(#linearGradient15679)" d="m463.75 172.11v8.75h6.375v-8.75h-6.375z"/>
    <path id="path9644" style="fill:url(#linearGradient15681)" d="m463.75 318.86v8.75h6.375v-8.75h-6.375z"/>
  </g>
</svg>