<svg xmlns="http://www.w3.org/2000/svg" viewBox="0 0 22 32"><defs><style>.a{fill:#0f1524;}</style></defs><g transform="translate(-5)"><path class="a" d="M16,17A9.01,9.01,0,0,1,7,8H9A7,7,0,0,0,23,8h2A9.01,9.01,0,0,1,16,17Z"/><path class="a" d="M27,6H5V0H27ZM7,4H25V2H7Z"/><path class="a" d="M25,24H23A7,7,0,0,0,9,24H7a9,9,0,0,1,18,0Z"/><path class="a" d="M13,24H11a5.006,5.006,0,0,1,5-5v2A3,3,0,0,0,13,24Z"/><path class="a" d="M16,13a5.006,5.006,0,0,1-5-5h2a3,3,0,0,0,3,3Z"/><path class="a" d="M27,32H5V26H27ZM7,30H25V28H7Z"/></g></svg>