<svg xmlns="http://www.w3.org/2000/svg" width="17" height="20" viewBox="0 0 17 20" fill="none">
    <g opacity="0.7">
        <path d="M13.4193 13.5702V14.3486C13.4193 14.4621 13.3828 14.5553 13.3098 14.6283C13.2369 14.7013 13.1436 14.7378 13.0301 14.7378H4.46766C4.35415 14.7378 4.2609 14.7013 4.18792 14.6283C4.11495 14.5553 4.07846 14.4621 4.07846 14.3486V13.5702C4.07846 13.4567 4.11495 13.3634 4.18792 13.2904C4.2609 13.2175 4.35415 13.181 4.46766 13.181H13.0301C13.1436 13.181 13.2369 13.2175 13.3098 13.2904C13.3828 13.3634 13.4193 13.4567 13.4193 13.5702ZM13.4193 10.4566V11.235C13.4193 11.3485 13.3828 11.4417 13.3098 11.5147C13.2369 11.5877 13.1436 11.6242 13.0301 11.6242H4.46766C4.35415 11.6242 4.2609 11.5877 4.18792 11.5147C4.11495 11.4417 4.07846 11.3485 4.07846 11.235V10.4566C4.07846 10.343 4.11495 10.2498 4.18792 10.1768C4.2609 10.1038 4.35415 10.0674 4.46766 10.0674H13.0301C13.1436 10.0674 13.2369 10.1038 13.3098 10.1768C13.3828 10.2498 13.4193 10.343 13.4193 10.4566ZM2.52165 17.8514H14.9761V8.51054H9.91649C9.59216 8.51054 9.31647 8.39703 9.08944 8.16999C8.8624 7.94296 8.74889 7.66727 8.74889 7.34294V2.28331H2.52165V17.8514ZM10.3057 6.95374H13.9423L10.3057 3.31713V6.95374ZM16.5329 8.51054V18.2406C16.5329 18.5649 16.4194 18.8406 16.1924 19.0677C15.9653 19.2947 15.6897 19.4082 15.3653 19.4082H2.13245C1.80811 19.4082 1.53243 19.2947 1.3054 19.0677C1.07836 18.8406 0.964844 18.5649 0.964844 18.2406V1.89411C0.964844 1.56977 1.07836 1.29409 1.3054 1.06705C1.53243 0.840019 1.80811 0.726503 2.13245 0.726503H8.74889C9.07322 0.726503 9.42999 0.807587 9.81919 0.969753C10.2084 1.13192 10.5165 1.32652 10.7435 1.55356L15.7059 6.51588C15.9329 6.74292 16.1275 7.05104 16.2897 7.44024C16.4518 7.82944 16.5329 8.18621 16.5329 8.51054Z" fill="#304254"/>
    </g>
</svg>
