<svg width="22" height="22" viewBox="0 0 22 22" fill="none" xmlns="http://www.w3.org/2000/svg">
<g clip-path="url(#clip0_3542_16078)">
<path d="M20.6879 3.33418C20.5796 3.07895 20.4017 2.86625 20.1774 2.71156C20.0652 2.63422 19.9415 2.57621 19.8061 2.53367C19.6746 2.49113 19.5316 2.4718 19.3846 2.4718C19.1526 2.4718 18.9283 2.5298 18.7233 2.63809C18.6962 2.65355 18.6924 2.65355 18.6692 2.66902L14.3766 5.465C14.2915 5.50367 14.2064 5.53074 14.1175 5.53461C14.1059 5.53461 14.0943 5.53461 14.0827 5.53461C14.0634 5.53461 14.044 5.53461 14.0286 5.53848C13.9435 5.53461 13.8584 5.51527 13.7772 5.48047L8.74984 2.26297C8.72664 2.2475 8.71117 2.23977 8.6841 2.2243C8.38633 2.07348 8.06148 2 7.73664 2C7.73277 2 7.72891 2 7.72504 2C7.72117 2 7.72117 2 7.7173 2C7.70957 2 7.69797 2 7.69023 2C7.36539 2.00773 7.04055 2.08895 6.74277 2.2475C6.7157 2.26297 6.7041 2.26684 6.6809 2.28617L1.69609 5.63129C1.49113 5.75504 1.32098 5.92133 1.20496 6.11855C1.07348 6.33125 1 6.58262 1 6.84559V19.9167C1 20.11 1.03867 20.2995 1.11215 20.4658C1.22043 20.7211 1.39832 20.9338 1.62262 21.0884C1.73477 21.1658 1.85852 21.2238 1.99387 21.2663C2.12535 21.3089 2.26844 21.3282 2.41539 21.3282C2.64742 21.3282 2.87172 21.2702 3.07668 21.1619C3.10375 21.1464 3.10762 21.1464 3.13082 21.131L7.40406 18.3466C7.50848 18.2925 7.62063 18.2654 7.73277 18.2654C7.83332 18.2654 7.93773 18.2886 8.03055 18.3311L12.9303 21.5293C12.9535 21.5448 12.9689 21.5525 12.996 21.568C13.2977 21.7227 13.6302 21.8 13.9589 21.8C13.986 21.8 14.0092 21.8 14.0363 21.7961C14.0518 21.7961 14.0672 21.8 14.0827 21.8C14.1407 21.8 14.1987 21.7923 14.2529 21.7768C14.4887 21.742 14.7208 21.6724 14.9373 21.5602C14.9644 21.5448 14.976 21.5409 14.9992 21.5216L20.0962 18.1687C20.305 18.0488 20.4752 17.8787 20.595 17.6776C20.7265 17.461 20.8 17.2058 20.8 16.9428V3.88332C20.8 3.68996 20.7613 3.50047 20.6879 3.33418ZM6.6809 17.1284L2.41539 19.9167V6.84559C2.44246 6.83012 2.45406 6.82625 2.47727 6.80691L7.00961 3.7673V16.9776C6.9168 17.0124 6.82398 17.0511 6.73504 17.0975C6.70797 17.113 6.7041 17.113 6.6809 17.1284ZM8.75758 17.1207C8.73438 17.1052 8.71891 17.0975 8.69184 17.082C8.60676 17.0395 8.51781 17.0008 8.425 16.9699V3.72863L13.054 6.68703C13.0772 6.7025 13.0927 6.71023 13.1159 6.72184L13.112 6.72957C13.1971 6.77211 13.2861 6.80691 13.375 6.83785V20.1448L8.75758 17.1207ZM19.3189 16.9931L14.7904 19.9747V6.82238C14.8793 6.79144 14.9644 6.75277 15.0495 6.70637C15.0766 6.6909 15.0804 6.6909 15.1036 6.67543L19.3807 3.88719V16.9544C19.3537 16.9699 19.3421 16.9738 19.3189 16.9931Z" fill="#4B5563"/>
</g>
<defs>
<clipPath id="clip0_3542_16078">
<rect width="19.8" height="19.8" fill="white" transform="translate(1 2)"/>
</clipPath>
</defs>
</svg>
