<svg fill="none" height="512" viewBox="0 0 15 15" width="512" xmlns="http://www.w3.org/2000/svg"><path clip-rule="evenodd" d="m2 2.5c0-.27614.22386-.5.5-.5h10c.2761 0 .5.22386.5.5v10c0 .2761-.2239.5-.5.5h-10c-.27614 0-.5-.2239-.5-.5zm1 .5v9h9v-9zm2.14645 3.14645c.19526-.19527.51184-.19527.7071 0l1.64645 1.64644 1.64645-1.64644c.19526-.19527.51184-.19527.7071 0 .19525.19526.19525.51184 0 .7071l-2 2c-.19526.19527-.51184.19527-.7071 0l-2-2c-.19527-.19526-.19527-.51184 0-.7071z" fill="rgb(0,0,0)" fill-rule="evenodd"/></svg>