<svg height="512" viewBox="0 0 64 64" width="512" xmlns="http://www.w3.org/2000/svg"><g id="Layer_9" data-name="Layer 9"><path d="m4 15.51a1 1 0 0 0 .71-.29l10.51-10.51a1 1 0 1 0 -1.42-1.42l-10.51 10.51a1 1 0 0 0 0 1.42 1 1 0 0 0 .71.29z"/><path d="m4 26.89a1 1 0 0 0 .71-.29l21.89-21.89a1 1 0 1 0 -1.42-1.42l-21.89 21.89a1 1 0 0 0 0 1.42 1 1 0 0 0 .71.29z"/><path d="m4 38.25a1 1 0 0 0 .71-.25l33.29-33.29a1 1 0 1 0 -1.42-1.42l-33.29 33.25a1 1 0 0 0 0 1.42 1 1 0 0 0 .71.29z"/><path d="m4 49.63a1 1 0 0 0 .71-.29l44.63-44.63a1 1 0 1 0 -1.42-1.42l-44.63 44.63a1 1 0 0 0 0 1.42 1 1 0 0 0 .71.29z"/><path d="m60.71 3.29a1 1 0 0 0 -1.42 0l-56 56a1 1 0 0 0 0 1.42 1 1 0 0 0 1.42 0l56-56a1 1 0 0 0 0-1.42z"/><path d="m59.29 14.66-44.63 44.63a1 1 0 0 0 0 1.42 1 1 0 0 0 1.42 0l44.63-44.63a1 1 0 0 0 -1.42-1.42z"/><path d="m59.29 26-33.29 33.29a1 1 0 0 0 0 1.42 1 1 0 0 0 1.42 0l33.29-33.25a1 1 0 0 0 -1.42-1.46z"/><path d="m59.29 37.4-21.89 21.89a1 1 0 0 0 0 1.42 1 1 0 0 0 1.42 0l21.89-21.89a1 1 0 0 0 -1.42-1.42z"/><path d="m59.29 48.78-10.51 10.51a1 1 0 0 0 0 1.42 1 1 0 0 0 1.42 0l10.51-10.51a1 1 0 0 0 -1.42-1.42z"/></g></svg>