<svg width="18" height="20" viewBox="0 0 18 20" fill="none" xmlns="http://www.w3.org/2000/svg">
<path d="M13.9608 0.483643H4.57426C3.71054 0.483643 3.00781 1.18637 3.00781 2.05009V11.6069H4.57426V2.05009H13.9608V0.483643Z" fill="#4B5563"/>
<path d="M16.3099 3.61248H7.70309C6.84342 3.61248 6.13665 4.31925 6.13665 5.17893V12.3426H7.70309V5.17893H16.3099V16.1309H11.3788V17.6973H16.3099C17.1706 17.6973 17.8723 16.9905 17.8723 16.1309V5.17893C17.8723 4.31925 17.1696 3.61248 16.3099 3.61248Z" fill="#4B5563"/>
<path d="M4.98446 15.9811H6.11604V14.7357C6.11604 14.641 6.16755 14.5535 6.24609 14.5153C6.32462 14.477 6.41836 14.4907 6.48592 14.5499L9.16118 16.9813C9.21185 17.0278 9.24225 17.0952 9.24225 17.1663C9.24225 17.2373 9.21101 17.3066 9.16118 17.3512L6.48592 19.7899C6.41836 19.851 6.32547 19.8637 6.24609 19.8246C6.16671 19.7836 6.11604 19.6979 6.11604 19.6041V18.3159H4.98192C1.08325 18.2685 4.54811 18.3476 0.442401 18.3476C0.319109 18.3476 0.217773 18.2383 0.217773 18.1062V16.2578C0.217773 16.123 0.319109 16.0137 0.442401 16.0137C4.64932 16.0137 1.84189 15.9811 4.98446 15.9811Z" fill="#4B5563"/>
</svg>
