<svg width="20" height="20" viewBox="0 0 20 20" fill="none" xmlns="http://www.w3.org/2000/svg">
    <path
        d="M18.6857 2.7274H14.0714V1.73446C14.0714 1.03672 13.42 0.5 12.6057 0.5H7.39429C6.58 0.5 5.92857 1.03672 5.92857 1.73446V2.7274H1.31429C0.852857 2.7274 0.5 3.07627 0.5 3.53249C0.5 3.9887 0.852857 4.33757 1.31429 4.33757H2.31857L3.32286 16.8432C3.35 18.3192 4.54429 19.5 6.03714 19.5H13.9357C15.4286 19.5 16.6229 18.3192 16.65 16.8432L17.6814 4.36441H18.6857C19.1471 4.36441 19.5 4.01554 19.5 3.55932C19.5 3.10311 19.1471 2.7274 18.6857 2.7274ZM7.55714 2.11017H12.4429V2.7274H7.55714V2.11017ZM15.0486 16.7359V16.7895C15.0486 17.3799 14.56 17.863 13.9629 17.863H6.03714C5.44 17.863 4.95143 17.3799 4.95143 16.7895L3.94714 4.33757H16.0529L15.0486 16.7359Z"
        fill="#D1D5DB" />
    <path
        d="M18.6857 2.7274H14.0714V1.73446C14.0714 1.03672 13.42 0.5 12.6057 0.5H7.39429C6.58 0.5 5.92857 1.03672 5.92857 1.73446V2.7274H1.31429C0.852857 2.7274 0.5 3.07627 0.5 3.53249C0.5 3.9887 0.852857 4.33757 1.31429 4.33757H2.31857L3.32286 16.8432C3.35 18.3192 4.54429 19.5 6.03714 19.5H13.9357C15.4286 19.5 16.6229 18.3192 16.65 16.8432L17.6814 4.36441H18.6857C19.1471 4.36441 19.5 4.01554 19.5 3.55932C19.5 3.10311 19.1471 2.7274 18.6857 2.7274ZM7.55714 2.11017H12.4429V2.7274H7.55714V2.11017ZM15.0486 16.7359V16.7895C15.0486 17.3799 14.56 17.863 13.9629 17.863H6.03714C5.44 17.863 4.95143 17.3799 4.95143 16.7895L3.94714 4.33757H16.0529L15.0486 16.7359Z"
        fill="#32363C" />
    <path
        d="M7.857 15.1807H7.88414C8.34557 15.1538 8.67128 14.7781 8.67128 14.3487L8.37271 7.80071C8.34557 7.37133 7.99271 7.02246 7.55843 7.02246H7.53128C7.06986 7.0493 6.74414 7.425 6.74414 7.85438L7.04271 14.4024C7.04271 14.8586 7.42271 15.1807 7.857 15.1807Z"
        fill="#D1D5DB" />
    <path
        d="M7.857 15.1807H7.88414C8.34557 15.1538 8.67128 14.7781 8.67128 14.3487L8.37271 7.80071C8.34557 7.37133 7.99271 7.02246 7.55843 7.02246H7.53128C7.06986 7.0493 6.74414 7.425 6.74414 7.85438L7.04271 14.4024C7.04271 14.8586 7.42271 15.1807 7.857 15.1807Z"
        fill="#32363C" />
    <path
        d="M12.1153 15.1807H12.1424C12.5767 15.1807 12.9296 14.8318 12.9567 14.4024L13.2553 7.85438C13.2824 7.39817 12.9296 7.02246 12.4681 7.02246H12.441C12.0067 7.02246 11.6538 7.37133 11.6267 7.80071L11.3281 14.3487C11.3281 14.7781 11.6538 15.1538 12.1153 15.1807Z"
        fill="#D1D5DB" />
    <path
        d="M12.1153 15.1807H12.1424C12.5767 15.1807 12.9296 14.8318 12.9567 14.4024L13.2553 7.85438C13.2824 7.39817 12.9296 7.02246 12.4681 7.02246H12.441C12.0067 7.02246 11.6538 7.37133 11.6267 7.80071L11.3281 14.3487C11.3281 14.7781 11.6538 15.1538 12.1153 15.1807Z"
        fill="#32363C" />
</svg>
