<?xml version="1.0" encoding="utf-8"?>
<svg viewBox="690.692 -145.824 101.295 161.157" width="101.295" height="161.157" xmlns="http://www.w3.org/2000/svg" xmlns:xlink="http://www.w3.org/1999/xlink">
  <defs>
    <linearGradient id="linearGradient15735" y2="188.48" gradientUnits="userSpaceOnUse" x2="162.45" gradientTransform="matrix(1.0055 0 0 1.0364 600.81 55.338)" y1="125.01" x1="162.45" xlink:href="#linearGradient11176"/>
    <linearGradient id="linearGradient11176">
      <stop id="stop11178" style="stop-color:#784421" offset="0"/>
      <stop id="stop11180" style="stop-color:#000000" offset="1"/>
    </linearGradient>
    <linearGradient id="linearGradient15737" y2="-44.015" gradientUnits="userSpaceOnUse" x2="181.19" gradientTransform="matrix(1.0055 0 0 -.065712 600.81 184.28)" y1="251.92" x1="181.19" xlink:href="#linearGradient11176"/>
    <linearGradient id="linearGradient15739" y2="358.47" gradientUnits="userSpaceOnUse" x2="184" gradientTransform="matrix(1.0055 0 0 .065712 600.81 311.93)" y1="97.972" x1="184" xlink:href="#linearGradient11176"/>
    <linearGradient id="linearGradient15741" y2="218.52" gradientUnits="userSpaceOnUse" x2="747.63" gradientTransform="matrix(1.9225 0 0 1.5484 -665.26 -91.908)" y1="167.85" x1="747.63" xlink:href="#linearGradient11176"/>
    <linearGradient id="linearGradient15743" y2="299.61" gradientUnits="userSpaceOnUse" x2="176.61" gradientTransform="matrix(1.0055 0 0 .41143 600.81 182.4)" y1="125.02" x1="176.61" xlink:href="#linearGradient11176"/>
    <linearGradient id="linearGradient15745" y2="240.57" gradientUnits="userSpaceOnUse" x2="819.68" gradientTransform="matrix(.98127 0 0 1 2.1686 1.4609)" y1="214.93" x1="819.68" xlink:href="#linearGradient11176"/>
    <linearGradient id="linearGradient15747" y2="213.84" gradientUnits="userSpaceOnUse" x2="759.25" gradientTransform="matrix(2.7764 0 0 2.2192 -1300.8 -224.39)" y1="201.55" x1="759.25" xlink:href="#linearGradient11176"/>
    <linearGradient id="linearGradient15749" y2="240.08" gradientUnits="userSpaceOnUse" x2="819.68" gradientTransform="matrix(.98127 0 0 1 3.011 .38983)" y1="214.93" x1="819.68" xlink:href="#linearGradient11176"/>
    <linearGradient id="linearGradient15751" y2="213.84" gradientUnits="userSpaceOnUse" x2="759.25" gradientTransform="matrix(2.7764 0 0 2.2192 -1299.9 -225.46)" y1="201.55" x1="759.25" xlink:href="#linearGradient11176"/>
    <linearGradient id="linearGradient15753" y2="336.45" gradientUnits="userSpaceOnUse" x2="189.44" gradientTransform="matrix(1.0055 0 0 .21538 600.81 264.7)" y1="118.7" x1="189.44" xlink:href="#linearGradient11176"/>
  </defs>
  <g id="g14728" transform="matrix(0.9925, 0, 0, 1, -18.375724, -313.345828)">
    <path id="path10992" d="m716.44 176.59v143.03h98.031v-143.03h-98.031z" style="fill:url(#linearGradient15735)"/>
    <path id="path10995" style="fill:url(#linearGradient15737)" d="m716.44 176.59h98.035l2.011-9.0683h-102.06z"/>
    <path id="path10997" d="m716.44 319.61h98.035l2.011 9.0683h-102.06z" style="fill:url(#linearGradient15739)"/>
    <path id="path10999" style="fill:url(#linearGradient15741)" d="m765.4 188.58s-1.7165 10.077-5.8244 12.145c-9.8878 4.9798-24.213 4.6642-25.017 22.017v7.2246h61.794v-7.2246c-0.80403-17.352-15.13-17.037-25.017-22.017-4.1079-2.0689-5.8244-12.145-5.8244-12.145h-0.0556s0.0137 0.36542 0 0.48388c-0.0137-0.11846-0.0556-0.48388-0.0556-0.48388z"/>
    <path id="path11001" style="fill:url(#linearGradient15743)" d="m716.44 230.54v56.781h98.031v-56.781h-98.031z"/>
    <g id="g11003" style="fill:#8e6227" transform="matrix(1 0 0 .87149 -.84239 38.62)">
      <path id="path11005" style="fill:#deaa67" d="m746.66 234.94c-1.7705 0.00002-3.1834 0.67646-4.2414 1.9973-1.058 1.3209-1.5869 2.9364-1.5869 4.846 0 2.1842 0.47103 3.8838 1.4426 5.1407 0.9716 1.2568 2.3638 1.8991 4.1837 1.8991 1.9802 0 3.5111-0.63006 4.5876-1.8991s1.6158-2.9809 1.6158-5.1407c-0.00001-2.1598-0.49899-3.8466-1.5292-5.0425-1.0302-1.1958-2.5228-1.8009-4.4722-1.8009zm37.624 0.0655-5.3955 13.588h2.6833l0.9233-2.7177h4.6453l1.0098 2.7177h2.6545l-5.4532-13.588h-1.0676zm-50.262 0.0655c-0.73412 0.00002-2.0114 0.0456-3.8374 0.13097v13.392h4.1548c1.4744 0 2.6751-0.36365 3.6066-1.0805 0.93151-0.71687 1.3849-1.6939 1.3849-2.9142-0.00001-1.812-0.82608-2.9894-2.5102-3.569 1.1351-0.61621 1.7023-1.4596 1.7023-2.5212-0.00001-1.1043-0.41912-1.9591-1.2118-2.554-0.79272-0.59485-1.8827-0.88405-3.2892-0.88407zm38.749 0c-0.73411 0.00002-2.0114 0.0456-3.8374 0.13097v13.392h4.1548c1.4744 0 2.6751-0.36365 3.6066-1.0805 0.93151-0.71687 1.3849-1.6939 1.3849-2.9142-0.00002-1.812-0.82608-2.9894-2.5102-3.569 1.1351-0.61621 1.7023-1.4596 1.7023-2.5212 0-1.1043-0.41911-1.9591-1.2118-2.554-0.79272-0.59485-1.8827-0.88405-3.2892-0.88407zm-16.446 0.0982-2.741 13.425h2.3371l1.4426-7.2363 2.741 7.4h0.86559l2.741-7.4 1.3849 7.2363h2.3371l-2.7699-13.425h-1.2695l-2.8564 9.0371-2.943-9.0371h-1.2695zm34.537 0 4.5876 7.9239v5.5009h2.3948v-5.5009l4.5588-7.9239h-2.539l-3.2315 5.7301-3.2027-5.7301h-2.5679zm-56.898 1.8664c1.425 0.00001 2.1351 0.54059 2.1351 1.5717 0 1.1653-0.77016 1.7354-2.3371 1.7354-0.40716 0-0.81284-0.008-1.183-0.0327v-3.2088c0.54286-0.0305 1.0086-0.0655 1.3849-0.0655zm38.749 0c1.425 0.00001 2.1351 0.54059 2.1351 1.5717-0.00001 1.1653-0.77016 1.7354-2.3371 1.7354-0.40715 0-0.81283-0.008-1.183-0.0327v-3.2088c0.54287-0.0305 1.0086-0.0655 1.3849-0.0655zm-26.054 0.0327c2.3442 0.00001 3.52 1.573 3.52 4.715-0.00002 1.6046-0.31982 2.8253-0.95214 3.6672-0.63233 0.84195-1.5669 1.2442-2.7699 1.2442-1.024 0-1.8004-0.41673-2.3371-1.277-0.5367-0.86025-0.80788-2.0665-0.80788-3.6345 0-1.4398 0.29187-2.5869 0.86559-3.438 0.57371-0.8511 1.4079-1.277 2.4813-1.277zm38.144 2.0301 1.6446 4.9442h-3.2604l1.6158-4.9442zm-51.012 3.0451c1.1228 0 1.9156 0.17614 2.3659 0.52389 0.45032 0.34778 0.69246 0.90727 0.69246 1.6699 0 0.83586-0.26592 1.4082-0.75017 1.7681-0.48428 0.35997-1.2637 0.55664-2.3371 0.55664-0.30229 0-0.69563-0.0228-1.183-0.0655v-4.4203c0.5737-0.0184 0.9774-0.0327 1.2118-0.0327zm38.749 0c1.1227 0 1.9156 0.17614 2.3659 0.52389 0.45033 0.34778 0.69246 0.90727 0.69247 1.6699-0.00001 0.83586-0.26592 1.4082-0.75018 1.7681-0.48427 0.35997-1.2637 0.55664-2.3371 0.55664-0.30229 0-0.69563-0.0228-1.183-0.0655v-4.4203c0.57371-0.0184 0.97739-0.0327 1.2118-0.0327zm-18.87 9.2991-2.741 13.457h2.3371l1.4715-7.2363 2.741 7.4327h0.86559l2.741-7.4327 1.4138 7.2363h2.3371l-2.7699-13.457h-1.2695l-2.8853 9.0699-2.943-9.0699h-1.2984zm12.724 0v13.457h2.4236v-13.457h-2.4236zm4.2414 0 3.7509 6.4832-4.0683 6.9743h2.5102l2.9718-4.846 3.2315 4.846h2.6256l-4.5299-6.9416 4.2991-6.5159h-2.5102l-3.0296 4.5513-2.7699-4.5513h-2.4814z"/>
    </g>
    <path id="path11007" style="fill:url(#linearGradient15745)" d="m716.85 222.92c-0.13557 0-0.27261 0.0234-0.40625 0.0312v7.2188h7.3438c0.002-0.0611 0.0312-0.12606 0.0312-0.1875 0-3.9052-3.1366-7.0625-6.9688-7.0625zm6.9688 7.0625c0 0.0609-0.002 0.12696 0 0.1875h13.844c0.002-0.0611 0.0312-0.12606 0.0312-0.1875 0-3.9052-3.1367-7.0625-6.9688-7.0625s-6.9062 3.1573-6.9062 7.0625zm13.875 0c0 0.0609-0.002 0.12696 0 0.1875h13.875c0.002-0.0611 0.0312-0.12606 0.0312-0.1875 0-3.9052-3.1366-7.0625-6.9688-7.0625-3.8321 0-6.9375 3.1573-6.9375 7.0625zm13.906 0c0 0.0609-0.002 0.12696 0 0.1875h13.844c0.002-0.0611 0.0312-0.12606 0.0312-0.1875 0-3.9052-3.1367-7.0625-6.9688-7.0625s-6.9062 3.1573-6.9062 7.0625zm13.875 0c0 0.0609-0.002 0.12696 0 0.1875h13.875c0.002-0.0611 0.0312-0.12606 0.0312-0.1875 0-3.9052-3.1366-7.0625-6.9688-7.0625-3.8321 0-6.9375 3.1573-6.9375 7.0625zm13.906 0c0 0.0609-0.002 0.12696 0 0.1875h13.844c0.002-0.0611 0.0312-0.12606 0.0312-0.1875 0-3.9052-3.1054-7.0625-6.9375-7.0625s-6.9375 3.1573-6.9375 7.0625zm13.875 0c0 0.0609-0.002 0.12696 0 0.1875h13.875c0.002-0.0611 0.0312-0.12606 0.0312-0.1875 0-3.9052-3.1366-7.0625-6.9688-7.0625-3.8321 0-6.9375 3.1573-6.9375 7.0625zm13.906 0c0 0.0609-0.002 0.12696 0 0.1875h7.3125v-7.2188c-0.12354-0.007-0.24982-0.0312-0.375-0.0312-3.8321 0-6.9375 3.1573-6.9375 7.0625z"/>
    <path id="path11009" d="m716.44 229.13v4.1562h98.031v-4.1562h-98.031z" style="fill:url(#linearGradient15747)"/>
    <g id="g11186" transform="translate(-.84242 57.821)">
      <path id="path11182" style="fill:url(#linearGradient15749)" d="m717.69 221.85c-0.13557 0-0.27261 0.0234-0.40625 0.0312v7.2188h7.3438c0.002-0.0611 0.0312-0.12606 0.0312-0.1875 0-3.9052-3.1366-7.0625-6.9688-7.0625zm6.9688 7.0625c0 0.0609-0.002 0.12696 0 0.1875h13.844c0.002-0.0611 0.0312-0.12606 0.0312-0.1875 0-3.9052-3.1367-7.0625-6.9688-7.0625s-6.9062 3.1573-6.9062 7.0625zm13.875 0c0 0.0609-0.002 0.12696 0 0.1875h13.875c0.002-0.0611 0.0312-0.12606 0.0312-0.1875 0-3.9052-3.1366-7.0625-6.9688-7.0625-3.8321 0-6.9375 3.1573-6.9375 7.0625zm13.906 0c0 0.0609-0.002 0.12696 0 0.1875h13.844c0.002-0.0611 0.0312-0.12606 0.0312-0.1875 0-3.9052-3.1367-7.0625-6.9688-7.0625s-6.9062 3.1573-6.9062 7.0625zm13.875 0c0 0.0609-0.002 0.12696 0 0.1875h13.875c0.002-0.0611 0.0312-0.12606 0.0312-0.1875 0-3.9052-3.1366-7.0625-6.9688-7.0625-3.8321 0-6.9375 3.1573-6.9375 7.0625zm13.906 0c0 0.0609-0.002 0.12696 0 0.1875h13.844c0.002-0.0611 0.0312-0.12606 0.0312-0.1875 0-3.9052-3.1054-7.0625-6.9375-7.0625s-6.9375 3.1573-6.9375 7.0625zm13.875 0c0 0.0609-0.002 0.12696 0 0.1875h13.875c0.002-0.0611 0.0312-0.12606 0.0312-0.1875 0-3.9052-3.1366-7.0625-6.9688-7.0625-3.8321 0-6.9375 3.1573-6.9375 7.0625zm13.906 0c0 0.0609-0.002 0.12696 0 0.1875h7.3125v-7.2188c-0.12354-0.007-0.24982-0.0312-0.375-0.0312-3.8321 0-6.9375 3.1573-6.9375 7.0625z"/>
      <path id="path11184" d="m717.28 228.06v4.1562h98.031v-4.1562h-98.031z" style="fill:url(#linearGradient15751)"/>
    </g>
    <path id="path11013" style="fill:url(#linearGradient15753)" d="m716.44 289.9v29.725h98.031v-29.725h-98.031z"/>
    <g id="g11017" style="fill:#deaa67" transform="translate(-1.2736 2.0209)">
      <g id="g11019" style="fill:#deaa67">
        <path id="rect11021" style="opacity:.83186;fill:#deaa67" transform="translate(0 52.362)" d="m721.62 238.75c0.4155 0 0.75 0.3345 0.75 0.75v6.5c0 0.4155-0.3345 0.75-0.75 0.75s-0.75-0.3345-0.75-0.75v-6.5c0-0.4155 0.3345-0.75 0.75-0.75z"/>
        <path id="path11024" style="opacity:.83186;fill:#deaa67" transform="translate(-.6875 51.05)" d="m724.75 251.69c0 1.3462-1.0913 2.4375-2.4375 2.4375s-2.4375-1.0913-2.4375-2.4375 1.0913-2.4375 2.4375-2.4375 2.4375 1.0913 2.4375 2.4375z"/>
        <path id="rect11026" style="opacity:.83186;fill:#deaa67" d="m721.62 306.36c0.4155 0 0.75 0.3345 0.75 0.75v6.5c0 0.4155-0.3345 0.75-0.75 0.75s-0.75-0.3345-0.75-0.75v-6.5c0-0.4155 0.3345-0.75 0.75-0.75z"/>
      </g>
      <g id="g11028" style="fill:#deaa67" transform="translate(-.23709 .0000023086)">
        <path id="path11030" style="opacity:.83186;fill:#deaa67" transform="translate(5.1875 41.862)" d="m724.75 251.69c0 1.3462-1.0913 2.4375-2.4375 2.4375s-2.4375-1.0913-2.4375-2.4375 1.0913-2.4375 2.4375-2.4375 2.4375 1.0913 2.4375 2.4375z"/>
        <path id="path11032" style="opacity:.83186;fill:#deaa67" transform="translate(5.1875 60.237)" d="m724.75 251.69c0 1.3462-1.0913 2.4375-2.4375 2.4375s-2.4375-1.0913-2.4375-2.4375 1.0913-2.4375 2.4375-2.4375 2.4375 1.0913 2.4375 2.4375z"/>
        <path id="rect11034" style="opacity:.83186;fill:#deaa67" d="m727.5 298.74c0.4155 0 0.75 0.3345 0.75 0.75v6.5c0 0.4155-0.3345 0.75-0.75 0.75s-0.75-0.3345-0.75-0.75v-6.5c0-0.4155 0.3345-0.75 0.75-0.75z"/>
      </g>
      <g id="g11036" style="fill:#deaa67" transform="translate(11.276)">
        <path id="rect11038" style="opacity:.83186;fill:#deaa67" transform="translate(0 52.362)" d="m721.62 238.75c0.4155 0 0.75 0.3345 0.75 0.75v6.5c0 0.4155-0.3345 0.75-0.75 0.75s-0.75-0.3345-0.75-0.75v-6.5c0-0.4155 0.3345-0.75 0.75-0.75z"/>
        <path id="path11040" style="opacity:.83186;fill:#deaa67" transform="translate(-.6875 51.05)" d="m724.75 251.69c0 1.3462-1.0913 2.4375-2.4375 2.4375s-2.4375-1.0913-2.4375-2.4375 1.0913-2.4375 2.4375-2.4375 2.4375 1.0913 2.4375 2.4375z"/>
        <path id="rect11042" style="opacity:.83186;fill:#deaa67" d="m721.62 306.36c0.4155 0 0.75 0.3345 0.75 0.75v6.5c0 0.4155-0.3345 0.75-0.75 0.75s-0.75-0.3345-0.75-0.75v-6.5c0-0.4155 0.3345-0.75 0.75-0.75z"/>
      </g>
      <g id="g11044" style="fill:#deaa67" transform="translate(11.039 .0000023086)">
        <path id="path11046" style="opacity:.83186;fill:#deaa67" transform="translate(5.1875 41.862)" d="m724.75 251.69c0 1.3462-1.0913 2.4375-2.4375 2.4375s-2.4375-1.0913-2.4375-2.4375 1.0913-2.4375 2.4375-2.4375 2.4375 1.0913 2.4375 2.4375z"/>
        <path id="path11048" style="opacity:.83186;fill:#deaa67" transform="translate(5.1875 60.237)" d="m724.75 251.69c0 1.3462-1.0913 2.4375-2.4375 2.4375s-2.4375-1.0913-2.4375-2.4375 1.0913-2.4375 2.4375-2.4375 2.4375 1.0913 2.4375 2.4375z"/>
        <path id="rect11050" style="opacity:.83186;fill:#deaa67" d="m727.5 298.74c0.4155 0 0.75 0.3345 0.75 0.75v6.5c0 0.4155-0.3345 0.75-0.75 0.75s-0.75-0.3345-0.75-0.75v-6.5c0-0.4155 0.3345-0.75 0.75-0.75z"/>
      </g>
      <g id="g11052" style="fill:#deaa67" transform="translate(22.552)">
        <path id="rect11054" style="opacity:.83186;fill:#deaa67" transform="translate(0 52.362)" d="m721.62 238.75c0.4155 0 0.75 0.3345 0.75 0.75v6.5c0 0.4155-0.3345 0.75-0.75 0.75s-0.75-0.3345-0.75-0.75v-6.5c0-0.4155 0.3345-0.75 0.75-0.75z"/>
        <path id="path11056" style="opacity:.83186;fill:#deaa67" transform="translate(-.6875 51.05)" d="m724.75 251.69c0 1.3462-1.0913 2.4375-2.4375 2.4375s-2.4375-1.0913-2.4375-2.4375 1.0913-2.4375 2.4375-2.4375 2.4375 1.0913 2.4375 2.4375z"/>
        <path id="rect11058" style="opacity:.83186;fill:#deaa67" d="m721.62 306.36c0.4155 0 0.75 0.3345 0.75 0.75v6.5c0 0.4155-0.3345 0.75-0.75 0.75s-0.75-0.3345-0.75-0.75v-6.5c0-0.4155 0.3345-0.75 0.75-0.75z"/>
      </g>
      <g id="g11060" style="fill:#deaa67" transform="translate(22.314 .0000023086)">
        <path id="path11062" style="opacity:.83186;fill:#deaa67" transform="translate(5.1875 41.862)" d="m724.75 251.69c0 1.3462-1.0913 2.4375-2.4375 2.4375s-2.4375-1.0913-2.4375-2.4375 1.0913-2.4375 2.4375-2.4375 2.4375 1.0913 2.4375 2.4375z"/>
        <path id="path11064" style="opacity:.83186;fill:#deaa67" transform="translate(5.1875 60.237)" d="m724.75 251.69c0 1.3462-1.0913 2.4375-2.4375 2.4375s-2.4375-1.0913-2.4375-2.4375 1.0913-2.4375 2.4375-2.4375 2.4375 1.0913 2.4375 2.4375z"/>
        <path id="rect11066" style="opacity:.83186;fill:#deaa67" d="m727.5 298.74c0.4155 0 0.75 0.3345 0.75 0.75v6.5c0 0.4155-0.3345 0.75-0.75 0.75s-0.75-0.3345-0.75-0.75v-6.5c0-0.4155 0.3345-0.75 0.75-0.75z"/>
      </g>
      <g id="g11068" style="fill:#deaa67" transform="translate(33.827)">
        <path id="rect11070" style="opacity:.83186;fill:#deaa67" transform="translate(0 52.362)" d="m721.62 238.75c0.4155 0 0.75 0.3345 0.75 0.75v6.5c0 0.4155-0.3345 0.75-0.75 0.75s-0.75-0.3345-0.75-0.75v-6.5c0-0.4155 0.3345-0.75 0.75-0.75z"/>
        <path id="path11072" style="opacity:.83186;fill:#deaa67" transform="translate(-.6875 51.05)" d="m724.75 251.69c0 1.3462-1.0913 2.4375-2.4375 2.4375s-2.4375-1.0913-2.4375-2.4375 1.0913-2.4375 2.4375-2.4375 2.4375 1.0913 2.4375 2.4375z"/>
        <path id="rect11074" style="opacity:.83186;fill:#deaa67" d="m721.62 306.36c0.4155 0 0.75 0.3345 0.75 0.75v6.5c0 0.4155-0.3345 0.75-0.75 0.75s-0.75-0.3345-0.75-0.75v-6.5c0-0.4155 0.3345-0.75 0.75-0.75z"/>
      </g>
      <g id="g11076" style="fill:#deaa67" transform="translate(33.59 .0000023086)">
        <path id="path11078" style="opacity:.83186;fill:#deaa67" transform="translate(5.1875 41.862)" d="m724.75 251.69c0 1.3462-1.0913 2.4375-2.4375 2.4375s-2.4375-1.0913-2.4375-2.4375 1.0913-2.4375 2.4375-2.4375 2.4375 1.0913 2.4375 2.4375z"/>
        <path id="path11080" style="opacity:.83186;fill:#deaa67" transform="translate(5.1875 60.237)" d="m724.75 251.69c0 1.3462-1.0913 2.4375-2.4375 2.4375s-2.4375-1.0913-2.4375-2.4375 1.0913-2.4375 2.4375-2.4375 2.4375 1.0913 2.4375 2.4375z"/>
        <path id="rect11082" style="opacity:.83186;fill:#deaa67" d="m727.5 298.74c0.4155 0 0.75 0.3345 0.75 0.75v6.5c0 0.4155-0.3345 0.75-0.75 0.75s-0.75-0.3345-0.75-0.75v-6.5c0-0.4155 0.3345-0.75 0.75-0.75z"/>
      </g>
      <g id="g11084" style="fill:#deaa67" transform="translate(45.103)">
        <path id="rect11086" style="opacity:.83186;fill:#deaa67" transform="translate(0 52.362)" d="m721.62 238.75c0.4155 0 0.75 0.3345 0.75 0.75v6.5c0 0.4155-0.3345 0.75-0.75 0.75s-0.75-0.3345-0.75-0.75v-6.5c0-0.4155 0.3345-0.75 0.75-0.75z"/>
        <path id="path11088" style="opacity:.83186;fill:#deaa67" transform="translate(-.6875 51.05)" d="m724.75 251.69c0 1.3462-1.0913 2.4375-2.4375 2.4375s-2.4375-1.0913-2.4375-2.4375 1.0913-2.4375 2.4375-2.4375 2.4375 1.0913 2.4375 2.4375z"/>
        <path id="rect11090" style="opacity:.83186;fill:#deaa67" d="m721.62 306.36c0.4155 0 0.75 0.3345 0.75 0.75v6.5c0 0.4155-0.3345 0.75-0.75 0.75s-0.75-0.3345-0.75-0.75v-6.5c0-0.4155 0.3345-0.75 0.75-0.75z"/>
      </g>
      <g id="g11092" style="fill:#deaa67" transform="translate(44.866 .0000023086)">
        <path id="path11094" style="opacity:.83186;fill:#deaa67" transform="translate(5.1875 41.862)" d="m724.75 251.69c0 1.3462-1.0913 2.4375-2.4375 2.4375s-2.4375-1.0913-2.4375-2.4375 1.0913-2.4375 2.4375-2.4375 2.4375 1.0913 2.4375 2.4375z"/>
        <path id="path11096" style="opacity:.83186;fill:#deaa67" transform="translate(5.1875 60.237)" d="m724.75 251.69c0 1.3462-1.0913 2.4375-2.4375 2.4375s-2.4375-1.0913-2.4375-2.4375 1.0913-2.4375 2.4375-2.4375 2.4375 1.0913 2.4375 2.4375z"/>
        <path id="rect11098" style="opacity:.83186;fill:#deaa67" d="m727.5 298.74c0.4155 0 0.75 0.3345 0.75 0.75v6.5c0 0.4155-0.3345 0.75-0.75 0.75s-0.75-0.3345-0.75-0.75v-6.5c0-0.4155 0.3345-0.75 0.75-0.75z"/>
      </g>
      <g id="g11100" style="fill:#deaa67" transform="translate(56.379)">
        <path id="rect11102" style="opacity:.83186;fill:#deaa67" transform="translate(0 52.362)" d="m721.62 238.75c0.4155 0 0.75 0.3345 0.75 0.75v6.5c0 0.4155-0.3345 0.75-0.75 0.75s-0.75-0.3345-0.75-0.75v-6.5c0-0.4155 0.3345-0.75 0.75-0.75z"/>
        <path id="path11104" style="opacity:.83186;fill:#deaa67" transform="translate(-.6875 51.05)" d="m724.75 251.69c0 1.3462-1.0913 2.4375-2.4375 2.4375s-2.4375-1.0913-2.4375-2.4375 1.0913-2.4375 2.4375-2.4375 2.4375 1.0913 2.4375 2.4375z"/>
        <path id="rect11106" style="opacity:.83186;fill:#deaa67" d="m721.62 306.36c0.4155 0 0.75 0.3345 0.75 0.75v6.5c0 0.4155-0.3345 0.75-0.75 0.75s-0.75-0.3345-0.75-0.75v-6.5c0-0.4155 0.3345-0.75 0.75-0.75z"/>
      </g>
      <g id="g11108" style="fill:#deaa67" transform="translate(56.142 .0000023086)">
        <path id="path11110" style="opacity:.83186;fill:#deaa67" transform="translate(5.1875 41.862)" d="m724.75 251.69c0 1.3462-1.0913 2.4375-2.4375 2.4375s-2.4375-1.0913-2.4375-2.4375 1.0913-2.4375 2.4375-2.4375 2.4375 1.0913 2.4375 2.4375z"/>
        <path id="path11112" style="opacity:.83186;fill:#deaa67" transform="translate(5.1875 60.237)" d="m724.75 251.69c0 1.3462-1.0913 2.4375-2.4375 2.4375s-2.4375-1.0913-2.4375-2.4375 1.0913-2.4375 2.4375-2.4375 2.4375 1.0913 2.4375 2.4375z"/>
        <path id="rect11114" style="opacity:.83186;fill:#deaa67" d="m727.5 298.74c0.4155 0 0.75 0.3345 0.75 0.75v6.5c0 0.4155-0.3345 0.75-0.75 0.75s-0.75-0.3345-0.75-0.75v-6.5c0-0.4155 0.3345-0.75 0.75-0.75z"/>
      </g>
      <g id="g11116" style="fill:#deaa67" transform="translate(67.655)">
        <path id="rect11118" style="opacity:.83186;fill:#deaa67" transform="translate(0 52.362)" d="m721.62 238.75c0.4155 0 0.75 0.3345 0.75 0.75v6.5c0 0.4155-0.3345 0.75-0.75 0.75s-0.75-0.3345-0.75-0.75v-6.5c0-0.4155 0.3345-0.75 0.75-0.75z"/>
        <path id="path11120" style="opacity:.83186;fill:#deaa67" transform="translate(-.6875 51.05)" d="m724.75 251.69c0 1.3462-1.0913 2.4375-2.4375 2.4375s-2.4375-1.0913-2.4375-2.4375 1.0913-2.4375 2.4375-2.4375 2.4375 1.0913 2.4375 2.4375z"/>
        <path id="rect11122" style="opacity:.83186;fill:#deaa67" d="m721.62 306.36c0.4155 0 0.75 0.3345 0.75 0.75v6.5c0 0.4155-0.3345 0.75-0.75 0.75s-0.75-0.3345-0.75-0.75v-6.5c0-0.4155 0.3345-0.75 0.75-0.75z"/>
      </g>
      <g id="g11124" style="fill:#deaa67" transform="translate(67.417 .0000023086)">
        <path id="path11126" style="opacity:.83186;fill:#deaa67" transform="translate(5.1875 41.862)" d="m724.75 251.69c0 1.3462-1.0913 2.4375-2.4375 2.4375s-2.4375-1.0913-2.4375-2.4375 1.0913-2.4375 2.4375-2.4375 2.4375 1.0913 2.4375 2.4375z"/>
        <path id="path11128" style="opacity:.83186;fill:#deaa67" transform="translate(5.1875 60.237)" d="m724.75 251.69c0 1.3462-1.0913 2.4375-2.4375 2.4375s-2.4375-1.0913-2.4375-2.4375 1.0913-2.4375 2.4375-2.4375 2.4375 1.0913 2.4375 2.4375z"/>
        <path id="rect11130" style="opacity:.83186;fill:#deaa67" d="m727.5 298.74c0.4155 0 0.75 0.3345 0.75 0.75v6.5c0 0.4155-0.3345 0.75-0.75 0.75s-0.75-0.3345-0.75-0.75v-6.5c0-0.4155 0.3345-0.75 0.75-0.75z"/>
      </g>
      <g id="g11132" style="fill:#deaa67" transform="translate(78.93)">
        <path id="rect11134" style="opacity:.83186;fill:#deaa67" transform="translate(0 52.362)" d="m721.62 238.75c0.4155 0 0.75 0.3345 0.75 0.75v6.5c0 0.4155-0.3345 0.75-0.75 0.75s-0.75-0.3345-0.75-0.75v-6.5c0-0.4155 0.3345-0.75 0.75-0.75z"/>
        <path id="path11136" style="opacity:.83186;fill:#deaa67" transform="translate(-.6875 51.05)" d="m724.75 251.69c0 1.3462-1.0913 2.4375-2.4375 2.4375s-2.4375-1.0913-2.4375-2.4375 1.0913-2.4375 2.4375-2.4375 2.4375 1.0913 2.4375 2.4375z"/>
        <path id="rect11138" style="opacity:.83186;fill:#deaa67" d="m721.62 306.36c0.4155 0 0.75 0.3345 0.75 0.75v6.5c0 0.4155-0.3345 0.75-0.75 0.75s-0.75-0.3345-0.75-0.75v-6.5c0-0.4155 0.3345-0.75 0.75-0.75z"/>
      </g>
      <g id="g11140" style="fill:#deaa67" transform="translate(78.693 .0000023086)">
        <path id="path11142" style="opacity:.83186;fill:#deaa67" transform="translate(5.1875 41.862)" d="m724.75 251.69c0 1.3462-1.0913 2.4375-2.4375 2.4375s-2.4375-1.0913-2.4375-2.4375 1.0913-2.4375 2.4375-2.4375 2.4375 1.0913 2.4375 2.4375z"/>
        <path id="path11144" style="opacity:.83186;fill:#deaa67" transform="translate(5.1875 60.237)" d="m724.75 251.69c0 1.3462-1.0913 2.4375-2.4375 2.4375s-2.4375-1.0913-2.4375-2.4375 1.0913-2.4375 2.4375-2.4375 2.4375 1.0913 2.4375 2.4375z"/>
        <path id="rect11146" style="opacity:.83186;fill:#deaa67" d="m727.5 298.74c0.4155 0 0.75 0.3345 0.75 0.75v6.5c0 0.4155-0.3345 0.75-0.75 0.75s-0.75-0.3345-0.75-0.75v-6.5c0-0.4155 0.3345-0.75 0.75-0.75z"/>
      </g>
      <g id="g11148" style="fill:#deaa67" transform="translate(90.206)">
        <path id="rect11150" style="opacity:.83186;fill:#deaa67" transform="translate(0 52.362)" d="m721.62 238.75c0.4155 0 0.75 0.3345 0.75 0.75v6.5c0 0.4155-0.3345 0.75-0.75 0.75s-0.75-0.3345-0.75-0.75v-6.5c0-0.4155 0.3345-0.75 0.75-0.75z"/>
        <path id="path11152" style="opacity:.83186;fill:#deaa67" transform="translate(-.6875 51.05)" d="m724.75 251.69c0 1.3462-1.0913 2.4375-2.4375 2.4375s-2.4375-1.0913-2.4375-2.4375 1.0913-2.4375 2.4375-2.4375 2.4375 1.0913 2.4375 2.4375z"/>
        <path id="rect11154" style="opacity:.83186;fill:#deaa67" d="m721.62 306.36c0.4155 0 0.75 0.3345 0.75 0.75v6.5c0 0.4155-0.3345 0.75-0.75 0.75s-0.75-0.3345-0.75-0.75v-6.5c0-0.4155 0.3345-0.75 0.75-0.75z"/>
      </g>
    </g>
  </g>
</svg>