<?xml version="1.0" ?><svg id="Layer_1" style="enable-background:new 0 0 50 50;" version="1.1" viewBox="0 0 50 50" xml:space="preserve" xmlns="http://www.w3.org/2000/svg" xmlns:xlink="http://www.w3.org/1999/xlink"><style type="text/css">
	.st0{fill:#F0C4DB;}
	.st1{fill:#FF9D9C;}
	.st2{fill:#9BEAF9;}
	.st3{fill:#E9F4BC;}
	.st4{fill:#505050;}
	.st5{fill:#FEBECC;}
	.st6{fill:#FFFFFF;}
	.st7{fill:#FDE4A1;}
	.st8{fill:#FEE7B5;}
	.st9{fill:#CDF6FC;}
	.st10{fill:#F2C6DD;}
	.st11{opacity:0.1;}
</style><g><path class="st5" d="M47.82,28.09c-1.49-0.48-3.07-0.75-4.71-0.75c-8.43,0-15.26,6.83-15.26,15.26c0,2.23,0.49,4.35,1.35,6.26   h18.63V28.09z"/><g><g><rect class="st3" height="8" width="8" x="2.93" y="40.14"/><rect class="st9" height="8" width="8" x="19.82" y="40.14"/><rect class="st3" height="8" width="8" x="36.72" y="40.14"/><path class="st2" d="M36.62,15.46c-0.31-2.09-1.13-4.01-2.33-5.64l2.13-2.13L33.8,5.08l-2.13,2.13     c-1.62-1.21-3.55-2.03-5.64-2.34V1.86h-3.71v3.01c-2.09,0.31-4.01,1.13-5.63,2.34l-2.13-2.13L11.94,7.7l2.13,2.13     c-1.21,1.63-2.03,3.55-2.34,5.64H8.73v3.71h3.01c0.31,2.09,1.13,4.01,2.34,5.64l-2.13,2.13l2.62,2.62l2.13-2.13     c1.62,1.21,3.54,2.03,5.63,2.34v3.01h3.71v-3.01c2.09-0.31,4.02-1.13,5.64-2.34l2.13,2.13l2.62-2.62l-2.13-2.13     c1.21-1.63,2.03-3.55,2.33-5.64h3.01v-3.71H36.62z M24.18,24.67c-4.06,0-7.36-3.3-7.36-7.36c0-4.06,3.3-7.36,7.36-7.36     s7.36,3.3,7.36,7.36C31.54,21.37,28.24,24.67,24.18,24.67z"/></g><g><path class="st4" d="M44.72,39.39h-3.25v-2.93c0-0.41-0.34-0.75-0.75-0.75H24.58v-2.18h1.46c0.2,0,0.39-0.08,0.53-0.22     c0.14-0.14,0.22-0.33,0.22-0.53v-2.39c1.72-0.34,3.34-1.01,4.8-1.99l1.69,1.69c0.28,0.28,0.78,0.28,1.06,0l2.61-2.62     c0.15-0.15,0.22-0.33,0.22-0.53c0-0.2-0.07-0.39-0.22-0.53l-1.68-1.68c0.98-1.47,1.65-3.08,1.99-4.81h2.38     c0.2,0,0.39-0.08,0.53-0.22c0.14-0.14,0.22-0.33,0.22-0.53v-3.7c0-0.2-0.08-0.39-0.22-0.53c-0.14-0.15-0.33-0.22-0.53-0.22h-2.38     c-0.34-1.72-1.01-3.34-1.99-4.81l1.68-1.68c0.15-0.14,0.22-0.33,0.22-0.53c0-0.2-0.07-0.39-0.22-0.53l-2.61-2.62     c-0.28-0.28-0.78-0.28-1.06,0l-1.69,1.69c-1.46-0.99-3.08-1.66-4.8-2V1.86c0-0.2-0.08-0.39-0.22-0.53     c-0.14-0.14-0.33-0.22-0.53-0.22h-3.71c-0.2,0-0.39,0.08-0.53,0.22c-0.14,0.14-0.22,0.33-0.22,0.53v2.38     c-1.72,0.34-3.33,1.01-4.8,2l-1.68-1.69c-0.29-0.28-0.78-0.28-1.06,0l-2.62,2.62c-0.14,0.14-0.22,0.33-0.22,0.53     c0,0.2,0.08,0.39,0.22,0.53l1.68,1.68c-0.98,1.47-1.65,3.09-1.99,4.81H8.72c-0.19,0-0.39,0.08-0.53,0.22     c-0.14,0.14-0.22,0.33-0.22,0.53v3.7c0,0.2,0.08,0.39,0.22,0.53c0.14,0.14,0.34,0.22,0.53,0.22h2.38     c0.07,0.34,0.14,0.67,0.23,0.98c0.11,0.39,0.53,0.63,0.93,0.53c0.39-0.12,0.63-0.53,0.52-0.93c-0.14-0.48-0.24-0.96-0.31-1.44     c-0.05-0.36-0.37-0.64-0.74-0.64H9.47v-2.2h2.26c0.38,0,0.69-0.27,0.74-0.65c0.28-1.9,1.04-3.73,2.2-5.3     c0.22-0.29,0.19-0.71-0.07-0.97l-1.6-1.6l1.56-1.56l1.6,1.6c0.25,0.26,0.68,0.29,0.98,0.08c1.55-1.16,3.38-1.92,5.29-2.2     c0.37-0.06,0.64-0.38,0.64-0.75V2.61h2.21v2.26c0,0.37,0.28,0.69,0.64,0.75c1.91,0.28,3.74,1.04,5.3,2.2     c0.29,0.21,0.72,0.18,0.98-0.08l1.6-1.6l1.55,1.56l-1.59,1.6c-0.26,0.26-0.3,0.68-0.08,0.97c1.13,1.53,1.89,3.32,2.18,5.18     c0,0.04,0.01,0.08,0.02,0.12c0.05,0.38,0.36,0.65,0.74,0.65h2.26v2.2h-2.26c-0.37,0-0.69,0.28-0.74,0.64     c-0.28,1.91-1.04,3.74-2.2,5.3c-0.22,0.3-0.18,0.72,0.08,0.98l1.59,1.6L33.8,28.5l-1.6-1.6c-0.26-0.26-0.69-0.29-0.98-0.08     c-1.56,1.16-3.39,1.92-5.3,2.2c-0.36,0.05-0.64,0.37-0.64,0.74v2.27h-1.44c-0.01,0-0.01,0-0.02,0s-0.01,0-0.02,0h-0.73v-2.27     c0-0.37-0.27-0.69-0.64-0.74c-1.91-0.28-3.74-1.04-5.29-2.2c-0.3-0.21-0.73-0.18-0.98,0.08l-1.6,1.6l-1.56-1.56l1.6-1.6     c0.26-0.26,0.29-0.68,0.07-0.98c-0.1-0.13-0.22-0.29-0.33-0.46c-0.22-0.33-0.7-0.43-1.03-0.2c-0.17,0.11-0.29,0.28-0.32,0.48     c-0.04,0.19-0.01,0.38,0.1,0.54l-1.68,1.69c-0.3,0.29-0.3,0.76,0,1.06l2.62,2.62c0.28,0.28,0.77,0.28,1.06,0l1.68-1.69     c1.46,0.98,3.08,1.66,4.8,2v2.38c0,0.19,0.08,0.39,0.22,0.53c0.14,0.14,0.34,0.22,0.53,0.22h0.75v2.18H6.93     c-0.41,0-0.75,0.34-0.75,0.75v2.93H2.93c-0.41,0-0.75,0.34-0.75,0.75v8c0,0.41,0.34,0.75,0.75,0.75h8c0.41,0,0.75-0.34,0.75-0.75     v-8c0-0.41-0.34-0.75-0.75-0.75H7.68v-2.18h15.39v2.18h-3.25c-0.41,0-0.75,0.34-0.75,0.75v8c0,0.41,0.34,0.75,0.75,0.75h8     c0.41,0,0.75-0.34,0.75-0.75v-8c0-0.41-0.34-0.75-0.75-0.75h-3.25v-2.18h15.39v2.18h-3.25c-0.41,0-0.75,0.34-0.75,0.75v8     c0,0.41,0.34,0.75,0.75,0.75h8c0.41,0,0.75-0.34,0.75-0.75v-8C45.47,39.73,45.14,39.39,44.72,39.39z M10.18,47.39h-6.5v-6.5h6.5     V47.39z M27.07,47.39h-6.5v-6.5h6.5V47.39z M43.97,47.39h-6.5v-6.5h6.5V47.39z"/><path class="st4" d="M12.74,23.33c0.11,0,0.22-0.02,0.32-0.07c0.37-0.17,0.54-0.62,0.37-1c-0.01,0-0.01,0-0.01-0.01     c-0.17-0.35-0.63-0.52-0.99-0.35c-0.18,0.08-0.32,0.23-0.39,0.42c-0.07,0.18-0.06,0.38,0.02,0.56c0,0.01,0,0.01,0,0.01     C12.18,23.16,12.46,23.33,12.74,23.33z"/><path class="st4" d="M24.18,25.42c4.47,0,8.11-3.64,8.11-8.1s-3.64-8.11-8.11-8.11s-8.11,3.64-8.11,8.11S19.71,25.42,24.18,25.42     z M24.18,10.71c3.64,0,6.61,2.96,6.61,6.61s-2.96,6.6-6.61,6.6s-6.61-2.96-6.61-6.6S20.54,10.71,24.18,10.71z"/></g></g></g></svg>