<?xml version="1.0" ?><svg id="Layer_1" style="enable-background:new 0 0 50 50;" version="1.1" viewBox="0 0 50 50" xml:space="preserve" xmlns="http://www.w3.org/2000/svg" xmlns:xlink="http://www.w3.org/1999/xlink"><style type="text/css">
	.st0{fill:#F0C4DB;}
	.st1{fill:#FF9D9C;}
	.st2{fill:#9BEAF9;}
	.st3{fill:#E9F4BC;}
	.st4{fill:#505050;}
	.st5{fill:#FEBECC;}
	.st6{fill:#FFFFFF;}
	.st7{fill:#FDE4A1;}
	.st8{fill:#FEE7B5;}
	.st9{fill:#CDF6FC;}
	.st10{fill:#F2C6DD;}
	.st11{opacity:0.1;}
</style><g><path class="st5" d="M48.88,20.3c-2.04-0.66-4.22-1.03-6.48-1.03c-11.6,0-21,9.4-21,21c0,3.07,0.67,5.98,1.86,8.61h25.62V20.3z"/><g><g><rect class="st6" height="26.33" width="39.69" x="5.03" y="1.88"/><g><circle class="st1" cx="17.2" cy="9.89" r="4"/><path class="st2" d="M25.43,24.2H8.98c0.01-3.31,1.98-6.16,4.81-7.46l3.2,4.5l3.3-4.64C23.29,17.82,25.41,20.76,25.43,24.2z"/></g><circle class="st7" cx="8.48" cy="35.95" r="3.33"/><path class="st1" d="M15.09,47.87c-0.22-3.46-3.09-6.2-6.61-6.2c-3.52,0-6.39,2.74-6.61,6.2H15.09z"/><circle class="st7" cx="24.87" cy="35.95" r="3.33"/><path class="st1" d="M31.48,47.87c-0.22-3.46-3.09-6.2-6.61-6.2c-3.52,0-6.39,2.74-6.61,6.2H31.48z"/><circle class="st7" cx="41.27" cy="35.95" r="3.33"/><path class="st1" d="M47.88,47.87c-0.22-3.46-3.09-6.2-6.61-6.2c-3.52,0-6.39,2.74-6.61,6.2H47.88z"/></g><g><path class="st4" d="M5.03,28.96h39.69c0.41,0,0.75-0.34,0.75-0.75V1.88c0-0.41-0.34-0.75-0.75-0.75H5.03     c-0.41,0-0.75,0.34-0.75,0.75v26.33C4.28,28.62,4.61,28.96,5.03,28.96z M5.78,2.63h38.19v24.83H5.78V2.63z"/><path class="st4" d="M17.2,14.64c2.62,0,4.75-2.13,4.75-4.75c0-2.62-2.13-4.75-4.75-4.75c-2.62,0-4.75,2.13-4.75,4.75     C12.45,12.51,14.58,14.64,17.2,14.64z M17.2,6.63c1.79,0,3.25,1.46,3.25,3.25S19,13.14,17.2,13.14s-3.25-1.46-3.25-3.25     S15.41,6.63,17.2,6.63z"/><path class="st4" d="M20.57,15.91c-0.32-0.13-0.69-0.02-0.89,0.26l-2.69,3.78l-2.59-3.64c-0.21-0.29-0.6-0.4-0.92-0.25     c-3.18,1.45-5.24,4.64-5.25,8.14c0,0.2,0.08,0.39,0.22,0.53s0.33,0.22,0.53,0.22h16.44c0.2,0,0.39-0.08,0.53-0.22     s0.22-0.33,0.22-0.53C26.16,20.54,23.96,17.29,20.57,15.91z M9.77,23.45c0.25-2.4,1.67-4.56,3.78-5.75l2.83,3.97     c0.28,0.4,0.94,0.4,1.22,0l2.94-4.14c2.29,1.14,3.83,3.37,4.09,5.91H9.77z"/><path class="st4" d="M40.77,8.74H26.49c-0.41,0-0.75,0.34-0.75,0.75s0.34,0.75,0.75,0.75h14.28c0.41,0,0.75-0.34,0.75-0.75     S41.18,8.74,40.77,8.74z"/><path class="st4" d="M40.77,12.54H26.49c-0.41,0-0.75,0.34-0.75,0.75s0.34,0.75,0.75,0.75h14.28c0.41,0,0.75-0.34,0.75-0.75     S41.18,12.54,40.77,12.54z"/><path class="st4" d="M33.07,16.34h-6.58c-0.41,0-0.75,0.34-0.75,0.75s0.34,0.75,0.75,0.75h6.58c0.41,0,0.75-0.34,0.75-0.75     S33.48,16.34,33.07,16.34z"/><path class="st4" d="M4.4,35.95c0,2.25,1.83,4.08,4.08,4.08s4.08-1.83,4.08-4.08s-1.83-4.08-4.08-4.08S4.4,33.7,4.4,35.95z      M11.06,35.95c0,1.42-1.16,2.58-2.58,2.58S5.9,37.37,5.9,35.95s1.16-2.58,2.58-2.58S11.06,34.53,11.06,35.95z"/><path class="st4" d="M8.48,40.92c-3.88,0-7.11,3.03-7.36,6.9c-0.01,0.21,0.06,0.41,0.2,0.56c0.14,0.15,0.34,0.24,0.55,0.24h13.21     c0.21,0,0.41-0.09,0.55-0.24c0.14-0.15,0.21-0.35,0.2-0.56C15.59,43.95,12.36,40.92,8.48,40.92z M2.73,47.12     c0.55-2.69,2.94-4.7,5.75-4.7s5.2,2.01,5.75,4.7H2.73z"/><path class="st4" d="M20.8,35.95c0,2.25,1.83,4.08,4.08,4.08s4.08-1.83,4.08-4.08s-1.83-4.08-4.08-4.08S20.8,33.7,20.8,35.95z      M27.45,35.95c0,1.42-1.16,2.58-2.58,2.58s-2.58-1.16-2.58-2.58s1.16-2.58,2.58-2.58S27.45,34.53,27.45,35.95z"/><path class="st4" d="M24.88,40.92c-3.88,0-7.11,3.03-7.36,6.9c-0.01,0.21,0.06,0.41,0.2,0.56c0.14,0.15,0.34,0.24,0.55,0.24     h13.21c0.21,0,0.41-0.09,0.55-0.24c0.14-0.15,0.21-0.35,0.2-0.56C31.98,43.95,28.75,40.92,24.88,40.92z M19.12,47.12     c0.55-2.69,2.94-4.7,5.75-4.7s5.2,2.01,5.75,4.7H19.12z"/><path class="st4" d="M41.27,31.87c-2.25,0-4.08,1.83-4.08,4.08s1.83,4.08,4.08,4.08s4.08-1.83,4.08-4.08S43.52,31.87,41.27,31.87     z M41.27,38.53c-1.42,0-2.58-1.16-2.58-2.58s1.16-2.58,2.58-2.58s2.58,1.16,2.58,2.58S42.69,38.53,41.27,38.53z"/><path class="st4" d="M41.27,40.92c-3.88,0-7.11,3.03-7.36,6.9c-0.01,0.21,0.06,0.41,0.2,0.56c0.14,0.15,0.34,0.24,0.55,0.24     h13.21c0.21,0,0.41-0.09,0.55-0.24c0.14-0.15,0.21-0.35,0.2-0.56C48.38,43.95,45.14,40.92,41.27,40.92z M35.52,47.12     c0.55-2.69,2.94-4.7,5.75-4.7s5.2,2.01,5.75,4.7H35.52z"/></g></g></g></svg>