<?xml version="1.0" ?><svg id="Layer_1" style="enable-background:new 0 0 50 50;" version="1.1" viewBox="0 0 50 50" xml:space="preserve" xmlns="http://www.w3.org/2000/svg" xmlns:xlink="http://www.w3.org/1999/xlink"><style type="text/css">
	.st0{fill:#F0C4DB;}
	.st1{fill:#FF9D9C;}
	.st2{fill:#9BEAF9;}
	.st3{fill:#E9F4BC;}
	.st4{fill:#505050;}
	.st5{fill:#FEBECC;}
	.st6{fill:#FFFFFF;}
	.st7{fill:#FDE4A1;}
	.st8{fill:#FEE7B5;}
	.st9{fill:#CDF6FC;}
	.st10{fill:#F2C6DD;}
	.st11{opacity:0.1;}
</style><g><path class="st0" d="M42.63,18.49c-11.6,0-21,9.4-21,21c0,3.24,0.75,6.29,2.06,9.03h25.26V19.46   C46.95,18.83,44.83,18.49,42.63,18.49z"/><g><g><polyline class="st1" points="41.1,48 47.8,48 35.11,28.06 31.79,31.43    "/><polyline class="st1" points="17.82,31.43 14.5,28.06 1.8,48 8.5,48    "/><g><circle class="st3" cx="24.8" cy="8.16" r="6.16"/></g><polygon class="st2" points="41.11,48 8.5,48 24.8,19.01    "/></g><g><path class="st4" d="M20.1,27.39c0.11,0.06,0.24,0.09,0.37,0.09c0.27,0,0.52-0.14,0.65-0.38c0.2-0.36,0.08-0.82-0.29-1.02     c-0.34-0.2-0.82-0.06-1.02,0.29c-0.09,0.17-0.12,0.37-0.07,0.57C19.8,27.13,19.92,27.29,20.1,27.39z"/><path class="st4" d="M48.44,47.6l-12.7-19.94c-0.12-0.19-0.33-0.32-0.55-0.34c-0.23-0.02-0.45,0.06-0.61,0.22l-2.62,2.67     l-6.4-11.38v-3.76c0-0.01-0.01-0.03-0.01-0.04c3.46-0.37,6.17-3.31,6.17-6.87c0-3.81-3.1-6.91-6.91-6.91     c-3.81,0-6.91,3.1-6.91,6.91c0,3.56,2.7,6.49,6.17,6.87c0,0.01-0.01,0.03-0.01,0.04v3.75l-3.27,5.8     c-0.1,0.18-0.12,0.38-0.07,0.57c0.06,0.2,0.18,0.36,0.36,0.45c0.35,0.2,0.82,0.07,1.02-0.28l2.71-4.81l15.02,26.7H9.79     l10.35-18.41c0.2-0.36,0.07-0.81-0.29-1.02c-0.35-0.19-0.82-0.06-1.02,0.29l-1.17,2.09l-2.62-2.66     c-0.16-0.16-0.39-0.24-0.61-0.22c-0.23,0.02-0.43,0.15-0.55,0.34L1.17,47.6c-0.15,0.23-0.16,0.52-0.02,0.76     c0.13,0.24,0.38,0.39,0.66,0.39h6.7c0,0,0.01,0,0.01,0h32.58c0,0,0.01,0,0.01,0h6.7c0.27,0,0.53-0.15,0.66-0.39     C48.59,48.12,48.58,47.83,48.44,47.6z M14.62,29.25l2.26,2.3l-8.82,15.7h-4.9L14.62,29.25z M19.4,8.16     c0-2.98,2.43-5.41,5.41-5.41c2.98,0,5.41,2.43,5.41,5.41c0,2.98-2.43,5.41-5.41,5.41C21.82,13.56,19.4,11.14,19.4,8.16z      M41.54,47.25l-8.82-15.69l2.26-2.31l11.46,17.99H41.54z"/><path class="st4" d="M25.55,11.73V11.6c0.83-0.31,1.42-1.1,1.42-2.03c0-1.2-0.97-2.17-2.17-2.17c-0.37,0-0.67-0.3-0.67-0.67     s0.3-0.67,0.67-0.67s0.67,0.3,0.67,0.67c0,0.41,0.34,0.75,0.75,0.75s0.75-0.34,0.75-0.75c0-0.93-0.59-1.72-1.42-2.03V4.59     c0-0.41-0.34-0.75-0.75-0.75s-0.75,0.34-0.75,0.75v0.12c-0.83,0.31-1.42,1.1-1.42,2.03c0,1.2,0.97,2.17,2.17,2.17     c0.37,0,0.67,0.3,0.67,0.67s-0.3,0.67-0.67,0.67s-0.67-0.3-0.67-0.67c0-0.41-0.34-0.75-0.75-0.75s-0.75,0.34-0.75,0.75     c0,0.93,0.59,1.72,1.42,2.03v0.12c0,0.41,0.34,0.75,0.75,0.75S25.55,12.14,25.55,11.73z"/></g></g></g></svg>