<svg width="11" height="13" viewBox="0 0 11 13" fill="none" xmlns="http://www.w3.org/2000/svg">
<path d="M7.85065 0H1.12277C0.503684 0 0 0.503684 0 1.12277V8.97269H1.12277V1.12277H7.85065V0ZM9.53443 2.24263H3.36539C2.74921 2.24263 2.24263 2.74921 2.24263 3.36539V11.2153C2.24263 11.8315 2.74921 12.3381 3.36539 12.3381H9.53443C10.1513 12.3381 10.6543 11.8315 10.6543 11.2153V3.36539C10.6543 2.74921 10.1506 2.24263 9.53443 2.24263ZM9.53443 11.2153H3.36539V3.36539H9.53443V11.2153Z" fill="#4B5563"/>
<path d="M7.85065 0H1.12277C0.503684 0 0 0.503684 0 1.12277V8.97269H1.12277V1.12277H7.85065V0ZM9.53443 2.24263H3.36539C2.74921 2.24263 2.24263 2.74921 2.24263 3.36539V11.2153C2.24263 11.8315 2.74921 12.3381 3.36539 12.3381H9.53443C10.1513 12.3381 10.6543 11.8315 10.6543 11.2153V3.36539C10.6543 2.74921 10.1506 2.24263 9.53443 2.24263ZM9.53443 11.2153H3.36539V3.36539H9.53443V11.2153Z" fill="black" fill-opacity="0.2"/>
</svg>
