<svg width="22" height="22" viewBox="0 0 22 22" fill="none" xmlns="http://www.w3.org/2000/svg">
<path d="M2.66667 11.7232V19.7787C2.66667 19.9261 2.7252 20.0674 2.82939 20.1716C2.93357 20.2758 3.07488 20.3343 3.22222 20.3343H18.7778C18.9251 20.3343 19.0664 20.2758 19.1706 20.1716C19.2748 20.0674 19.3333 19.9261 19.3333 19.7787V11.7232C19.3333 11.5021 19.4211 11.2902 19.5774 11.1339C19.7337 10.9776 19.9457 10.8898 20.1667 10.8898C20.3877 10.8898 20.5996 10.9776 20.7559 11.1339C20.9122 11.2902 21 11.5021 21 11.7232V19.7787C21 20.3681 20.7659 20.9333 20.3491 21.3501C19.9324 21.7668 19.3671 22.001 18.7778 22.001H3.22222C2.63285 22.001 2.06762 21.7668 1.65087 21.3501C1.23413 20.9333 1 20.3681 1 19.7787V11.7232C1 11.5021 1.0878 11.2902 1.24408 11.1339C1.40036 10.9776 1.61232 10.8898 1.83333 10.8898C2.05435 10.8898 2.26631 10.9776 2.42259 11.1339C2.57887 11.2902 2.66667 11.5021 2.66667 11.7232ZM11.9144 4.84535V15.6121C11.9144 15.8331 11.8266 16.045 11.6704 16.2013C11.5141 16.3576 11.3021 16.4454 11.0811 16.4454C10.8601 16.4454 10.6481 16.3576 10.4919 16.2013C10.3356 16.045 10.2478 15.8331 10.2478 15.6121L10.2467 4.84535L6.87222 8.41759C6.71379 8.56265 6.50551 8.64103 6.29075 8.6364C6.07598 8.63177 5.87128 8.5445 5.71924 8.39274C5.5672 8.24099 5.47954 8.03645 5.47451 7.82169C5.46948 7.60694 5.54746 7.39851 5.69222 7.2398L10.49 2.24534C10.6465 2.08888 10.8587 2.00098 11.08 2.00098C11.3013 2.00098 11.5135 2.08888 11.67 2.24534L16.3144 7.2398C16.3918 7.31714 16.4531 7.40895 16.495 7.50999C16.5368 7.61103 16.5584 7.71933 16.5584 7.8287C16.5584 7.93806 16.5368 8.04636 16.495 8.1474C16.4531 8.24844 16.3918 8.34025 16.3144 8.41759C16.2371 8.49492 16.1453 8.55627 16.0443 8.59812C15.9432 8.63997 15.8349 8.66151 15.7256 8.66151C15.6162 8.66151 15.5079 8.63997 15.4069 8.59812C15.3058 8.55627 15.214 8.49492 15.1367 8.41759L11.9144 4.84535Z" fill="#304254"/>
</svg>
