<svg xmlns="http://www.w3.org/2000/svg" width="101" height="51" viewBox="0 0 101 51"><g transform="translate(-1020 -916)"><path d="M25.5-1123a25.349,25.349,0,0,1-9.817-1.958,25.416,25.416,0,0,1-8.049-5.347,25.428,25.428,0,0,1-5.49-7.944A25.317,25.317,0,0,1,0-1148H51a25.314,25.314,0,0,1-2.139,9.75,25.429,25.429,0,0,1-5.49,7.944,25.417,25.417,0,0,1-8.049,5.347A25.351,25.351,0,0,1,25.5-1123Z" transform="translate(1020 2090)" fill="#e16442"/><path d="M25.5-1123a25.349,25.349,0,0,1-9.817-1.958,25.416,25.416,0,0,1-8.049-5.347,25.428,25.428,0,0,1-5.49-7.944A25.317,25.317,0,0,1,0-1148H51a25.314,25.314,0,0,1-2.139,9.75,25.429,25.429,0,0,1-5.49,7.944,25.417,25.417,0,0,1-8.049,5.347A25.351,25.351,0,0,1,25.5-1123Z" transform="translate(1070 2090)" fill="#fff"/><rect width="51" height="26" transform="translate(1020 916)" fill="#e6825e"/><rect width="51" height="26" transform="translate(1070 916)" fill="#fff"/><g transform="translate(1020 2090)" fill="none"><path d="M0-1148H0v-26H51v26h0a25.5,25.5,0,0,1-25.5,25A25.5,25.5,0,0,1,0-1148Z" stroke="none"/><path d="M 25.49970054626465 -1124.000244140625 C 31.96050071716309 -1124.000244140625 38.05690002441406 -1126.492919921875 42.66585922241211 -1131.01904296875 C 44.90771102905273 -1133.220581054688 46.68255996704102 -1135.788818359375 47.94108200073242 -1138.65234375 C 49.24190139770508 -1141.612182617188 49.93315887451172 -1144.763793945312 49.99567031860352 -1148.019653320312 L 50.00030136108398 -1148.211669921875 L 50.00030136108398 -1172.999633789062 L 25.49970054626465 -1172.999633789062 L 1.000000715255737 -1172.999633789062 L 1.000000715255737 -1148.499877929688 L 1.000000715255737 -1148.260375976562 L 1.004620671272278 -1148.019653320312 C 1.067120671272278 -1144.763671875 1.758340716362 -1141.612060546875 3.059070587158203 -1138.65234375 C 4.317520618438721 -1135.788818359375 6.092260837554932 -1133.220581054688 8.334000587463379 -1131.01904296875 C 12.94273090362549 -1126.492919921875 19.03896141052246 -1124.000244140625 25.49970054626465 -1124.000244140625 M 25.49970054626465 -1123.000244140625 C 11.58326053619385 -1123.000244140625 0.2707506716251373 -1134.147583007812 0.004800680559128523 -1148.00048828125 L 6.805419729971618e-07 -1148.00048828125 L 6.805419729971618e-07 -1148.499877929688 L 6.805419729971618e-07 -1173.999633789062 L 25.49970054626465 -1173.999633789062 L 51.00030136108398 -1173.999633789062 L 51.00030136108398 -1148.00048828125 L 50.99549102783203 -1148.00048828125 C 50.72951889038086 -1134.147583007812 39.4161491394043 -1123.000244140625 25.49970054626465 -1123.000244140625 Z" stroke="none" fill="#ddd"/></g><g transform="translate(1070 2090)" fill="none"><path d="M0-1148H0v-26H51v26h0a25.5,25.5,0,0,1-25.5,25A25.5,25.5,0,0,1,0-1148Z" stroke="none"/><path d="M 25.49970054626465 -1124.000244140625 C 31.96050071716309 -1124.000244140625 38.05690002441406 -1126.492919921875 42.66585922241211 -1131.01904296875 C 44.90771102905273 -1133.220581054688 46.68255996704102 -1135.788818359375 47.94108200073242 -1138.65234375 C 49.24190139770508 -1141.612182617188 49.93315887451172 -1144.763793945312 49.99567031860352 -1148.019653320312 L 50.00030136108398 -1148.211669921875 L 50.00030136108398 -1172.999633789062 L 25.49970054626465 -1172.999633789062 L 1.000000715255737 -1172.999633789062 L 1.000000715255737 -1148.499877929688 L 1.000000715255737 -1148.260375976562 L 1.004620671272278 -1148.019653320312 C 1.067120671272278 -1144.763671875 1.758340716362 -1141.612060546875 3.059070587158203 -1138.65234375 C 4.317520618438721 -1135.788818359375 6.092260837554932 -1133.220581054688 8.334000587463379 -1131.01904296875 C 12.94273090362549 -1126.492919921875 19.03896141052246 -1124.000244140625 25.49970054626465 -1124.000244140625 M 25.49970054626465 -1123.000244140625 C 11.58326053619385 -1123.000244140625 0.2707506716251373 -1134.147583007812 0.004800680559128523 -1148.00048828125 L 6.805419729971618e-07 -1148.00048828125 L 6.805419729971618e-07 -1148.499877929688 L 6.805419729971618e-07 -1173.999633789062 L 25.49970054626465 -1173.999633789062 L 51.00030136108398 -1173.999633789062 L 51.00030136108398 -1148.00048828125 L 50.99549102783203 -1148.00048828125 C 50.72951889038086 -1134.147583007812 39.4161491394043 -1123.000244140625 25.49970054626465 -1123.000244140625 Z" stroke="none" fill="#ddd"/></g></g></svg>