<svg width="14" height="14" viewBox="0 0 14 14" fill="none" xmlns="http://www.w3.org/2000/svg">
<path d="M10.5225 0.0605469H3.79464C3.17556 0.0605469 2.67188 0.564231 2.67188 1.18331V8.03324H3.79464V1.18331H10.5225V0.0605469Z" fill="#4B5563"/>
<path d="M10.5225 0.0605469H3.79464C3.17556 0.0605469 2.67188 0.564231 2.67188 1.18331V8.03324H3.79464V1.18331H10.5225V0.0605469Z" fill="black" fill-opacity="0.2"/>
<path d="M12.2063 2.30317H6.03727C5.42109 2.30317 4.9145 2.80976 4.9145 3.42594V8.56055H6.03727V3.42594H12.2063V11.2759H8.67188V12.3986H12.2063C12.8232 12.3986 13.3262 11.892 13.3262 11.2759V3.42594C13.3262 2.80976 12.8225 2.30317 12.2063 2.30317Z" fill="#4B5563"/>
<path d="M12.2063 2.30317H6.03727C5.42109 2.30317 4.9145 2.80976 4.9145 3.42594V8.56055H6.03727V3.42594H12.2063V11.2759H8.67188V12.3986H12.2063C12.8232 12.3986 13.3262 11.892 13.3262 11.2759V3.42594C13.3262 2.80976 12.8225 2.30317 12.2063 2.30317Z" fill="black" fill-opacity="0.2"/>
<path d="M4.08845 11.1686H4.89952V10.2759C4.89952 10.208 4.93644 10.1454 4.99273 10.1179C5.04903 10.0905 5.11621 10.1003 5.16463 10.1427L7.08216 11.8855C7.11848 11.9188 7.14027 11.9671 7.14027 12.0181C7.14027 12.069 7.11787 12.1186 7.08216 12.1506L5.16463 13.8986C5.11621 13.9424 5.04963 13.9515 4.99273 13.9234C4.93584 13.894 4.89952 13.8327 4.89952 13.7654V12.8421H4.08663C1.29221 12.8081 3.77569 12.8648 0.832879 12.8648C0.744508 12.8648 0.671875 12.7865 0.671875 12.6918V11.3669C0.671875 11.2703 0.744508 11.1919 0.832879 11.1919C3.84823 11.1919 1.83597 11.1686 4.08845 11.1686Z" fill="#4B5563"/>
</svg>
