<svg width="22" height="23" viewBox="0 0 22 23" fill="none" xmlns="http://www.w3.org/2000/svg">
<path d="M15.7019 15.137V16.0544C15.7019 16.1882 15.6617 16.2981 15.5815 16.3841C15.5012 16.4701 15.3986 16.5131 15.2737 16.5131H5.85505C5.73018 16.5131 5.62761 16.4701 5.54734 16.3841C5.46707 16.2981 5.42693 16.1882 5.42693 16.0544V15.137C5.42693 15.0033 5.46707 14.8934 5.54734 14.8073C5.62761 14.7213 5.73018 14.6783 5.85505 14.6783H15.2737C15.3986 14.6783 15.5012 14.7213 15.5815 14.8073C15.6617 14.8934 15.7019 15.0033 15.7019 15.137ZM15.7019 11.4674V12.3848C15.7019 12.5186 15.6617 12.6285 15.5815 12.7145C15.5012 12.8005 15.3986 12.8435 15.2737 12.8435H5.85505C5.73018 12.8435 5.62761 12.8005 5.54734 12.7145C5.46707 12.6285 5.42693 12.5186 5.42693 12.3848V11.4674C5.42693 11.3336 5.46707 11.2237 5.54734 11.1377C5.62761 11.0517 5.73018 11.0087 5.85505 11.0087H15.2737C15.3986 11.0087 15.5012 11.0517 15.5815 11.1377C15.6617 11.2237 15.7019 11.3336 15.7019 11.4674ZM3.71444 20.1828H17.4144V9.17391H11.8488C11.492 9.17391 11.1887 9.04012 10.939 8.77254C10.6893 8.50497 10.5644 8.18005 10.5644 7.7978V1.83467H3.71444V20.1828ZM12.2769 7.3391H16.2772L12.2769 3.0531V7.3391ZM19.1268 9.17391V20.6415C19.1268 21.0237 19.002 21.3486 18.7522 21.6162C18.5025 21.8838 18.1992 22.0176 17.8425 22.0176H3.28632C2.92955 22.0176 2.6263 21.8838 2.37656 21.6162C2.12682 21.3486 2.00195 21.0237 2.00195 20.6415V1.37597C2.00195 0.993715 2.12682 0.6688 2.37656 0.401224C2.6263 0.133648 2.92955 -0.000141144 3.28632 -0.000141144H10.5644C10.9212 -0.000141144 11.3136 0.0954227 11.7417 0.286549C12.1699 0.477674 12.5088 0.707026 12.7585 0.974602L18.2171 6.82306C18.4668 7.09064 18.6809 7.45377 18.8593 7.91248C19.0377 8.37118 19.1268 8.79166 19.1268 9.17391Z" fill="#304254"/>
</svg>
