<?xml version="1.0" encoding="utf-8"?>
<svg viewBox="859.003 452.666 64.341 188.308" width="64.341" height="188.308" xmlns="http://www.w3.org/2000/svg" xmlns:xlink="http://www.w3.org/1999/xlink">
  <defs>
    <linearGradient id="linearGradient76931" y2="1168.1" gradientUnits="userSpaceOnUse" x2="648.06" gradientTransform="matrix(.96019 0 0 1 24.413 0)" y1="1323.5" x1="648.06" xlink:href="#linearGradient75146"/>
    <linearGradient id="linearGradient75146">
      <stop id="stop75148" style="stop-color:#803300" offset="0"/>
      <stop id="stop75150" style="stop-color:#ffd42a" offset="1"/>
    </linearGradient>
    <linearGradient id="linearGradient77017" y2="1184.7" gradientUnits="userSpaceOnUse" x2="653.46" gradientTransform="matrix(.96019 0 0 1 24.413 0)" y1="1230.3" x1="653.46" xlink:href="#linearGradient76021"/>
    <linearGradient id="linearGradient76021">
      <stop id="stop76023" style="stop-color:#a05a2c" offset="0"/>
      <stop id="stop76025" style="stop-color:#de8787" offset="1"/>
    </linearGradient>
    <linearGradient id="linearGradient77561" y2="1148.7" gradientUnits="userSpaceOnUse" x2="657.98" gradientTransform="matrix(.96019 0 0 1 24.413 0)" y1="1160.5" x1="657.98" xlink:href="#linearGradient76029"/>
    <linearGradient id="linearGradient76029">
      <stop id="stop76031" style="stop-color:#c83737" offset="0"/>
      <stop id="stop76033" style="stop-color:#ffaaaa" offset="1"/>
    </linearGradient>
    <linearGradient id="linearGradient77573" y2="1209" gradientUnits="userSpaceOnUse" x2="639.5" gradientTransform="translate(-.046875)" y1="1282.6" x1="639.5" xlink:href="#linearGradient76029"/>
    <linearGradient id="linearGradient76939" y2="1184.9" gradientUnits="userSpaceOnUse" x2="627.38" y1="1178.7" x1="623.82" xlink:href="#linearGradient16066"/>
    <linearGradient id="linearGradient16066">
      <stop id="stop16068" style="stop-color:#ffffff" offset="0"/>
      <stop id="stop16070" style="stop-color:#ffffff;stop-opacity:0" offset="1"/>
    </linearGradient>
    <linearGradient id="linearGradient76951" y2="1184.9" gradientUnits="userSpaceOnUse" x2="627.38" gradientTransform="matrix(1.5902 0 0 1.5902 -320.45 -654.22)" y1="1178.7" x1="623.82" xlink:href="#linearGradient16066"/>
    <linearGradient id="linearGradient76953" y2="1184.9" gradientUnits="userSpaceOnUse" x2="627.38" gradientTransform="matrix(1.5902 0 0 1.5902 -376.49 -661.29)" y1="1178.7" x1="623.82" xlink:href="#linearGradient16066"/>
    <linearGradient id="linearGradient76963" y2="1184.9" gradientUnits="userSpaceOnUse" x2="627.38" gradientTransform="matrix(1.4905 0 0 1.4905 -311.39 -584.28)" y1="1178.7" x1="623.82" xlink:href="#linearGradient16066"/>
    <linearGradient id="linearGradient76965" y2="1184.9" gradientUnits="userSpaceOnUse" x2="627.38" gradientTransform="matrix(1.1638 0 0 1.1638 -51.335 -195.59)" y1="1178.7" x1="623.82" xlink:href="#linearGradient16066"/>
    <linearGradient id="linearGradient77053" y2="1206.7" gradientUnits="userSpaceOnUse" x2="653.3" gradientTransform="matrix(.98342 0 0 .97999 10.121 24.365)" y1="1239.2" x1="653.3" xlink:href="#linearGradient76021"/>
    <linearGradient id="linearGradient77055" y2="1276" gradientUnits="userSpaceOnUse" x2="653.31" y1="1329.6" x1="653.31" xlink:href="#linearGradient76021"/>
  </defs>
  <g id="g75861" transform="matrix(0.96996, 0, 0, 0.9924, 263.043422, -687.105835)">
    <path id="path75863" d="m639.06 1158.9v7.0312c-13.646 3.2608-20.112 24.175-20.112 39.278v30.281 68.844 23.875c0 7.345 5.7392 10 12.856 10h15.227 1.0856 15.198c7.1166 0 12.884-2.655 12.884-10v-23.875-68.844-30.281c0-15.103-6.4659-36.017-20.112-39.278v-7.0312h-7.9706-1.0856z" style="fill:url(#linearGradient76931)"/>
    <path id="path75865" style="fill:url(#linearGradient77017)" d="m631.55 1170c-8.5162 7.5623-12.603 23.19-12.603 35.188v5.6562h57.252v-5.6562c0-11.997-4.0863-27.625-12.603-35.188h-32.046z"/>
    <path id="path75867" style="fill:#ffffff" d="m639.06 1158.9v7.0312c-2.8226 0.6745-5.317 2.1164-7.5315 4.0938h32.106c-2.2146-1.9774-4.7089-3.4193-7.5315-4.0938v-7.0312h-7.9816-1.0802-7.9816z"/>
    <path id="path75869" d="m639.69 1148.5c-0.82661 0-1.4902 0.8993-1.4902 2.0195v10.195h18.755v-10.195c0-1.1202-0.66362-2.0195-1.4902-2.0195z" style="fill:url(#linearGradient77561)"/>
    <path id="path75871" style="fill:#782121" d="m662.61 1170c0 0.06-6.7315 0.1083-15.035 0.1083-8.3037 0-15.035-0.048-15.035-0.1083 0-0.06 6.7315-0.1083 15.035-0.1083 8.3037 0 15.035 0.049 15.035 0.1083z"/>
    <path id="path75873" style="fill:url(#linearGradient77573)" d="m618.95 1223.9v17.039 44.89h0.54011 56.171 0.54011v-44.89-17.039c-0.33645 0.1465-0.69544 0.2127-1.0802 0.2127h-55.091c-0.38478 0-0.74377-0.066-1.0802-0.2127z"/>
    <g id="g75875" transform="translate(-.046875)">
      <g id="g75877" transform="translate(23.335 48.79)">
        <path id="path75879" style="fill:url(#linearGradient76939)" transform="translate(0 52.362)" d="m628.35 1181.3c0 1.4889-1.207 2.6959-2.6958 2.6959-1.4889 0-2.6958-1.207-2.6958-2.6959 0-1.4888 1.207-2.6958 2.6958-2.6958 1.4889 0 2.6958 1.207 2.6958 2.6958z"/>
        <path id="path75881" style="fill:#ffffff" transform="translate(0 52.362)" d="m625.66 1178.6c-1.4889 0-2.6875 1.2299-2.6875 2.7188 0 1.4888 1.1986 2.6874 2.6875 2.6874s2.6875-1.1986 2.6875-2.6874c0-1.4889-1.1986-2.7188-2.6875-2.7188zm0.125 0.375c1.3422 0 2.4062 1.0953 2.4062 2.4375s-1.0641 2.4375-2.4062 2.4375c-1.3422 0-2.4375-1.0953-2.4375-2.4375s1.0953-2.4375 2.4375-2.4375z"/>
      </g>
      <g id="g75883" transform="matrix(.80328 0 0 .80328 165.33 246.93)">
        <path id="path75885" style="fill:url(#linearGradient76939)" transform="translate(0 52.362)" d="m628.35 1181.3c0 1.4889-1.207 2.6959-2.6958 2.6959-1.4889 0-2.6958-1.207-2.6958-2.6959 0-1.4888 1.207-2.6958 2.6958-2.6958 1.4889 0 2.6958 1.207 2.6958 2.6958z"/>
        <path id="path75887" d="m625.66 1178.6c-1.4889 0-2.6875 1.2299-2.6875 2.7188 0 1.4888 1.1986 2.6874 2.6875 2.6874s2.6875-1.1986 2.6875-2.6874c0-1.4889-1.1986-2.7188-2.6875-2.7188zm0.125 0.375c1.3422 0 2.4062 1.0953 2.4062 2.4375s-1.0641 2.4375-2.4062 2.4375c-1.3422 0-2.4375-1.0953-2.4375-2.4375s1.0953-2.4375 2.4375-2.4375z" style="fill:#ffffff" transform="translate(0 52.362)"/>
      </g>
      <g id="g75889" transform="matrix(.80328 0 0 .80328 136.34 284.41)">
        <path id="path75891" style="fill:url(#linearGradient76939)" transform="translate(0 52.362)" d="m628.35 1181.3c0 1.4889-1.207 2.6959-2.6958 2.6959-1.4889 0-2.6958-1.207-2.6958-2.6959 0-1.4888 1.207-2.6958 2.6958-2.6958 1.4889 0 2.6958 1.207 2.6958 2.6958z"/>
        <path id="path75893" style="fill:#ffffff" d="m625.66 1178.6c-1.4889 0-2.6875 1.2299-2.6875 2.7188 0 1.4888 1.1986 2.6874 2.6875 2.6874s2.6875-1.1986 2.6875-2.6874c0-1.4889-1.1986-2.7188-2.6875-2.7188zm0.125 0.375c1.3422 0 2.4062 1.0953 2.4062 2.4375s-1.0641 2.4375-2.4062 2.4375c-1.3422 0-2.4375-1.0953-2.4375-2.4375s1.0953-2.4375 2.4375-2.4375z" transform="translate(0 52.362)"/>
      </g>
      <g id="g75895" transform="matrix(.50820 0 0 .50820 306.2 651.54)">
        <path id="path75897" style="fill:url(#linearGradient76939)" transform="translate(0 52.362)" d="m628.35 1181.3c0 1.4889-1.207 2.6959-2.6958 2.6959-1.4889 0-2.6958-1.207-2.6958-2.6959 0-1.4888 1.207-2.6958 2.6958-2.6958 1.4889 0 2.6958 1.207 2.6958 2.6958z"/>
        <path id="path75899" d="m625.66 1178.6c-1.4889 0-2.6875 1.2299-2.6875 2.7188 0 1.4888 1.1986 2.6874 2.6875 2.6874s2.6875-1.1986 2.6875-2.6874c0-1.4889-1.1986-2.7188-2.6875-2.7188zm0.125 0.375c1.3422 0 2.4062 1.0953 2.4062 2.4375s-1.0641 2.4375-2.4062 2.4375c-1.3422 0-2.4375-1.0953-2.4375-2.4375s1.0953-2.4375 2.4375-2.4375z" style="fill:#ffffff" transform="translate(0 52.362)"/>
      </g>
      <g id="g75901" transform="matrix(.50820 0 0 .50820 350.39 632.45)">
        <path id="path75903" style="fill:url(#linearGradient76939)" transform="translate(0 52.362)" d="m628.35 1181.3c0 1.4889-1.207 2.6959-2.6958 2.6959-1.4889 0-2.6958-1.207-2.6958-2.6959 0-1.4888 1.207-2.6958 2.6958-2.6958 1.4889 0 2.6958 1.207 2.6958 2.6958z"/>
        <path id="path75905" style="fill:#ffffff" d="m625.66 1178.6c-1.4889 0-2.6875 1.2299-2.6875 2.7188 0 1.4888 1.1986 2.6874 2.6875 2.6874s2.6875-1.1986 2.6875-2.6874c0-1.4889-1.1986-2.7188-2.6875-2.7188zm0.125 0.375c1.3422 0 2.4062 1.0953 2.4062 2.4375s-1.0641 2.4375-2.4062 2.4375c-1.3422 0-2.4375-1.0953-2.4375-2.4375s1.0953-2.4375 2.4375-2.4375z" transform="translate(0 52.362)"/>
      </g>
      <g id="g75907" transform="translate(31.289 -6.1872)">
        <path id="path75909" style="fill:url(#linearGradient76939)" transform="translate(0 52.362)" d="m628.35 1181.3c0 1.4889-1.207 2.6959-2.6958 2.6959-1.4889 0-2.6958-1.207-2.6958-2.6959 0-1.4888 1.207-2.6958 2.6958-2.6958 1.4889 0 2.6958 1.207 2.6958 2.6958z"/>
        <path id="path75911" d="m625.66 1178.6c-1.4889 0-2.6875 1.2299-2.6875 2.7188 0 1.4888 1.1986 2.6874 2.6875 2.6874s2.6875-1.1986 2.6875-2.6874c0-1.4889-1.1986-2.7188-2.6875-2.7188zm0.125 0.375c1.3422 0 2.4062 1.0953 2.4062 2.4375s-1.0641 2.4375-2.4062 2.4375c-1.3422 0-2.4375-1.0953-2.4375-2.4375s1.0953-2.4375 2.4375-2.4375z" style="fill:#ffffff" transform="translate(0 52.362)"/>
      </g>
      <g id="g75913" transform="matrix(1.5902 0 0 1.5902 -320.45 -685.12)">
        <path id="path75915" d="m674.44 1220c-2.3676 0-4.2812 1.9137-4.2812 4.2812 0 2.3676 1.9137 4.2813 4.2812 4.2813 0.64192 0 1.2658-0.1221 1.8125-0.375v-7.7813c-0.55-0.2-1.17-0.4-1.81-0.4z" style="fill:url(#linearGradient76951)" transform="matrix(.62887 0 0 .62887 201.52 463.78)"/>
        <path id="path75917" d="m674.44 1220c-2.3676 0-4.25 1.9449-4.25 4.3125 0 2.3674 1.8824 4.2813 4.25 4.2813 0.6429 0 1.2666-0.1541 1.8125-0.4063v-0.2187c-0.48673 0.2268-1.0182 0.375-1.5938 0.375-2.1343 0-3.875-1.7407-3.875-3.875 0-2.1344 1.7407-3.875 3.875-3.875 0.57556 0 1.107 0.1481 1.5938 0.375v-0.5626c-0.55-0.3-1.17-0.4-1.81-0.4z" style="fill:#ffffff" transform="matrix(.62887 0 0 .62887 201.52 463.78)"/>
      </g>
      <g id="g75919" transform="matrix(1.5902 0 0 1.5902 -376.49 -692.19)">
        <path id="path75921" d="m619 1213v8.4375c2.0875-0.2882 3.6875-2.052 3.6875-4.2187 0-2.1668-1.6-3.9306-3.6875-4.2188z" style="fill:url(#linearGradient76953)" transform="matrix(.62887 0 0 .62887 236.76 468.22)"/>
        <path id="path75923" d="m619 1213v0.5937c1.9369 0.2063 3.4375 1.8481 3.4375 3.8437 0 1.9951-1.5014 3.6054-3.4375 3.8126v0.25c2.0856-0.2864 3.6875-2.0521 3.6875-4.2188 0-2.1668-1.6019-3.9878-3.6875-4.2812z" style="fill:#ffffff" transform="matrix(.62887 0 0 .62887 236.76 468.22)"/>
      </g>
      <g id="g75925" transform="matrix(1.1311 0 0 1.1311 -36.445 -147.65)">
        <path id="path75927" style="fill:url(#linearGradient76939)" transform="translate(0 52.362)" d="m628.35 1181.3c0 1.4889-1.207 2.6959-2.6958 2.6959-1.4889 0-2.6958-1.207-2.6958-2.6959 0-1.4888 1.207-2.6958 2.6958-2.6958 1.4889 0 2.6958 1.207 2.6958 2.6958z"/>
        <path id="path75929" style="fill:#ffffff" d="m625.66 1178.6c-1.4889 0-2.6875 1.2299-2.6875 2.7188 0 1.4888 1.1986 2.6874 2.6875 2.6874s2.6875-1.1986 2.6875-2.6874c0-1.4889-1.1986-2.7188-2.6875-2.7188zm0.125 0.375c1.3422 0 2.4062 1.0953 2.4062 2.4375s-1.0641 2.4375-2.4062 2.4375c-1.3422 0-2.4375-1.0953-2.4375-2.4375s1.0953-2.4375 2.4375-2.4375z" transform="translate(0 52.362)"/>
      </g>
      <g id="g75931" transform="matrix(1.1638 0 0 1.1638 -103.84 -187.9)">
        <path id="path75933" style="fill:url(#linearGradient76939)" transform="translate(0 52.362)" d="m628.35 1181.3c0 1.4889-1.207 2.6959-2.6958 2.6959-1.4889 0-2.6958-1.207-2.6958-2.6959 0-1.4888 1.207-2.6958 2.6958-2.6958 1.4889 0 2.6958 1.207 2.6958 2.6958z"/>
        <path id="path75935" d="m625.66 1178.6c-1.4889 0-2.6875 1.2299-2.6875 2.7188 0 1.4888 1.1986 2.6874 2.6875 2.6874s2.6875-1.1986 2.6875-2.6874c0-1.4889-1.1986-2.7188-2.6875-2.7188zm0.125 0.375c1.3422 0 2.4062 1.0953 2.4062 2.4375s-1.0641 2.4375-2.4062 2.4375c-1.3422 0-2.4375-1.0953-2.4375-2.4375s1.0953-2.4375 2.4375-2.4375z" style="fill:#ffffff" transform="translate(0 52.362)"/>
      </g>
      <g id="g75937" transform="matrix(.54090 0 0 .54090 304.21 563.56)">
        <path id="path75939" style="fill:url(#linearGradient76939)" transform="translate(0 52.362)" d="m628.35 1181.3c0 1.4889-1.207 2.6959-2.6958 2.6959-1.4889 0-2.6958-1.207-2.6958-2.6959 0-1.4888 1.207-2.6958 2.6958-2.6958 1.4889 0 2.6958 1.207 2.6958 2.6958z"/>
        <path id="path75941" style="fill:#ffffff" d="m625.66 1178.6c-1.4889 0-2.6875 1.2299-2.6875 2.7188 0 1.4888 1.1986 2.6874 2.6875 2.6874s2.6875-1.1986 2.6875-2.6874c0-1.4889-1.1986-2.7188-2.6875-2.7188zm0.125 0.375c1.3422 0 2.4062 1.0953 2.4062 2.4375s-1.0641 2.4375-2.4062 2.4375c-1.3422 0-2.4375-1.0953-2.4375-2.4375s1.0953-2.4375 2.4375-2.4375z" transform="translate(0 52.362)"/>
      </g>
      <g id="g75943" transform="matrix(.54090 0 0 .54090 304.21 563.56)">
        <path id="path75945" style="fill:url(#linearGradient76939)" transform="translate(0 52.362)" d="m628.35 1181.3c0 1.4889-1.207 2.6959-2.6958 2.6959-1.4889 0-2.6958-1.207-2.6958-2.6959 0-1.4888 1.207-2.6958 2.6958-2.6958 1.4889 0 2.6958 1.207 2.6958 2.6958z"/>
        <path id="path75947" d="m625.66 1178.6c-1.4889 0-2.6875 1.2299-2.6875 2.7188 0 1.4888 1.1986 2.6874 2.6875 2.6874s2.6875-1.1986 2.6875-2.6874c0-1.4889-1.1986-2.7188-2.6875-2.7188zm0.125 0.375c1.3422 0 2.4062 1.0953 2.4062 2.4375s-1.0641 2.4375-2.4062 2.4375c-1.3422 0-2.4375-1.0953-2.4375-2.4375s1.0953-2.4375 2.4375-2.4375z" style="fill:#ffffff" transform="translate(0 52.362)"/>
      </g>
      <g id="g75949" transform="matrix(1.4905 0 0 1.4905 -311.39 -609.97)">
        <path id="path75951" d="m621.16 1172.4c-0.79242 0-1.5338 0.229-2.1562 0.625v6.8125c0.6222 0.3954 1.3644 0.625 2.1562 0.625 2.2191 0 4-1.8121 4-4.0312 0-2.2192-1.7809-4.0313-4-4.0313z" style="fill:url(#linearGradient76963)" transform="matrix(.67092 0 0 .67092 208.92 444.37)"/>
        <path id="path75953" d="m621.16 1172.4c-0.79242 0-1.5358 0.2234-2.1562 0.625v0.8125c0.63317-0.5355 1.4532-0.875 2.3438-0.875 2.0005 0 3.5625 1.6245 3.5625 3.625s-1.562 3.625-3.5625 3.625c-0.88683 0-1.7117-0.3123-2.3438-0.8438v0.4688c0.62045 0.3939 1.3638 0.625 2.1562 0.625 2.2191 0 4-1.781 4-4 0-2.2192-1.7809-4.0625-4-4.0625z" style="fill:#ffffff" transform="matrix(.67092 0 0 .67092 208.92 444.37)"/>
      </g>
      <g id="g75955" transform="matrix(1.1638 0 0 1.1638 -51.335 -204.17)">
        <path id="path75957" d="m676.19 1176.2c-1.4297 0.2925-2.5 1.5462-2.5 3.0624 0 1.5367 1.104 2.824 2.5625 3.0938v-6.1562h-0.0625z" style="fill:url(#linearGradient76965)" transform="matrix(.85922 0 0 .85922 44.108 220.42)"/>
        <path id="path75959" d="m676.19 1176.2c-1.4279 0.2976-2.4688 1.5775-2.4688 3.0937 0 1.5366 1.0744 2.7944 2.5312 3.0625v-0.2188c-1.2119-0.3226-2.0938-1.4078-2.0938-2.7187s0.88188-2.4273 2.0938-2.75v-0.4687h-0.0625z" style="fill:#ffffff" transform="matrix(.85922 0 0 .85922 44.108 220.42)"/>
      </g>
      <g id="g75961" transform="matrix(.50820 0 0 .50820 343.14 652.07)">
        <path id="path75963" style="fill:url(#linearGradient76939)" transform="translate(0 52.362)" d="m628.35 1181.3c0 1.4889-1.207 2.6959-2.6958 2.6959-1.4889 0-2.6958-1.207-2.6958-2.6959 0-1.4888 1.207-2.6958 2.6958-2.6958 1.4889 0 2.6958 1.207 2.6958 2.6958z"/>
        <path id="path75965" d="m625.66 1178.6c-1.4889 0-2.6875 1.2299-2.6875 2.7188 0 1.4888 1.1986 2.6874 2.6875 2.6874s2.6875-1.1986 2.6875-2.6874c0-1.4889-1.1986-2.7188-2.6875-2.7188zm0.125 0.375c1.3422 0 2.4062 1.0953 2.4062 2.4375s-1.0641 2.4375-2.4062 2.4375c-1.3422 0-2.4375-1.0953-2.4375-2.4375s1.0953-2.4375 2.4375-2.4375z" style="fill:#ffffff" transform="translate(0 52.362)"/>
      </g>
    </g>
    <path id="path75967" d="m638.2 1157.9v0.2297h18.766v-0.2297h-18.766z" style="fill:#ffccaa"/>
    <path id="path75969" style="fill:url(#linearGradient77053)" d="m619.26 1211h56.642c1.6344 0 2.9503 1.4637 2.9503 3.2818v6.4211c0 1.8182-1.3158 3.2819-2.9503 3.2819h-56.642c-1.6344 0-2.9503-1.4637-2.9503-3.2819v-6.4211c0-1.8181 1.3158-3.2818 2.9503-3.2818z"/>
    <path id="path75971" style="fill:#ffccaa" d="m618.95 1223.9v1.8281h57.252v-1.8281zm0 60.381v1.8281h57.252v-1.8281z"/>
    <path id="path75973" style="fill:url(#linearGradient77055)" d="m619.37 1286h56.426c1.6746 0 2.9412 1.5473 3.0228 3.4649l1.9296 45.32c0.0816 1.9177-3.2778 3.465-4.9524 3.465h-56.426c-1.6746 0-5.0341-1.5473-4.9524-3.465l1.9296-45.32c0.0816-1.9176 1.3482-3.4649 3.0228-3.4649z"/>
    <path id="path75975" style="fill:#784421" d="m647.58 1336.1c-12.164 0-22.162 0.9316-23.675 2.125h22.807 1.7358 22.807c-1.5125-1.1934-11.511-2.125-23.675-2.125z"/>
    <path id="path75977" style="fill:#ffccaa" d="m645.31 1235.5c-2.1384 0-3.9182 0.807-5.2893 2.3961-1.371 1.5893-2.0456 3.5684-2.0456 5.9322 0 2.5384 0.60454 4.5507 1.841 6.0198 1.2365 1.4692 2.9979 2.1917 5.2308 2.1917s3.9282-0.6118 5.0847-1.841l-1.3442-2.2793c-0.85099 1.0764-2.0304 1.6072-3.5359 1.6072-1.3165 0-2.3669-0.5159-3.156-1.5195-0.78915-1.0038-1.1689-2.3528-1.1689-4.062s0.40558-3.1208 1.2566-4.2372c0.85097-1.1165 1.9419-1.6657 3.2729-1.6657 1.4037 0 2.4356 0.3023 3.0684 0.9351l1.1689-2.3378c-1.0983-0.7491-2.5505-1.1396-4.3834-1.1396zm-12.77 0.2921v15.985h2.8638v-15.985h-2.8638zm19.871 0v15.985h10.082v-2.5424h-7.2472v-4.7632h5.26v-2.4254h-5.26v-3.7405h7.364v-2.5132h-10.199zm7.627 19.521-6.3997 16.218h3.156l1.1104-3.2438h5.4938l1.1689 3.2438h3.1268l-6.4289-16.218h-1.2273zm-32.583 0.2338v2.5132h5.0847v13.472h2.8346v-13.472h5.3185v-2.5132h-13.238zm15.079 0v15.985h10.082v-2.5131h-7.2472v-4.7925h5.2893v-2.4254h-5.2893v-3.7405h7.364v-2.5132h-10.199zm18.118 4.6756 1.9287 5.903h-3.8574l1.9287-5.903z"/>
  </g>
</svg>