<?xml version="1.0" encoding="utf-8"?>
<svg viewBox="197.115 452.688 64.204 188.275" width="64.204" height="188.275" xmlns="http://www.w3.org/2000/svg" xmlns:xlink="http://www.w3.org/1999/xlink">
  <defs>
    <linearGradient id="linearGradient75023" y2="434.84" gradientUnits="userSpaceOnUse" x2="-1114" gradientTransform="matrix(.97498 0 0 .96243 1055.7 376.16)" y1="578.37" x1="-1114" xlink:href="#linearGradient64234"/>
    <linearGradient id="linearGradient64234">
      <stop id="stop64236" style="stop-color:#2b1100" offset="0"/>
      <stop id="stop64238" style="stop-color:#784421" offset="1"/>
    </linearGradient>
    <linearGradient id="linearGradient75025" y2="771.78" gradientUnits="userSpaceOnUse" x2="-35.709" gradientTransform="translate(4.9846e-8 52.362)" y1="845.18" x1="-35.709" xlink:href="#linearGradient64661"/>
    <linearGradient id="linearGradient64661">
      <stop id="stop64663" style="stop-color:#000080" offset="0"/>
      <stop id="stop64665" style="stop-color:#00aad4" offset="1"/>
    </linearGradient>
    <linearGradient id="linearGradient75027" y2="694.9" gradientUnits="userSpaceOnUse" x2="-28.284" gradientTransform="matrix(.79679 0 0 .81691 -7.1839 221.89)" y1="668.7" x1="-28.284" xlink:href="#linearGradient16066"/>
    <linearGradient id="linearGradient16066">
      <stop id="stop16068" style="stop-color:#ffffff" offset="0"/>
      <stop id="stop16070" style="stop-color:#ffffff;stop-opacity:0" offset="1"/>
    </linearGradient>
    <linearGradient id="linearGradient75029" y2="353.68" gradientUnits="userSpaceOnUse" x2="-786.18" gradientTransform="matrix(.86082 0 0 1.2193 656.43 321.65)" y1="364.72" x1="-786.18" xlink:href="#linearGradient64661"/>
    <linearGradient id="linearGradient75031" y2="774.3" gradientUnits="userSpaceOnUse" x2="-28.598" y1="799.83" x1="-28.598" xlink:href="#linearGradient64234"/>
    <linearGradient id="linearGradient75033" y2="854.04" gradientUnits="userSpaceOnUse" x2="-28.244" gradientTransform="matrix(1.1005 0 0 .94856 -3.1894 41.259)" y1="873.91" x1="-28.244" xlink:href="#linearGradient64228"/>
    <linearGradient id="linearGradient64228">
      <stop id="stop64230" style="stop-color:#aa0000" offset="0"/>
      <stop id="stop64232" style="stop-color:#d85d96" offset="1"/>
    </linearGradient>
    <linearGradient id="linearGradient75035" y2="836.57" gradientUnits="userSpaceOnUse" x2="-19.954" gradientTransform="matrix(1.021 0 0 .86664 -5.1496 101.3)" y1="849.78" x1="-19.954" xlink:href="#linearGradient64228"/>
  </defs>
  <g id="g64851" transform="matrix(0.9924, 0, 0, 0.9924, 259.316152, -295.174725)">
    <path id="path64579" d="m-38.035 764.75s1.0623 15.124-3.5358 27.29c-4.5632 12.074-12.722 19.105-14.741 28.183-5.5454 24.944 4.7711 48.168 2.1912 70.356-1.2828 11.033-11.974 27.287-7.445 43.909 2.7936 10.252 18.58 8.8333 29.406 8.6542 0.43768-0.007 0.49499-0.0232 0.91506-0.0255 0.16653-0.00081 0.75155 0 0.91506 0 0.15827-0.00006 0.75646-0.00077 0.91506 0 0.42007 0.002 0.47739 0.0183 0.91506 0.0255 10.826 0.17918 26.613 1.598 29.406-8.6542 4.5291-16.622-6.1622-32.876-7.445-43.909-2.5799-22.189 7.7366-45.413 2.1912-70.356-2.0184-9.0788-10.177-16.109-14.741-28.183-4.598-12.166-3.5358-27.29-3.5358-27.29h-5.8763-1.3197-0.49799-0.0249-1.8177z" style="fill:url(#linearGradient75023)"/>
    <path id="rect64818" style="fill:url(#linearGradient75025)" d="m-56.281 820.08c-0.01191 0.0516-0.01974 0.10447-0.03125 0.15625-5.5323 24.885 4.7321 48.046 2.2188 70.188h47.531c-2.5134-22.141 7.7511-45.303 2.2188-70.188-0.011446-0.0515-0.019411-0.10489-0.03125-0.15625h-51.906zm25.969 6.3438c12.115 0 21.938 9.8223 21.938 21.938 0 3.1633-0.70113 6.1585-1.9062 8.875 0.4031-1.2443 0.63782-2.538 0.71875-3.875h-41.531c0.08093 1.337 0.31674 2.6307 0.71875 3.875-1.2051-2.7165-1.9062-5.7117-1.9062-8.875 0-12.115 9.8536-21.938 21.969-21.938z"/>
    <path id="path64581" d="m-38.035 764.75s0.28634 4.4071-0.1494 10.365h15.712c-0.43574-5.9575-0.1494-10.365-0.1494-10.365h-5.8763-1.3197-0.49799-0.0249-1.8177-5.8763z" style="fill:url(#linearGradient75027)"/>
    <path id="path64583" d="m-37.874 753.59c-0.7908 0-1.4257 0.89928-1.4257 2.0195v10.195h17.943v-10.195c0-1.1202-0.63487-2.0195-1.4257-2.0195z" style="fill:url(#linearGradient75029)"/>
    <path id="path64585" style="fill:#552200" transform="matrix(.79679 0 0 .81691 -7.1401 221.95)" d="m-19.843 677.16c0 0.0732-4.1453 0.13258-9.2587 0.13258s-9.2587-0.0594-9.2587-0.13258c0-0.0732 4.1453-0.13258 9.2587-0.13258s9.2587 0.0594 9.2587 0.13258z"/>
    <path id="path64587" d="m-39.304 763.53v0.22975h17.953v-0.22975h-17.953z" style="fill:#55ddff"/>
    <path id="path64461-2" d="m-56.062 819.3c-0.0828 0.30541-0.1801 0.60912-0.24899 0.91902-0.0706 0.31741-0.13371 0.62771-0.1992 0.94456h52.364c-0.06549-0.31685-0.12863-0.62715-0.1992-0.94456-0.0689-0.3099-0.16618-0.61361-0.249-0.91902zm2.0169 70.612c-0.02309 0.22045-0.04909 0.44351-0.0747 0.66374-0.04579 0.39383-0.10565 0.79293-0.1743 1.1998h47.932c-0.06864-0.40691-0.12851-0.80601-0.1743-1.1998-0.02561-0.22023-0.05161-0.44329-0.0747-0.66374z" style="fill:#ffffff"/>
    <g id="g64788" transform="matrix(.97710 0 0 .97710 -.69458 19.948)">
      <g id="g64783">
        <path id="path64744" style="opacity:.57195;fill:url(#linearGradient75031)" d="m-30.312 773.03c-12.399 0-22.469 10.038-22.469 22.438 0 3.2374 0.70414 6.3136 1.9375 9.0938-0.41143-1.2735-0.66718-2.6004-0.75-3.9688h42.531c-0.082823 1.3683-0.33745 2.6953-0.75 3.9688 1.2334-2.7802 1.9375-5.8563 1.9375-9.0938 0-12.399-10.038-22.438-22.438-22.438z" transform="translate(0 52.362)"/>
        <path id="path64669" style="fill:url(#linearGradient75033)" d="m-51.608 852.97c0.58644 9.6887 9.877 17.405 21.264 17.405s20.71-7.7158 21.296-17.405h-42.56z"/>
        <path id="path64707" style="fill:url(#linearGradient75035)" d="m-30.342 825.24c-8.4005 0-15.549 4.4731-18.408 10.75h36.844c-2.866-6.2769-10.036-10.75-18.436-10.75z"/>
      </g>
      <path id="path64738" d="m-30.344 772.31c-12.79 0-23.156 10.367-23.156 23.156 0 12.79 10.367 23.156 23.156 23.156 12.79 0 23.188-10.367 23.188-23.156 0-12.79-10.398-23.156-23.188-23.156zm-1.0938 1.7812c0.36458-0.0185 0.72458 0 1.0938 0 6.6766 0 12.635 3.055 16.562 7.8438h-33.094c3.7035-4.5252 9.2136-7.5283 15.438-7.8438zm-16.844 9.7188h35.875c2.1867 3.3509 3.4688 7.356 3.4688 11.656 0 1.7008-0.21807 3.3519-0.59375 4.9375h-41.594c-0.37457-1.5856-0.59375-3.2367-0.59375-4.9375 0-4.2916 1.2631-8.3047 3.4375-11.656zm4.9375 2.75c-1.3826 0.00001-2.5198 0.50369-3.4062 1.5312-0.88649 1.0276-1.3438 2.3153-1.3438 3.8438-0.000001 1.6413 0.38802 2.925 1.1875 3.875 0.79948 0.94997 1.9312 1.4375 3.375 1.4375s2.5335-0.39272 3.2812-1.1875l-0.84375-1.5c-0.55024 0.69602-1.3078 1.0625-2.2812 1.0625-0.85122 0-1.521-0.31976-2.0312-0.96875-0.51026-0.64899-0.78125-1.5511-0.78125-2.6562-0.000002-1.1052 0.26226-1.9969 0.8125-2.7188 0.55023-0.72188 1.2644-1.0937 2.125-1.0938 0.90764 0.00001 1.5596 0.21586 1.9688 0.625l0.781-1.53c-0.71014-0.48438-1.6586-0.71874-2.8438-0.71875zm8.0312 0c-1.1216 0.11137-2.0443 0.64036-2.75 1.5312-0.80654 1.0182-1.1875 2.2468-1.1875 3.7188-0.000001 1.6836 0.35305 3 1.0938 3.9688 0.7407 0.96879 1.8002 1.4688 3.1875 1.4688 1.5096 0 2.6793-0.49056 3.5-1.4688 0.82064-0.97819 1.25-2.3039 1.25-3.9688-0.00001-1.6648-0.40213-2.9532-1.1875-3.875-0.78538-0.92175-1.9202-1.375-3.4062-1.375-0.16872 0-0.33977-0.0159-0.5 0zm17.781 0.0312-4.125 10.469h2.0625l0.71875-2.0938h3.5312l0.75 2.0938h2.0312l-4.1562-10.469h-0.8125zm-11.062 0.15625v10.312h6.5v-1.625h-4.6875v-8.6875h-1.8125zm-6.2188 1.4375c1.7871 0.00001 2.6875 1.203 2.6875 3.625-0.000008 1.2368-0.23672 2.1948-0.71875 2.8438-0.48205 0.64899-1.208 0.96875-2.125 0.96875-0.78068 0-1.3721-0.3369-1.7812-1-0.40915-0.6631-0.59375-1.6039-0.59375-2.8125-0.000002-1.1099 0.21888-2.0002 0.65625-2.6562 0.43736-0.65604 1.0567-0.96874 1.875-0.96875zm17.688 1.5625 1.25 3.8125h-2.5l1.25-3.8125zm-33.469 12.531h40.531c-2.8536 8.4614-10.855 14.562-20.281 14.562-9.4243 0-17.403-6.1033-20.25-14.562z" style="fill:#ffffff" transform="translate(0 52.362)"/>
    </g>
  </g>
</svg>