<svg xmlns="http://www.w3.org/2000/svg" width="16" height="16" viewBox="0 0 16 16" fill="none">
    <path d="M6.72041 0.519201C3.01458 0.519201 0 3.53378 0 7.23961C0 10.9454 3.01458 13.96 6.72041 13.96C7.85328 13.96 8.96694 13.6912 9.9078 13.1728C9.98317 13.2635 10.0667 13.347 10.1574 13.4224L12.0775 15.3425C12.2548 15.542 12.471 15.7032 12.7129 15.8161C12.9547 15.929 13.2171 15.9913 13.4839 15.9992C13.7506 16.007 14.0162 15.9602 14.2643 15.8618C14.5123 15.7633 14.7376 15.6151 14.9264 15.4264C15.1151 15.2376 15.2633 15.0123 15.3618 14.7643C15.4602 14.5162 15.507 14.2506 15.4992 13.9839C15.4913 13.7171 15.429 13.4547 15.3161 13.2129C15.2032 12.971 15.042 12.7548 14.8425 12.5775L12.9224 10.6574C12.8289 10.5639 12.7259 10.4802 12.6152 10.4078C13.1336 9.46695 13.46 8.37248 13.46 7.22041C13.46 3.51458 10.4454 0.5 6.73961 0.5L6.72041 0.519201ZM6.72041 2.43932C9.38937 2.43932 11.5207 4.57065 11.5207 7.23961C11.5207 8.50689 11.0599 9.67816 10.2534 10.5422C10.2342 10.5614 10.215 10.5806 10.1958 10.5998C10.1051 10.6752 10.0216 10.7587 9.9462 10.8494C9.10135 11.6175 7.94928 12.0591 6.70121 12.0591C4.03225 12.0591 1.90092 9.92777 1.90092 7.25881C1.90092 4.58985 4.03225 2.45852 6.70121 2.45852L6.72041 2.43932Z" fill="#9CA3AF"/>
</svg>
