<svg width="17" height="16" viewBox="0 0 17 16" fill="none" xmlns="http://www.w3.org/2000/svg">
<path d="M5.83333 2H3.83333C3.47971 2 3.14057 2.14048 2.89052 2.39052C2.64048 2.64057 2.5 2.97971 2.5 3.33333V5.33333" stroke="#020817" stroke-width="1.33333" stroke-linecap="round" stroke-linejoin="round"/>
<path d="M14.5003 5.33333V3.33333C14.5003 2.97971 14.3598 2.64057 14.1098 2.39052C13.8598 2.14048 13.5206 2 13.167 2H11.167" stroke="#020817" stroke-width="1.33333" stroke-linecap="round" stroke-linejoin="round"/>
<path d="M2.5 10.6667V12.6667C2.5 13.0204 2.64048 13.3595 2.89052 13.6096C3.14057 13.8596 3.47971 14.0001 3.83333 14.0001H5.83333" stroke="#020817" stroke-width="1.33333" stroke-linecap="round" stroke-linejoin="round"/>
<path d="M11.167 14.0001H13.167C13.5206 14.0001 13.8598 13.8596 14.1098 13.6096C14.3598 13.3595 14.5003 13.0204 14.5003 12.6667V10.6667" stroke="#020817" stroke-width="1.33333" stroke-linecap="round" stroke-linejoin="round"/>
</svg>
