<svg width="22" height="22" viewBox="0 0 22 22" fill="none" xmlns="http://www.w3.org/2000/svg">
<path d="M7.98397 13.5346L2.99035 18.4916L2.99038 14.3197C2.99044 14.1177 2.91041 13.9238 2.76782 13.7806C2.69737 13.7099 2.61364 13.6537 2.52144 13.6154C2.42923 13.5771 2.33037 13.5574 2.23053 13.5573C2.13068 13.5574 2.03182 13.5771 1.93962 13.6154C1.84742 13.6537 1.76369 13.7099 1.69323 13.7806C1.55074 13.9236 1.4707 14.1175 1.4707 14.3197V20.4188C1.4707 20.8399 1.81088 21.1812 2.23053 21.1812H8.30919C8.72884 21.1812 9.06904 20.8399 9.06904 20.4188C9.06904 19.9978 8.72884 19.6564 8.30919 19.6564H4.07533L9.10488 14.6639C9.41669 14.3543 9.41857 13.8506 9.10904 13.5388C8.79951 13.227 8.29578 13.2251 7.98397 13.5346Z" fill="#4B5563"/>
<path d="M14.1452 9.9101L19.1794 4.87584L19.1795 9.1457C19.1794 9.34775 19.2594 9.5416 19.402 9.68478C19.5445 9.82776 19.7378 9.90809 19.9393 9.90809C20.0391 9.90806 20.138 9.88832 20.2302 9.85C20.3224 9.81168 20.4061 9.75553 20.4766 9.68478C20.6191 9.54181 20.6991 9.34787 20.6991 9.14567V3.04657C20.6991 2.62553 20.3589 2.28418 19.9393 2.28418H13.8606C13.4409 2.28418 13.1007 2.62553 13.1007 3.04657C13.1007 3.46765 13.4409 3.80896 13.8606 3.80896H17.9962L13.0201 8.78503C12.7094 9.09571 12.7094 9.59942 13.0201 9.9101C13.3308 10.2208 13.8345 10.2208 14.1452 9.9101Z" fill="#4B5563"/>
</svg>
