<svg width="22" height="23" viewBox="0 0 22 23" fill="none" xmlns="http://www.w3.org/2000/svg">
<g clip-path="url(#clip0_3542_15964)">
<path d="M11.329 10.8148L4.29291 10.7888L7.24286 7.8389C7.38579 7.69606 7.46628 7.50239 7.4667 7.30032C7.46691 7.20048 7.4474 7.10157 7.40929 7.00928C7.37119 6.91699 7.31524 6.83313 7.24466 6.76251C7.17404 6.69193 7.09018 6.63598 6.99789 6.59788C6.9056 6.55977 6.8067 6.54027 6.70685 6.54047C6.50499 6.54082 6.31127 6.62135 6.16829 6.76433L1.85557 11.077C1.55785 11.3748 1.55702 11.8567 1.85376 12.1534L6.15202 16.4517C6.44876 16.7484 6.93069 16.7476 7.22841 16.4499C7.52614 16.1521 7.52694 15.6702 7.2302 15.3735L4.23641 12.3797L11.3231 12.4058C11.7625 12.4075 12.12 12.0526 12.1216 11.6132C12.1232 11.1739 11.7684 10.8164 11.329 10.8148Z" fill="#4B5563"/>
<path d="M10.8258 12.3995L17.9453 12.3995L14.9261 15.4188C14.7831 15.5616 14.7027 15.7553 14.7022 15.9573C14.7019 16.1592 14.7817 16.3526 14.9243 16.4951C14.9949 16.5657 15.0787 16.6217 15.171 16.6598C15.2633 16.6979 15.3622 16.7174 15.4621 16.7172C15.6639 16.7168 15.8577 16.6363 16.0006 16.4933L20.3134 12.1806C20.6111 11.8829 20.6119 11.401 20.3152 11.1042L16.0169 6.80593C15.7201 6.5092 15.2382 6.51001 14.9405 6.80773C14.6427 7.10548 14.642 7.58738 14.9387 7.88411L17.863 10.8084L10.8258 10.8084C10.3864 10.8084 10.0302 11.1646 10.0302 11.604C10.0302 12.0433 10.3864 12.3995 10.8258 12.3995Z" fill="#4B5563"/>
<path d="M1.11575 5.02756L1.11575 18.3346C1.11575 18.6712 1.4945 19.046 1.91129 19.046C2.32808 19.046 2.70691 18.752 2.70688 18.3346L2.70683 5.02756C2.70683 4.5882 2.35066 4.23203 1.91129 4.23203C1.47192 4.23203 1.11575 4.5882 1.11575 5.02756Z" fill="#4B5563"/>
<path d="M19.0767 5.02756L19.0767 18.3346C19.0767 18.6712 19.4554 19.046 19.8722 19.046C20.289 19.046 20.6678 18.752 20.6678 18.3346L20.6678 5.02756C20.6678 4.5882 20.3116 4.23203 19.8722 4.23203C19.4329 4.23203 19.0767 4.5882 19.0767 5.02756Z" fill="#4B5563"/>
</g>
<defs>
<clipPath id="clip0_3542_15964">
<rect width="19.8" height="19.8" fill="white" transform="translate(1 2)"/>
</clipPath>
</defs>
</svg>
