<svg width="16" height="13" viewBox="0 0 16 13" fill="none" xmlns="http://www.w3.org/2000/svg">
<path d="M10.8074 6.49707L8.68814 6.19288L7.74334 5.34579L5.15069 3.86212C5.43171 3.36353 5.47905 2.78537 5.32797 2.22937C5.13558 1.52632 4.62793 0.859521 3.87955 0.430434C2.53085 -0.341115 0.915227 -0.0469998 0.266561 1.08514C-0.0194963 1.58675 -0.0668369 2.16894 0.0852571 2.72897C0.275626 3.43202 0.784285 4.09882 1.53368 4.52891C1.86405 4.71727 2.20853 4.84116 2.55099 4.90361C2.55301 4.90361 2.55704 4.90562 2.55905 4.90764C2.58625 4.91167 2.61646 4.9167 2.64769 4.91872C4.78305 5.23701 5.87389 5.84035 6.40471 6.2654C5.87389 6.69248 4.78305 7.2938 2.64668 7.6141C2.61747 7.61713 2.58826 7.62116 2.55905 7.62619C2.55704 7.62821 2.55502 7.62821 2.552 7.62921C2.20853 7.69166 1.86304 7.81757 1.53166 8.00592C0.7863 8.434 0.276634 9.10281 0.0842499 9.80587C-0.0658296 10.3649 -0.0215108 10.9471 0.266561 11.4497C0.277641 11.4678 0.287713 11.4829 0.2998 11.4991L1.1892 12.2877C1.95974 12.6564 2.97706 12.6181 3.87854 12.1024C4.62793 11.6743 5.13558 11.0065 5.32797 10.3034C5.47704 9.74745 5.43272 9.16929 5.15069 8.67171L7.74233 7.18804C8.31948 7.47712 10.058 8.4894 10.058 8.4894C10.058 8.4894 13.6861 9.94487 14.3297 10.3145C15.1083 10.5069 14.8998 10.1624 14.8998 10.1624L10.8074 6.49707ZM4.04474 3.24468C3.75062 3.75938 2.89043 3.84298 2.16522 3.428C1.73915 3.18626 1.42086 2.79847 1.31007 2.39658C1.26373 2.2193 1.2315 1.95641 1.37151 1.71467C1.66462 1.20098 2.52581 1.11738 3.25103 1.53135C3.68112 1.77914 3.99437 2.15484 4.10618 2.56479C4.15352 2.73904 4.18273 3.00294 4.04474 3.24468ZM4.10618 9.97005C3.99437 10.379 3.68112 10.7537 3.25203 11.0025C2.52783 11.4144 1.66462 11.3318 1.37151 10.8171C1.23352 10.5764 1.26474 10.3145 1.31107 10.1362C1.41986 9.73536 1.74016 9.34959 2.16421 9.10684C2.88943 8.69186 3.74961 8.77546 4.04373 9.28915C4.18273 9.53089 4.15352 9.79278 4.10618 9.97005ZM14.7316 1.89195C14.2804 2.15182 10.2645 3.80571 10.2645 3.80571C10.2645 3.80571 8.6972 4.66691 8.14523 4.9439L9.08902 5.79301L11.1609 5.56235L15.3007 1.89799C15.3007 1.89799 15.5696 1.41351 14.7316 1.89195Z" fill="#304254"/>
</svg>
