<svg width="13" height="14" viewBox="0 0 13 14" fill="none" xmlns="http://www.w3.org/2000/svg">
<path fill-rule="evenodd" clip-rule="evenodd" d="M8.44809 0.540744C9.48048 0.993066 10.3753 1.70975 11.0421 2.61845V0H12.2821V3.92664C12.2821 4.09107 12.2168 4.24877 12.1005 4.36504C11.9843 4.48132 11.8266 4.54664 11.6621 4.54664H7.73548V3.30665H10.0088C9.46738 2.58552 8.74665 2.01866 7.91826 1.66241C7.08987 1.30616 6.18266 1.17292 5.28682 1.27594C4.39097 1.37896 3.53769 1.71465 2.81179 2.24965C2.08589 2.78464 1.51265 3.50031 1.14906 4.32551L0 3.85844C0.448702 2.82447 1.16225 1.92717 2.0686 1.25714C2.97496 0.587099 4.04205 0.168038 5.16214 0.0422552C6.28224 -0.0835274 7.41569 0.0884213 8.44809 0.540744ZM10.0512 6.77214L5.87804 5.2062C5.10242 4.91516 4.23772 5.30799 3.94668 6.0836L2.38074 10.2568C2.08969 11.0324 2.48252 11.8971 3.25814 12.1881L7.4313 13.7541C8.20693 14.0451 9.07163 13.6523 9.36267 12.8767L10.9286 8.70351C11.2197 7.92789 10.8268 7.06319 10.0512 6.77214ZM4.88293 6.43493C4.97995 6.17639 5.26818 6.04544 5.52672 6.14246L9.69989 7.7084C9.95843 7.80541 10.0894 8.09365 9.99236 8.35219L8.42641 12.5254C8.3294 12.7839 8.04117 12.9148 7.78263 12.8178L3.60946 11.2519C3.35092 11.1549 3.21998 10.8666 3.31699 10.6081L4.88293 6.43493Z" fill="#137BDD"/>
</svg>
