<?xml version="1.0" encoding="utf-8"?>
<svg viewBox="652.474 234.228 50.517 184.608" width="50.517" height="184.608" xmlns="http://www.w3.org/2000/svg" xmlns:xlink="http://www.w3.org/1999/xlink">
  <defs>
    <linearGradient id="linearGradient10395" y2="581.53" gradientUnits="userSpaceOnUse" x2="386.08" gradientTransform="matrix(.99464 0 0 .99464 255.68 570.87)" y1="712.95" x1="386.08" xlink:href="#linearGradient78773"/>
    <linearGradient id="linearGradient78773">
      <stop id="stop78775" style="stop-color:#e1a849" offset="0"/>
      <stop id="stop78777" style="stop-color:#ffff8b" offset="1"/>
    </linearGradient>
    <linearGradient id="linearGradient10397" y2="525.38" gradientUnits="userSpaceOnUse" x2="486.67" gradientTransform="translate(155.21 568.51)" y1="545.19" x1="486.67" xlink:href="#linearGradient78792"/>
    <linearGradient id="linearGradient78792">
      <stop id="stop78794" style="stop-color:#ffc548" offset="0"/>
      <stop id="stop78796" style="stop-color:#ffff8a" offset="1"/>
    </linearGradient>
    <linearGradient id="linearGradient10399" y2="525.38" gradientUnits="userSpaceOnUse" x2="486.67" gradientTransform="matrix(1.0095 0 0 .13440 150.6 1039.3)" y1="545.19" x1="486.67" xlink:href="#linearGradient78792"/>
    <linearGradient id="linearGradient10401" y2="1214.3" gradientUnits="userSpaceOnUse" x2="641.25" gradientTransform="translate(-.0000056438 52.362)" y1="1056" x1="641.25" xlink:href="#linearGradient78877"/>
    <linearGradient id="linearGradient78877">
      <stop id="stop78879" style="stop-color:#ffffc6" offset="0"/>
      <stop id="stop78881" style="stop-color:#ffdf5d" offset="0.5"/>
      <stop id="stop78883" style="stop-color:#ff7b00" offset="1"/>
    </linearGradient>
    <linearGradient id="linearGradient10403" y2="1110" gradientUnits="userSpaceOnUse" x2="641.59" gradientTransform="matrix(1.1347 0 0 1 -86.36 0)" y1="1101.4" x1="641.59" xlink:href="#linearGradient78826"/>
    <linearGradient id="linearGradient78826">
      <stop id="stop78828" style="stop-color:#ffffc6" offset="0"/>
      <stop id="stop78875" style="stop-color:#ffef91" offset="0.5"/>
      <stop id="stop78830" style="stop-color:#ffdf5d" offset="1"/>
    </linearGradient>
    <linearGradient id="linearGradient10405" y2="1060.4" gradientUnits="userSpaceOnUse" x2="641.06" gradientTransform="matrix(1.1347 0 0 1 -86.36 52.362)" y1="1058.3" x1="641.06" xlink:href="#linearGradient78826"/>
  </defs>
  <g id="g78910" transform="matrix(0.9862, 0, 0, 0.9862, 45.268099, -851.479996)">
    <path id="rect78755" style="fill:url(#linearGradient10395)" d="m632.27 1109.8v50.354c-9.5957 5.669-16.567 12.493-16.567 21.478v102.17c0 2.3866 1.7354 4.2894 3.9474 4.2894h20.67 0.9947 0.9946 20.67c2.212 0 3.9474-1.9028 3.9474-4.2894v-102.17c0-8.9849-6.9713-15.809-16.567-21.478v-50.354h-9.045-9.045z"/>
    <g id="g78871" transform="translate(-.00099564)">
      <path id="rect78781" d="m632.73 1100.9c-0.39942 0-0.72097 0.3345-0.72097 0.75v10.125h18.625v-10.125c0-0.4155-0.32155-0.75-0.72097-0.75h-17.183z" style="fill:url(#linearGradient10397)"/>
      <path id="path78803" d="m632.66 1110.8c-0.40321 0-0.75 0.038-0.75 0.094v0.4375 0.9375 0.4063c0 0.056 0.34679 0.094 0.75 0.094h17.344c0.40321 0 0.71875-0.038 0.71875-0.094v-0.4063-0.9375-0.4375c0-0.056-0.31554-0.094-0.71875-0.094h-17.344z" style="fill:url(#linearGradient10399)"/>
    </g>
    <path id="path78885" style="fill:#ffcc00" d="m638.56 1171.9v0.3507c-9.5226 4.4645-16.138 9.7616-16.138 16.542v78.183c0 2.0073 2.0422 3.6016 4.6483 3.6016h14.239 14.272c2.6061 0 4.6156-1.5943 4.6156-3.6016v-78.183c0-6.7801-6.6154-12.077-16.138-16.542v-0.3507h-5.4994z"/>
    <path id="path78843" style="fill:url(#linearGradient10401)" d="m638.69 1100.9v71.531c-9.0908 4.3775-15.406 9.5711-15.406 16.219v76.656c0 1.9682 1.9495 3.5312 4.4375 3.5312h13.594 13.625c2.488 0 4.4062-1.563 4.4062-3.5312v-76.656c0-6.6476-6.3154-11.841-15.406-16.219v-71.531h-5.25z"/>
    <g id="g78867" transform="translate(-.00050064)">
      <path id="path78821" d="m638.34 1100.9v9.9063h5.957v-9.9063z" style="fill:url(#linearGradient10403)"/>
      <path id="path78834" d="m638.33 1110.8v1.9687h5.957v-1.9687h-5.957z" style="fill:url(#linearGradient10405)"/>
    </g>
    <g id="text78786" style="fill:#ffffff" transform="rotate(-90)">
      <path id="path12784" style="" d="m-1250.3 635.02-1.0298 2.0691c-0.5582-0.55818-1.4564-0.83727-2.6947-0.83728-1.1741 0.00001-2.1365 0.49243-2.8872 1.4773-0.7506 0.98485-1.126 2.2312-1.126 3.7389 0 1.5078 0.3481 2.7043 1.0442 3.5897s1.6249 1.3281 2.7861 1.3281c1.3281 0 2.3675-0.47478 3.1182-1.4243l1.1645 2.021c-1.0202 1.0843-2.5151 1.6264-4.4848 1.6264s-3.4999-0.64801-4.5906-1.944-1.636-3.0636-1.636-5.3028c0-2.0852 0.6047-3.8287 1.8141-5.2306s2.7572-2.1028 4.6435-2.1028c1.6168 0.00002 2.9096 0.33044 3.8785 0.99127z"/>
      <path id="path12786" style="" d="m-1248.6 641.2c0-2.0082 0.5502-3.7068 1.6505-5.0959 1.1003-1.389 2.5712-2.0836 4.4126-2.0836 2.0274 0.00001 3.5768 0.62878 4.6483 1.8863s1.6072 3.0219 1.6072 5.2932c0 2.2712-0.5598 4.0741-1.6794 5.4086s-2.7091 2.0018-4.7686 2.0018c-1.8927 0-3.3443-0.66084-4.3548-1.9825s-1.5158-3.131-1.5158-5.4279zm2.5985 0c0 1.6489 0.2791 2.9257 0.8372 3.8303 0.5582 0.90465 1.3698 1.357 2.4349 1.357 1.2511 0 2.2055-0.4427 2.8631-1.3281s0.9864-2.1718 0.9865-3.8592c-0.0001-3.3042-1.2191-4.9563-3.6571-4.9563-1.1164 0.00002-1.9729 0.44753-2.5696 1.3425-0.5967 0.89503-0.895 2.0996-0.895 3.6138z"/>
      <path id="path12788" style="" d="m-1226.1 648.37-3.763-5.8225c-0.3785-0.006-0.9078-0.0289-1.5879-0.0674v5.8898h-2.5985v-14.099c0.1412 0.00002 0.6833-0.024 1.6265-0.0722 0.9431-0.0481 1.7034-0.0722 2.2808-0.0722 3.5801 0.00002 5.3702 1.3859 5.3702 4.1575 0 0.83408-0.2471 1.5944-0.7411 2.2809-0.494 0.68651-1.1164 1.1709-1.867 1.4532l4.1671 6.3518zm-5.3509-11.924v3.9169c0.4619 0.0385 0.8148 0.0577 1.0586 0.0577 1.0458 0.00001 1.8109-0.14756 2.2953-0.4427 0.4844-0.29512 0.7266-0.86935 0.7266-1.7227 0-0.69291-0.2598-1.1773-0.7795-1.4532-0.5197-0.27587-1.3378-0.41382-2.4541-0.41383-0.2695 0.00001-0.5518 0.0193-0.8469 0.0578z"/>
      <path id="path12790" style="" d="m-1218.9 648.37h-3.1277v-14.089c1.9953-0.0706 3.2496-0.10585 3.7629-0.10587 2.0531 0.00002 3.6811 0.60151 4.8841 1.8045s1.8045 2.799 1.8045 4.7879c0 5.0686-2.4413 7.6029-7.3238 7.6029zm-0.6255-11.905v9.6239c0.4042 0.0385 0.8405 0.0577 1.3088 0.0577 1.264 0 2.2536-0.45874 2.969-1.3762 0.7154-0.91748 1.0731-2.2007 1.0731-3.8496 0-3.0155-1.4019-4.5232-4.2057-4.5232-0.2695 0.00001-0.6512 0.0225-1.1452 0.0674z"/>
      <path id="path12792" style="" d="m-1209.3 648.37v-14.099h2.5023v14.099z"/>
      <path id="path12794" style="" d="m-1195.6 648.37-1.0297-2.8583h-4.8312l-0.9817 2.8583h-2.7813l5.6204-14.292h1.0971l5.6685 14.292zm-3.4549-9.98-1.6939 5.2065h3.3877z"/>
      <path id="path12796" style="" d="m-1191.4 648.37v-14.099h2.5022v11.876h6.371v2.2231z"/>
    </g>
  </g>
</svg>