<?xml version="1.0" encoding="utf-8"?>
<svg viewBox="338.281 452.689 59.178 188.275" width="59.178" height="188.275" xmlns="http://www.w3.org/2000/svg" xmlns:xlink="http://www.w3.org/1999/xlink">
  <defs>
    <linearGradient id="linearGradient74637" y2="761.56" gradientUnits="userSpaceOnUse" x2="387.16" gradientTransform="matrix(1.0091 0 0 1 -3.1704 12.017)" y1="923.84" x1="387.16" xlink:href="#linearGradient65147"/>
    <linearGradient id="linearGradient65147">
      <stop id="stop65149" style="stop-color:#ff6600" offset="0"/>
      <stop id="stop65151" style="stop-color:#ffcc00" offset="1"/>
    </linearGradient>
    <linearGradient id="linearGradient74639" y2="352.42" gradientUnits="userSpaceOnUse" x2="-798.03" gradientTransform="matrix(.86082 0 0 1.2193 1108.5 339.32)" y1="363.93" x1="-798.03" xlink:href="#linearGradient65147"/>
    <linearGradient id="linearGradient74641" y2="789.69" gradientUnits="userSpaceOnUse" x2="381.25" gradientTransform="translate(1.4508e-8 52.362)" y1="831.76" x1="381.25" xlink:href="#linearGradient65160"/>
    <linearGradient id="linearGradient65160">
      <stop id="stop65162" style="stop-color:#fb3700" offset="0"/>
      <stop id="stop65164" style="stop-color:#fb8200" offset="1"/>
    </linearGradient>
    <linearGradient id="linearGradient74643" y2="816.52" gradientUnits="userSpaceOnUse" x2="381.43" gradientTransform="matrix(.93496 0 0 .95276 22.704 84.831)" y1="837.53" x1="381.43" xlink:href="#linearGradient65147"/>
    <linearGradient id="linearGradient74645" y2="819.08" gradientUnits="userSpaceOnUse" x2="381.43" gradientTransform="matrix(.86245 0 0 .86245 50.489 161.18)" y1="845.17" x1="381.43" xlink:href="#linearGradient65147"/>
    <linearGradient id="linearGradient74647" y2="837.53" gradientUnits="userSpaceOnUse" x2="379.91" gradientTransform="matrix(.93496 0 0 .95276 22.704 84.831)" y1="816.28" x1="379.91" xlink:href="#linearGradient65147"/>
    <linearGradient id="linearGradient74649" y2="845.17" gradientUnits="userSpaceOnUse" x2="375.08" gradientTransform="matrix(.86245 0 0 .86245 50.489 161.18)" y1="820.95" x1="375.08" xlink:href="#linearGradient65147"/>
  </defs>
  <g id="g65347" transform="matrix(0.9924, 0, 0, 0.9924, -10.204525, -295.166125)">
    <path id="rect64967" d="m372.1 763.99v7.0312c-14.212 3.2608-20.946 24.175-20.946 39.278v30.281 68.844 23.875c0 7.3451 5.9772 10 13.389 10h15.858 1.1306 15.829c7.4117 0 13.419-2.6549 13.419-10v-23.875-68.844-30.281c0-15.103-6.734-36.017-20.946-39.278v-7.0312h-8.3011-1.1306z" style="fill:url(#linearGradient74637)"/>
    <g id="g65120" transform="matrix(1.0091 0 0 1 -3.1704 12.017)">
      <path id="path65122" style="fill:#ffffff" d="m372.09 711.62v7.0312c-2.9396 0.67446-5.5374 2.1164-7.8438 4.0938h33.438c-2.3064-1.9774-4.9041-3.4193-7.8438-4.0938v-7.0312h-8.3125-1.125-8.3125z" transform="matrix(.99101 0 0 1 3.1419 40.345)"/>
    </g>
    <g id="g65069" transform="matrix(1.0886 0 0 1 -78.157 -17.668)">
      <path id="path64874-0" d="m414.2 771.25c-0.7908 0-1.4257 0.89928-1.4257 2.0195v10.195h17.943v-10.195c0-1.1202-0.63487-2.0195-1.4257-2.0195z" style="fill:url(#linearGradient74639)"/>
      <path id="path64878-9" d="m412.77 781.2v0.22975h17.953v-0.22975h-17.953z" style="fill:#ffcc00"/>
    </g>
    <path id="path65155" style="fill:#d45500" d="m380.97 941.67c-8.5577 0-15.592 0.71241-16.656 1.625h16.046 1.2212 16.046c-1.0641-0.91259-8.0986-1.625-16.656-1.625z"/>
    <g id="g65316" transform="translate(.0000022319)">
      <path id="path65144" style="fill:url(#linearGradient74641)" d="m351.16 819.3v21.281 51.188h59.625v-51.188-21.281h-59.625z"/>
      <g id="g65298" transform="translate(0 -.084595)">
        <g id="g65281">
          <path id="path65275" style="fill:url(#linearGradient74643)" d="m380.97 867.04c-12.768 0-23.143 10.349-23.519 23.267h47.039c-0.37617-12.918-10.752-23.267-23.519-23.267z"/>
          <path id="path65240" d="m380.97 869.25c-11.778 0-21.348 9.3677-21.695 21.061h43.391c-0.347-11.694-9.9177-21.061-21.695-21.061z" style="fill:url(#linearGradient74645)"/>
          <path id="path65211" d="m380.97 868.15c-12.332 0-22.329 9.9972-22.329 22.329 0 0.12839-0.002 0.25806 0 0.38594h1.847c-0.003-0.12961 0-0.25576 0-0.38594 0-3.2828 0.77834-6.3749 2.1502-9.1247l13.37 6.8642c-0.2723 0.58506-0.44484 1.2276-0.49621 1.9021h10.917c-0.0513-0.67449-0.22391-1.3171-0.49621-1.9021l13.37-6.8642c1.3719 2.7498 2.1502 5.842 2.1502 9.1247 0 0.13018 0.003 0.25633 0 0.38594h1.847c0.002-0.12788 0-0.25755 0-0.38594 0-12.332-9.9972-22.329-22.329-22.329zm-1.0476 1.8746c0.0459-0.002 0.0918 0.002 0.13783 0l0.74432 15.024c-0.94819 0.0289-1.8524 0.29176-2.6189 0.74431l-6.8367-13.37c2.5802-1.3775 5.4823-2.2417 8.5734-2.3984zm1.9573 0c3.1424 0.13825 6.0927 1.0004 8.7112 2.3984l-6.8367 13.37c-0.76649-0.45255-1.6707-0.71535-2.6189-0.74431l0.74432-15.024zm-12.102 3.3081 8.1599 12.626c-0.75852 0.50489-1.3623 1.2027-1.7919 2.0124l-12.653-8.1599c1.5883-2.5967 3.7416-4.8138 6.2853-6.4783zm22.385 0c2.5437 1.6645 4.697 3.8816 6.2853 6.4783l-12.653 8.1599c-0.42958-0.80969-1.0333-1.5075-1.7919-2.0124l8.1599-12.626z" style="fill:#ffeeaa"/>
        </g>
        <g id="g65286" transform="matrix(1 0 0 -1 0 1711.2)">
          <path id="path65288" style="fill:url(#linearGradient74647)" d="m380.97 867.04c-12.768 0-23.143 10.349-23.519 23.267h47.039c-0.37617-12.918-10.752-23.267-23.519-23.267z"/>
          <path id="path65290" style="fill:url(#linearGradient74649)" d="m380.97 869.25c-11.778 0-21.348 9.3677-21.695 21.061h43.391c-0.347-11.694-9.9177-21.061-21.695-21.061z"/>
          <path id="path65292" style="fill:#ffeeaa" d="m380.97 868.15c-12.332 0-22.329 9.9972-22.329 22.329 0 0.12839-0.002 0.25806 0 0.38594h1.847c-0.003-0.12961 0-0.25576 0-0.38594 0-3.2828 0.77834-6.3749 2.1502-9.1247l13.37 6.8642c-0.2723 0.58506-0.44484 1.2276-0.49621 1.9021h10.917c-0.0513-0.67449-0.22391-1.3171-0.49621-1.9021l13.37-6.8642c1.3719 2.7498 2.1502 5.842 2.1502 9.1247 0 0.13018 0.003 0.25633 0 0.38594h1.847c0.002-0.12788 0-0.25755 0-0.38594 0-12.332-9.9972-22.329-22.329-22.329zm-1.0476 1.8746c0.0459-0.002 0.0918 0.002 0.13783 0l0.74432 15.024c-0.94819 0.0289-1.8524 0.29176-2.6189 0.74431l-6.8367-13.37c2.5802-1.3775 5.4823-2.2417 8.5734-2.3984zm1.9573 0c3.1424 0.13825 6.0927 1.0004 8.7112 2.3984l-6.8367 13.37c-0.76649-0.45255-1.6707-0.71535-2.6189-0.74431l0.74432-15.024zm-12.102 3.3081 8.1599 12.626c-0.75852 0.50489-1.3623 1.2027-1.7919 2.0124l-12.653-8.1599c1.5883-2.5967 3.7416-4.8138 6.2853-6.4783zm22.385 0c2.5437 1.6645 4.697 3.8816 6.2853 6.4783l-12.653 8.1599c-0.42958-0.80969-1.0333-1.5075-1.7919-2.0124l8.1599-12.626z"/>
        </g>
      </g>
      <path id="path64880-0" d="m351.16 766.94v1.875h59.625v-1.875h-59.625zm0 70.594v1.875h59.625v-1.875h-59.625z" style="fill:#ffeeaa" transform="translate(0 52.362)"/>
    </g>
    <g id="text65181" style="fill:#ffeeaa" transform="matrix(1.0435 0 0 .95829 -.0000032634 0)">
      <path id="path65335" d="m350.2 894.64v5.1818h-2.4995v-14.074c1.6664-0.0705 2.6405-0.10574 2.9225-0.10575 2.224 0.00001 3.8503 0.3413 4.8789 1.0238 1.0286 0.68258 1.543 1.7481 1.543 3.1965-0.00002 3.2302-1.9035 4.8453-5.7105 4.8453-0.282 0-0.66014-0.0224-1.1344-0.0673zm0-6.7295v4.5088c0.423 0.0449 0.75627 0.0673 0.99982 0.0673 1.1408 0.00001 1.974-0.19066 2.4996-0.57201 0.52554-0.38133 0.78831-1.0014 0.78832-1.8602-0.00001-1.4613-1.1761-2.1919-3.5282-2.1919-0.26278 0.00001-0.51593 0.016-0.75948 0.0481z"/>
      <path id="path65337" d="m358.6 892.66c-0.00001-2.006 0.54957-3.7028 1.6487-5.0904 1.0992-1.3876 2.5684-2.0813 4.4079-2.0814 2.0253 0.00001 3.5731 0.6281 4.6434 1.8843s1.6055 3.0187 1.6055 5.2875c-0.00001 2.2688-0.5592 4.0698-1.6776 5.4029s-2.7062 1.9996-4.7636 1.9996c-1.8907 0-3.3408-0.66014-4.3502-1.9804s-1.5142-3.1276-1.5141-5.4221zm2.5957 0c-0.00001 1.6472 0.27879 2.9226 0.83638 3.8262 0.55759 0.90369 1.3683 1.3555 2.4323 1.3555 1.2498 0 2.2031-0.44223 2.86-1.3267 0.65692-0.88445 0.98539-2.1695 0.9854-3.8551-0.00001-3.3007-1.2177-4.951-3.6532-4.951-1.1152 0.00001-1.9708 0.44705-2.5668 1.3411-0.59605 0.89408-0.89408 2.0974-0.89407 3.6099z"/>
      <path id="path65339" d="m375.61 894.64v5.1818h-2.4996v-14.074c1.6664-0.0705 2.6405-0.10574 2.9226-0.10575 2.2239 0.00001 3.8502 0.3413 4.8789 1.0238 1.0286 0.68258 1.543 1.7481 1.543 3.1965-0.00001 3.2302-1.9035 4.8453-5.7105 4.8453-0.282 0-0.66014-0.0224-1.1344-0.0673zm0-6.7295v4.5088c0.42299 0.0449 0.75626 0.0673 0.99981 0.0673 1.1408 0.00001 1.974-0.19066 2.4996-0.57201 0.52554-0.38133 0.78831-1.0014 0.78832-1.8602-0.00001-1.4613-1.1761-2.1919-3.5282-2.1919-0.26277 0.00001-0.51593 0.016-0.75947 0.0481z"/>
    </g>
    <path id="path64876-7" style="fill:#ff6600" transform="matrix(1.6912 0 0 .81691 430.19 221.95)" d="m-19.843 677.16c0 0.0732-4.1453 0.13258-9.2587 0.13258s-9.2587-0.0594-9.2587-0.13258c0-0.0732 4.1453-0.13258 9.2587-0.13258s9.2587 0.0594 9.2587 0.13258z"/>
  </g>
</svg>