<?xml version="1.0" encoding="utf-8"?>
<svg viewBox="593.01 452.687 59.178 188.253" width="59.178" height="188.253" xmlns="http://www.w3.org/2000/svg" xmlns:xlink="http://www.w3.org/1999/xlink">
  <defs>
    <linearGradient id="linearGradient74677" y2="785.86" gradientUnits="userSpaceOnUse" x2="739.75" gradientTransform="translate(-103.01 279.25)" y1="944.14" x1="739.75" xlink:href="#linearGradient74029"/>
    <linearGradient id="linearGradient74029">
      <stop id="stop74031" style="stop-color:#ff122a" offset="0"/>
      <stop id="stop74033" style="stop-color:#ff7272" offset="1"/>
    </linearGradient>
    <linearGradient id="linearGradient74679" y2="353.63" gradientUnits="userSpaceOnUse" x2="-794.84" gradientTransform="matrix(.86082 0 0 1.2193 1108.5 339.32)" y1="366.78" x1="-794.84" xlink:href="#linearGradient73104"/>
    <linearGradient id="linearGradient73104">
      <stop id="stop73106" style="stop-color:#d40000" offset="0"/>
      <stop id="stop73108" style="stop-color:#ff8080" offset="1"/>
    </linearGradient>
    <linearGradient id="linearGradient74681" y2="757.65" gradientUnits="userSpaceOnUse" x2="381.25" gradientTransform="translate(254.75 331.61)" y1="835.5" x1="381.25" xlink:href="#linearGradient73104"/>
    <linearGradient id="linearGradient74683" y2="1148" gradientUnits="userSpaceOnUse" x2="636.75" gradientTransform="matrix(.92318 0 0 .92318 34.367 37.059)" y1="1155.9" x1="636.75" xlink:href="#linearGradient73550"/>
    <linearGradient id="linearGradient73550">
      <stop id="stop73552" style="stop-color:#89a02c" offset="0"/>
      <stop id="stop73554" style="stop-color:#ffe0e5" offset="1"/>
    </linearGradient>
    <linearGradient id="linearGradient74685" y2="1101.6" gradientUnits="userSpaceOnUse" x2="630.49" gradientTransform="matrix(.92318 0 0 .92318 35.665 85.969)" y1="1120.3" x1="630.49" xlink:href="#linearGradient73104"/>
    <linearGradient id="linearGradient74687" y2="1095" gradientUnits="userSpaceOnUse" x2="630.49" gradientTransform="matrix(.56494 0 0 .59587 263.31 450.06)" y1="1128.2" x1="630.49" xlink:href="#linearGradient73104"/>
    <linearGradient id="linearGradient74689" y2="1146.2" gradientUnits="userSpaceOnUse" x2="636.75" gradientTransform="translate(.0000025822)" y1="1155.1" x1="636.75" xlink:href="#linearGradient73550"/>
    <linearGradient id="linearGradient74691" y2="1100.4" gradientUnits="userSpaceOnUse" x2="630.49" gradientTransform="matrix(1.0053 0 0 -1.0053 -1.8964 2171.3)" y1="1117.2" x1="630.49" xlink:href="#linearGradient73104"/>
    <linearGradient id="linearGradient74693" y2="1095" gradientUnits="userSpaceOnUse" x2="630.49" gradientTransform="matrix(.61521 0 0 -.64889 246.01 1774.8)" y1="1124.2" x1="630.49" xlink:href="#linearGradient73104"/>
  </defs>
  <g id="g74108" transform="matrix(0.9924, 0, 0, 0.9924, -8.289193, -572.293823)">
    <path id="path74110" style="fill:url(#linearGradient74677)" d="m626.85 1043.2v7.0312c-14.212 3.2608-20.946 24.175-20.946 39.278v30.281 68.844 23.875c0 7.345 5.9772 10 13.389 10h15.858 1.1306 15.829c7.4117 0 13.419-2.655 13.419-10v-23.875-68.844-30.281c0-15.103-6.734-36.017-20.946-39.278v-7.0312h-8.3011-1.1306z"/>
    <g id="g74112" transform="matrix(1.0091 0 0 1 251.58 291.27)">
      <path id="path74114" d="m372.09 711.62v7.0312c-2.9396 0.67446-5.5374 2.1164-7.8438 4.0938h33.438c-2.3064-1.9774-4.9041-3.4193-7.8438-4.0938v-7.0312h-8.3125-1.125-8.3125z" style="fill:#ffffff" transform="matrix(.99101 0 0 1 3.1419 40.345)"/>
    </g>
    <g id="g74116" transform="matrix(1.0886 0 0 1 176.59 261.58)">
      <path id="path74118" style="fill:url(#linearGradient74679)" d="m414.2 771.25c-0.7908 0-1.4257 0.89928-1.4257 2.0195v10.195h17.943v-10.195c0-1.1202-0.63487-2.0195-1.4257-2.0195z"/>
      <path id="path74120" style="fill:#ff80b5" d="m412.77 781.2v0.22975h17.953v-0.22975h-17.953z"/>
    </g>
    <path id="path74122" style="fill:url(#linearGradient74681)" d="m605.91 1098.5v21.281 51.188h59.625v-51.188-21.281h-59.625z"/>
    <g id="g74124" style="fill:#ffeeaa" transform="matrix(1.0435 0 0 .95829 254.75 279.25)">
      <path id="path74126" d="m350.2 894.64v5.1818h-2.4995v-14.074c1.6664-0.0705 2.6405-0.10574 2.9225-0.10575 2.224 0.00001 3.8503 0.3413 4.8789 1.0238 1.0286 0.68258 1.543 1.7481 1.543 3.1965-0.00002 3.2302-1.9035 4.8453-5.7105 4.8453-0.282 0-0.66014-0.0224-1.1344-0.0673zm0-6.7295v4.5088c0.423 0.0449 0.75627 0.0673 0.99982 0.0673 1.1408 0.00001 1.974-0.19066 2.4996-0.57201 0.52554-0.38133 0.78831-1.0014 0.78832-1.8602-0.00001-1.4613-1.1761-2.1919-3.5282-2.1919-0.26278 0.00001-0.51593 0.016-0.75948 0.0481z" style="fill:#ffe0e5"/>
      <path id="path74128" d="m358.6 892.66c-0.00001-2.006 0.54957-3.7028 1.6487-5.0904 1.0992-1.3876 2.5684-2.0813 4.4079-2.0814 2.0253 0.00001 3.5731 0.6281 4.6434 1.8843s1.6055 3.0187 1.6055 5.2875c-0.00001 2.2688-0.5592 4.0698-1.6776 5.4029s-2.7062 1.9996-4.7636 1.9996c-1.8907 0-3.3408-0.66014-4.3502-1.9804s-1.5142-3.1276-1.5141-5.4221zm2.5957 0c-0.00001 1.6472 0.27879 2.9226 0.83638 3.8262 0.55759 0.90369 1.3683 1.3555 2.4323 1.3555 1.2498 0 2.2031-0.44223 2.86-1.3267 0.65692-0.88445 0.98539-2.1695 0.9854-3.8551-0.00001-3.3007-1.2177-4.951-3.6532-4.951-1.1152 0.00001-1.9708 0.44705-2.5668 1.3411-0.59605 0.89408-0.89408 2.0974-0.89407 3.6099z" style="fill:#ffe0e5"/>
      <path id="path74130" d="m375.61 894.64v5.1818h-2.4996v-14.074c1.6664-0.0705 2.6405-0.10574 2.9226-0.10575 2.2239 0.00001 3.8502 0.3413 4.8789 1.0238 1.0286 0.68258 1.543 1.7481 1.543 3.1965-0.00001 3.2302-1.9035 4.8453-5.7105 4.8453-0.282 0-0.66014-0.0224-1.1344-0.0673zm0-6.7295v4.5088c0.42299 0.0449 0.75626 0.0673 0.99981 0.0673 1.1408 0.00001 1.974-0.19066 2.4996-0.57201 0.52554-0.38133 0.78831-1.0014 0.78832-1.8602-0.00001-1.4613-1.1761-2.1919-3.5282-2.1919-0.26277 0.00001-0.51593 0.016-0.75947 0.0481z" style="fill:#ffe0e5"/>
    </g>
    <path id="path74132" d="m651.38 1054.4c0 0.06-7.0105 0.1083-15.658 0.1083-8.6479 0-15.658-0.049-15.658-0.1083 0-0.06 7.0105-0.1083 15.658-0.1083 8.6479 0 15.658 0.048 15.658 0.1083z" style="fill:#aa0000"/>
    <path id="path74134" d="m635.72 1220.9c-8.5577 0-15.592 0.7124-16.656 1.625h16.046 1.2212 16.046c-1.0641-0.9126-8.0986-1.625-16.656-1.625z" style="fill:#d40000"/>
    <g id="g74136" transform="translate(-.0000026547)">
      <g id="g74138" transform="matrix(1.0873 0 0 -1.0873 -56.794 2366.1)">
        <g id="g74140" transform="translate(0.0625)">
          <g id="g74142" transform="matrix(.84909 0 0 -.84909 82.661 2094)">
            <path id="path74144" d="m622.28 1097.6-0.625 3.9688-3.25-1.3438 2.8125 2.4375-4.4375 0.3437 5.5 0.9063 5.5312-0.9063-4.4375-0.3437 2.8125-2.4375-3.25 1.3438-0.65625-3.9688zm29.281 0-0.625 3.9688-3.2188-1.3438 2.7812 2.4375-4.4375 0.3437 5.5 0.9063 5.5625-0.9063-4.4688-0.3437 2.8125-2.4375-3.25 1.3438-0.65625-3.9688z" style="fill:url(#linearGradient74683)" transform="matrix(1.0832 0 0 1.0832 -37.226 -40.143)"/>
            <path id="path74146" d="m619.41 1103.7c-1.5804 0.042-3.4315 0.2886-4.4062 1.0313-1.4612 1.1132-2.194 3.2581-2.125 5.0937 0.11347 3.0193 1.7088 5.7549 3.5312 8.3126h11.781c1.8225-2.5577 3.4178-5.2933 3.5312-8.3126 0.069-1.8356-0.63258-3.9805-2.0938-5.0937-1.9496-1.4853-7.3438-0.9063-7.3438-0.9063s-1.2946-0.1663-2.875-0.125zm29.281 0c-1.5804 0.042-3.4315 0.2886-4.4062 1.0313-1.4612 1.1132-2.194 3.2581-2.125 5.0937 0.11347 3.0193 1.7088 5.7549 3.5312 8.3126h11.781c1.8225-2.5577 3.4178-5.2933 3.5312-8.3126 0.069-1.8356-0.63258-3.9805-2.0938-5.0937-1.9496-1.4853-7.3125-0.9063-7.3125-0.9063s-1.3259-0.1663-2.9062-0.125z" style="fill:url(#linearGradient74685)" transform="matrix(1.0832 0 0 1.0832 -37.226 -40.143)"/>
            <path id="path74148" d="m620.19 1105.8c-1.1335 0.032-2.4258 0.2195-3.125 0.7813-1.048 0.8423-1.5495 2.4551-1.5 3.8437 0.10143 2.8469 1.8346 5.3663 3.5 7.6876h6.4688c1.6654-2.3213 3.3986-4.8407 3.5-7.6876 0.0495-1.3886-0.45197-3.0014-1.5-3.8437-1.3983-1.1236-5.25-0.6875-5.25-0.6875s-0.96021-0.1251-2.0938-0.094zm29.312 0c-1.1335 0.032-2.4571 0.2195-3.1562 0.7813-1.048 0.8423-1.5495 2.455-1.5 3.8437 0.10143 2.8469 1.8346 5.3663 3.5 7.6876h6.4688c1.6654-2.3213 3.3986-4.8407 3.5-7.6876 0.0495-1.3887-0.42072-3.0014-1.4688-3.8437-1.3983-1.1236-5.25-0.6875-5.25-0.6875s-0.96021-0.125-2.0938-0.094z" style="opacity:.84071;fill:#ffe0e5" transform="matrix(1.0832 0 0 1.0832 -37.226 -40.143)"/>
            <path id="path74150" d="m620.5 1106.9c-0.96711 0.027-2.0597 0.1768-2.6562 0.6563-0.89417 0.7186-1.3235 2.0963-1.2812 3.2812 0.0961 2.6963 1.8964 5.0653 3.4375 7.2188h4.5938c1.5411-2.1535 3.3727-4.5225 3.4688-7.2188 0.0422-1.1849-0.38708-2.5626-1.2812-3.2812-1.193-0.9586-4.5-0.5938-4.5-0.5938s-0.81413-0.089-1.7812-0.062zm29.312 0c-0.96711 0.027-2.091 0.1768-2.6875 0.6563-0.89417 0.7186-1.3235 2.0963-1.2812 3.2812 0.0961 2.6963 1.8964 5.0653 3.4375 7.2188h4.5938c1.5411-2.1535 3.3727-4.5225 3.4688-7.2188 0.0422-1.1849-0.38708-2.5626-1.2812-3.2812-1.193-0.9586-4.4688-0.5938-4.4688-0.5938s-0.81413-0.089-1.7812-0.062z" style="fill:url(#linearGradient74687)" transform="matrix(1.0832 0 0 1.0832 -37.226 -40.143)"/>
          </g>
        </g>
        <g id="g74154" transform="matrix(1.0053 0 0 -1.0053 -3.3106 2276.9)">
          <path id="path74156" style="fill:url(#linearGradient74689)" d="m636.84 1148.8-0.68094 4.3001-3.5094-1.4535 3.038 2.6345-4.8189 0.3633 5.9713 0.9994 5.9975-0.9994-4.8189-0.3633 3.038-2.6345-3.5094 1.4535-0.70713-4.3001z"/>
          <path id="path74158" style="fill:url(#linearGradient74691)" d="m630.53 1047.3c-1.9847 2.7853-3.7202 5.7746-3.8438 9.0625-0.0751 1.999 0.7213 4.3189 2.3125 5.5312 1.0615 0.8088 3.0602 1.0798 4.7812 1.125 1.721 0.045 3.1562-0.125 3.1562-0.125s5.8457 0.6175 7.9688-1c1.5912-1.2123 2.3564-3.5322 2.2812-5.5312-0.12358-3.2879-1.8591-6.2772-3.8438-9.0625h-12.812z" transform="matrix(.99469 0 0 -.99469 3.293 2212.8)"/>
          <path id="path74160" style="opacity:.84071;fill:#ffe0e5" d="m633.34 1171c-1.804-2.5144-3.6824-5.2468-3.7923-8.3306-0.0536-1.5042 0.51222-3.2528 1.6475-4.1652 0.75734-0.6086 2.1603-0.8053 3.3882-0.8394 1.2279-0.034 2.2692 0.094 2.2692 0.094s4.1737-0.471 5.6884 0.7461c1.1352 0.9124 1.67 2.661 1.6164 4.1652-0.10988 3.0838-1.9883 5.8162-3.7923 8.3306h-7.025z"/>
          <path id="path74162" style="fill:url(#linearGradient74693)" d="m634.44 1047.3c-1.6783 2.3451-3.6454 4.9388-3.75 7.875-0.046 1.2903 0.43251 2.7799 1.4062 3.5625 0.64959 0.5221 1.8531 0.6896 2.9062 0.7188 1.0532 0.029 1.9375-0.063 1.9375-0.063s3.5758 0.3877 4.875-0.6562c0.97374-0.7826 1.4522-2.2722 1.4062-3.5625-0.10463-2.9362-2.103-5.5299-3.7812-7.875h-5z" transform="matrix(.99469 0 0 -.99469 3.293 2212.8)"/>
        </g>
      </g>
      <g id="g74164" transform="matrix(1.0873 0 0 1.0873 -56.794 -96.894)">
        <g id="g74166" transform="translate(0.0625)">
          <g id="g74168" transform="matrix(.84909 0 0 -.84909 82.661 2094)">
            <path id="path74170" style="fill:url(#linearGradient74683)" d="m622.28 1097.6-0.625 3.9688-3.25-1.3438 2.8125 2.4375-4.4375 0.3437 5.5 0.9063 5.5312-0.9063-4.4375-0.3437 2.8125-2.4375-3.25 1.3438-0.65625-3.9688zm29.281 0-0.625 3.9688-3.2188-1.3438 2.7812 2.4375-4.4375 0.3437 5.5 0.9063 5.5625-0.9063-4.4688-0.3437 2.8125-2.4375-3.25 1.3438-0.65625-3.9688z" transform="matrix(1.0832 0 0 1.0832 -37.226 -40.143)"/>
            <path id="path74172" style="fill:url(#linearGradient74685)" d="m619.41 1103.7c-1.5804 0.042-3.4315 0.2886-4.4062 1.0313-1.4612 1.1132-2.194 3.2581-2.125 5.0937 0.11347 3.0193 1.7088 5.7549 3.5312 8.3126h11.781c1.8225-2.5577 3.4178-5.2933 3.5312-8.3126 0.069-1.8356-0.63258-3.9805-2.0938-5.0937-1.9496-1.4853-7.3438-0.9063-7.3438-0.9063s-1.2946-0.1663-2.875-0.125zm29.281 0c-1.5804 0.042-3.4315 0.2886-4.4062 1.0313-1.4612 1.1132-2.194 3.2581-2.125 5.0937 0.11347 3.0193 1.7088 5.7549 3.5312 8.3126h11.781c1.8225-2.5577 3.4178-5.2933 3.5312-8.3126 0.069-1.8356-0.63258-3.9805-2.0938-5.0937-1.9496-1.4853-7.3125-0.9063-7.3125-0.9063s-1.3259-0.1663-2.9062-0.125z" transform="matrix(1.0832 0 0 1.0832 -37.226 -40.143)"/>
            <path id="path74174" style="opacity:.84071;fill:#ffe0e5" d="m634.57 1157.7c-1.2279 0.035-2.6277 0.2378-3.385 0.8463-1.1352 0.9124-1.6784 2.6594-1.6248 4.1636 0.10987 3.0838 1.9873 5.8128 3.7912 8.3273h7.007c1.804-2.5145 3.6814-5.2435 3.7912-8.3273 0.0536-1.5042-0.48958-3.2512-1.6248-4.1636-1.5147-1.2171-5.6869-0.7447-5.6869-0.7447s-1.0401-0.1355-2.268-0.1018zm31.752 0c-1.2279 0.035-2.6616 0.2378-3.4189 0.8463-1.1352 0.9124-1.6784 2.6593-1.6248 4.1636 0.10987 3.0838 1.9873 5.8128 3.7912 8.3273h7.007c1.804-2.5145 3.6814-5.2435 3.7912-8.3273 0.0536-1.5043-0.45573-3.2512-1.591-4.1636-1.5147-1.2171-5.6869-0.7447-5.6869-0.7447s-1.0401-0.1354-2.268-0.1018z"/>
            <path id="path74176" style="fill:url(#linearGradient74687)" d="m620.5 1106.9c-0.96711 0.027-2.0597 0.1768-2.6562 0.6563-0.89417 0.7186-1.3235 2.0963-1.2812 3.2812 0.0961 2.6963 1.8964 5.0653 3.4375 7.2188h4.5938c1.5411-2.1535 3.3727-4.5225 3.4688-7.2188 0.0422-1.1849-0.38708-2.5626-1.2812-3.2812-1.193-0.9586-4.5-0.5938-4.5-0.5938s-0.81413-0.089-1.7812-0.062zm29.312 0c-0.96711 0.027-2.091 0.1768-2.6875 0.6563-0.89417 0.7186-1.3235 2.0963-1.2812 3.2812 0.0961 2.6963 1.8964 5.0653 3.4375 7.2188h4.5938c1.5411-2.1535 3.3727-4.5225 3.4688-7.2188 0.0422-1.1849-0.38708-2.5626-1.2812-3.2812-1.193-0.9586-4.4688-0.5938-4.4688-0.5938s-0.81413-0.089-1.7812-0.062z" transform="matrix(1.0832 0 0 1.0832 -37.226 -40.143)"/>
          </g>
        </g>
        <g id="g74180" transform="matrix(1.0053 0 0 -1.0053 -3.3106 2276.9)">
          <path id="path74182" d="m636.84 1148.8-0.68094 4.3001-3.5094-1.4535 3.038 2.6345-4.8189 0.3633 5.9713 0.9994 5.9975-0.9994-4.8189-0.3633 3.038-2.6345-3.5094 1.4535-0.70713-4.3001z" style="fill:url(#linearGradient74689)"/>
          <path id="path74184" d="m630.53 1047.3c-1.9847 2.7853-3.7202 5.7746-3.8438 9.0625-0.0751 1.999 0.7213 4.3189 2.3125 5.5312 1.0615 0.8088 3.0602 1.0798 4.7812 1.125 1.721 0.045 3.1562-0.125 3.1562-0.125s5.8457 0.6175 7.9688-1c1.5912-1.2123 2.3564-3.5322 2.2812-5.5312-0.12358-3.2879-1.8591-6.2772-3.8438-9.0625h-12.812z" style="fill:url(#linearGradient74691)" transform="matrix(.99469 0 0 -.99469 3.293 2212.8)"/>
          <path id="path74186" d="m633.34 1171c-1.804-2.5144-3.6824-5.2468-3.7923-8.3306-0.0536-1.5042 0.51222-3.2528 1.6475-4.1652 0.75734-0.6086 2.1603-0.8053 3.3882-0.8394 1.2279-0.034 2.2692 0.094 2.2692 0.094s4.1737-0.471 5.6884 0.7461c1.1352 0.9124 1.67 2.661 1.6164 4.1652-0.10988 3.0838-1.9883 5.8162-3.7923 8.3306h-7.025z" style="opacity:.84071;fill:#ffe0e5"/>
          <path id="path74188" d="m634.44 1047.3c-1.6783 2.3451-3.6454 4.9388-3.75 7.875-0.046 1.2903 0.43251 2.7799 1.4062 3.5625 0.64959 0.5221 1.8531 0.6896 2.9062 0.7188 1.0532 0.029 1.9375-0.063 1.9375-0.063s3.5758 0.3877 4.875-0.6562c0.97374-0.7826 1.4522-2.2722 1.4062-3.5625-0.10463-2.9362-2.103-5.5299-3.7812-7.875h-5z" style="fill:url(#linearGradient74693)" transform="matrix(.99469 0 0 -.99469 3.293 2212.8)"/>
        </g>
      </g>
    </g>
    <path id="path74190" style="fill:#ffe0e5" d="m605.91 1098.5v1.875h59.625v-1.875h-59.625zm0 70.594v1.875h59.625v-1.875h-59.625z"/>
  </g>
</svg>