<?xml version="1.0" encoding="UTF-8" standalone="no" ?>
<!DOCTYPE svg PUBLIC "-//W3C//DTD SVG 1.1//EN" "http://www.w3.org/Graphics/SVG/1.1/DTD/svg11.dtd">
<svg xmlns="http://www.w3.org/2000/svg" width="350" height="350">
  <path d="M269.076 340.554c-3.143 0-6.302-.758-9.22-2.295l-86.75-45.606-86.747 45.606c-6.718 3.529-14.7 2.945-20.835-1.509-6.135-4.458-9.15-11.872-7.87-19.341l16.568-96.596-70.18-68.41c-5.43-5.294-7.348-13.063-5.006-20.279 2.346-7.212 8.464-12.374 15.968-13.463l96.986-14.09 43.377-87.882C158.724 9.885 165.52 5.66 173.106 5.66h.003c7.582 0 14.378 4.224 17.735 11.024l43.373 87.883 96.986 14.093c7.508 1.09 13.627 6.247 15.968 13.463 2.346 7.212.424 14.98-5.006 20.279l-70.18 68.41 16.572 96.596c1.28 7.473-1.735 14.887-7.87 19.341-3.47 2.525-7.527 3.804-11.611 3.804zM25.5 140.725l66.355 64.683a19.769 19.769 0 015.687 17.513l-15.665 91.333 82.025-43.124a19.772 19.772 0 0118.407 0l82.02 43.124-15.664-91.337a19.777 19.777 0 015.691-17.509l66.356-64.683-91.7-13.327a19.783 19.783 0 01-14.894-10.826l-41.012-83.094-41.013 83.098a19.788 19.788 0 01-14.887 10.822L25.5 140.725zm302.346 1.035h.043-.043zM169.916 27.013s0 .004.004.007l-.004-.007c0 .004 0 .004 0 0z" fill="#000" stroke-miterlimit="10"/>
</svg>
