<svg width="2232" height="2232" viewBox="0 0 2232 2232" fill="none" xmlns="http://www.w3.org/2000/svg">
<mask id="mask0" mask-type="alpha" maskUnits="userSpaceOnUse" x="-9" y="-9" width="2241" height="2241">
<circle cx="1111.5" cy="1111.5" r="1116" fill="#C4C4C4" stroke="#D8D8D8" stroke-width="9"/>
</mask>
<g mask="url(#mask0)">
<path d="M2233 1150.5C2233 1764.36 1735.36 2262 1121.5 2262C507.636 2262 10 1764.36 10 1150.5C10 536.636 507.636 39 1121.5 39C1735.36 39 2233 536.636 2233 1150.5Z" fill="#F44238"/>
<path fill-rule="evenodd" clip-rule="evenodd" d="M1480.95 1476.18H1087.77C1078.74 1476.18 1071.43 1483.5 1071.43 1492.52V1557.23C1071.3 1566.25 1078.51 1573.68 1087.53 1573.8H1087.77H1562.09C1571.08 1573.8 1578.37 1566.51 1578.37 1557.52V1557.46V1328.62C1578.4 1319.63 1571.14 1312.31 1562.15 1312.28H1562.09H1497.28C1488.26 1312.28 1480.95 1319.59 1480.95 1328.62V1476.18Z" fill="white"/>
<path fill-rule="evenodd" clip-rule="evenodd" d="M743.365 743.596H1178.11C1187.09 743.631 1194.41 736.369 1194.44 727.375V727.323V665.105C1194.34 656.163 1187.05 648.971 1178.11 649H662.334C653.388 648.971 646.093 656.163 646 665.105V887.38C646 896.404 653.313 903.724 662.334 903.724H727.031C736.052 903.724 743.365 896.404 743.365 887.38V743.596Z" fill="white"/>
<path fill-rule="evenodd" clip-rule="evenodd" d="M1333.19 649H1562.05C1571.03 649 1578.32 656.291 1578.32 665.28V884.473C1578.32 893.468 1571.03 900.753 1562.05 900.753H1497.29C1488.3 900.788 1480.99 893.526 1480.96 884.537V884.473V816.977L790.972 1476.41H932.922C941.943 1476.41 949.256 1483.73 949.256 1492.76V1557.46C949.256 1566.48 941.943 1573.8 932.922 1573.8H662.334C653.313 1573.8 646 1566.48 646 1557.46V1476.71L1410.74 746.219H1333.19C1324.17 746.219 1316.86 738.899 1316.86 729.881V665.105C1316.95 656.163 1324.25 648.971 1333.19 649Z" fill="white"/>
</g>
</svg>
