<svg xmlns="http://www.w3.org/2000/svg" viewBox="0 0 125.7 125.6">  <defs>    <style>      .cls-1 {        fill: #e01e5a;      }      .cls-2 {        fill: #36c5f0;      }      .cls-3 {        fill: #2eb67d;      }      .cls-4 {        fill: #ecb22e;      }    </style>  </defs>  <g id="Group_4997" data-name="Group 4997" transform="translate(-62.7 -62.6)">    <g id="Group_4993" data-name="Group 4993">      <path id="Path_3518" data-name="Path 3518" class="cls-1" d="M89.2,142A13.2,13.2,0,1,1,76,128.8H89.2Z"/>      <path id="Path_3519" data-name="Path 3519" class="cls-1" d="M95.8,142a13.2,13.2,0,0,1,26.4,0v33a13.2,13.2,0,0,1-26.4,0Z"/>    </g>    <g id="Group_4994" data-name="Group 4994">      <path id="Path_3520" data-name="Path 3520" class="cls-2" d="M109,89a13.2,13.2,0,1,1,13.2-13.2V89Z"/>      <path id="Path_3521" data-name="Path 3521" class="cls-2" d="M109,95.7a13.2,13.2,0,0,1,0,26.4H75.9a13.2,13.2,0,1,1,0-26.4Z"/>    </g>    <g id="Group_4995" data-name="Group 4995">      <path id="Path_3522" data-name="Path 3522" class="cls-3" d="M161.9,108.9a13.2,13.2,0,1,1,13.2,13.2H161.9Z"/>      <path id="Path_3523" data-name="Path 3523" class="cls-3" d="M155.3,108.9a13.2,13.2,0,0,1-26.4,0V75.8a13.2,13.2,0,1,1,26.4,0Z"/>    </g>    <g id="Group_4996" data-name="Group 4996">      <path id="Path_3524" data-name="Path 3524" class="cls-4" d="M142.1,161.8A13.2,13.2,0,1,1,128.9,175V161.8Z"/>      <path id="Path_3525" data-name="Path 3525" class="cls-4" d="M142.1,155.2a13.2,13.2,0,0,1,0-26.4h33.1a13.2,13.2,0,1,1,0,26.4Z"/>    </g>  </g></svg>