<svg width="20" height="20" viewBox="0 0 20 20" fill="none" xmlns="http://www.w3.org/2000/svg">
<path d="M4.3125 0.25V1.0625V5.9375H2.6875C1.35096 5.9375 0.25 7.03846 0.25 8.375V15.6875V16.5H1.0625H4.3125V18.9375V19.75H5.125H14.875H15.6875V18.9375V16.5H18.9375H19.75V15.6875V8.375C19.75 7.03846 18.649 5.9375 17.3125 5.9375H15.6875V1.0625V0.25H14.875H5.125H4.3125ZM5.9375 1.875H14.0625V5.9375H5.9375V1.875ZM2.6875 7.5625H17.3125C17.7716 7.5625 18.125 7.91591 18.125 8.375V14.875H15.6875V12.4375V11.625H14.875H5.125H4.3125V12.4375V14.875H1.875V8.375C1.875 7.91591 2.22841 7.5625 2.6875 7.5625ZM3.5 8.375C3.05127 8.375 2.6875 8.73877 2.6875 9.1875C2.6875 9.63623 3.05127 10 3.5 10C3.94873 10 4.3125 9.63623 4.3125 9.1875C4.3125 8.73877 3.94873 8.375 3.5 8.375ZM5.9375 13.25H14.0625V18.125H5.9375V13.25Z" fill="#32363C"/>
</svg>
