<?xml version="1.0" encoding="utf-8"?>
<svg viewBox="61.164 452.684 64.204 188.275" width="64.204" height="188.275" xmlns="http://www.w3.org/2000/svg" xmlns:xlink="http://www.w3.org/1999/xlink">
  <defs>
    <linearGradient id="linearGradient74999" y2="434.84" gradientUnits="userSpaceOnUse" x2="-1114" gradientTransform="matrix(1.2236 0 0 1.1781 1333.9 241.21)" y1="578.37" x1="-1114" xlink:href="#linearGradient64234"/>
    <linearGradient id="linearGradient64234">
      <stop id="stop64236" style="stop-color:#2b1100" offset="0"/>
      <stop id="stop64238" style="stop-color:#784421" offset="1"/>
    </linearGradient>
    <linearGradient id="linearGradient75001" y2="694.9" gradientUnits="userSpaceOnUse" x2="-28.284" gradientTransform="translate(.015337 52.362)" y1="668.7" x1="-28.284" xlink:href="#linearGradient16066"/>
    <linearGradient id="linearGradient16066">
      <stop id="stop16068" style="stop-color:#ffffff" offset="0"/>
      <stop id="stop16070" style="stop-color:#ffffff;stop-opacity:0" offset="1"/>
    </linearGradient>
    <linearGradient id="linearGradient75003" y2="349.16" gradientUnits="userSpaceOnUse" x2="-790.21" gradientTransform="matrix(1.0804 0 0 1.4926 832.87 174.48)" y1="366.32" x1="-790.21" xlink:href="#linearGradient64228"/>
    <linearGradient id="linearGradient64228">
      <stop id="stop64230" style="stop-color:#aa0000" offset="0"/>
      <stop id="stop64232" style="stop-color:#d85d96" offset="1"/>
    </linearGradient>
    <linearGradient id="linearGradient75005" y2="763.87" gradientUnits="userSpaceOnUse" x2="-38.537" gradientTransform="matrix(1.0204 0 0 1.0228 .54432 -17.532)" y1="797.08" x1="-38.537" xlink:href="#linearGradient64228"/>
    <linearGradient id="linearGradient75007" y2="734.12" gradientUnits="userSpaceOnUse" x2="-38.537" gradientTransform="matrix(1.0153 0 0 1 .58425 .088389)" y1="759.1" x1="-38.537" xlink:href="#linearGradient64228"/>
    <linearGradient id="linearGradient75009" y2="791.76" gradientUnits="userSpaceOnUse" x2="-38.537" gradientTransform="matrix(1.0408 0 0 1.0245 1.0573 -20.809)" y1="820.2" x1="-38.537" xlink:href="#linearGradient64228"/>
  </defs>
  <g id="g64441" transform="matrix(0.790734, 0, 0, 0.810701, 116.222025, -117.425962)">
    <path id="path64443" d="m-38.703 716.89s1.3332 18.513-4.4375 33.406c-5.727 14.78-15.967 23.386-18.5 34.5-6.9597 30.534 5.9879 58.963 2.75 86.125-1.6099 13.506-15.028 33.403-9.3438 53.75 3.506 12.55 23.319 10.813 36.906 10.594 0.5493-0.009 0.62123-0.0284 1.1484-0.0312 0.209-0.001 0.94322 0 1.1484 0 0.19863-0.00008 0.94939-0.00095 1.1484 0 0.5272 0.003 0.59914 0.0224 1.1484 0.0312 13.587 0.21934 33.4 1.9562 36.906-10.594 5.6842-20.347-7.7338-40.244-9.3438-53.75-3.2379-27.162 9.7097-55.591 2.75-86.125-2.5331-11.114-12.773-19.72-18.5-34.5-5.7707-14.893-4.4375-33.406-4.4375-33.406h-7.375-1.6562-0.625-0.03125-2.2812z" style="fill:url(#linearGradient74999)"/>
    <path id="path64445" d="m-38.703 716.89s0.35937 5.3948-0.1875 12.688h19.719c-0.54687-7.2927-0.1875-12.688-0.1875-12.688h-7.375-1.6562-0.625-0.03125-2.2812-7.375z" style="fill:url(#linearGradient75001)"/>
    <path id="path64447" d="m-38.502 703.23c-0.99248 0-1.7893 1.1008-1.7893 2.4721v12.48h22.519v-12.48c0-1.3713-0.79678-2.4721-1.7893-2.4721z" style="fill:url(#linearGradient75003)"/>
    <path id="path64449" style="fill:#552200" transform="translate(.070326 52.44)" d="m-19.843 677.16c0 0.0732-4.1453 0.13258-9.2587 0.13258s-9.2587-0.0594-9.2587-0.13258c0-0.0732 4.1453-0.13258 9.2587-0.13258s9.2587 0.0594 9.2587 0.13258z"/>
    <path id="path64451" d="m-40.297 715.4v0.28125h22.531v-0.28125h-22.531z" style="fill:#ff5555"/>
    <g id="g64453">
      <path id="path64455" style="fill:url(#linearGradient75005)" d="m5.6562 751.41c-2.1238 0.062-4.2337 0.21697-6.3438 0.53125-5.6758 0.8257-11.411 2.6572-17.219 4.4688-5.8025 1.8275-11.761 3.6875-17.969 4.6562-9.3107 1.4361-18.841 0.62878-27.656-2.125 0.76681 13.677 3.5201 26.951 4.6562 39.906 1.0682-0.0797 2.1222-0.15381 3.1875-0.3125 5.6757-0.82569 11.411-2.5947 17.219-4.4062 5.8025-1.8275 11.761-3.75 17.969-4.7188 3.0473-0.46999 6.1592-0.65677 9.2188-0.65625 4.4042 0.00074 8.7671 0.48139 13.031 1.4062 1.6179-12.584 3.9917-25.469 3.9062-38.75z" transform="translate(0 52.362)"/>
      <path id="path64457" style="fill:url(#linearGradient75007)" d="m-61.375 731.41c-0.09384 0.34267-0.20209 0.68395-0.28125 1.0312-1.9377 8.5012-2.3071 16.838-1.9375 25.031 8.984 2.1203 18.435 2.1916 27.219 0.125 5.7003-1.3291 11.167-3.5242 16.781-5.75 5.6085-2.241 11.36-4.5272 17.594-5.9688 2.4138-0.55003 4.8986-0.95659 7.375-1.2188-0.30324-4.0394-0.87486-8.105-1.8125-12.219-0.07916-0.3473-0.18741-0.68858-0.28125-1.0312h-64.656z" transform="translate(0 52.362)"/>
      <path id="path64459" style="fill:url(#linearGradient75009)" d="m-7.5 789.78c-4.1141 0.089-8.1979 0.60047-12.156 1.5312-5.8432 1.3616-11.463 3.5946-17.219 5.875-5.7491 2.296-11.641 4.6481-18.031 6.125-1.1911 0.27126-2.4161 0.48917-3.625 0.6875 0.24254 4.9012 0.1992 9.7457-0.375 14.562-0.02954 0.24778-0.08771 0.49795-0.125 0.75h59.969c-0.037294-0.25205-0.095464-0.50222-0.125-0.75-1.1046-9.266-0.3235-18.687 0.90625-28.281-2.4768-0.31687-4.9882-0.48222-7.4688-0.5-0.58871-0.004-1.1623-0.0127-1.75 0z" transform="translate(0 52.362)"/>
      <path id="path64461" style="fill:#ffffff" d="m-61.344 731.31c-0.10394 0.37386-0.22603 0.74564-0.3125 1.125-0.08856 0.38854-0.16781 0.76839-0.25 1.1562h65.719c-0.082189-0.38786-0.16144-0.76771-0.25-1.1562-0.086467-0.37936-0.20856-0.75114-0.3125-1.125h-64.594zm66.719 13.22c-2.5918 0.25966-5.1601 0.66965-7.6875 1.25-6.1865 1.4415-11.903 3.7277-17.469 5.9688-5.5719 2.2258-11.031 4.4209-16.688 5.75-8.7764 2.0807-18.186 2.0067-27.156-0.15625 0.02399 0.54355 0.06322 1.0827 0.09375 1.625 8.8444 2.8193 18.41 3.6811 27.781 2.25 6.1297-0.94712 11.989-2.7758 17.719-4.5625 5.7347-1.7712 11.396-3.5365 17-4.3438 2.2156-0.32676 4.4569-0.51414 6.6875-0.5625-0.008-2.39-0.097-4.8-0.2815-7.22zm-13.531 17.16-1.3438 0.28l-3.8125 17.438 3.4062-0.625 0.59375-3.4688 5.8438-1.0625 1.875 3 3.3438-0.59-9.9062-14.97zm-16.625 3.3125-3.0625 0.53125 3 15.969 10.781-1.9688-0.4375-2.5-7.7812 1.4062-2.5-13.438zm16.875 1.7188 3.1562 5.5-4.125 0.78125 0.96875-6.2812zm-28.531 0.21875c-0.56039 0.0101-1.1336 0.0751-1.75 0.1875-2.2392 0.40863-3.8942 1.5247-4.9375 3.3438-1.0433 1.819-1.3324 3.8795-0.90625 6.1562 0.48741 2.6041 1.4907 4.507 3 5.7812s3.3858 1.7013 5.6875 1.2812c2.5045-0.45703 4.3279-1.551 5.4062-3.3125s1.357-3.925 0.875-6.5c-0.48198-2.575-1.4927-4.437-3.0625-5.625-1.1774-0.89096-2.6313-1.3428-4.3125-1.3125zm-13.5 2.5625c-0.31643-0.006-0.66171 0.006-1 0.0312-0.45105 0.0339-0.91471 0.0978-1.4062 0.1875-2.2938 0.41861-4.0768 1.5485-5.25 3.4062-1.1732 1.8578-1.505 3.9797-1.0625 6.3438 0.47516 2.5387 1.4924 4.4289 3.0938 5.6562s3.636 1.6246 6.0312 1.1875c2.3953-0.43709 4.1145-1.388 5.125-2.8438l-1.875-2.0312c-0.71137 1.2432-1.8537 1.9865-3.4688 2.2812-1.4122 0.25771-2.6843-0.0256-3.7188-0.875-1.0344-0.84934-1.7113-2.1343-2.0312-3.8438-0.31995-1.7094-0.07887-3.1856 0.625-4.4688 0.70387-1.2831 1.7597-2.0832 3.1875-2.3438 1.5058-0.27477 2.6403-0.13397 3.4375 0.375l0.84375-2.5938c-0.74159-0.3005-1.582-0.45014-2.5312-0.46875zm13.281 0.0312c2.3466-0.004 3.824 1.6596 4.4375 4.9375 0.35806 1.9131 0.26808 3.444-0.34375 4.5938-0.61185 1.1498-1.7286 1.8474-3.25 2.125-1.2952 0.23635-2.348-0.0982-3.2188-1-0.87076-0.90178-1.4939-2.2868-1.8438-4.1562-0.32131-1.7167-0.22318-3.1341 0.3125-4.2812s1.5174-1.846 2.875-2.0938c0.3706-0.0676 0.69602-0.12436 1.0312-0.125zm25.188 18.75c-3.0211-0.00051-6.0847 0.19674-9.0938 0.65625-6.1297 0.94713-12.02 2.807-17.75 4.5938-5.7347 1.7712-11.396 3.5052-17 4.3125-1.2067 0.17796-2.3836 0.28785-3.5938 0.375 0.2151 2.348 0.3477 4.7038 0.4375 7.0312 1.509-0.22846 3.0142-0.50258 4.5-0.84375 6.1865-1.4415 11.903-3.7277 17.469-5.9688 5.5719-2.2258 11.031-4.421 16.688-5.75 6.907-1.6375 14.177-1.9067 21.344-0.90625 0.083465-0.67806 0.16177-1.3514 0.25-2.0312-4.3285-0.95789-8.7735-1.468-13.25-1.4688zm-47.344 29.47c-0.02898 0.26985-0.06161 0.5429-0.09375 0.8125-0.05747 0.48209-0.1326 0.97064-0.21875 1.4688h60.156c-0.0869-0.5-0.16203-0.99-0.2195-1.47-0.03214-0.27-0.06477-0.54-0.09375-0.81h-59.531z" transform="translate(0 52.362)"/>
    </g>
  </g>
</svg>