<?xml version="1.0" encoding="utf-8"?>
<svg viewBox="465.645 452.689 59.178 188.275" width="59.178" height="188.275" xmlns="http://www.w3.org/2000/svg" xmlns:xlink="http://www.w3.org/1999/xlink">
  <defs>
    <linearGradient id="linearGradient74665" y2="775.36" gradientUnits="userSpaceOnUse" x2="515.5" y1="930.86" x1="515.5" xlink:href="#linearGradient65694"/>
    <linearGradient id="linearGradient65694">
      <stop id="stop65696" style="stop-color:#55d400" offset="0"/>
      <stop id="stop65698" style="stop-color:#e5ff80" offset="1"/>
    </linearGradient>
    <linearGradient id="linearGradient74667" y2="352.01" gradientUnits="userSpaceOnUse" x2="-792.43" gradientTransform="matrix(.86082 0 0 1.2193 1108.5 339.32)" y1="369.03" x1="-792.43" xlink:href="#linearGradient65688"/>
    <linearGradient id="linearGradient65688">
      <stop id="stop65690" style="stop-color:#005500" offset="0"/>
      <stop id="stop65692" style="stop-color:#d4ff2a" offset="1"/>
    </linearGradient>
    <linearGradient id="linearGradient74669" y2="753.67" gradientUnits="userSpaceOnUse" x2="381.25" gradientTransform="translate(131 52.362)" y1="855.77" x1="381.25" xlink:href="#linearGradient65688"/>
  </defs>
  <g id="g73001" transform="matrix(0.9924, 0, 0, 0.9924, -12.844448, -295.166125)">
    <path id="path65439" style="fill:url(#linearGradient74665)" d="m503.1 763.99v7.0312c-14.212 3.2608-20.946 24.175-20.946 39.278v30.281 68.844 23.875c0 7.3451 5.9772 10 13.389 10h15.858 1.1306 15.829c7.4117 0 13.419-2.6549 13.419-10v-23.875-68.844-30.281c0-15.103-6.734-36.017-20.946-39.278v-7.0312h-8.3011-1.1306z"/>
    <g id="g65441" transform="matrix(1.0091 0 0 1 127.83 12.017)">
      <path id="path65443" d="m372.09 711.62v7.0312c-2.9396 0.67446-5.5374 2.1164-7.8438 4.0938h33.438c-2.3064-1.9774-4.9041-3.4193-7.8438-4.0938v-7.0312h-8.3125-1.125-8.3125z" style="fill:#ffffff" transform="matrix(.99101 0 0 1 3.1419 40.345)"/>
    </g>
    <g id="g65445" transform="matrix(1.0886 0 0 1 52.843 -17.668)">
      <path id="path65447" style="fill:url(#linearGradient74667)" d="m414.2 771.25c-0.7908 0-1.4257 0.89928-1.4257 2.0195v10.195h17.943v-10.195c0-1.1202-0.63487-2.0195-1.4257-2.0195z"/>
      <path id="path65449" style="fill:#e3fe7e" d="m412.77 781.2v0.22975h17.953v-0.22975h-17.953z"/>
    </g>
    <path id="path65451" d="m511.97 941.67c-8.5577 0-15.592 0.71241-16.656 1.625h16.046 1.2212 16.046c-1.0641-0.91259-8.0986-1.625-16.656-1.625z" style="fill:#5aa02c"/>
    <path id="path65455" style="fill:url(#linearGradient74669)" d="m482.16 819.3v21.281 51.188h59.625v-51.188-21.281h-59.625z"/>
    <path id="path72992" d="m484.22 767.53c0.0588 0.14094 0.11095 0.29342 0.25 0.375 0.21506 0.12613 0.47244 0.1261 0.6875 0 0.14012-0.0822 0.22282-0.23265 0.28125-0.375h-1.2188zm3.2812 0c0.0632 0.15956 0.15798 0.31559 0.3125 0.40625 0.23614 0.13849 0.51384 0.13844 0.75 0 0.15456-0.0906 0.3118-0.24669 0.375-0.40625h-1.4375zm3.4062 0c0.0727 0.12375 0.15266 0.20581 0.28125 0.28125 0.25724 0.15086 0.58652 0.1508 0.84375 0 0.12865-0.0754 0.21659-0.15751 0.28125-0.28125h-1.4062zm3.5625 0c0.0257 0.0195 0.0347 0.0462 0.0625 0.0625 0.2783 0.16323 0.62794 0.16315 0.90625 0 0.0251-0.0147 0.0391-0.0452 0.0625-0.0625h-1.0312zm6.9688 0c-0.0501 0.0189-0.10908 0.0348-0.15625 0.0625-0.29937 0.17558-0.46865 0.49261-0.46875 0.84375 0 0.35117 0.16942 0.69935 0.46875 0.875 0.29937 0.17557 0.66935 0.1755 0.96875 0 0.29946-0.17563 0.5-0.52376 0.5-0.875 0-0.35115-0.20067-0.66811-0.5-0.84375-0.0529-0.031-0.0997-0.0425-0.15625-0.0625h-0.65625zm2.75 0c-0.0292 0.0987-0.0625 0.20719-0.0625 0.3125 0 0.37587 0.21086 0.74949 0.53125 0.9375 0.32045 0.18794 0.71076 0.18786 1.0312 0 0.32053-0.18798 0.5-0.56153 0.5-0.9375 0-0.10532-0.002-0.21378-0.0312-0.3125h-1.9688zm3.3438 0c0.15855 0.41638 0.56277 0.71875 1.0312 0.71875 0.46881 0 0.89535-0.30192 1.0625-0.71875h-2.0938zm6.8125 0c0.15855 0.41638 0.53152 0.71875 1 0.71875 0.46881 0 0.90418-0.30192 1.0625-0.71875h-2.0625zm3.4375 0c-0.0292 0.0987-0.0625 0.20719-0.0625 0.3125 0 0.37587 0.17961 0.74949 0.5 0.9375 0.32045 0.18794 0.71076 0.18786 1.0312 0 0.32053-0.18798 0.53125-0.56153 0.53125-0.9375 0-0.10532-0.002-0.21378-0.0312-0.3125h-1.9688zm4.0312 0c-0.0501 0.0189-0.10908 0.0348-0.15625 0.0625-0.29937 0.17558-0.4999 0.49261-0.5 0.84375 0 0.35117 0.20067 0.69935 0.5 0.875 0.29938 0.17557 0.66935 0.1755 0.96875 0 0.29947-0.17563 0.46875-0.52376 0.46875-0.875 0-0.35115-0.16942-0.66811-0.46875-0.84375-0.0529-0.031-0.0997-0.0425-0.15625-0.0625h-0.65625zm6.625 0c0.0257 0.0195 0.0347 0.0462 0.0625 0.0625 0.2783 0.16323 0.62794 0.16315 0.90625 0 0.0251-0.0147 0.0396-0.0452 0.0625-0.0625h-1.0312zm3.1875 0c0.0727 0.12375 0.15266 0.20581 0.28125 0.28125 0.25723 0.15086 0.58651 0.1508 0.84375 0 0.12864-0.0754 0.23976-0.15751 0.3125-0.28125h-1.4375zm3.375 0c0.0632 0.15956 0.18923 0.31559 0.34375 0.40625 0.23614 0.13849 0.54509 0.13844 0.78125 0 0.15456-0.0906 0.28055-0.24669 0.34375-0.40625h-1.4688zm3.5 0c0.0588 0.14094 0.11096 0.29342 0.25 0.375 0.21506 0.12613 0.50369 0.1261 0.71875 0 0.14012-0.0822 0.22283-0.23265 0.28125-0.375h-1.25zm-40.34 0.47c-0.0766 0.0178-0.14918 0.0529-0.21875 0.0937-0.2783 0.16321-0.46867 0.45483-0.46875 0.78125 0 0.32644 0.1905 0.64923 0.46875 0.8125 0.2783 0.16323 0.62794 0.16315 0.90625 0 0.27837-0.16324 0.4375-0.486 0.4375-0.8125 0-0.32643-0.15924-0.61797-0.4375-0.78125-0.15-0.08-0.32-0.09-0.47-0.09-0.0777-0.00001-0.14208-0.0178-0.21875 0zm27.156 0c-0.0766 0.0178-0.18043 0.0529-0.25 0.0937-0.2783 0.16321-0.40617 0.45483-0.40625 0.78125 0 0.32644 0.128 0.64923 0.40625 0.8125 0.2783 0.16323 0.62794 0.16315 0.90625 0 0.27837-0.16324 0.46875-0.486 0.46875-0.8125 0-0.32643-0.19048-0.61797-0.46875-0.78125-0.13915-0.0816-0.2822-0.0937-0.4375-0.0937-0.0777-0.00001-0.14208-0.0178-0.21875 0zm-13.344 0.125c-0.60979 0-1.125 0.50557-1.125 1.125 0 0.61944 0.51521 1.0938 1.125 1.0938 0.60981 0 1.0938-0.47431 1.0938-1.0938 0-0.61943-0.48394-1.125-1.0938-1.125zm-17.156 0.21875c-0.0709 0.0152-0.18568 0.0561-0.25 0.0937-0.25722 0.15085-0.40617 0.47954-0.40625 0.78125 0 0.30171 0.14907 0.56785 0.40625 0.71875 0.25724 0.15086 0.58651 0.1508 0.84375 0 0.25727-0.15089 0.4375-0.41699 0.4375-0.71875 0-0.30172-0.18031-0.63034-0.4375-0.78125-0.1286-0.0754-0.26271-0.0937-0.40625-0.0937-0.0718-0.00002-0.11663-0.0152-0.1875 0zm33.938 0c-0.0708 0.0152-0.15443 0.0561-0.21875 0.0937-0.25722 0.15085-0.43742 0.47954-0.4375 0.78125 0 0.30171 0.18032 0.56785 0.4375 0.71875 0.25724 0.15086 0.58651 0.1508 0.84375 0 0.25727-0.15089 0.375-0.41699 0.375-0.71875 0-0.30172-0.11781-0.63034-0.375-0.78125-0.1286-0.0754-0.29396-0.0937-0.4375-0.0937-0.0718-0.00002-0.11663-0.0152-0.1875 0zm-37.344 0.25c-0.0656 0.016-0.12846 0.0592-0.1875 0.0937-0.23615 0.13848-0.4062 0.41052-0.40625 0.6875 0 0.27699 0.17013 0.51771 0.40625 0.65625 0.23614 0.13849 0.51384 0.13844 0.75 0 0.23618-0.13852 0.375-0.37922 0.375-0.65625 0-0.27698-0.13888-0.54897-0.375-0.6875-0.11806-0.0692-0.24323-0.0937-0.375-0.0937-0.0659 0-0.1219-0.016-0.1875 0zm40.719 0c-0.0656 0.016-0.12846 0.0592-0.1875 0.0937-0.23615 0.13848-0.37495 0.41052-0.375 0.6875 0 0.27699 0.13888 0.51771 0.375 0.65625 0.23614 0.13849 0.54509 0.13844 0.78125 0 0.23618-0.13852 0.34375-0.37922 0.34375-0.65625 0-0.27698-0.10763-0.54897-0.34375-0.6875-0.11807-0.0692-0.24323-0.0937-0.375-0.0937-0.0659 0-0.15315-0.016-0.21875 0zm-47.344 0.0625c-0.10823 0-0.2155 0.0371-0.3125 0.0937-0.19399 0.11376-0.28123 0.33497-0.28125 0.5625 0 0.22755 0.0873 0.38622 0.28125 0.5 0.19399 0.11378 0.46226 0.11376 0.65625 0 0.19402-0.11377 0.3125-0.27243 0.3125-0.5 0-0.22754-0.11852-0.44872-0.3125-0.5625-0.097-0.057-0.23551-0.0937-0.34375-0.0937zm54.344 0c-0.10823 0-0.24675 0.0371-0.34375 0.0937-0.19399 0.11376-0.28123 0.33497-0.28125 0.5625 0 0.22755 0.0873 0.38622 0.28125 0.5 0.19399 0.11378 0.46226 0.11376 0.65625 0 0.19402-0.11377 0.3125-0.27243 0.3125-0.5 0-0.22754-0.11852-0.44872-0.3125-0.5625-0.097-0.057-0.20426-0.0937-0.3125-0.0937zm-50.938 0.0312c-0.11999-0.00001-0.23621 0.0308-0.34375 0.0937-0.21505 0.12614-0.34373 0.37273-0.34375 0.625 0 0.25226 0.1287 0.46758 0.34375 0.59375 0.21506 0.12613 0.47244 0.1261 0.6875 0 0.21511-0.12616 0.375-0.34145 0.375-0.59375 0-0.25227-0.15995-0.49883-0.375-0.625-0.10753-0.063-0.22374-0.0937-0.34375-0.0937zm47.531 0c-0.12-0.00001-0.23621 0.0308-0.34375 0.0937-0.21505 0.12614-0.37498 0.37273-0.375 0.625 0 0.25226 0.15995 0.46758 0.375 0.59375 0.21506 0.12613 0.50369 0.1261 0.71875 0 0.21511-0.12616 0.34375-0.34145 0.34375-0.59375 0-0.25227-0.1287-0.49883-0.34375-0.625-0.10753-0.063-0.25499-0.0937-0.375-0.0937zm-27.156 0.21875c-0.17881-0.00001-0.33974 0.0309-0.5 0.125-0.32044 0.18794-0.53116 0.56163-0.53125 0.9375 0 0.37587 0.21086 0.71824 0.53125 0.90625 0.32046 0.18794 0.67951 0.18786 1 0 0.32053-0.18798 0.53125-0.53028 0.53125-0.90625 0-0.37589-0.21085-0.74947-0.53125-0.9375-0.16022-0.094-0.32117-0.12498-0.5-0.125zm6.7812 0c-0.17882-0.00001-0.33975 0.0309-0.5 0.125-0.32045 0.18794-0.53116 0.56163-0.53125 0.9375 0 0.37587 0.21086 0.71824 0.53125 0.90625 0.32045 0.18794 0.71076 0.18786 1.0312 0 0.32053-0.18798 0.53125-0.53028 0.53125-0.90625 0-0.37589-0.21085-0.74947-0.53125-0.9375-0.16022-0.094-0.35242-0.12498-0.53125-0.125zm-10.188 0.65625c-0.16705-0.00001-0.31903 0.0372-0.46875 0.125-0.29937 0.17558-0.4999 0.52386-0.5 0.875 0 0.35117 0.20067 0.6681 0.5 0.84375 0.29938 0.17557 0.66935 0.1755 0.96875 0 0.29947-0.17563 0.46875-0.49251 0.46875-0.84375 0-0.35115-0.16942-0.69936-0.46875-0.875-0.14967-0.0878-0.33294-0.12498-0.5-0.125zm13.594 0c-0.16705-0.00001-0.35029 0.0372-0.5 0.125-0.29937 0.17558-0.46865 0.52386-0.46875 0.875 0 0.35117 0.16942 0.6681 0.46875 0.84375 0.29937 0.17557 0.66935 0.1755 0.96875 0 0.29946-0.17563 0.5-0.49251 0.5-0.84375 0-0.35115-0.20067-0.69936-0.5-0.875-0.14967-0.0878-0.3017-0.12498-0.46875-0.125zm-17.219 0.53125c-0.0766 0.0178-0.14918 0.0529-0.21875 0.0937-0.2783 0.16321-0.43742 0.45483-0.4375 0.78125 0 0.32644 0.15925 0.64923 0.4375 0.8125 0.2783 0.16323 0.62794 0.16315 0.90625 0 0.27837-0.16324 0.46875-0.486 0.46875-0.8125 0-0.32643-0.19049-0.61797-0.46875-0.78125-0.13915-0.0816-0.2822-0.0937-0.4375-0.0937-0.0777-0.00001-0.17334-0.0178-0.25 0zm20.375 0c-0.0766 0.0178-0.14918 0.0529-0.21875 0.0937-0.2783 0.16321-0.46867 0.45483-0.46875 0.78125 0 0.32644 0.1905 0.64923 0.46875 0.8125 0.2783 0.16323 0.62794 0.16315 0.90625 0 0.27837-0.16324 0.4375-0.486 0.4375-0.8125 0-0.32643-0.15924-0.61797-0.4375-0.78125-0.13915-0.0816-0.31345-0.0937-0.46875-0.0937-0.0777-0.00001-0.14209-0.0178-0.21875 0zm-23.719 0.34375c-0.0709 0.0152-0.15444 0.0873-0.21875 0.125-0.25723 0.15085-0.43742 0.44829-0.4375 0.75 0 0.30171 0.18032 0.56785 0.4375 0.71875 0.25723 0.15086 0.58651 0.1508 0.84375 0 0.25727-0.15089 0.40625-0.41699 0.40625-0.71875 0-0.30172-0.14906-0.59909-0.40625-0.75-0.1286-0.0754-0.29396-0.125-0.4375-0.125-0.0718-0.00002-0.11662-0.0152-0.1875 0zm27.156 0c-0.0708 0.0152-0.18569 0.0873-0.25 0.125-0.25722 0.15085-0.37492 0.44829-0.375 0.75 0 0.30171 0.11782 0.56785 0.375 0.71875 0.25723 0.15086 0.58652 0.1508 0.84375 0 0.25727-0.15089 0.4375-0.41699 0.4375-0.71875 0-0.30172-0.18031-0.59909-0.4375-0.75-0.1286-0.0754-0.26271-0.125-0.40625-0.125-0.0718-0.00002-0.11662-0.0152-0.1875 0zm-40.562 0.15625c-0.0965 0-0.19479 0.0117-0.28125 0.0625-0.17292 0.10135-0.24998 0.26594-0.25 0.46875 0 0.20281 0.0771 0.39858 0.25 0.5 0.17291 0.10146 0.42084 0.10146 0.59375 0 0.17293-0.10146 0.28125-0.29718 0.28125-0.5s-0.10833-0.36733-0.28125-0.46875c-0.0865-0.0507-0.216-0.0624-0.3125-0.0625zm54.344 0c-0.0965 0-0.22604 0.0117-0.3125 0.0625-0.17292 0.10135-0.24998 0.26594-0.25 0.46875 0 0.20281 0.0771 0.39858 0.25 0.5 0.17291 0.10146 0.42084 0.10146 0.59375 0 0.17293-0.10146 0.28125-0.29718 0.28125-0.5s-0.10833-0.36733-0.28125-0.46875c-0.0864-0.0507-0.18475-0.0624-0.28125-0.0625zm-44.344 0.0937c-0.0656 0.016-0.12846 0.0592-0.1875 0.0937-0.23615 0.13848-0.37495 0.41052-0.375 0.6875 0 0.27699 0.13888 0.51771 0.375 0.65625 0.23614 0.13849 0.54509 0.13844 0.78125 0 0.23618-0.13852 0.34375-0.37922 0.34375-0.65625 0-0.27698-0.10763-0.54897-0.34375-0.6875-0.11807-0.0692-0.24323-0.0937-0.375-0.0937-0.0659 0-0.15315-0.016-0.21875 0zm33.969 0c-0.0656 0.016-0.12846 0.0592-0.1875 0.0937-0.23615 0.13848-0.4062 0.41052-0.40625 0.6875 0 0.27699 0.17013 0.51771 0.40625 0.65625 0.23614 0.13849 0.51384 0.13844 0.75 0 0.23618-0.13852 0.375-0.37922 0.375-0.65625 0-0.27698-0.13888-0.54897-0.375-0.6875-0.11806-0.0692-0.24323-0.0937-0.375-0.0937-0.0659 0-0.1219-0.016-0.1875 0zm-40.562 0.0625c-0.10823 0-0.21549 0.0371-0.3125 0.0937-0.19399 0.11376-0.31248 0.33497-0.3125 0.5625 0 0.22755 0.11853 0.41747 0.3125 0.53125 0.19399 0.11378 0.43101 0.11376 0.625 0 0.19402-0.11377 0.3125-0.30368 0.3125-0.53125 0-0.22754-0.11852-0.44872-0.3125-0.5625-0.097-0.057-0.20426-0.0937-0.3125-0.0937zm47.531 0c-0.10823 0-0.2155 0.0371-0.3125 0.0937-0.19399 0.11376-0.28123 0.33497-0.28125 0.5625 0 0.22755 0.0873 0.41747 0.28125 0.53125 0.19399 0.11378 0.46226 0.11376 0.65625 0 0.19402-0.11377 0.28125-0.30368 0.28125-0.53125 0-0.22754-0.0873-0.44872-0.28125-0.5625-0.097-0.057-0.23551-0.0937-0.34375-0.0937zm-44.125 0.0312c-0.12-0.00001-0.23621 0.0308-0.34375 0.0937-0.21505 0.12614-0.34372 0.37273-0.34375 0.625 0 0.25226 0.1287 0.46758 0.34375 0.59375 0.21506 0.12613 0.47244 0.1261 0.6875 0 0.2151-0.12616 0.34375-0.34145 0.34375-0.59375 0-0.25227-0.12871-0.49883-0.34375-0.625-0.10753-0.063-0.22374-0.0937-0.34375-0.0937zm40.75 0c-0.12-0.00001-0.26746 0.0308-0.375 0.0937-0.21505 0.12614-0.34373 0.37273-0.34375 0.625 0 0.25226 0.1287 0.46758 0.34375 0.59375 0.21506 0.12613 0.47244 0.1261 0.6875 0 0.21-0.11 0.34-0.33 0.34-0.58 0-0.25227-0.1287-0.49883-0.34375-0.625-0.10753-0.063-0.19249-0.0937-0.3125-0.0937zm-20.38 0.23c-0.17882-0.00001-0.37099 0.0309-0.53125 0.125-0.32044 0.18794-0.49991 0.56163-0.5 0.9375 0 0.37587 0.17961 0.71824 0.5 0.90625 0.32046 0.18794 0.74201 0.18786 1.0625 0 0.32053-0.18798 0.5-0.53028 0.5-0.90625 0-0.37589-0.1796-0.74947-0.5-0.9375-0.16022-0.094-0.35242-0.12498-0.53125-0.125zm-3.4062 0.65625c-0.16705-0.00001-0.31904 0.0372-0.46875 0.125-0.29937 0.17558-0.49991 0.52386-0.5 0.875 0 0.35117 0.20067 0.6681 0.5 0.84375 0.29937 0.17557 0.6381 0.1755 0.9375 0 0.29947-0.17563 0.53125-0.49251 0.53125-0.84375 0-0.35115-0.23192-0.69936-0.53125-0.875-0.14967-0.0878-0.30169-0.12498-0.46875-0.125zm6.7812 0c-0.16705-0.00001-0.31904 0.0372-0.46875 0.125-0.29937 0.17558-0.4999 0.52386-0.5 0.875 0 0.35117 0.20067 0.6681 0.5 0.84375 0.29937 0.17557 0.66935 0.1755 0.96875 0 0.29946-0.17563 0.46875-0.49251 0.46875-0.84375 0-0.35115-0.16942-0.69936-0.46875-0.875-0.14967-0.0878-0.33295-0.12498-0.5-0.125zm-10.406 0.53125c-0.0766 0.0178-0.14918 0.0529-0.21875 0.0937-0.2783 0.16321-0.43741 0.45483-0.4375 0.78125 0 0.32644 0.15925 0.68048 0.4375 0.84375 0.2783 0.16323 0.62794 0.16315 0.90625 0 0.27837-0.16324 0.4375-0.51725 0.4375-0.84375 0-0.32643-0.15924-0.61797-0.4375-0.78125-0.13915-0.0816-0.31345-0.0937-0.46875-0.0937-0.0777-0.00001-0.14209-0.0178-0.21875 0zm13.594 0c-0.0766 0.0178-0.18043 0.0529-0.25 0.0937-0.2783 0.16321-0.43742 0.45483-0.4375 0.78125 0 0.32644 0.15925 0.68048 0.4375 0.84375 0.2783 0.16323 0.62794 0.16315 0.90625 0 0.27837-0.16324 0.46875-0.51725 0.46875-0.84375 0-0.32643-0.19049-0.61797-0.46875-0.78125-0.13915-0.0816-0.2822-0.0937-0.4375-0.0937-0.0777-0.00001-0.14209-0.0178-0.21875 0zm-33.75 0.15625c-0.27101 0-0.46875 0.2247-0.46875 0.5 0 0.27531 0.19774 0.53125 0.46875 0.53125 0.27102 0 0.5-0.25594 0.5-0.53125 0-0.2753-0.22898-0.5-0.5-0.5zm54.344 0c-0.27101 0-0.5 0.2247-0.5 0.5 0 0.27531 0.22899 0.53125 0.5 0.53125 0.27102 0 0.46875-0.25594 0.46875-0.53125 0-0.2753-0.19773-0.5-0.46875-0.5zm-37.562 0.21875c-0.0709 0.0152-0.15444 0.0561-0.21875 0.0937-0.25723 0.15085-0.40617 0.44829-0.40625 0.75 0 0.30171 0.14907 0.56785 0.40625 0.71875 0.25723 0.15086 0.58652 0.15081 0.84375 0 0.25727-0.15089 0.40625-0.41699 0.40625-0.71875 0-0.30172-0.14906-0.59909-0.40625-0.75-0.1286-0.0754-0.26271-0.0937-0.40625-0.0937-0.0718-0.00002-0.14787-0.0152-0.21875 0zm20.375 0c-0.0709 0.0152-0.15444 0.0561-0.21875 0.0937-0.25722 0.15085-0.43742 0.44829-0.4375 0.75 0 0.30171 0.18032 0.56785 0.4375 0.71875 0.25723 0.15086 0.58652 0.15081 0.84375 0 0.25727-0.15089 0.40625-0.41699 0.40625-0.71875 0-0.30172-0.14906-0.59909-0.40625-0.75-0.1286-0.0754-0.29396-0.0937-0.4375-0.0937-0.0718-0.00002-0.11662-0.0152-0.1875 0zm-33.75 0.125c-0.0965 0-0.16354 0.0117-0.25 0.0625-0.17292 0.10135-0.31248 0.29719-0.3125 0.5 0 0.20281 0.13959 0.36733 0.3125 0.46875 0.17291 0.10146 0.35834 0.10146 0.53125 0 0.17293-0.10146 0.28125-0.26593 0.28125-0.46875s-0.10833-0.39858-0.28125-0.5c-0.0865-0.0507-0.18475-0.0624-0.28125-0.0625zm47.531 0c-0.0965 0-0.19479 0.0117-0.28125 0.0625-0.17292 0.10135-0.28123 0.29719-0.28125 0.5 0 0.20281 0.10834 0.36733 0.28125 0.46875 0.17291 0.10146 0.38959 0.10146 0.5625 0 0.17293-0.10146 0.28125-0.26593 0.28125-0.46875s-0.10834-0.39858-0.28125-0.5c-0.0865-0.0507-0.18475-0.0624-0.28125-0.0625zm-37.344 0.0937c-0.13176-0.00001-0.25691 0.0246-0.375 0.0937-0.23615 0.13848-0.4062 0.41052-0.40625 0.6875 0 0.27699 0.17013 0.51771 0.40625 0.65625 0.23614 0.13849 0.54509 0.13844 0.78125 0 0.23618-0.13852 0.375-0.37922 0.375-0.65625 0-0.27698-0.13888-0.54897-0.375-0.6875-0.11807-0.0692-0.27448-0.0937-0.40625-0.0937zm27.156 0c-0.13176-0.00001-0.25691 0.0246-0.375 0.0937-0.23615 0.13848-0.37495 0.41052-0.375 0.6875 0 0.27699 0.13888 0.51771 0.375 0.65625 0.23614 0.13849 0.51384 0.13844 0.75 0 0.23618-0.13852 0.40625-0.37922 0.40625-0.65625 0-0.27698-0.17013-0.54897-0.40625-0.6875-0.11806-0.0692-0.24323-0.0937-0.375-0.0937zm-33.938 0.0625c-0.10823 0-0.21549 0.0371-0.3125 0.0937-0.19399 0.11376-0.31248 0.33497-0.3125 0.5625 0 0.22755 0.11853 0.41747 0.3125 0.53125 0.19399 0.11378 0.43101 0.11376 0.625 0 0.19402-0.11377 0.3125-0.30368 0.3125-0.53125 0-0.22754-0.11852-0.44872-0.3125-0.5625-0.097-0.057-0.20426-0.0937-0.3125-0.0937zm40.75 0c-0.10823 0-0.24674 0.0371-0.34375 0.0937-0.19399 0.11376-0.31248 0.33497-0.3125 0.5625 0 0.22755 0.11854 0.41747 0.3125 0.53125 0.19399 0.11378 0.46226 0.11376 0.65625 0 0.19402-0.11377 0.28125-0.30368 0.28125-0.53125 0-0.22754-0.0873-0.44872-0.28125-0.5625-0.097-0.057-0.20426-0.0937-0.3125-0.0937zm-37.33 0.03c-0.12-0.00001-0.26746 0.0308-0.375 0.0937-0.21505 0.12614-0.34373 0.37273-0.34375 0.625 0 0.25226 0.1287 0.46758 0.34375 0.59375 0.21506 0.12613 0.47244 0.1261 0.6875 0 0.2151-0.12616 0.34375-0.34145 0.34375-0.59375 0-0.25227-0.1287-0.49883-0.34375-0.625-0.10753-0.063-0.19249-0.0937-0.3125-0.0937zm33.938 0c-0.12-0.00001-0.23621 0.0308-0.34375 0.0937-0.21505 0.12614-0.34373 0.37273-0.34375 0.625 0 0.25226 0.1287 0.46758 0.34375 0.59375 0.21506 0.12613 0.47244 0.1261 0.6875 0 0.2151-0.12616 0.34375-0.34145 0.34375-0.59375 0-0.25227-0.1287-0.49883-0.34375-0.625-0.10753-0.063-0.22374-0.0937-0.34375-0.0937zm-16.969 0.875c-0.16705-0.00001-0.31904 0.0684-0.46875 0.15625-0.29937 0.17558-0.4999 0.49261-0.5 0.84375 0 0.35117 0.20067 0.6681 0.5 0.84375 0.29937 0.17557 0.60685 0.1755 0.90625 0 0.29947-0.17563 0.53125-0.49251 0.53125-0.84375 0-0.35115-0.23192-0.66811-0.53125-0.84375-0.14967-0.0878-0.27045-0.15623-0.4375-0.15625zm-3.6562 0.53125c-0.0766 0.0178-0.14918 0.0529-0.21875 0.0937-0.2783 0.16321-0.40617 0.45483-0.40625 0.78125 0 0.32644 0.128 0.68048 0.40625 0.84375 0.2783 0.16323 0.65919 0.16315 0.9375 0 0.27836-0.16324 0.40625-0.51725 0.40625-0.84375 0-0.32643-0.12799-0.61797-0.40625-0.78125-0.13915-0.0816-0.31345-0.0937-0.46875-0.0937-0.0777-0.00001-0.17333-0.0178-0.25 0zm6.8125 0c-0.0766 0.0178-0.14918 0.0529-0.21875 0.0937-0.2783 0.16321-0.43742 0.45483-0.4375 0.78125 0 0.32644 0.15925 0.68048 0.4375 0.84375 0.2783 0.16323 0.62794 0.16315 0.90625 0 0.27837-0.16324 0.4375-0.51725 0.4375-0.84375 0-0.32643-0.15924-0.61797-0.4375-0.78125-0.13915-0.0816-0.31345-0.0937-0.46875-0.0937-0.0777-0.00001-0.14208-0.0178-0.21875 0zm-26.938 0.15625c-0.27101 0-0.5 0.2247-0.5 0.5 0 0.27531 0.22899 0.53125 0.5 0.53125 0.27102 0 0.5-0.25594 0.5-0.53125 0-0.2753-0.22898-0.5-0.5-0.5zm47.531 0c-0.27101 0-0.46875 0.2247-0.46875 0.5 0 0.27531 0.19774 0.53125 0.46875 0.53125 0.27102 0 0.5-0.25594 0.5-0.53125 0-0.2753-0.22898-0.5-0.5-0.5zm-30.75 0.21875c-0.0708 0.0152-0.15444 0.0561-0.21875 0.0937-0.25722 0.15085-0.43742 0.44829-0.4375 0.75 0 0.30171 0.18032 0.56785 0.4375 0.71875 0.25723 0.15086 0.55527 0.15081 0.8125 0 0.25727-0.15084 0.4375-0.41694 0.4375-0.7187 0-0.30172-0.18031-0.59909-0.4375-0.75-0.1286-0.0754-0.26271-0.0937-0.40625-0.0937-0.0718-0.00002-0.11662-0.0152-0.1875 0zm13.594 0c-0.0709 0.0152-0.18569 0.0561-0.25 0.0937-0.25723 0.15085-0.40617 0.44829-0.40625 0.75 0 0.30171 0.14907 0.56785 0.40625 0.71875 0.25723 0.15086 0.58652 0.15081 0.84375 0 0.25727-0.15089 0.4375-0.41699 0.4375-0.71875 0-0.30172-0.18031-0.59909-0.4375-0.75-0.1286-0.0754-0.26271-0.0937-0.40625-0.0937-0.0718-0.00002-0.11662-0.0152-0.1875 0zm-26.969 0.125c-0.0965 0-0.19479 0.0117-0.28125 0.0625-0.17292 0.10135-0.28123 0.29719-0.28125 0.5 0 0.20281 0.10834 0.36733 0.28125 0.46875 0.17291 0.10146 0.38959 0.10146 0.5625 0 0.17293-0.10146 0.28125-0.26593 0.28125-0.46875s-0.10833-0.39858-0.28125-0.5c-0.0864-0.0507-0.18475-0.0624-0.28125-0.0625zm40.75 0c-0.0965 0-0.22604 0.0117-0.3125 0.0625-0.17292 0.10135-0.28123 0.29719-0.28125 0.5 0 0.20281 0.10834 0.36733 0.28125 0.46875 0.17291 0.10146 0.42084 0.10146 0.59375 0 0.17293-0.10146 0.25-0.26593 0.25-0.46875s-0.0771-0.39858-0.25-0.5c-0.0865-0.0507-0.18475-0.0624-0.28125-0.0625zm-30.562 0.0937c-0.13176-0.00001-0.28816 0.0246-0.40625 0.0937-0.23615 0.13848-0.3437 0.41052-0.34375 0.6875 0 0.27699 0.10763 0.51771 0.34375 0.65625 0.23614 0.13849 0.54509 0.13844 0.78125 0 0.23618-0.13852 0.375-0.37922 0.375-0.65625 0-0.27698-0.13888-0.54897-0.375-0.6875-0.11806-0.0692-0.24323-0.0937-0.375-0.0937zm20.344 0c-0.13176-0.00001-0.25691 0.0246-0.375 0.0937-0.23615 0.13848-0.3437 0.41052-0.34375 0.6875 0 0.27699 0.10763 0.51771 0.34375 0.65625 0.23614 0.13849 0.54509 0.13844 0.78125 0 0.23618-0.13852 0.375-0.37922 0.375-0.65625 0-0.27698-0.13888-0.54897-0.375-0.6875-0.11806-0.0692-0.27448-0.0937-0.40625-0.0937zm-27.11 0.05c-0.10823 0-0.24674 0.0371-0.34375 0.0937-0.19399 0.11376-0.31248 0.33497-0.3125 0.5625 0 0.22755 0.11853 0.41747 0.3125 0.53125 0.19399 0.11378 0.46226 0.11376 0.65625 0 0.19402-0.11377 0.28125-0.30368 0.28125-0.53125 0-0.22754-0.0873-0.44872-0.28125-0.5625-0.097-0.057-0.20426-0.0937-0.3125-0.0937zm33.938 0c-0.10823 0-0.21549 0.0371-0.3125 0.0937-0.19399 0.11376-0.31248 0.33497-0.3125 0.5625 0 0.22755 0.11853 0.41747 0.3125 0.53125 0.19399 0.11378 0.43101 0.11376 0.625 0 0.19402-0.11377 0.3125-0.30368 0.3125-0.53125 0-0.22754-0.11852-0.44872-0.3125-0.5625-0.097-0.057-0.20426-0.0937-0.3125-0.0937zm-30.562 0.0312c-0.12-0.00001-0.23621 0.0308-0.34375 0.0937-0.21505 0.12614-0.37498 0.37273-0.375 0.625 0 0.25226 0.15995 0.46758 0.375 0.59375 0.21506 0.12613 0.50369 0.1261 0.71875 0 0.2151-0.12616 0.34375-0.34145 0.34375-0.59375 0-0.25227-0.1287-0.49883-0.34375-0.625-0.10753-0.063-0.25499-0.0937-0.375-0.0937zm27.156 0c-0.11999-0.00001-0.23621 0.0308-0.34375 0.0937-0.21505 0.12614-0.34372 0.37273-0.34375 0.625 0 0.25226 0.1287 0.46758 0.34375 0.59375 0.21506 0.12613 0.47243 0.1261 0.6875 0 0.2151-0.12616 0.375-0.34145 0.375-0.59375 0-0.25227-0.15996-0.49883-0.375-0.625-0.10754-0.063-0.22374-0.0937-0.34375-0.0937zm-13.812 1.4062c-0.0766 0.0178-0.11793 0.0529-0.1875 0.0937-0.2783 0.16321-0.46867 0.48607-0.46875 0.8125 0 0.32643 0.1905 0.64923 0.46875 0.8125 0.2783 0.16323 0.59669 0.16315 0.875 0 0.27837-0.16324 0.4375-0.48601 0.4375-0.8125 0-0.32644-0.15924-0.64922-0.4375-0.8125-0.13915-0.0816-0.2822-0.0937-0.4375-0.0937-0.0777-0.00001-0.17333-0.0178-0.25 0zm-20.125 0.1875c-0.27101 0-0.5 0.19345-0.5 0.46875 0 0.27531 0.22899 0.53125 0.5 0.53125 0.27102 0 0.5-0.25594 0.5-0.53125 0-0.2753-0.22898-0.46875-0.5-0.46875zm40.75 0c-0.27101 0-0.5 0.19345-0.5 0.46875 0 0.27531 0.22899 0.53125 0.5 0.53125 0.27102 0 0.46875-0.25594 0.46875-0.53125 0-0.2753-0.19773-0.46875-0.46875-0.46875zm-24 0.1875c-0.0628 0.0152-0.12318 0.0561-0.1875 0.0937-0.25722 0.15085-0.40617 0.44829-0.40625 0.75 0 0.30171 0.14907 0.56784 0.40625 0.71875 0.25724 0.15085 0.55527 0.1508 0.8125 0 0.25727-0.1509 0.40625-0.41699 0.40625-0.71875 0-0.30172-0.14906-0.59909-0.40625-0.75-0.1286-0.0754-0.26271-0.0937-0.40625-0.0937-0.0718-0.00002-0.15594-0.0152-0.21875 0zm6.8125 0c-0.0708 0.0152-0.15444 0.0561-0.21875 0.0937-0.25723 0.15085-0.40617 0.44829-0.40625 0.75 0 0.30171 0.14907 0.56784 0.40625 0.71875 0.25723 0.15085 0.58651 0.1508 0.84375 0 0.25727-0.1509 0.40625-0.41699 0.40625-0.71875 0-0.30172-0.14906-0.59909-0.40625-0.75-0.1286-0.0754-0.29396-0.0937-0.4375-0.0937-0.0718-0.00002-0.11662-0.0152-0.1875 0zm-20.16 0.12c-0.0965 0-0.22604 0.0117-0.3125 0.0625-0.17292 0.10135-0.28123 0.29719-0.28125 0.5 0 0.20281 0.10834 0.39858 0.28125 0.5 0.17291 0.10146 0.42084 0.10146 0.59375 0 0.17293-0.10146 0.25-0.29718 0.25-0.5s-0.0771-0.39858-0.25-0.5c-0.0865-0.0507-0.18475-0.0624-0.28125-0.0625zm33.938 0c-0.0965 0-0.19479 0.0117-0.28125 0.0625-0.17292 0.10135-0.28123 0.29719-0.28125 0.5 0 0.20281 0.10834 0.39858 0.28125 0.5 0.17291 0.10146 0.38959 0.10146 0.5625 0 0.17293-0.10146 0.28125-0.29718 0.28125-0.5s-0.10833-0.39858-0.28125-0.5c-0.0865-0.0507-0.18475-0.0624-0.28125-0.0625zm-23.781 0.0937c-0.13176-0.00001-0.22566 0.0246-0.34375 0.0937-0.23615 0.13848-0.4062 0.41052-0.40625 0.6875 0 0.27699 0.17013 0.51771 0.40625 0.65625 0.23614 0.13849 0.48259 0.13844 0.71875 0 0.23618-0.13852 0.40625-0.37922 0.40625-0.65625 0-0.27698-0.17013-0.54897-0.40625-0.6875-0.11806-0.0692-0.24323-0.0937-0.375-0.0937zm13.594 0c-0.13176-0.00001-0.25691 0.0246-0.375 0.0937-0.23615 0.13848-0.40619 0.41052-0.40625 0.6875 0 0.27699 0.17013 0.51771 0.40625 0.65625 0.23614 0.13849 0.51384 0.13844 0.75 0 0.23618-0.13852 0.40625-0.37922 0.40625-0.65625 0-0.27698-0.17013-0.54897-0.40625-0.6875-0.11806-0.0692-0.24323-0.0937-0.375-0.0937zm-20.375 0.0625c-0.10823 0-0.21549 0.0371-0.3125 0.0937-0.19399 0.11376-0.28123 0.33497-0.28125 0.5625 0 0.22755 0.0873 0.41747 0.28125 0.53125 0.19399 0.11378 0.43101 0.11376 0.625 0 0.19402-0.11377 0.3125-0.30368 0.3125-0.53125 0-0.22754-0.11851-0.44872-0.3125-0.5625-0.097-0.057-0.20426-0.0937-0.3125-0.0937zm27.156 0c-0.10823 0-0.18424 0.0371-0.28125 0.0937-0.19399 0.11376-0.34373 0.33497-0.34375 0.5625 0 0.22755 0.14978 0.41747 0.34375 0.53125 0.19399 0.11378 0.39976 0.11376 0.59375 0 0.19402-0.11377 0.3125-0.30368 0.3125-0.53125 0-0.22754-0.11852-0.44872-0.3125-0.5625-0.097-0.057-0.20425-0.0937-0.3125-0.0937zm-23.75 0.0312c-0.12-0.00001-0.26746 0.0308-0.375 0.0937-0.21505 0.12614-0.34373 0.37273-0.34375 0.625 0 0.25226 0.1287 0.46758 0.34375 0.59375 0.21506 0.12613 0.50369 0.1261 0.71875 0 0.21511-0.12616 0.34375-0.34145 0.34375-0.59375 0-0.25227-0.1287-0.49883-0.34375-0.625-0.10753-0.063-0.22374-0.0937-0.34375-0.0937zm20.344 0c-0.11999-0.00001-0.20496 0.0308-0.3125 0.0937-0.21505 0.12614-0.34373 0.37273-0.34375 0.625 0 0.25226 0.1287 0.46758 0.34375 0.59375 0.21506 0.12613 0.47244 0.1261 0.6875 0 0.21511-0.12616 0.34375-0.34145 0.34375-0.59375 0-0.25227-0.1287-0.49883-0.34375-0.625-0.10753-0.063-0.25499-0.0937-0.375-0.0937zm-27.13 1.6c-0.27101 0-0.5 0.19345-0.5 0.46875 0 0.27531 0.22899 0.53125 0.5 0.53125 0.27102 0 0.46875-0.25594 0.46875-0.53125 0-0.2753-0.19773-0.46875-0.46875-0.46875zm33.938 0c-0.27101 0-0.5 0.19345-0.5 0.46875 0 0.27531 0.22899 0.53125 0.5 0.53125 0.27102 0 0.5-0.25594 0.5-0.53125 0-0.2753-0.22898-0.46875-0.5-0.46875zm-17.156 0.1875c-0.0708 0.0152-0.15443 0.0561-0.21875 0.0937-0.25722 0.15085-0.43742 0.44829-0.4375 0.75 0 0.30171 0.18032 0.56784 0.4375 0.71875 0.25724 0.15085 0.55526 0.1508 0.8125 0 0.25727-0.1509 0.4375-0.41698 0.4375-0.71875 0-0.30172-0.18031-0.59909-0.4375-0.75-0.1286-0.0754-0.26271-0.0937-0.40625-0.0937-0.0718-0.00002-0.11663-0.0152-0.1875 0zm-13.406 0.125c-0.0965 0-0.19479 0.0117-0.28125 0.0625-0.17292 0.10135-0.28123 0.29719-0.28125 0.5 0 0.20281 0.10834 0.39858 0.28125 0.5 0.17291 0.10146 0.38959 0.10146 0.5625 0 0.17293-0.10146 0.28125-0.29718 0.28125-0.5s-0.10834-0.39858-0.28125-0.5c-0.0865-0.0507-0.18475-0.0624-0.28125-0.0625zm27.156 0c-0.0965 0-0.16354 0.0117-0.25 0.0625-0.17292 0.10135-0.31248 0.29719-0.3125 0.5 0 0.20281 0.13959 0.39858 0.3125 0.5 0.17291 0.10146 0.35834 0.10146 0.53125 0 0.17293-0.10146 0.28125-0.29718 0.28125-0.5s-0.10833-0.39858-0.28125-0.5c-0.0864-0.0507-0.18475-0.0624-0.28125-0.0625zm-16.969 0.0937c-0.13176-0.00001-0.25691 0.0246-0.375 0.0937-0.23615 0.13848-0.37495 0.44177-0.375 0.71875 0 0.27699 0.13888 0.48646 0.375 0.625 0.23614 0.13849 0.51384 0.13844 0.75 0 0.23618-0.13852 0.375-0.34797 0.375-0.625 0-0.27698-0.13888-0.58022-0.375-0.71875-0.11806-0.0692-0.24323-0.0937-0.375-0.0937zm6.7812 0c-0.13176-0.00001-0.25691 0.0246-0.375 0.0937-0.23615 0.13848-0.37495 0.44177-0.375 0.71875 0 0.27699 0.13888 0.48646 0.375 0.625 0.23614 0.13849 0.54509 0.13844 0.78125 0 0.23618-0.13852 0.34375-0.34797 0.34375-0.625 0-0.27698-0.10763-0.58022-0.34375-0.71875-0.11807-0.0692-0.27448-0.0937-0.40625-0.0937zm-13.562 0.0625c-0.10823 0-0.24675 0.0683-0.34375 0.125-0.19399 0.11376-0.28123 0.30372-0.28125 0.53125 0 0.22755 0.0873 0.41747 0.28125 0.53125 0.19399 0.11378 0.46226 0.11376 0.65625 0 0.19402-0.11377 0.3125-0.30368 0.3125-0.53125 0-0.22754-0.11852-0.41747-0.3125-0.53125-0.097-0.057-0.20426-0.125-0.3125-0.125zm20.344 0c-0.10823 0-0.2155 0.0683-0.3125 0.125-0.19399 0.11376-0.28123 0.30372-0.28125 0.53125 0 0.22755 0.0873 0.41747 0.28125 0.53125 0.19399 0.11378 0.46226 0.11376 0.65625 0 0.19402-0.11377 0.3125-0.30368 0.3125-0.53125 0-0.22754-0.11852-0.41747-0.3125-0.53125-0.097-0.057-0.23551-0.125-0.34375-0.125zm-16.969 0.0312c-0.11999-0.00001-0.20496 0.062-0.3125 0.125-0.21505 0.12614-0.37498 0.37273-0.375 0.625 0 0.25226 0.15995 0.43633 0.375 0.5625 0.21506 0.12613 0.44119 0.1261 0.65625 0 0.21511-0.12616 0.375-0.3102 0.375-0.5625 0-0.25227-0.15995-0.49883-0.375-0.625-0.10753-0.0631-0.22374-0.125-0.34375-0.125zm13.594 0c-0.12-0.00001-0.23621 0.062-0.34375 0.125-0.21505 0.12614-0.37498 0.37273-0.375 0.625 0 0.25226 0.15995 0.43633 0.375 0.5625 0.21506 0.12613 0.47244 0.1261 0.6875 0 0.21511-0.12616 0.375-0.3102 0.375-0.5625 0-0.25227-0.15995-0.49883-0.375-0.625-0.10753-0.0631-0.22374-0.125-0.34375-0.125zm-20.36 1.59c-0.27101 0-0.46875 0.2247-0.46875 0.5 0 0.27531 0.19774 0.5 0.46875 0.5 0.27102 0 0.5-0.22469 0.5-0.5 0-0.2753-0.22898-0.5-0.5-0.5zm27.156 0c-0.27101 0-0.5 0.2247-0.5 0.5 0 0.27531 0.22899 0.5 0.5 0.5 0.27102 0 0.5-0.22469 0.5-0.5 0-0.2753-0.22898-0.5-0.5-0.5zm-23.75 0.3125c-0.0965 0-0.22604 0.0117-0.3125 0.0625-0.17292 0.10136-0.24998 0.29719-0.25 0.5 0 0.20281 0.0771 0.39858 0.25 0.5 0.17291 0.10146 0.42084 0.10146 0.59375 0 0.17293-0.10146 0.28125-0.29718 0.28125-0.5s-0.10833-0.39858-0.28125-0.5c-0.0865-0.0507-0.18475-0.0624-0.28125-0.0625zm20.344 0c-0.0965 0-0.19479 0.0117-0.28125 0.0625-0.17292 0.10136-0.24998 0.29719-0.25 0.5 0 0.20281 0.0771 0.39858 0.25 0.5 0.17291 0.10146 0.42084 0.10146 0.59375 0 0.17293-0.10146 0.28125-0.29718 0.28125-0.5s-0.10833-0.39858-0.28125-0.5c-0.0865-0.0507-0.216-0.0624-0.3125-0.0625zm-10.156 0.0937c-0.13176-0.00001-0.25691 0.0559-0.375 0.125-0.23615 0.13848-0.4062 0.41052-0.40625 0.6875 0 0.27699 0.17013 0.51771 0.40625 0.65625 0.23614 0.13849 0.48259 0.13844 0.71875 0 0.23618-0.13852 0.40625-0.37922 0.40625-0.65625 0-0.27698-0.17013-0.54897-0.40625-0.6875-0.11806-0.0692-0.21198-0.125-0.34375-0.125zm-6.8125 0.0937c-0.10823 0-0.2155 0.0371-0.3125 0.0937-0.19399 0.11376-0.31248 0.33497-0.3125 0.5625 0 0.22755 0.11851 0.38622 0.3125 0.5s0.43101 0.11376 0.625 0c0.19402-0.11377 0.34375-0.27243 0.34375-0.5 0-0.22754-0.14977-0.44872-0.34375-0.5625-0.097-0.057-0.20426-0.0937-0.3125-0.0937zm13.594 0c-0.10823 0-0.2155 0.0371-0.3125 0.0937-0.19399 0.11376-0.31248 0.33497-0.3125 0.5625 0 0.22755 0.11851 0.38622 0.3125 0.5s0.43101 0.11376 0.625 0c0.19402-0.11377 0.3125-0.27243 0.3125-0.5 0-0.22754-0.11851-0.44872-0.3125-0.5625-0.097-0.057-0.20426-0.0937-0.3125-0.0937zm-10.375 0.0312c-0.0523 0.0167-0.10248 0.0622-0.15625 0.0937-0.21505 0.12614-0.34372 0.37273-0.34375 0.625 0 0.25226 0.1287 0.46758 0.34375 0.59375 0.21506 0.12613 0.47243 0.1261 0.6875 0 0.2151-0.12616 0.34375-0.34145 0.34375-0.59375 0-0.25227-0.12871-0.49883-0.34375-0.625-0.10753-0.063-0.22374-0.0937-0.34375-0.0937-0.06 0-0.13525-0.0167-0.1875 0zm6.9688 0c-0.12-0.00001-0.23621 0.0308-0.34375 0.0937-0.21505 0.12614-0.34373 0.37273-0.34375 0.625 0 0.25226 0.1287 0.46758 0.34375 0.59375 0.21506 0.12613 0.47244 0.1261 0.6875 0 0.2151-0.12616 0.375-0.34145 0.375-0.59375 0-0.25227-0.15995-0.49883-0.375-0.625-0.10753-0.063-0.22374-0.0937-0.34375-0.0937zm-13.562 1.5625c-0.27101 0-0.5 0.2247-0.5 0.5 0 0.27531 0.22899 0.53125 0.5 0.53125 0.27102 0 0.46875-0.25594 0.46875-0.53125 0-0.2753-0.19773-0.5-0.46875-0.5zm20.344 0c-0.27101 0-0.46875 0.2247-0.46875 0.5 0 0.27531 0.19774 0.53125 0.46875 0.53125 0.27102 0 0.5-0.25594 0.5-0.53125 0-0.2753-0.22898-0.5-0.5-0.5zm-16.969 0.3125c-0.0965 0-0.16354 0.043-0.25 0.0937-0.17292 0.10136-0.28123 0.26594-0.28125 0.46875 0 0.20281 0.10834 0.39858 0.28125 0.5 0.17291 0.10146 0.35834 0.10146 0.53125 0 0.17293-0.10146 0.3125-0.29718 0.3125-0.5s-0.13958-0.36733-0.3125-0.46875c-0.0864-0.0507-0.18475-0.0937-0.28125-0.0937zm13.594 0c-0.0965 0-0.19479 0.043-0.28125 0.0937-0.17292 0.10136-0.28123 0.26594-0.28125 0.46875 0 0.20281 0.10834 0.39858 0.28125 0.5 0.17291 0.10146 0.38959 0.10146 0.5625 0 0.17293-0.10146 0.28125-0.29718 0.28125-0.5s-0.10833-0.36733-0.28125-0.46875c-0.0865-0.0507-0.18475-0.0937-0.28125-0.0937zm-10.188 0.1875c-0.10823 0-0.21549 0.0371-0.3125 0.0937-0.19399 0.11376-0.31248 0.33497-0.3125 0.5625 0 0.22755 0.11853 0.38622 0.3125 0.5 0.19399 0.11378 0.43101 0.11376 0.625 0 0.19402-0.11377 0.3125-0.27243 0.3125-0.5 0-0.22754-0.11852-0.44872-0.3125-0.5625-0.097-0.057-0.20425-0.0937-0.3125-0.0937zm6.7812 0c-0.10823 0-0.21549 0.0371-0.3125 0.0937-0.19399 0.11376-0.31248 0.33497-0.3125 0.5625 0 0.22755 0.11854 0.38622 0.3125 0.5 0.19399 0.11378 0.46226 0.11376 0.65625 0 0.19402-0.11377 0.28125-0.27243 0.28125-0.5 0-0.22754-0.0873-0.44872-0.28125-0.5625-0.097-0.057-0.23551-0.0937-0.34375-0.0937zm-3.375 0.0312c-0.12-0.00001-0.23621 0.0308-0.34375 0.0937-0.21505 0.12614-0.37498 0.37273-0.375 0.625 0 0.25226 0.15995 0.46758 0.375 0.59375 0.21506 0.12613 0.44119 0.1261 0.65625 0 0.2151-0.12615 0.375-0.34145 0.375-0.59375 0-0.25227-0.15995-0.49883-0.375-0.625-0.10753-0.063-0.19249-0.0937-0.3125-0.0937zm-6.8125 1.5625c-0.27101 0-0.46875 0.22469-0.46875 0.5 0 0.2753 0.19774 0.53125 0.46875 0.53125 0.27102 0 0.53125-0.25595 0.53125-0.53125 0-0.27531-0.26023-0.5-0.53125-0.5zm13.594 0c-0.27101 0-0.5 0.22469-0.5 0.5 0 0.2753 0.22899 0.53125 0.5 0.53125 0.27102 0 0.46875-0.25595 0.46875-0.53125 0-0.27531-0.19773-0.5-0.46875-0.5zm-10.188 0.34375c-0.0965 0-0.19479 0.0117-0.28125 0.0625-0.17292 0.10136-0.28123 0.26594-0.28125 0.46875 0 0.20281 0.10834 0.39858 0.28125 0.5 0.17291 0.10146 0.38959 0.10146 0.5625 0 0.17293-0.10146 0.28125-0.29718 0.28125-0.5s-0.10833-0.36733-0.28125-0.46875c-0.0865-0.0507-0.18475-0.0624-0.28125-0.0625zm6.7812 0c-0.0965 0-0.19479 0.0117-0.28125 0.0625-0.17292 0.10136-0.28123 0.26594-0.28125 0.46875 0 0.20281 0.10834 0.39858 0.28125 0.5 0.17291 0.10146 0.42084 0.10146 0.59375 0 0.17293-0.10146 0.25-0.29718 0.25-0.5s-0.0771-0.36733-0.25-0.46875c-0.0865-0.0507-0.216-0.0624-0.3125-0.0625zm-3.375 0.15625c-0.10823 0-0.21549 0.0371-0.3125 0.0937-0.19399 0.11376-0.34373 0.33497-0.34375 0.5625 0 0.22755 0.14978 0.41747 0.34375 0.53125 0.19399 0.11378 0.43101 0.11376 0.625 0 0.19402-0.11377 0.3125-0.30368 0.3125-0.53125 0-0.22754-0.11852-0.44872-0.3125-0.5625-0.097-0.057-0.20426-0.0937-0.3125-0.0937zm-3.4062 1.5938c-0.27101 0-0.5 0.22469-0.5 0.5 0 0.2753 0.22899 0.53125 0.5 0.53125 0.27102 0 0.5-0.25595 0.5-0.53125 0-0.27531-0.22898-0.5-0.5-0.5zm6.7812 0c-0.27101 0-0.46875 0.22469-0.46875 0.5 0 0.2753 0.19774 0.53125 0.46875 0.53125 0.27102 0 0.5-0.25595 0.5-0.53125 0-0.27531-0.22898-0.5-0.5-0.5zm-3.375 0.34375c-0.0965 0-0.19479 0.0117-0.28125 0.0625-0.17292 0.10136-0.31248 0.29719-0.3125 0.5 0 0.20281 0.13959 0.36733 0.3125 0.46875 0.17291 0.10146 0.35834 0.10146 0.53125 0 0.17293-0.10146 0.3125-0.26593 0.3125-0.46875s-0.13958-0.39858-0.3125-0.5c-0.0865-0.0507-0.1535-0.0624-0.25-0.0625zm0 1.75c-0.27101 0-0.53125 0.22469-0.53125 0.5 0 0.2753 0.26024 0.53125 0.53125 0.53125 0.27102 0 0.46875-0.25595 0.46875-0.53125 0-0.27531-0.19773-0.5-0.46875-0.5zm0 26.125c-0.27101 0-0.53125 0.25595-0.53125 0.53125 0 0.27531 0.26024 0.5 0.53125 0.5 0.27102 0 0.46875-0.22469 0.46875-0.5 0-0.2753-0.19773-0.53125-0.46875-0.53125zm-0.0312 1.6875c-0.094 0-0.16354 0.0118-0.25 0.0625-0.17291 0.10142-0.3125 0.29719-0.3125 0.5 0.00002 0.20281 0.13958 0.36739 0.3125 0.46875 0.0865 0.0508 0.18475 0.0937 0.28125 0.0937 0.0965-0.0001 0.1635-0.043 0.25-0.0937 0.17292-0.10142 0.3125-0.26593 0.3125-0.46875s-0.13957-0.39854-0.3125-0.5c-0.0865-0.0507-0.1873-0.0625-0.28125-0.0625zm-3.375 0.40625c-0.27101 0-0.5 0.25595-0.5 0.53125 0 0.27531 0.22899 0.5 0.5 0.5 0.27102 0 0.5-0.22469 0.5-0.5 0-0.2753-0.22898-0.53125-0.5-0.53125zm6.7812 0c-0.27101 0-0.46875 0.25595-0.46875 0.53125 0 0.27531 0.19774 0.5 0.46875 0.5 0.27102 0 0.5-0.22469 0.5-0.5 0-0.2753-0.22898-0.53125-0.5-0.53125zm-3.375 1.375c-0.11289 0-0.21551 0.0369-0.3125 0.0937-0.19397 0.11378-0.34375 0.27245-0.34375 0.5 0.00002 0.22753 0.14976 0.44874 0.34375 0.5625 0.097 0.0567 0.20427 0.0937 0.3125 0.0937 0.10824 0 0.2155-0.0367 0.3125-0.0937 0.19398-0.11378 0.3125-0.33496 0.3125-0.5625 0-0.22757-0.11848-0.38623-0.3125-0.5-0.097-0.0569-0.19961-0.0937-0.3125-0.0937zm-3.4062 0.3125c-0.094 0-0.19479 0.0118-0.28125 0.0625-0.17291 0.10142-0.28125 0.29719-0.28125 0.5 0.00002 0.20281 0.10833 0.39864 0.28125 0.5 0.0865 0.0508 0.18475 0.0625 0.28125 0.0625 0.0965-0.0001 0.19475-0.0118 0.28125-0.0625 0.17292-0.10142 0.28125-0.29718 0.28125-0.5s-0.10832-0.39854-0.28125-0.5c-0.0865-0.0507-0.1873-0.0625-0.28125-0.0625zm6.7812 0c-0.10202 0-0.19479 0.0118-0.28125 0.0625-0.17291 0.10142-0.28125 0.29719-0.28125 0.5 0.00002 0.20281 0.10833 0.39864 0.28125 0.5 0.0865 0.0508 0.18475 0.0625 0.28125 0.0625 0.0965-0.0001 0.226-0.0118 0.3125-0.0625 0.17291-0.10142 0.25-0.29718 0.25-0.5s-0.0771-0.39854-0.25-0.5c-0.0865-0.0507-0.21048-0.0625-0.3125-0.0625zm-10.188 0.4375c-0.27101 0-0.46875 0.2247-0.46875 0.5 0 0.27531 0.19774 0.5 0.46875 0.5 0.27102 0 0.53125-0.22469 0.53125-0.5 0-0.2753-0.26023-0.5-0.53125-0.5zm13.594 0c-0.27101 0-0.5 0.2247-0.5 0.5 0 0.27531 0.22899 0.5 0.5 0.5 0.27102 0 0.46875-0.22469 0.46875-0.5 0-0.2753-0.19773-0.5-0.46875-0.5zm-6.8125 1.1875c-0.11569 0-0.20497 0.0307-0.3125 0.0937-0.21505 0.12617-0.375 0.31024-0.375 0.5625 0.00002 0.25227 0.15995 0.49886 0.375 0.625 0.10754 0.063 0.22375 0.12501 0.34375 0.125 0.12001 0 0.20497-0.062 0.3125-0.125 0.21505-0.12617 0.375-0.37273 0.375-0.625 0-0.2523-0.1599-0.43635-0.375-0.5625-0.10753-0.063-0.22806-0.0937-0.34375-0.0937zm-3.375 0.15625c-0.10482 0-0.21551 0.0369-0.3125 0.0937-0.19397 0.11378-0.3125 0.3037-0.3125 0.53125 0.00002 0.22753 0.11851 0.41749 0.3125 0.53125 0.097 0.0567 0.20427 0.125 0.3125 0.125 0.10825 0 0.2155-0.068 0.3125-0.125 0.19398-0.11378 0.3125-0.30371 0.3125-0.53125 0-0.22757-0.11848-0.41748-0.3125-0.53125-0.097-0.0569-0.20768-0.0937-0.3125-0.0937zm6.7812 0c-0.11289 0-0.21551 0.0369-0.3125 0.0937-0.19396 0.11378-0.3125 0.3037-0.3125 0.53125 0.00002 0.22753 0.11851 0.41749 0.3125 0.53125 0.097 0.0567 0.20427 0.125 0.3125 0.125 0.10824 0 0.24675-0.068 0.34375-0.125 0.19399-0.11378 0.28125-0.30371 0.28125-0.53125 0-0.22757-0.0872-0.41748-0.28125-0.53125-0.097-0.0569-0.23086-0.0937-0.34375-0.0937zm-10.156 0.3125c-0.094 0-0.19479 0.0118-0.28125 0.0625-0.17291 0.10142-0.28125 0.29719-0.28125 0.5 0.00002 0.20281 0.10833 0.39864 0.28125 0.5 0.0865 0.0508 0.1535 0.0625 0.25 0.0625 0.0965-0.0001 0.19485-0.0118 0.28125-0.0625 0.17292-0.10142 0.3125-0.29718 0.3125-0.5s-0.13957-0.39854-0.3125-0.5c-0.0865-0.0507-0.15605-0.0625-0.25-0.0625zm13.562 0c-0.10202 0-0.19479 0.0118-0.28125 0.0625-0.17291 0.10142-0.28125 0.29719-0.28125 0.5 0.00002 0.20281 0.10833 0.39864 0.28125 0.5 0.0865 0.0508 0.18475 0.0625 0.28125 0.0625 0.0965-0.0001 0.19475-0.0118 0.28125-0.0625 0.17292-0.10142 0.28125-0.29718 0.28125-0.5s-0.10832-0.39854-0.28125-0.5c-0.0865-0.0507-0.17923-0.0625-0.28125-0.0625zm-16.969 0.4375c-0.27101 0-0.5 0.25594-0.5 0.53125 0 0.2753 0.22899 0.46875 0.5 0.46875 0.27102 0 0.46875-0.19345 0.46875-0.46875 0-0.27531-0.19773-0.53125-0.46875-0.53125zm20.344 0c-0.27101 0-0.46875 0.25594-0.46875 0.53125 0 0.2753 0.19774 0.46875 0.46875 0.46875 0.27102 0 0.5-0.19345 0.5-0.46875 0-0.27531-0.22898-0.53125-0.5-0.53125zm-10.188 1.125c-0.12655-0.00001-0.22568 0.0557-0.34375 0.125-0.23612 0.13854-0.40625 0.37926-0.40625 0.65625 0.00005 0.27698 0.1701 0.54902 0.40625 0.6875 0.11809 0.0691 0.24324 0.0938 0.375 0.0937 0.13177 0 0.22569-0.0245 0.34375-0.0937 0.23612-0.13853 0.40625-0.41052 0.40625-0.6875 0-0.27703-0.17007-0.51773-0.40625-0.65625-0.11808-0.0692-0.24845-0.12499-0.375-0.125zm-3.375 0.0625c-0.11569 0-0.23622 0.0307-0.34375 0.0937-0.21505 0.12617-0.34375 0.34149-0.34375 0.59375 0.00003 0.25227 0.1287 0.49886 0.34375 0.625 0.10754 0.063 0.22376 0.0938 0.34375 0.0937 0.12001 0 0.23622-0.0308 0.34375-0.0937 0.21504-0.12617 0.34375-0.37273 0.34375-0.625 0-0.2523-0.12865-0.46759-0.34375-0.59375-0.10753-0.063-0.22806-0.0937-0.34375-0.0937zm6.7812 0c-0.11569 0-0.23622 0.0307-0.34375 0.0937-0.21505 0.12617-0.34375 0.34149-0.34375 0.59375 0.00002 0.25227 0.1287 0.49886 0.34375 0.625 0.10754 0.063 0.22375 0.0938 0.34375 0.0937 0.12001 0 0.23622-0.0308 0.34375-0.0937 0.21505-0.12617 0.375-0.37273 0.375-0.625 0-0.2523-0.1599-0.46759-0.375-0.59375-0.10753-0.063-0.22806-0.0937-0.34375-0.0937zm-10.188 0.15625c-0.11289 0-0.21551 0.0369-0.3125 0.0937-0.19399 0.11378-0.3125 0.3037-0.3125 0.53125 0.00002 0.22753 0.11851 0.44874 0.3125 0.5625 0.097 0.0567 0.20427 0.0937 0.3125 0.0937 0.10824 0 0.2155-0.0367 0.3125-0.0937 0.19398-0.11378 0.34375-0.33496 0.34375-0.5625 0-0.22757-0.14973-0.41748-0.34375-0.53125-0.097-0.0569-0.19961-0.0937-0.3125-0.0937zm13.594 0c-0.11289 0-0.21551 0.0369-0.3125 0.0937-0.19399 0.11378-0.3125 0.3037-0.3125 0.53125 0.00002 0.22753 0.11851 0.44874 0.3125 0.5625 0.097 0.0567 0.20427 0.0937 0.3125 0.0937 0.10824 0 0.2155-0.0367 0.3125-0.0937 0.19399-0.11378 0.3125-0.33496 0.3125-0.5625 0-0.22757-0.11848-0.41748-0.3125-0.53125-0.097-0.0569-0.19961-0.0937-0.3125-0.0937zm-16.969 0.3125c-0.10202 0-0.22604 0.0118-0.3125 0.0625-0.17291 0.10142-0.25 0.29719-0.25 0.5 0.00002 0.20281 0.0771 0.39864 0.25 0.5 0.0865 0.0508 0.216 0.0625 0.3125 0.0625 0.0965-0.0001 0.19475-0.0118 0.28125-0.0625 0.17292-0.10142 0.28125-0.29718 0.28125-0.5s-0.10832-0.39854-0.28125-0.5c-0.0865-0.0507-0.17923-0.0625-0.28125-0.0625zm20.344 0c-0.10202 0-0.19479 0.0118-0.28125 0.0625-0.17291 0.10142-0.25 0.29719-0.25 0.5 0.00002 0.20281 0.0771 0.39864 0.25 0.5 0.0865 0.0508 0.18475 0.0625 0.28125 0.0625 0.0965-0.0001 0.226-0.0118 0.3125-0.0625 0.17292-0.10142 0.28125-0.29718 0.28125-0.5s-0.10832-0.39854-0.28125-0.5c-0.0865-0.0507-0.21048-0.0625-0.3125-0.0625zm-23.75 0.4375c-0.27101 0-0.46875 0.25594-0.46875 0.53125 0 0.2753 0.19774 0.46875 0.46875 0.46875 0.27102 0 0.5-0.19345 0.5-0.46875 0-0.27531-0.22898-0.53125-0.5-0.53125zm27.156 0c-0.27101 0-0.5 0.25594-0.5 0.53125 0 0.2753 0.22899 0.46875 0.5 0.46875 0.27102 0 0.5-0.19345 0.5-0.46875 0-0.27531-0.22898-0.53125-0.5-0.53125zm-16.969 1.125c-0.12655-0.00001-0.25693 0.0557-0.375 0.125-0.23612 0.13854-0.375 0.37926-0.375 0.65625 0.00005 0.27698 0.13885 0.54902 0.375 0.6875 0.11809 0.0691 0.24324 0.0938 0.375 0.0937 0.13177 0 0.25694-0.0245 0.375-0.0937 0.23612-0.13853 0.375-0.41052 0.375-0.6875 0-0.27703-0.13882-0.51773-0.375-0.65625-0.11808-0.0692-0.24845-0.12499-0.375-0.125zm6.7812 0c-0.13462-0.00001-0.25693 0.0557-0.375 0.125-0.23612 0.13854-0.375 0.37926-0.375 0.65625 0.00005 0.27698 0.13885 0.54902 0.375 0.6875 0.11809 0.0691 0.24324 0.0938 0.375 0.0937 0.13177 0 0.28818-0.0245 0.40625-0.0937 0.23612-0.13853 0.34375-0.41052 0.34375-0.6875 0-0.27703-0.10757-0.51773-0.34375-0.65625-0.11808-0.0692-0.27163-0.12499-0.40625-0.125zm-10.156 0.0625c-0.11568 0-0.23622 0.0307-0.34375 0.0937-0.21505 0.12617-0.375 0.34149-0.375 0.59375 0.00002 0.25227 0.15995 0.49886 0.375 0.625 0.10754 0.063 0.19251 0.0938 0.3125 0.0937 0.12001 0 0.23622-0.0307 0.34375-0.0937 0.21505-0.12617 0.375-0.37273 0.375-0.625 0-0.2523-0.15989-0.46759-0.375-0.59375-0.10753-0.063-0.19682-0.0937-0.3125-0.0937zm13.562 0c-0.12375 0-0.23622 0.0307-0.34375 0.0937-0.21505 0.12617-0.375 0.34149-0.375 0.59375 0.00002 0.25227 0.15995 0.49886 0.375 0.625 0.10754 0.063 0.22375 0.0938 0.34375 0.0937 0.12001 0 0.23622-0.0307 0.34375-0.0937 0.21505-0.12617 0.375-0.37273 0.375-0.625 0-0.2523-0.15989-0.46759-0.375-0.59375-0.10753-0.063-0.22-0.0937-0.34375-0.0937zm-6.7812 0.0312c-0.14549-0.00001-0.27763 0.0496-0.40625 0.125-0.25718 0.15091-0.4375 0.41704-0.4375 0.71875 0.00008 0.30171 0.18028 0.59915 0.4375 0.75 0.0643 0.0377 0.14795 0.0785 0.21875 0.0937 0.0709 0.0152 0.1157 0.00002 0.1875 0 0.14354 0 0.27765-0.0184 0.40625-0.0937 0.25719-0.15091 0.4375-0.44828 0.4375-0.75 0-0.30177-0.18023-0.56785-0.4375-0.71875-0.12862-0.0754-0.26076-0.12499-0.40625-0.125zm-10.13 0.13c-0.11289 0-0.24676 0.0369-0.34375 0.0937-0.19399 0.11378-0.28125 0.3037-0.28125 0.53125 0.00002 0.22753 0.0873 0.44874 0.28125 0.5625 0.097 0.0567 0.23552 0.0937 0.34375 0.0937 0.10824 0 0.2155-0.0367 0.3125-0.0937 0.19398-0.11378 0.3125-0.33496 0.3125-0.5625 0-0.22757-0.11848-0.41748-0.3125-0.53125-0.097-0.0569-0.19961-0.0937-0.3125-0.0937zm20.344 0c-0.11289 0-0.21551 0.0369-0.3125 0.0937-0.19399 0.11378-0.28125 0.3037-0.28125 0.53125 0.00002 0.22753 0.0873 0.44874 0.28125 0.5625 0.097 0.0567 0.20427 0.0937 0.3125 0.0937 0.10824 0 0.24675-0.0367 0.34375-0.0937 0.19398-0.11378 0.3125-0.33496 0.3125-0.5625 0-0.22757-0.11848-0.41748-0.3125-0.53125-0.09-0.05-0.22-0.09-0.34-0.09zm-23.75 0.3125c-0.10202 0-0.19479 0.043-0.28125 0.0937-0.17291 0.10142-0.28125 0.26594-0.28125 0.46875 0.00002 0.20281 0.10833 0.39865 0.28125 0.5 0.0865 0.0508 0.18475 0.0625 0.28125 0.0625 0.0965-0.0001 0.19475-0.0118 0.28125-0.0625 0.17291-0.10142 0.28125-0.29718 0.28125-0.5s-0.10832-0.36729-0.28125-0.46875c-0.0865-0.0507-0.17923-0.0937-0.28125-0.0937zm27.156 0c-0.0939 0-0.16354 0.043-0.25 0.0937-0.17291 0.10142-0.3125 0.26594-0.3125 0.46875 0.00002 0.20281 0.13958 0.39865 0.3125 0.5 0.0865 0.0508 0.1535 0.0625 0.25 0.0625 0.0965-0.0001 0.19485-0.0118 0.28125-0.0625 0.17292-0.10142 0.28125-0.29718 0.28125-0.5s-0.10832-0.36729-0.28125-0.46875c-0.0865-0.0507-0.1873-0.0937-0.28125-0.0937zm-30.53 0.44c-0.27101 0-0.5 0.25594-0.5 0.53125 0 0.2753 0.22899 0.5 0.5 0.5 0.27102 0 0.46875-0.2247 0.46875-0.5 0-0.27531-0.19773-0.53125-0.46875-0.53125zm33.938 0c-0.27101 0-0.5 0.25594-0.5 0.53125 0 0.2753 0.22899 0.5 0.5 0.5 0.27102 0 0.5-0.2247 0.5-0.5 0-0.27531-0.22898-0.53125-0.5-0.53125zm-23.94 1.16c-0.0622 0.0173-0.12847 0.0591-0.1875 0.0937-0.23612 0.13854-0.40625 0.37926-0.40625 0.65625 0.00005 0.27698 0.1701 0.54902 0.40625 0.6875 0.11809 0.0691 0.21199 0.0938 0.34375 0.0937 0.13177 0 0.25694-0.0245 0.375-0.0937 0.23612-0.13853 0.40625-0.41052 0.40625-0.6875 0-0.27703-0.17007-0.51773-0.40625-0.65625-0.17712-0.10383-0.3446-0.14567-0.53125-0.0937zm13.562 0c-0.0652 0.0173-0.12847 0.0591-0.1875 0.0937-0.23612 0.13854-0.40625 0.37926-0.40625 0.65625 0.00006 0.27698 0.1701 0.54902 0.40625 0.6875 0.11809 0.0691 0.24324 0.0938 0.375 0.0937 0.13177 0 0.25694-0.0245 0.375-0.0937 0.23612-0.13853 0.40625-0.41052 0.40625-0.6875 0-0.27703-0.17007-0.51773-0.40625-0.65625-0.17712-0.10383-0.36678-0.14567-0.5625-0.0937zm-16.781 0.0312c-0.12376 0-0.26747 0.0307-0.375 0.0937-0.21505 0.12617-0.34375 0.34149-0.34375 0.59375 0.00002 0.25227 0.1287 0.49886 0.34375 0.625 0.10754 0.063 0.255 0.0938 0.375 0.0937 0.12001 0 0.23622-0.0308 0.34375-0.0937 0.21505-0.12617 0.34375-0.37273 0.34375-0.625 0-0.2523-0.12864-0.46759-0.34375-0.59375-0.10753-0.063-0.21999-0.0937-0.34375-0.0937zm20.375 0c-0.11568 0-0.23622 0.0307-0.34375 0.0937-0.21505 0.12617-0.34375 0.34149-0.34375 0.59375 0.00002 0.25227 0.1287 0.49886 0.34375 0.625 0.10754 0.063 0.19251 0.0938 0.3125 0.0937 0.12001 0 0.26747-0.0308 0.375-0.0937 0.21505-0.12617 0.34375-0.37273 0.34375-0.625 0-0.2523-0.12864-0.46759-0.34375-0.59375-0.10753-0.063-0.22807-0.0937-0.34375-0.0937zm-13.594 0.0312c-0.13742-0.00001-0.27763 0.0496-0.40625 0.125-0.25718 0.15091-0.40625 0.41704-0.40625 0.71875 0.00008 0.30171 0.14903 0.59915 0.40625 0.75 0.0643 0.0377 0.1247 0.0785 0.1875 0.0937s0.14695 0.00002 0.21875 0c0.14354 0 0.27765-0.0184 0.40625-0.0937 0.25719-0.15091 0.40625-0.44828 0.40625-0.75 0-0.30176-0.14898-0.56785-0.40625-0.71875-0.12861-0.0754-0.26883-0.12499-0.40625-0.125zm6.7812 0c-0.14549-0.00001-0.27763 0.0496-0.40625 0.125-0.25718 0.15091-0.40625 0.41704-0.40625 0.71875 0.00008 0.30171 0.14902 0.59915 0.40625 0.75 0.0643 0.0377 0.14795 0.0785 0.21875 0.0937 0.0709 0.0152 0.1157 0.00002 0.1875 0 0.14354 0 0.3089-0.0184 0.4375-0.0937 0.25719-0.15091 0.40625-0.44828 0.40625-0.75 0-0.30176-0.14898-0.56785-0.40625-0.71875-0.12862-0.0754-0.29201-0.12499-0.4375-0.125zm-16.97 0.15c-0.11289 0-0.21551 0.006-0.3125 0.0625-0.19398 0.11378-0.28125 0.3037-0.28125 0.53125 0.00002 0.22753 0.0873 0.44874 0.28125 0.5625 0.097 0.0567 0.20427 0.0937 0.3125 0.0937 0.10824 0 0.2155-0.0367 0.3125-0.0937 0.19399-0.11378 0.3125-0.33496 0.3125-0.5625 0-0.22757-0.11848-0.41748-0.3125-0.53125-0.097-0.0569-0.19961-0.0625-0.3125-0.0625zm27.156 0c-0.10482 0-0.18426 0.006-0.28125 0.0625-0.19397 0.11378-0.34375 0.3037-0.34375 0.53125 0.00002 0.22753 0.14976 0.44874 0.34375 0.5625 0.097 0.0567 0.17302 0.0937 0.28125 0.0937 0.10825 0 0.2155-0.0367 0.3125-0.0937 0.19398-0.11378 0.3125-0.33496 0.3125-0.5625 0-0.22757-0.11848-0.41748-0.3125-0.53125-0.097-0.0569-0.20768-0.0625-0.3125-0.0625zm-13.562 0.0937c-0.15636-0.00001-0.29835 0.0121-0.4375 0.0937-0.27825 0.16327-0.46875 0.51732-0.46875 0.84375 0.00008 0.32643 0.19045 0.61804 0.46875 0.78125 0.0696 0.0409 0.1109 0.076 0.1875 0.0937 0.0767 0.0178 0.1723 0.00001 0.25 0 0.1553 0 0.29835-0.0122 0.4375-0.0937 0.27826-0.16328 0.4375-0.45481 0.4375-0.78125 0-0.32649-0.15913-0.68051-0.4375-0.84375-0.13916-0.0816-0.28114-0.0937-0.4375-0.0937zm-16.98 0.2c-0.10202 0-0.22604 0.043-0.3125 0.0937-0.17291 0.10142-0.28125 0.26594-0.28125 0.46875 0.00002 0.20281 0.10833 0.39865 0.28125 0.5 0.0865 0.0508 0.216 0.0625 0.3125 0.0625 0.0965-0.0001 0.19475-0.0118 0.28125-0.0625 0.17291-0.10142 0.25-0.29718 0.25-0.5s-0.0771-0.36729-0.25-0.46875c-0.0865-0.0507-0.17923-0.0937-0.28125-0.0937zm33.938 0c-0.0939 0-0.19479 0.043-0.28125 0.0937-0.17291 0.10142-0.28125 0.26594-0.28125 0.46875 0.00002 0.20281 0.10833 0.39865 0.28125 0.5 0.0865 0.0508 0.18475 0.0625 0.28125 0.0625 0.0965-0.0001 0.19475-0.0118 0.28125-0.0625 0.17292-0.10142 0.28125-0.29718 0.28125-0.5s-0.10832-0.36729-0.28125-0.46875c-0.0865-0.0507-0.1873-0.0937-0.28125-0.0937zm-37.344 0.4375c-0.27101 0-0.5 0.25594-0.5 0.53125 0 0.2753 0.22899 0.5 0.5 0.5 0.27102 0 0.5-0.2247 0.5-0.5 0-0.27531-0.22898-0.53125-0.5-0.53125zm40.75 0c-0.27101 0-0.5 0.25594-0.5 0.53125 0 0.2753 0.22899 0.5 0.5 0.5 0.27102 0 0.46875-0.2247 0.46875-0.5 0-0.27531-0.19773-0.53125-0.46875-0.53125zm-30.57 1.15c-0.13462-0.00001-0.28818 0.0245-0.40625 0.0937-0.23612 0.13854-0.34375 0.37926-0.34375 0.65625 0.00005 0.27698 0.1076 0.54902 0.34375 0.6875 0.11809 0.0691 0.27449 0.0938 0.40625 0.0937 0.13177 0 0.25694-0.0245 0.375-0.0937 0.23612-0.13853 0.375-0.41052 0.375-0.6875 0-0.27703-0.13882-0.51773-0.375-0.65625-0.11808-0.0692-0.24038-0.0937-0.375-0.0937zm20.344 0c-0.13462-0.00001-0.25693 0.0245-0.375 0.0937-0.23612 0.13854-0.34375 0.37926-0.34375 0.65625 0.00005 0.27698 0.1076 0.54902 0.34375 0.6875 0.11809 0.0691 0.24324 0.0938 0.375 0.0937 0.13177 0 0.28819-0.0245 0.40625-0.0937 0.23612-0.13853 0.375-0.41052 0.375-0.6875 0-0.27703-0.13882-0.51773-0.375-0.65625-0.12-0.07-0.27-0.09-0.41-0.09zm-23.75 0.0312c-0.12376 0-0.23622 0.0307-0.34375 0.0937-0.21505 0.12617-0.375 0.34149-0.375 0.59375 0.00002 0.25227 0.15995 0.49886 0.375 0.625 0.10754 0.063 0.22375 0.0938 0.34375 0.0937 0.12001 0 0.26747-0.0308 0.375-0.0937 0.21505-0.12617 0.34375-0.37273 0.34375-0.625 0-0.2523-0.12865-0.46759-0.34375-0.59375-0.10753-0.063-0.25124-0.0937-0.375-0.0937zm27.156 0c-0.11569 0-0.23622 0.0307-0.34375 0.0937-0.21505 0.12617-0.34375 0.34149-0.34375 0.59375 0.00003 0.25227 0.1287 0.49886 0.34375 0.625 0.10754 0.063 0.22376 0.0938 0.34375 0.0937 0.12001 0 0.23621-0.0308 0.34375-0.0937 0.21504-0.12617 0.375-0.37273 0.375-0.625 0-0.2523-0.1599-0.46759-0.375-0.59375-0.10753-0.063-0.22806-0.0937-0.34375-0.0937zm-20.375 0.0625c-0.14549-0.00001-0.27764 0.0183-0.40625 0.0937-0.25718 0.1509-0.4375 0.41704-0.4375 0.71875 0.00008 0.30171 0.18028 0.59915 0.4375 0.75 0.0643 0.0377 0.14795 0.1098 0.21875 0.125 0.0709 0.0152 0.1157 0.00002 0.1875 0 0.14354 0 0.27765-0.0496 0.40625-0.125 0.25719-0.15091 0.4375-0.44828 0.4375-0.75 0-0.30176-0.18023-0.56786-0.4375-0.71875-0.12861-0.0754-0.26076-0.0937-0.40625-0.0937zm13.594 0c-0.14549-0.00001-0.30888 0.0183-0.4375 0.0937-0.25718 0.1509-0.40625 0.41704-0.40625 0.71875 0.00008 0.30171 0.14902 0.59915 0.40625 0.75 0.0643 0.0377 0.1791 0.1098 0.25 0.125s0.1157 0.00002 0.1875 0c0.14354 0 0.27765-0.0496 0.40625-0.125 0.25719-0.15091 0.4375-0.44828 0.4375-0.75 0-0.30176-0.18023-0.56786-0.4375-0.71875-0.12862-0.0754-0.26076-0.0937-0.40625-0.0937zm-23.75 0.125c-0.11289 0-0.24676 0.006-0.34375 0.0625-0.19397 0.11378-0.3125 0.3037-0.3125 0.53125 0.00002 0.22753 0.11851 0.44874 0.3125 0.5625 0.097 0.0567 0.23552 0.0937 0.34375 0.0937 0.10824 0 0.2155-0.0367 0.3125-0.0937 0.19399-0.11378 0.28125-0.33496 0.28125-0.5625 0-0.22757-0.0872-0.41748-0.28125-0.53125-0.097-0.0569-0.19961-0.0625-0.3125-0.0625zm33.938 0c-0.10482 0-0.21551 0.006-0.3125 0.0625-0.19397 0.11378-0.3125 0.3037-0.3125 0.53125 0.00002 0.22753 0.11851 0.44874 0.3125 0.5625 0.097 0.0567 0.20427 0.0937 0.3125 0.0937 0.10824 0 0.2155-0.0367 0.3125-0.0937 0.19398-0.11378 0.3125-0.33496 0.3125-0.5625 0-0.22757-0.11848-0.41748-0.3125-0.53125-0.097-0.0569-0.20768-0.0625-0.3125-0.0625zm-20.375 0.0937c-0.16443-0.00001-0.3296 0.0434-0.46875 0.125-0.27825 0.16327-0.40625 0.48606-0.40625 0.8125 0.00008 0.32642 0.12795 0.61804 0.40625 0.78125 0.0696 0.0409 0.14215 0.076 0.21875 0.0937 0.0767 0.0178 0.1723 0.00001 0.25 0 0.1553 0 0.3296-0.0122 0.46875-0.0937 0.27826-0.16328 0.40625-0.45482 0.40625-0.78125 0-0.3265-0.12789-0.64926-0.40625-0.8125-0.13915-0.0816-0.30432-0.12499-0.46875-0.125zm6.7812 0c-0.15636-0.00001-0.29835 0.0434-0.4375 0.125-0.27825 0.16327-0.4375 0.48606-0.4375 0.8125 0.00008 0.32642 0.1592 0.61804 0.4375 0.78125 0.0696 0.0409 0.14215 0.076 0.21875 0.0937 0.0767 0.0178 0.14105 0.00001 0.21875 0 0.1553 0 0.3296-0.0122 0.46875-0.0937 0.27826-0.16328 0.4375-0.45482 0.4375-0.78125 0-0.3265-0.15913-0.64926-0.4375-0.8125-0.13915-0.0816-0.31239-0.12499-0.46875-0.125zm-23.75 0.1875c-0.094 0-0.19479 0.043-0.28125 0.0937-0.17291 0.10142-0.28125 0.29719-0.28125 0.5 0.00002 0.20281 0.10833 0.3674 0.28125 0.46875 0.0865 0.0508 0.18475 0.0625 0.28125 0.0625 0.0965-0.0001 0.19485-0.0118 0.28125-0.0625 0.17292-0.10142 0.28125-0.26593 0.28125-0.46875s-0.10832-0.39854-0.28125-0.5c-0.0865-0.0507-0.1873-0.0937-0.28125-0.0937zm40.75 0c-0.10202 0-0.22604 0.043-0.3125 0.0937-0.17291 0.10142-0.28125 0.29719-0.28125 0.5 0.00002 0.20281 0.10833 0.3674 0.28125 0.46875 0.0865 0.0508 0.216 0.0625 0.3125 0.0625 0.0965-0.0001 0.19475-0.0118 0.28125-0.0625 0.17291-0.10142 0.25-0.26593 0.25-0.46875s-0.0771-0.39854-0.25-0.5c-0.0865-0.0507-0.17923-0.0937-0.28125-0.0937zm-20.406 0.1875c-0.15916-0.00001-0.28782 0.0372-0.4375 0.125-0.29933 0.17565-0.5 0.49258-0.5 0.84375 0.0001 0.35114 0.20063 0.69942 0.5 0.875 0.14971 0.0878 0.3017 0.12501 0.46875 0.125 0.16705-0.00002 0.28783-0.0372 0.4375-0.125 0.29933-0.17564 0.53125-0.52385 0.53125-0.875 0-0.35124-0.23178-0.66812-0.53125-0.84375-0.1497-0.0878-0.30959-0.12499-0.46875-0.125zm-23.75 0.25c-0.27101 0-0.5 0.25594-0.5 0.53125 0 0.2753 0.22899 0.5 0.5 0.5 0.27102 0 0.5-0.2247 0.5-0.5 0-0.27531-0.22898-0.53125-0.5-0.53125zm47.531 0c-0.27101 0-0.46875 0.25594-0.46875 0.53125 0 0.2753 0.19774 0.5 0.46875 0.5 0.27102 0 0.5-0.2247 0.5-0.5 0-0.27531-0.22898-0.53125-0.5-0.53125zm-37.344 1.1562c-0.13462-0.00001-0.25693 0.0245-0.375 0.0937-0.23612 0.13854-0.40625 0.37926-0.40625 0.65625 0.00005 0.27698 0.1701 0.54902 0.40625 0.6875 0.11809 0.0691 0.24324 0.0938 0.375 0.0937 0.13177 0 0.28818-0.0245 0.40625-0.0937 0.23612-0.13853 0.375-0.41052 0.375-0.6875 0-0.27703-0.13882-0.51773-0.375-0.65625-0.11808-0.0692-0.27163-0.0937-0.40625-0.0937zm27.156 0c-0.12655-0.00001-0.25693 0.0245-0.375 0.0937-0.23612 0.13854-0.375 0.37926-0.375 0.65625 0.00005 0.27698 0.13885 0.54902 0.375 0.6875 0.11809 0.0691 0.24324 0.0938 0.375 0.0937 0.13177 0 0.25694-0.0245 0.375-0.0937 0.23612-0.13853 0.40625-0.41052 0.40625-0.6875 0-0.27703-0.17007-0.51773-0.40625-0.65625-0.11808-0.0692-0.24845-0.0937-0.375-0.0937zm-30.562 0.0312c-0.11569 0-0.23622 0.0307-0.34375 0.0937-0.21505 0.12617-0.34375 0.34149-0.34375 0.59375 0.00002 0.25227 0.1287 0.49886 0.34375 0.625 0.10754 0.063 0.255 0.0938 0.375 0.0937 0.12001 0 0.20497-0.0308 0.3125-0.0937 0.21505-0.12617 0.34375-0.37273 0.34375-0.625 0-0.2523-0.12865-0.46759-0.34375-0.59375-0.10753-0.063-0.22806-0.0937-0.34375-0.0937zm33.969 0c-0.11569 0-0.23622 0.0307-0.34375 0.0937-0.21505 0.12617-0.34375 0.34149-0.34375 0.59375 0.00002 0.25227 0.1287 0.49886 0.34375 0.625 0.10754 0.063 0.22375 0.0938 0.34375 0.0937 0.12001 0 0.23622-0.0308 0.34375-0.0937 0.21505-0.12617 0.34375-0.37273 0.34375-0.625 0-0.2523-0.12865-0.46759-0.34375-0.59375-0.10753-0.063-0.22806-0.0937-0.34375-0.0937zm-27.156 0.0625c-0.14549-0.00001-0.30889 0.0183-0.4375 0.0937-0.25718 0.1509-0.40625 0.41704-0.40625 0.71875 0.00008 0.30171 0.14902 0.6304 0.40625 0.78125 0.0643 0.0377 0.14785 0.0785 0.21875 0.0937s0.14695 0.00002 0.21875 0c0.14354 0 0.27765-0.0184 0.40625-0.0937 0.25719-0.15091 0.40625-0.47953 0.40625-0.78125 0-0.30176-0.14898-0.56786-0.40625-0.71875-0.12861-0.0754-0.26076-0.0937-0.40625-0.0937zm20.344 0c-0.14549-0.00001-0.27763 0.0183-0.40625 0.0937-0.25718 0.1509-0.4375 0.41704-0.4375 0.71875 0.00008 0.30171 0.18028 0.6304 0.4375 0.78125 0.0643 0.0377 0.14785 0.0785 0.21875 0.0937s0.1157 0.00002 0.1875 0c0.14354 0 0.3089-0.0184 0.4375-0.0937 0.25719-0.15091 0.40625-0.47953 0.40625-0.78125 0-0.30176-0.14898-0.56786-0.40625-0.71875-0.12862-0.0754-0.29201-0.0937-0.4375-0.0937zm-30.531 0.125c-0.10482 0-0.21551 0.0369-0.3125 0.0937-0.19397 0.11378-0.3125 0.27245-0.3125 0.5 0.00002 0.22753 0.11851 0.44874 0.3125 0.5625 0.097 0.0567 0.20427 0.0937 0.3125 0.0937 0.10824 0 0.2155-0.0367 0.3125-0.0937 0.19398-0.11378 0.3125-0.33496 0.3125-0.5625 0-0.22757-0.11848-0.38623-0.3125-0.5-0.097-0.0569-0.20768-0.0937-0.3125-0.0937zm40.75 0c-0.11289 0-0.24676 0.0369-0.34375 0.0937-0.19396 0.11378-0.3125 0.27245-0.3125 0.5 0.00002 0.22753 0.11851 0.44874 0.3125 0.5625 0.097 0.0567 0.23552 0.0937 0.34375 0.0937 0.10824 0 0.2155-0.0367 0.3125-0.0937 0.19399-0.11378 0.28125-0.33496 0.28125-0.5625 0-0.22757-0.0872-0.38623-0.28125-0.5-0.097-0.0569-0.19961-0.0937-0.3125-0.0937zm-27.188 0.0937c-0.15636-0.00001-0.29835 0.0434-0.4375 0.125-0.27825 0.16327-0.4375 0.48606-0.4375 0.8125 0.00009 0.32642 0.1592 0.61804 0.4375 0.78125 0.0696 0.0409 0.14215 0.076 0.21875 0.0937 0.0767 0.0178 0.14105 0.00001 0.21875 0 0.1553 0 0.3296-0.0122 0.46875-0.0937 0.27826-0.16328 0.4375-0.45482 0.4375-0.78125 0-0.3265-0.15913-0.64926-0.4375-0.8125-0.13916-0.0816-0.31239-0.12499-0.46875-0.125zm13.594 0c-0.15636-0.00001-0.3296 0.0434-0.46875 0.125-0.27825 0.16327-0.4375 0.48606-0.4375 0.8125 0.00008 0.32642 0.1592 0.61804 0.4375 0.78125 0.0696 0.0409 0.1734 0.076 0.25 0.0937 0.0767 0.0178 0.14105 0.00001 0.21875 0 0.1553 0 0.29835-0.0122 0.4375-0.0937 0.27826-0.16328 0.46875-0.45482 0.46875-0.78125 0-0.3265-0.19038-0.64926-0.46875-0.8125-0.13915-0.0816-0.28114-0.12499-0.4375-0.125zm-30.562 0.21875c-0.094 0-0.16354 0.0118-0.25 0.0625-0.17291 0.10142-0.3125 0.29719-0.3125 0.5 0.00002 0.20281 0.13958 0.3674 0.3125 0.46875 0.0865 0.0508 0.1535 0.0937 0.25 0.0937 0.0965-0.0001 0.19475-0.043 0.28125-0.0937 0.17292-0.10142 0.28125-0.26593 0.28125-0.46875s-0.10832-0.39854-0.28125-0.5c-0.0865-0.0507-0.1873-0.0625-0.28125-0.0625zm47.531 0c-0.10202 0-0.19479 0.0118-0.28125 0.0625-0.17291 0.10142-0.28125 0.29719-0.28125 0.5 0.00002 0.20281 0.10833 0.3674 0.28125 0.46875 0.0865 0.0508 0.18475 0.0937 0.28125 0.0937 0.0965-0.0001 0.19475-0.043 0.28125-0.0937 0.17291-0.10142 0.28125-0.26593 0.28125-0.46875s-0.10832-0.39854-0.28125-0.5c-0.0865-0.0507-0.17923-0.0625-0.28125-0.0625zm-27.156 0.15625c-0.15916-0.00001-0.31907 0.0372-0.46875 0.125-0.29933 0.17565-0.5 0.52383-0.5 0.875 0.00009 0.35114 0.20063 0.66817 0.5 0.84375 0.14971 0.0878 0.3017 0.12501 0.46875 0.125 0.16706-0.00002 0.31908-0.0372 0.46875-0.125 0.29933-0.17564 0.53125-0.4926 0.53125-0.84375 0-0.35124-0.23178-0.69937-0.53125-0.875-0.1497-0.0878-0.30959-0.12499-0.46875-0.125zm6.7812 0c-0.16723-0.00001-0.31907 0.0372-0.46875 0.125-0.29933 0.17565-0.5 0.52383-0.5 0.875 0.0001 0.35114 0.20063 0.66817 0.5 0.84375 0.14971 0.0878 0.3017 0.12501 0.46875 0.125 0.16705-0.00002 0.35033-0.0372 0.5-0.125 0.29933-0.17564 0.46875-0.4926 0.46875-0.84375 0-0.35124-0.16929-0.69937-0.46875-0.875-0.1497-0.0878-0.33277-0.12499-0.5-0.125zm-30.562 0.28125c-0.27101 0-0.46875 0.22469-0.46875 0.5 0 0.2753 0.19774 0.5 0.46875 0.5 0.27102 0 0.5-0.2247 0.5-0.5 0-0.27531-0.22898-0.5-0.5-0.5zm54.344 0c-0.27101 0-0.5 0.22469-0.5 0.5 0 0.2753 0.22899 0.5 0.5 0.5 0.27102 0 0.46875-0.2247 0.46875-0.5 0-0.27531-0.19773-0.5-0.46875-0.5zm-27.156 0.25c-0.1781-0.00001-0.37102 0.031-0.53125 0.125-0.32039 0.18801-0.5 0.56163-0.5 0.9375 0.00009 0.37587 0.17956 0.71831 0.5 0.90625 0.16026 0.0941 0.35243 0.12501 0.53125 0.125 0.17883-0.00002 0.37103-0.031 0.53125-0.125 0.3204-0.18803 0.5-0.53036 0.5-0.90625 0-0.37597-0.17947-0.74952-0.5-0.9375-0.16025-0.0939-0.35315-0.12499-0.53125-0.125zm-16.95 0.87c-0.13462-0.00001-0.28818 0.0245-0.40625 0.0937-0.23612 0.13854-0.375 0.37926-0.375 0.65625 0.00005 0.27698 0.13885 0.54902 0.375 0.6875 0.11809 0.0691 0.27449 0.12501 0.40625 0.125 0.13177 0 0.25693-0.0558 0.375-0.125 0.23612-0.13853 0.34375-0.41052 0.34375-0.6875 0-0.27703-0.10757-0.51773-0.34375-0.65625-0.11808-0.0692-0.24038-0.0937-0.375-0.0937zm33.938 0c-0.12655-0.00001-0.25693 0.0245-0.375 0.0937-0.23612 0.13854-0.40625 0.37926-0.40625 0.65625 0.00005 0.27698 0.1701 0.54902 0.40625 0.6875 0.11809 0.0691 0.24324 0.12501 0.375 0.125 0.13177 0 0.25694-0.0558 0.375-0.125 0.23612-0.13853 0.375-0.41052 0.375-0.6875 0-0.27703-0.13882-0.51773-0.375-0.65625-0.11808-0.0692-0.24845-0.0937-0.375-0.0937zm-37.344 0.0312c-0.11569 0-0.23622 0.0307-0.34375 0.0937-0.21505 0.12617-0.34375 0.34149-0.34375 0.59375 0.00003 0.25227 0.1287 0.49886 0.34375 0.625 0.10754 0.063 0.22375 0.0938 0.34375 0.0937 0.12001 0 0.23622-0.0308 0.34375-0.0937 0.21504-0.12617 0.34375-0.37273 0.34375-0.625 0-0.2523-0.12865-0.46759-0.34375-0.59375-0.10753-0.063-0.22806-0.0937-0.34375-0.0937zm40.719 0c-0.11569 0-0.23622 0.0307-0.34375 0.0937-0.21505 0.12617-0.34375 0.34149-0.34375 0.59375 0.00002 0.25227 0.1287 0.49886 0.34375 0.625 0.10754 0.063 0.255 0.0938 0.375 0.0937 0.12001 0 0.20497-0.0308 0.3125-0.0937 0.21505-0.12617 0.34375-0.37273 0.34375-0.625 0-0.2523-0.12865-0.46759-0.34375-0.59375-0.10753-0.063-0.22806-0.0937-0.34375-0.0937zm-33.938 0.0625c-0.14549-0.00001-0.27764 0.0496-0.40625 0.125-0.25718 0.1509-0.4375 0.41704-0.4375 0.71875 0.00008 0.30171 0.18027 0.59915 0.4375 0.75 0.0643 0.0377 0.14785 0.0785 0.21875 0.0937s0.1157 0.00002 0.1875 0c0.14354 0 0.3089-0.0184 0.4375-0.0937 0.25719-0.15091 0.40625-0.44828 0.40625-0.75 0-0.30176-0.14898-0.56786-0.40625-0.71875-0.12862-0.0754-0.29201-0.12499-0.4375-0.125zm27.156 0c-0.14549-0.00001-0.30888 0.0496-0.4375 0.125-0.25718 0.1509-0.375 0.41704-0.375 0.71875 0.00008 0.30171 0.11778 0.59915 0.375 0.75 0.0643 0.0377 0.1792 0.0785 0.25 0.0937 0.0709 0.0152 0.1157 0.00002 0.1875 0 0.14354 0 0.27765-0.0184 0.40625-0.0937 0.25719-0.15091 0.4375-0.44828 0.4375-0.75 0-0.30176-0.18023-0.56786-0.4375-0.71875-0.12862-0.0754-0.26076-0.12499-0.40625-0.125zm-37.344 0.125c-0.10482 0-0.21551 0.0369-0.3125 0.0937-0.19397 0.11378-0.3125 0.27245-0.3125 0.5 0.00002 0.22753 0.11851 0.44874 0.3125 0.5625 0.097 0.0567 0.20427 0.0937 0.3125 0.0937 0.10824 0 0.2155-0.0367 0.3125-0.0937 0.19398-0.11378 0.3125-0.33496 0.3125-0.5625 0-0.22757-0.11848-0.38623-0.3125-0.5-0.097-0.0569-0.20768-0.0937-0.3125-0.0937zm47.531 0c-0.11289 0-0.21551 0.0369-0.3125 0.0937-0.19399 0.11378-0.28125 0.27245-0.28125 0.5 0.00002 0.22753 0.0873 0.44874 0.28125 0.5625 0.097 0.0567 0.20427 0.0937 0.3125 0.0937 0.10824 0 0.24675-0.0367 0.34375-0.0937 0.19399-0.11378 0.28125-0.33496 0.28125-0.5625 0-0.22757-0.0872-0.38623-0.28125-0.5-0.097-0.0569-0.23086-0.0937-0.34375-0.0937zm-33.938 0.0937c-0.15636-0.00001-0.3296 0.0434-0.46875 0.125-0.27825 0.16327-0.4375 0.48606-0.4375 0.8125 0.00008 0.32642 0.1592 0.61804 0.4375 0.78125 0.0696 0.0409 0.14215 0.076 0.21875 0.0937 0.0767 0.0178 0.1723 0.00001 0.25 0 0.1553 0 0.29835-0.0122 0.4375-0.0937 0.27826-0.16328 0.46875-0.45482 0.46875-0.78125 0-0.3265-0.19038-0.64926-0.46875-0.8125-0.13916-0.0816-0.28114-0.12499-0.4375-0.125zm20.344 0c-0.15636-0.00001-0.29835 0.0434-0.4375 0.125-0.27825 0.16327-0.46875 0.48606-0.46875 0.8125 0.00008 0.32642 0.19045 0.61804 0.46875 0.78125 0.0696 0.0409 0.14215 0.076 0.21875 0.0937 0.0767 0.0178 0.14105 0.00001 0.21875 0 0.1553 0 0.3296-0.0122 0.46875-0.0937 0.27826-0.16328 0.4375-0.45482 0.4375-0.78125 0-0.3265-0.15913-0.64926-0.4375-0.8125-0.13915-0.0816-0.31239-0.12499-0.46875-0.125zm-37.344 0.21875c-0.10202 0-0.19479 0.0118-0.28125 0.0625-0.17291 0.10142-0.25 0.29719-0.25 0.5 0.00002 0.20281 0.0771 0.39865 0.25 0.5 0.0865 0.0508 0.18475 0.0625 0.28125 0.0625 0.0965-0.0001 0.226-0.0118 0.3125-0.0625 0.17292-0.10142 0.28125-0.29718 0.28125-0.5s-0.10832-0.39854-0.28125-0.5c-0.0865-0.0507-0.21048-0.0625-0.3125-0.0625zm54.344 0c-0.10202 0-0.22604 0.0118-0.3125 0.0625-0.17291 0.10142-0.25 0.29719-0.25 0.5 0.00002 0.20281 0.0771 0.39865 0.25 0.5 0.0865 0.0508 0.216 0.0625 0.3125 0.0625 0.0965-0.0001 0.19485-0.0118 0.28125-0.0625 0.17292-0.10142 0.28125-0.29718 0.28125-0.5s-0.10832-0.39854-0.28125-0.5c-0.0865-0.0507-0.17923-0.0625-0.28125-0.0625zm-33.969 0.15625c-0.16723-0.00001-0.31906 0.0372-0.46875 0.125-0.29933 0.17565-0.5 0.52383-0.5 0.875 0.0001 0.35114 0.20063 0.66817 0.5 0.84375 0.14972 0.0878 0.3017 0.12501 0.46875 0.125 0.16706-0.00002 0.35033-0.0372 0.5-0.125 0.29933-0.17564 0.46875-0.4926 0.46875-0.84375 0-0.35124-0.16928-0.69937-0.46875-0.875-0.1497-0.0878-0.33277-0.12499-0.5-0.125zm13.594 0c-0.16723-0.00001-0.35032 0.0372-0.5 0.125-0.29933 0.17565-0.46875 0.52383-0.46875 0.875 0.0001 0.35114 0.16938 0.66817 0.46875 0.84375 0.14971 0.0878 0.33295 0.12501 0.5 0.125 0.16705-0.00002 0.31908-0.0372 0.46875-0.125 0.29933-0.17564 0.5-0.4926 0.5-0.84375 0-0.35124-0.20054-0.69937-0.5-0.875-0.1497-0.0878-0.30152-0.12499-0.46875-0.125zm-10.188 0.53125c-0.17003-0.00001-0.33977 0.031-0.5 0.125-0.32039 0.18801-0.53125 0.56163-0.53125 0.9375 0.00009 0.37587 0.21081 0.71831 0.53125 0.90625 0.16026 0.0941 0.32119 0.12501 0.5 0.125 0.17883-0.00002 0.33978-0.031 0.5-0.125 0.3204-0.18803 0.53125-0.53036 0.53125-0.90625 0-0.37597-0.21072-0.74952-0.53125-0.9375-0.16025-0.0939-0.32997-0.12499-0.5-0.125zm6.7812 0c-0.17809-0.00001-0.33977 0.031-0.5 0.125-0.32039 0.18801-0.53125 0.56163-0.53125 0.9375 0.00009 0.37587 0.2108 0.71831 0.53125 0.90625 0.16025 0.0941 0.32118 0.12501 0.5 0.125 0.17883-0.00002 0.37103-0.031 0.53125-0.125 0.3204-0.18803 0.53125-0.53036 0.53125-0.90625 0-0.37597-0.21072-0.74952-0.53125-0.9375-0.16025-0.0939-0.35316-0.12499-0.53125-0.125zm-3.375 0.65625c-0.60979 0-1.125 0.50556-1.125 1.125 0 0.61943 0.51521 1.0938 1.125 1.0938 0.60981 0 1.0938-0.47432 1.0938-1.0938 0-0.61944-0.48394-1.125-1.0938-1.125zm-20.375 0.21875c-0.12655-0.00001-0.25693 0.0557-0.375 0.125-0.23612 0.13854-0.40625 0.37926-0.40625 0.65625 0.00005 0.27698 0.1701 0.54902 0.40625 0.6875 0.11809 0.0691 0.24324 0.0938 0.375 0.0937 0.13177 0 0.25694-0.0245 0.375-0.0937 0.23612-0.13853 0.375-0.41052 0.375-0.6875 0-0.27703-0.13882-0.51773-0.375-0.65625-0.11808-0.0692-0.24845-0.12499-0.375-0.125zm40.75 0c-0.13462-0.00001-0.28818 0.0557-0.40625 0.125-0.23612 0.13854-0.375 0.37926-0.375 0.65625 0.00005 0.27698 0.13885 0.54902 0.375 0.6875 0.11809 0.0691 0.27449 0.0938 0.40625 0.0937 0.13177 0 0.25693-0.0245 0.375-0.0937 0.23612-0.13853 0.34375-0.41052 0.34375-0.6875 0-0.27703-0.10757-0.51773-0.34375-0.65625-0.11808-0.0692-0.24038-0.12499-0.375-0.125zm-44.156 0.0625c-0.11568 0-0.23622 0.0307-0.34375 0.0937-0.2 0.13-0.33 0.32-0.33 0.57 0.00002 0.25227 0.1287 0.49886 0.34375 0.625 0.10754 0.063 0.22376 0.12501 0.34375 0.125 0.12001 0 0.23622-0.062 0.34375-0.125 0.21505-0.12617 0.375-0.37273 0.375-0.625 0-0.2523-0.15989-0.43634-0.375-0.5625-0.10753-0.063-0.22807-0.0937-0.34375-0.0937zm47.531 0c-0.12375 0-0.23622 0.0307-0.34375 0.0937-0.21505 0.12617-0.375 0.31024-0.375 0.5625 0.00002 0.25227 0.15995 0.49886 0.375 0.625 0.10754 0.063 0.22375 0.12501 0.34375 0.125 0.12001 0 0.26747-0.062 0.375-0.125 0.21505-0.12617 0.34375-0.37273 0.34375-0.625 0-0.2523-0.12864-0.43634-0.34375-0.5625-0.10753-0.063-0.25125-0.0937-0.375-0.0937zm-40.7 0.04c-0.14549-0.00001-0.30888 0.0496-0.4375 0.125-0.25718 0.1509-0.40625 0.41704-0.40625 0.71875 0.00008 0.30171 0.14903 0.59915 0.40625 0.75 0.0643 0.0377 0.1791 0.0785 0.25 0.0937s0.1157 0.00002 0.1875 0c0.14354 0 0.27765-0.0184 0.40625-0.0937 0.25719-0.15091 0.4375-0.44828 0.4375-0.75 0-0.30176-0.18023-0.56786-0.4375-0.71875-0.12862-0.0754-0.26076-0.12499-0.40625-0.125zm33.938 0c-0.14549-0.00001-0.27763 0.0496-0.40625 0.125-0.25718 0.1509-0.4375 0.41704-0.4375 0.71875 0.00008 0.30171 0.18028 0.59915 0.4375 0.75 0.0643 0.0377 0.14795 0.0785 0.21875 0.0937 0.0709 0.0152 0.1157 0.00002 0.1875 0 0.14354 0 0.3089-0.0184 0.4375-0.0937 0.25719-0.15091 0.375-0.44828 0.375-0.75 0-0.30176-0.11773-0.56786-0.375-0.71875-0.12862-0.0754-0.29201-0.12499-0.4375-0.125zm-44.156 0.125c-0.11289 0-0.21551 0.0369-0.3125 0.0937-0.19399 0.11378-0.28125 0.3037-0.28125 0.53125 0.00002 0.22753 0.0873 0.41749 0.28125 0.53125 0.097 0.0567 0.20427 0.125 0.3125 0.125 0.10824 0 0.24675-0.068 0.34375-0.125 0.19398-0.11378 0.3125-0.30371 0.3125-0.53125 0-0.22757-0.11848-0.41748-0.3125-0.53125-0.097-0.0569-0.23086-0.0937-0.34375-0.0937zm54.344 0c-0.11289 0-0.24676 0.0369-0.34375 0.0937-0.19399 0.11378-0.28125 0.3037-0.28125 0.53125 0.00002 0.22753 0.0873 0.41749 0.28125 0.53125 0.097 0.0567 0.23552 0.125 0.34375 0.125 0.10824 0 0.2155-0.068 0.3125-0.125 0.19398-0.11378 0.3125-0.30371 0.3125-0.53125 0-0.22757-0.11848-0.41748-0.3125-0.53125-0.097-0.0569-0.19961-0.0937-0.3125-0.0937zm-40.75 0.0937c-0.15636-0.00001-0.29835 0.0434-0.4375 0.125-0.27825 0.16327-0.46875 0.48606-0.46875 0.8125 0.00008 0.32642 0.19045 0.61804 0.46875 0.78125 0.0696 0.0409 0.14215 0.1072 0.21875 0.125 0.0767 0.0178 0.14105 0.00001 0.21875 0 0.1553 0 0.3296-0.0434 0.46875-0.125 0.27826-0.16328 0.4375-0.45482 0.4375-0.78125 0-0.3265-0.15913-0.64926-0.4375-0.8125-0.13916-0.0816-0.31239-0.12499-0.46875-0.125zm27.156 0c-0.15636-0.00001-0.3296 0.0434-0.46875 0.125-0.27825 0.16327-0.40625 0.48606-0.40625 0.8125 0.00008 0.32642 0.12795 0.61804 0.40625 0.78125 0.0696 0.0409 0.1734 0.1072 0.25 0.125 0.0767 0.0178 0.14105 0.00001 0.21875 0 0.1553 0 0.29835-0.0434 0.4375-0.125 0.27827-0.16328 0.46875-0.45482 0.46875-0.78125 0-0.3265-0.19038-0.64926-0.46875-0.8125-0.13915-0.0816-0.28114-0.12499-0.4375-0.125zm-23.75 0.375c-0.16723-0.00001-0.35032 0.0685-0.5 0.15625-0.29933 0.17565-0.46875 0.49258-0.46875 0.84375 0.0001 0.35114 0.16938 0.66817 0.46875 0.84375 0.0472 0.0277 0.10615 0.0436 0.15625 0.0625h0.65625c0.0565-0.02 0.10335-0.0315 0.15625-0.0625 0.29933-0.17564 0.5-0.4926 0.5-0.84375 0-0.35124-0.20054-0.66812-0.5-0.84375-0.1497-0.0878-0.30152-0.15624-0.46875-0.15625zm20.344 0c-0.16723-0.00001-0.31906 0.0685-0.46875 0.15625-0.29933 0.17565-0.5 0.49258-0.5 0.84375 0.0001 0.35114 0.20063 0.66817 0.5 0.84375 0.0472 0.0277 0.10615 0.0436 0.15625 0.0625h0.65625c0.0565-0.02 0.10335-0.0315 0.15625-0.0625 0.29933-0.17564 0.46875-0.4926 0.46875-0.84375 0-0.35124-0.16928-0.66812-0.46875-0.84375-0.1497-0.0878-0.33277-0.15624-0.5-0.15625zm-16.96 0.54c-0.17809-0.00001-0.33978 0.031-0.5 0.125-0.32039 0.18801-0.53125 0.56163-0.53125 0.9375 0 0.10531 0.0333 0.2138 0.0625 0.3125h1.9688c0.0292-0.0987 0.0312-0.20718 0.0312-0.3125 0-0.37597-0.17947-0.74952-0.5-0.9375-0.16025-0.0939-0.35316-0.12499-0.53125-0.125zm13.594 0c-0.17809-0.00001-0.37102 0.031-0.53125 0.125-0.32039 0.18801-0.5 0.56163-0.5 0.9375 0 0.10531 0.0333 0.2138 0.0625 0.3125h1.9688c0.0292-0.0987 0.0312-0.20718 0.0312-0.3125 0-0.37597-0.21072-0.74952-0.53125-0.9375-0.16025-0.0939-0.32191-0.12499-0.5-0.125zm-10.188 0.65625c-0.46848 0-0.8727 0.30237-1.0312 0.71875h2.0938c-0.16715-0.41683-0.59369-0.71875-1.0625-0.71875zm6.7812 0c-0.46848 0-0.84145 0.30237-1 0.71875h2.0625c-0.15832-0.41683-0.59369-0.71875-1.0625-0.71875zm-27.15 0.22c-0.12655-0.00001-0.25693 0.0557-0.375 0.125-0.15452 0.0907-0.2493 0.21544-0.3125 0.375h1.4375c-0.0632-0.15956-0.22044-0.2844-0.375-0.375-0.11808-0.0692-0.24845-0.12499-0.375-0.125zm47.531 0c-0.13462-0.00001-0.25693 0.0557-0.375 0.125-0.15452 0.0907-0.28055 0.21544-0.34375 0.375h1.4688c-0.0632-0.15956-0.18919-0.2844-0.34375-0.375-0.11808-0.0692-0.27163-0.12499-0.40625-0.125zm-50.906 0.0625c-0.11568 0-0.23622 0.0307-0.34375 0.0937-0.13905 0.0816-0.1912 0.20281-0.25 0.34375h1.2188c-0.0584-0.14235-0.14113-0.26155-0.28125-0.34375-0.10753-0.063-0.22807-0.0937-0.34375-0.0937zm54.312 0c-0.12375 0-0.26747 0.0307-0.375 0.0937-0.13904 0.0816-0.1912 0.20281-0.25 0.34375h1.25c-0.0584-0.14235-0.14113-0.26155-0.28125-0.34375-0.10753-0.063-0.22-0.0937-0.34375-0.0937zm-47.531 0.0312c-0.14549-0.00001-0.27763 0.0496-0.40625 0.125-0.12859 0.0754-0.20855 0.1575-0.28125 0.28125h1.4062c-0.0647-0.12374-0.1526-0.20585-0.28125-0.28125-0.12861-0.0754-0.29201-0.12499-0.4375-0.125zm40.75 0c-0.14549-0.00001-0.30888 0.0496-0.4375 0.125-0.12859 0.0754-0.20855 0.1575-0.28125 0.28125h1.4375c-0.0727-0.12374-0.18386-0.20585-0.3125-0.28125-0.12862-0.0754-0.26076-0.12499-0.40625-0.125zm-37.34 0.22c-0.15636-0.00001-0.3296 0.0434-0.46875 0.125-0.0278 0.0163-0.0368 0.043-0.0625 0.0625h1.0312c-0.0234-0.0173-0.0374-0.0478-0.0625-0.0625-0.13916-0.0816-0.28114-0.12499-0.4375-0.125zm33.938 0c-0.15636-0.00001-0.29835 0.0434-0.4375 0.125-0.0278 0.0163-0.0368 0.043-0.0625 0.0625h1.0312c-0.0229-0.0173-0.0374-0.0478-0.0625-0.0625-0.13915-0.0816-0.31239-0.12499-0.46875-0.125z" style="fill:#fff6d5" transform="translate(0 52.362)"/>
    <path id="path65475" style="fill:#fff6d5" d="m482.16 819.3v1.875h59.625v-1.875h-59.625zm0 70.594v1.875h59.625v-1.875h-59.625z"/>
    <g id="g65477" style="fill:#ffeeaa" transform="matrix(1.0435 0 0 .95829 131 .0000082368)">
      <path id="path65479" d="m350.2 894.64v5.1818h-2.4995v-14.074c1.6664-0.0705 2.6405-0.10574 2.9225-0.10575 2.224 0.00001 3.8503 0.3413 4.8789 1.0238 1.0286 0.68258 1.543 1.7481 1.543 3.1965-0.00002 3.2302-1.9035 4.8453-5.7105 4.8453-0.282 0-0.66014-0.0224-1.1344-0.0673zm0-6.7295v4.5088c0.423 0.0449 0.75627 0.0673 0.99982 0.0673 1.1408 0.00001 1.974-0.19066 2.4996-0.57201 0.52554-0.38133 0.78831-1.0014 0.78832-1.8602-0.00001-1.4613-1.1761-2.1919-3.5282-2.1919-0.26278 0.00001-0.51593 0.016-0.75948 0.0481z" style="fill:#fff6d5"/>
      <path id="path65481" d="m358.6 892.66c-0.00001-2.006 0.54957-3.7028 1.6487-5.0904 1.0992-1.3876 2.5684-2.0813 4.4079-2.0814 2.0253 0.00001 3.5731 0.6281 4.6434 1.8843s1.6055 3.0187 1.6055 5.2875c-0.00001 2.2688-0.5592 4.0698-1.6776 5.4029s-2.7062 1.9996-4.7636 1.9996c-1.8907 0-3.3408-0.66014-4.3502-1.9804s-1.5142-3.1276-1.5141-5.4221zm2.5957 0c-0.00001 1.6472 0.27879 2.9226 0.83638 3.8262 0.55759 0.90369 1.3683 1.3555 2.4323 1.3555 1.2498 0 2.2031-0.44223 2.86-1.3267 0.65692-0.88445 0.98539-2.1695 0.9854-3.8551-0.00001-3.3007-1.2177-4.951-3.6532-4.951-1.1152 0.00001-1.9708 0.44705-2.5668 1.3411-0.59605 0.89408-0.89408 2.0974-0.89407 3.6099z" style="fill:#fff6d5"/>
      <path id="path65483" d="m375.61 894.64v5.1818h-2.4996v-14.074c1.6664-0.0705 2.6405-0.10574 2.9226-0.10575 2.2239 0.00001 3.8502 0.3413 4.8789 1.0238 1.0286 0.68258 1.543 1.7481 1.543 3.1965-0.00001 3.2302-1.9035 4.8453-5.7105 4.8453-0.282 0-0.66014-0.0224-1.1344-0.0673zm0-6.7295v4.5088c0.42299 0.0449 0.75626 0.0673 0.99981 0.0673 1.1408 0.00001 1.974-0.19066 2.4996-0.57201 0.52554-0.38133 0.78831-1.0014 0.78832-1.8602-0.00001-1.4613-1.1761-2.1919-3.5282-2.1919-0.26277 0.00001-0.51593 0.016-0.75947 0.0481z" style="fill:#fff6d5"/>
    </g>
    <path id="path65485" d="m527.63 775.13c0 0.0598-7.0105 0.10831-15.658 0.10831-8.6479 0-15.658-0.0485-15.658-0.10831 0-0.0598 7.0105-0.10831 15.658-0.10831 8.6479 0 15.658 0.0485 15.658 0.10831z" style="fill:#a6da21"/>
  </g>
</svg>