<svg xmlns="http://www.w3.org/2000/svg" width="22" height="22" viewBox="0 0 22 22" fill="none">
  <path d="M1.26087 -2H-2V1.26087H1.26087V-2Z" fill="#6B7280"/>
  <path d="M1.26087 4.52148H-2V7.78235H1.26087V4.52148Z" fill="#6B7280"/>
  <path d="M1.26087 11.0439H-2V14.3048H1.26087V11.0439Z" fill="#6B7280"/>
  <path d="M1.26087 17.5654H-2V20.8263H1.26087V17.5654Z" fill="#6B7280"/>
  <path d="M7.78235 -2H4.52148V1.26087H7.78235V-2Z" fill="#6B7280"/>
  <path d="M7.78235 4.52148H4.52148V7.78235H7.78235V4.52148Z" fill="#6B7280"/>
  <path d="M7.78235 11.0439H4.52148V14.3048H7.78235V11.0439Z" fill="#6B7280"/>
  <path d="M7.78235 17.5654H4.52148V20.8263H7.78235V17.5654Z" fill="#6B7280"/>
  <path d="M14.3038 -2H11.043V1.26087H14.3038V-2Z" fill="#6B7280"/>
  <path d="M14.3038 4.52148H11.043V7.78235H14.3038V4.52148Z" fill="#6B7280"/>
  <path d="M14.3038 11.043H11.043V14.3038H14.3038V11.043Z" fill="#6B7280"/>
  <path d="M14.3038 17.5654H11.043V20.8263H14.3038V17.5654Z" fill="#6B7280"/>
  <path d="M20.8253 -2H17.5645V1.26087H20.8253V-2Z" fill="#6B7280"/>
  <path d="M20.8253 4.52148H17.5645V7.78235H20.8253V4.52148Z" fill="#6B7280"/>
  <path d="M20.8253 11.0439H17.5645V14.3048H20.8253V11.0439Z" fill="#6B7280"/>
  <path d="M20.8253 17.5654H17.5645V20.8263H20.8253V17.5654Z" fill="#6B7280"/>
  <path d="M4.52259 1.26074H1.26172V4.52161H4.52259V1.26074Z" fill="#6B7280"/>
  <path d="M4.52259 7.78223H1.26172V11.0431H4.52259V7.78223Z" fill="#6B7280"/>
  <path d="M4.52259 14.3047H1.26172V17.5656H4.52259V14.3047Z" fill="#6B7280"/>
  <path d="M4.52259 20.8262H1.26172V24.087H4.52259V20.8262Z" fill="#6B7280"/>
  <path d="M11.0421 1.26074H7.78125V4.52161H11.0421V1.26074Z" fill="#6B7280"/>
  <path d="M11.0421 7.78223H7.78125V11.0431H11.0421V7.78223Z" fill="#6B7280"/>
  <path d="M11.0421 14.3047H7.78125V17.5656H11.0421V14.3047Z" fill="#6B7280"/>
  <path d="M11.0421 20.8262H7.78125V24.087H11.0421V20.8262Z" fill="#6B7280"/>
  <path d="M17.5656 1.26074H14.3047V4.52161H17.5656V1.26074Z" fill="#6B7280"/>
  <path d="M17.5656 7.78223H14.3047V11.0431H17.5656V7.78223Z" fill="#6B7280"/>
  <path d="M17.5656 14.3047H14.3047V17.5656H17.5656V14.3047Z" fill="#6B7280"/>
  <path d="M17.5656 20.8262H14.3047V24.087H17.5656V20.8262Z" fill="#6B7280"/>
  <path d="M24.087 1.26074H20.8262V4.52161H24.087V1.26074Z" fill="#6B7280"/>
  <path d="M24.087 7.78223H20.8262V11.0431H24.087V7.78223Z" fill="#6B7280"/>
  <path d="M24.087 14.3047H20.8262V17.5656H24.087V14.3047Z" fill="#6B7280"/>
  <path d="M24.087 20.8262H20.8262V24.087H24.087V20.8262Z" fill="#6B7280"/>
</svg>
