<svg width="14" height="14" viewBox="0 0 14 14" fill="none" xmlns="http://www.w3.org/2000/svg">
<path fill-rule="evenodd" clip-rule="evenodd" d="M9.44809 0.540744C10.4805 0.993066 11.3753 1.70975 12.0421 2.61845V0H13.2821V3.92664C13.2821 4.09107 13.2168 4.24877 13.1005 4.36504C12.9843 4.48132 12.8266 4.54664 12.6621 4.54664H8.73548V3.30665H11.0088C10.4674 2.58552 9.74665 2.01866 8.91826 1.66241C8.08987 1.30616 7.18266 1.17292 6.28682 1.27594C5.39097 1.37896 4.53769 1.71465 3.81179 2.24965C3.08589 2.78464 2.51265 3.50031 2.14906 4.32551L1 3.85844C1.4487 2.82447 2.16225 1.92717 3.0686 1.25714C3.97496 0.587099 5.04205 0.168038 6.16214 0.0422552C7.28224 -0.0835274 8.41569 0.0884213 9.44809 0.540744ZM11.0512 6.77214L6.87804 5.2062C6.10242 4.91516 5.23772 5.30799 4.94668 6.0836L3.38074 10.2568C3.08969 11.0324 3.48252 11.8971 4.25814 12.1881L8.4313 13.7541C9.20693 14.0451 10.0716 13.6523 10.3627 12.8767L11.9286 8.70351C12.2197 7.92789 11.8268 7.06319 11.0512 6.77214ZM5.88293 6.43493C5.97995 6.17639 6.26818 6.04544 6.52672 6.14246L10.6999 7.7084C10.9584 7.80541 11.0894 8.09365 10.9924 8.35219L9.42641 12.5254C9.3294 12.7839 9.04117 12.9148 8.78263 12.8178L4.60946 11.2519C4.35092 11.1549 4.21998 10.8666 4.31699 10.6081L5.88293 6.43493Z" fill="#137BDD"/>
</svg>
