<svg width="22" height="23" viewBox="0 0 22 23" fill="none" xmlns="http://www.w3.org/2000/svg">
    <path
        d="M15.7019 15.1361V16.0535C15.7019 16.1873 15.6617 16.2972 15.5815 16.3832C15.5012 16.4692 15.3986 16.5122 15.2737 16.5122H5.85505C5.73018 16.5122 5.62761 16.4692 5.54734 16.3832C5.46707 16.2972 5.42693 16.1873 5.42693 16.0535V15.1361C5.42693 15.0023 5.46707 14.8924 5.54734 14.8064C5.62761 14.7204 5.73018 14.6774 5.85505 14.6774H15.2737C15.3986 14.6774 15.5012 14.7204 15.5815 14.8064C15.6617 14.8924 15.7019 15.0023 15.7019 15.1361ZM15.7019 11.4664V12.3838C15.7019 12.5176 15.6617 12.6275 15.5815 12.7135C15.5012 12.7995 15.3986 12.8426 15.2737 12.8426H5.85505C5.73018 12.8426 5.62761 12.7995 5.54734 12.7135C5.46707 12.6275 5.42693 12.5176 5.42693 12.3838V11.4664C5.42693 11.3327 5.46707 11.2228 5.54734 11.1368C5.62761 11.0507 5.73018 11.0077 5.85505 11.0077H15.2737C15.3986 11.0077 15.5012 11.0507 15.5815 11.1368C15.6617 11.2228 15.7019 11.3327 15.7019 11.4664ZM3.71444 20.1818H17.4144V9.17293H11.8488C11.492 9.17293 11.1887 9.03914 10.939 8.77157C10.6893 8.50399 10.5644 8.17908 10.5644 7.79682V1.83369H3.71444V20.1818ZM12.2769 7.33812H16.2772L12.2769 3.05212V7.33812ZM19.1268 9.17293V20.6405C19.1268 21.0227 19.002 21.3477 18.7522 21.6152C18.5025 21.8828 18.1992 22.0166 17.8425 22.0166H3.28632C2.92955 22.0166 2.6263 21.8828 2.37656 21.6152C2.12682 21.3477 2.00195 21.0227 2.00195 20.6405V1.37499C2.00195 0.992739 2.12682 0.667824 2.37656 0.400248C2.6263 0.132671 2.92955 -0.00111771 3.28632 -0.00111771H10.5644C10.9212 -0.00111771 11.3136 0.0944462 11.7417 0.285572C12.1699 0.476698 12.5088 0.706049 12.7585 0.973625L18.2171 6.82208C18.4668 7.08966 18.6809 7.4528 18.8593 7.9115C19.0377 8.3702 19.1268 8.79068 19.1268 9.17293Z"
        fill="#32363C" />
</svg>
