<svg width="15" height="17" viewBox="0 0 15 17" fill="none" xmlns="http://www.w3.org/2000/svg">
<path d="M1.43835 9.6875C1.29642 9.68798 1.15727 9.64819 1.03706 9.57273C0.916855 9.49728 0.820524 9.38927 0.759261 9.26124C0.697998 9.13322 0.674318 8.99044 0.690973 8.84949C0.707628 8.70855 0.763934 8.57522 0.853349 8.465L8.27835 0.815C8.33405 0.750711 8.40994 0.707267 8.49358 0.6918C8.57723 0.676332 8.66364 0.689759 8.73865 0.729878C8.81365 0.769997 8.87279 0.834423 8.90635 0.912581C8.93991 0.990739 8.94591 1.07799 8.92335 1.16L7.48335 5.675C7.44089 5.78864 7.42663 5.91089 7.44179 6.03126C7.45696 6.15162 7.50109 6.26651 7.57042 6.36607C7.63974 6.46563 7.73218 6.54689 7.83981 6.60287C7.94743 6.65885 8.06703 6.68789 8.18835 6.6875H13.4383C13.5803 6.68702 13.7194 6.72681 13.8396 6.80227C13.9598 6.87772 14.0562 6.98573 14.1174 7.11376C14.1787 7.24178 14.2024 7.38456 14.1857 7.52551C14.1691 7.66645 14.1128 7.79978 14.0233 7.91L6.59835 15.56C6.54265 15.6243 6.46675 15.6677 6.38311 15.6832C6.29947 15.6987 6.21306 15.6852 6.13805 15.6451C6.06305 15.605 6.00391 15.5406 5.97035 15.4624C5.93678 15.3843 5.93079 15.297 5.95335 15.215L7.39335 10.7C7.43581 10.5864 7.45007 10.4641 7.43491 10.3437C7.41974 10.2234 7.3756 10.1085 7.30628 10.0089C7.23696 9.90937 7.14452 9.82811 7.03689 9.77213C6.92927 9.71615 6.80966 9.68711 6.68835 9.6875H1.43835Z" stroke="#454B6E" stroke-width="1.37143" stroke-linecap="round" stroke-linejoin="round"/>
</svg>
