<svg xmlns="http://www.w3.org/2000/svg" width="122" height="24" viewBox="0 0 122 24" fill="none">
    <path fill-rule="evenodd" clip-rule="evenodd" d="M9.63159 23.6797L5.62167 19.9229H16.8525V5.64369H20.8633C20.8633 5.64369 20.8633 13.8241 20.8633 19.1665L16.0461 23.6797C13.9814 23.6797 11.5978 23.6797 9.63159 23.6797ZM52.0328 5.39609C49.6165 5.39609 47.4434 6.13643 45.8726 7.57057C44.3025 9.00416 43.3305 11.1332 43.3305 13.923C43.3305 16.7128 44.3025 18.8418 45.8726 20.2754C47.4434 21.7096 49.6165 22.4499 52.0328 22.4499C54.4491 22.4499 56.6222 21.7096 58.193 20.2754C59.7631 18.8418 60.7353 16.7128 60.7353 13.923C60.7353 11.1332 59.7631 9.00416 58.193 7.57057C56.6222 6.13643 54.4491 5.39609 52.0328 5.39609ZM118.413 7.4257V8.06165H121.849V7.24612C121.849 6.04086 121.521 4.97881 120.864 4.05999C120.206 3.14034 119.286 2.42369 118.104 1.90919C116.919 1.3936 115.554 1.13608 114.008 1.13608C111.805 1.13608 110.045 1.63983 108.727 2.65037C107.414 3.65733 106.758 5.03004 106.758 6.7677C106.758 7.93165 107.059 8.90364 107.664 9.68282C108.271 10.4642 109.026 11.0825 109.931 11.5375C110.84 11.9953 112.03 12.4831 113.498 13.0006C113.499 13.0006 113.499 13.0006 113.499 13.0006C114.807 13.4801 115.788 13.8798 116.441 14.1995C117.101 14.522 117.609 14.8804 117.965 15.2737C118.326 15.6719 118.507 16.157 118.507 16.7288C118.507 17.5628 118.179 18.2439 117.524 18.773C116.874 19.2977 115.909 19.5629 114.63 19.5629C113.228 19.5629 112.103 19.2541 111.256 18.6399C110.402 18.0208 109.975 17.2438 109.975 16.3098V15.4348H106.541V16.4894C106.541 17.6749 106.858 18.7171 107.495 19.6161C108.132 20.5156 109.041 21.2121 110.222 21.7065C111.407 22.2023 112.783 22.4499 114.35 22.4499C115.916 22.4499 117.277 22.2075 118.431 21.7214C119.581 21.2372 120.465 20.5555 121.081 19.6761C121.696 18.7969 122.004 17.7847 122.004 16.639C122.004 15.4753 121.692 14.5036 121.067 13.7244C120.44 12.9428 119.69 12.3343 118.816 11.8992C117.937 11.4612 116.764 10.9737 115.296 10.4367L115.295 10.4358C113.903 9.95632 112.877 9.5619 112.213 9.25232C111.542 8.93944 111.039 8.59075 110.703 8.20709C110.364 7.81929 110.193 7.31994 110.193 6.70767C110.193 5.8522 110.517 5.19035 111.163 4.72185C111.803 4.25748 112.699 4.02337 113.853 4.02337C115.277 4.02337 116.391 4.35277 117.198 5.00773C118.009 5.66655 118.413 6.47272 118.413 7.4257ZM70.3742 7.53477H70.5977C71.6566 6.21272 73.3361 5.39609 75.7348 5.39609C77.81 5.39609 79.4839 5.97917 80.6411 7.07371C81.7988 8.16853 82.445 9.77948 82.445 11.854V22.177H79.2491V12.3013C79.2491 10.9462 78.8877 9.90922 78.1839 9.21405C77.4822 8.5208 76.4447 8.17348 75.1153 8.17348C73.6319 8.17348 72.4421 8.59461 71.6263 9.46908C70.8828 10.2659 70.4518 11.4318 70.3742 12.9758V22.1379H67.166V5.64479H70.3742V7.1478H70.3616H70.3742V7.53477ZM41.7183 5.64479C41.7183 5.64479 41.7183 14.3998 41.7183 19.1674L38.5062 22.177C36.994 22.177 35.1951 22.177 33.6834 22.177L30.4752 19.1712H38.5101V5.64479H41.7183ZM93.674 19.1712L90.4658 22.177C90.4658 22.177 88.8641 22.177 87.2613 22.177L84.0489 19.1674V1.13608H87.2575V5.64479H92.07V8.65079H87.2575V19.1712H101.709V1.13608H104.917C104.917 1.13608 104.917 13.3515 104.917 19.1674L101.705 22.177C100.193 22.177 98.394 22.177 96.8823 22.177L93.674 19.1712ZM65.5479 22.1379H62.3393V5.64479H65.5479V22.1379ZM52.0328 8.21673C53.6236 8.21673 54.9888 8.72295 55.9546 9.68887C56.9253 10.6597 57.4897 12.0911 57.4897 13.923C57.4897 15.7551 56.9253 17.1862 55.9546 18.1571C54.9888 19.123 53.6236 19.6293 52.0328 19.6293C50.442 19.6293 49.0768 19.123 48.111 18.1571C47.1403 17.1862 46.5758 15.7551 46.5758 13.923C46.5758 12.0911 47.1403 10.6597 48.111 9.68887C49.0768 8.72295 50.442 8.21673 52.0328 8.21673ZM4.01383 18.4166L0.00390625 14.66C0.00390625 14.6598 0.00390625 14.6598 0.00390625 14.6598H11.2351V0.380863H15.2459C15.2459 0.380863 15.2459 8.56128 15.2459 13.9034L10.4283 18.4166C8.36399 18.4166 5.9803 18.4166 4.01383 18.4166ZM65.5479 1.13608V4.14207H62.3393V1.13608H65.5479ZM41.7183 1.13608V4.14207H38.5101V1.13608H41.7183Z" fill="#ED2637"/>
</svg>
