<svg width="9" height="8" viewBox="0 0 9 8" fill="none" xmlns="http://www.w3.org/2000/svg">
<path d="M3.65882 6.6915L0.990486 2.54076C0.562657 1.87525 1.0405 0.999999 1.83166 0.999999L7.16833 1C7.9595 1 8.43734 1.87525 8.00951 2.54076L5.34118 6.6915C4.94754 7.30382 4.05246 7.30382 3.65882 6.6915Z" fill="#4B5563"/>
<path d="M3.65882 6.6915L0.990486 2.54076C0.562657 1.87525 1.0405 0.999999 1.83166 0.999999L7.16833 1C7.9595 1 8.43734 1.87525 8.00951 2.54076L5.34118 6.6915C4.94754 7.30382 4.05246 7.30382 3.65882 6.6915Z" fill="black" fill-opacity="0.2"/>
<path d="M3.65882 6.6915L0.990486 2.54076C0.562657 1.87525 1.0405 0.999999 1.83166 0.999999L7.16833 1C7.9595 1 8.43734 1.87525 8.00951 2.54076L5.34118 6.6915C4.94754 7.30382 4.05246 7.30382 3.65882 6.6915Z" stroke="#4B5563" stroke-width="1.2425" stroke-linecap="round"/>
<path d="M3.65882 6.6915L0.990486 2.54076C0.562657 1.87525 1.0405 0.999999 1.83166 0.999999L7.16833 1C7.9595 1 8.43734 1.87525 8.00951 2.54076L5.34118 6.6915C4.94754 7.30382 4.05246 7.30382 3.65882 6.6915Z" stroke="black" stroke-opacity="0.2" stroke-width="1.2425" stroke-linecap="round"/>
</svg>
