<?xml version="1.0" encoding="utf-8"?>
<svg viewBox="70.392 55.652 98.291 74.889" width="98.291" height="74.889" xmlns="http://www.w3.org/2000/svg" xmlns:xlink="http://www.w3.org/1999/xlink">
  <defs>
    <linearGradient id="linearGradient10972" y2="385.21" gradientUnits="userSpaceOnUse" x2="139.25" gradientTransform="translate(-.0053935 52.362)" y1="455.88" x1="139.25" xlink:href="#linearGradient21481"/>
    <linearGradient id="linearGradient21481">
      <stop id="stop21483" style="stop-color:#002255" offset="0"/>
      <stop id="stop21485" style="stop-color:#87cdde" offset="1"/>
    </linearGradient>
    <linearGradient id="linearGradient10974" y2="429.58" gradientUnits="userSpaceOnUse" x2="145.38" gradientTransform="matrix(.98123 0 0 1.1116 2.6511 -48.731)" y1="440.03" x1="145.38" xlink:href="#linearGradient21493"/>
    <linearGradient id="linearGradient21493">
      <stop id="stop21495" style="stop-color:#b3b3b3" offset="0"/>
      <stop id="stop21497" style="stop-color:#ffffff" offset="1"/>
    </linearGradient>
    <linearGradient id="linearGradient10976" y2="435.03" gradientUnits="userSpaceOnUse" x2="123.62" gradientTransform="matrix(.98123 0 0 1.1116 2.6511 -48.731)" y1="437.66" x1="123.62" xlink:href="#linearGradient21493"/>
    <linearGradient id="linearGradient10978" y2="502.42" gradientUnits="userSpaceOnUse" x2="143.81" gradientTransform="translate(.000025308 -5.6569)" y1="504.49" x1="143.81" xlink:href="#linearGradient21323"/>
    <linearGradient id="linearGradient21323">
      <stop id="stop21325" style="stop-color:#999999" offset="0"/>
      <stop id="stop21327" style="stop-color:#ffffff" offset="1"/>
    </linearGradient>
    <linearGradient id="linearGradient10980" y2="438.54" gradientUnits="userSpaceOnUse" x2="113.25" gradientTransform="matrix(1 0 0 .92547 -9.9049 -34.867)" y1="403.12" x1="113.25" xlink:href="#linearGradient21501"/>
    <linearGradient id="linearGradient21501">
      <stop id="stop21503" style="stop-color:#ffe680" offset="0"/>
      <stop id="stop21505" style="stop-color:#ff6600" offset="1"/>
    </linearGradient>
  </defs>
  <g id="g21513" transform="matrix(1.0744, 0, 0, 1.0744, -32.215424, -405.265823)">
    <path id="path21515" d="m96.995 434.36h88.5v63.459h-88.5z" style="fill:url(#linearGradient10972)"/>
    <g id="g21517" transform="translate(.000029058)">
      <path id="rect21519" style="fill:url(#linearGradient10974)" d="m96.361 429h89.767v7.4675h-89.767z"/>
      <path id="rect21521" style="fill:url(#linearGradient10976)" d="m95.502 435.12h91.485v1.3534h-91.485z"/>
    </g>
    <path id="rect21523" style="fill:url(#linearGradient10978)" d="m96.929 497.35h88.631c0.37491 0 0.67673 0.30182 0.67673 0.67672 0 0.37491-0.30182 0.67673-0.67673 0.67673h-88.631c-0.3749 0-0.67672-0.30182-0.67672-0.67673 0-0.3749 0.30182-0.67672 0.67672-0.67672z"/>
    <path id="path21525" d="m131.34 332c-13.423 0-25.813 1.3462-35.719 3.625v28.25c9.9054 2.2788 22.295 3.5938 35.719 3.5938 13.423 0 25.813-1.315 35.719-3.5938v-28.25c-9.9-2.27-22.29-3.62-35.72-3.62zm0 1.6562c12.837 0 24.652 1.2176 34.125 3.2812v25.594c-9.4728 2.0636-21.288 3.3125-34.125 3.3125s-24.683-1.2488-34.156-3.3125v-25.594c9.4728-2.0636 21.319-3.2812 34.156-3.2812zm0 1.0938c-12.357 0-23.756 1.1357-32.875 3.0625v23.844c9.1186 1.9268 20.518 3.0625 32.875 3.0625s23.725-1.1357 32.844-3.0625v-23.844c-9.1186-1.9268-20.487-3.0625-32.844-3.0625zm-30 3.9688c0.90309 0 1.6562 0.75316 1.6562 1.6562 0 0.90309-0.75316 1.625-1.6562 1.625-0.90309 0-1.625-0.72191-1.625-1.625s0.72191-1.6562 1.625-1.6562zm60.031 0c0.90309 0 1.625 0.75316 1.625 1.6562 0 0.90309-0.72191 1.625-1.625 1.625s-1.625-0.72191-1.625-1.625 0.72191-1.6562 1.625-1.6562zm-74.276 3.28v15.5h7.375v-15.5h-7.375zm81.125 0v15.5h7.375v-15.5h-7.375zm-19.188 1.4062c1.5186 0.00001 2.6323 0.25169 3.3438 0.78125l-0.71875 1.875c-0.81911-0.54628-1.6537-0.81249-2.5625-0.8125-0.5381 0.00001-0.95405 0.14148-1.25 0.40625-0.29596 0.26479-0.46875 0.6076-0.46875 1.0312 0 0.70238 0.8319 1.4294 2.5 2.1875 0.87888 0.40136 1.5176 0.7565 1.9062 1.0938 0.38862 0.33726 0.70296 0.73876 0.90625 1.1875 0.20327 0.44874 0.28124 0.94814 0.28125 1.5-0.00001 0.99225-0.40998 1.7964-1.25 2.4375-0.84003 0.64106-1.964 0.96875-3.375 0.96875-1.2257 0-2.326-0.28411-3.3125-0.875l0.86-1.93c0.92074 0.60204 1.8279 0.875 2.7188 0.875 1.3692 0 2.0625-0.42059 2.0625-1.3125-0.00001-0.41808-0.1459-0.83969-0.46875-1.2188-0.32286-0.37906-0.99257-0.77896-2-1.25-1.0074-0.47103-1.6815-0.88369-2.0312-1.1875-0.34976-0.3038-0.62417-0.64441-0.8125-1.0625-0.18833-0.41807-0.28125-0.89897-0.28125-1.4062 0-0.94764 0.34938-1.7194 1.0938-2.3438 0.74436-0.62432 1.7091-0.93749 2.875-0.9375zm-39.312 0.21875h1.125l6.1875 7.375v-7.375h2.25v12.406h-0.96875l-6.375-7.75v7.5938h-2.2188v-12.25zm12.25 0h2.3438v8.2812c0 0.65778 0.22577 1.2125 0.65625 1.625 0.43047 0.41251 0.99666 0.59375 1.75 0.59375 0.84301 0 1.4994-0.1896 1.9688-0.59375 0.46933-0.40414 0.71874-0.95387 0.71875-1.6562v-8.25h2.3438v8.4062c-0.00001 1.2598-0.46922 2.2552-1.375 2.9688-0.9058 0.71353-2.1124 1.0625-3.625 1.0625-1.5246 0-2.7032-0.33445-3.5312-1.0312-0.82807-0.6968-1.25-1.7012-1.25-3v-8.4062zm11.281 0h10.875v1.9062h-4.3438v10.344h-2.3438v-10.344h-4.1875v-1.9062zm-31.906 13.844c0.90309 0 1.6562 0.75316 1.6562 1.6562 0 0.90309-0.75316 1.625-1.6562 1.625-0.90309 0-1.625-0.72191-1.625-1.625s0.72191-1.6562 1.625-1.6562zm60.031 0c0.90309 0 1.625 0.75316 1.625 1.6562 0 0.90309-0.72191 1.625-1.625 1.625s-1.625-0.72191-1.625-1.625 0.72191-1.6562 1.625-1.6562z" style="fill:url(#linearGradient10980)" transform="translate(9.8995 116.36)"/>
  </g>
</svg>