<?xml version="1.0" encoding="utf-8"?>
<svg viewBox="770.337 44.304 103.759 80.23" width="103.759" height="80.23" xmlns="http://www.w3.org/2000/svg" xmlns:xlink="http://www.w3.org/1999/xlink">
  <defs>
    <linearGradient id="linearGradient11124" y2="439.56" gradientUnits="userSpaceOnUse" x2="92.426" gradientTransform="matrix(.95886 0 0 1 332.87 -582.14)" y1="439.56" x1="161.55" xlink:href="#linearGradient15797"/>
    <linearGradient id="linearGradient15797">
      <stop id="stop15799" style="stop-color:#0044aa" offset="0"/>
      <stop id="stop15801" style="stop-color:#80b3ff" offset="1"/>
    </linearGradient>
    <linearGradient id="linearGradient11126" y2="421.94" gradientUnits="userSpaceOnUse" x2="143.25" gradientTransform="matrix(.78043 0 0 .78043 30.336 97.309)" y1="487.36" x1="143.25" xlink:href="#linearGradient15832"/>
    <linearGradient id="linearGradient15832">
      <stop id="stop15834" style="stop-color:#28170b" offset="0"/>
      <stop id="stop15836" style="stop-color:#784421" offset="1"/>
    </linearGradient>
    <linearGradient id="linearGradient11128" y2="378.45" gradientUnits="userSpaceOnUse" x2="101.65" gradientTransform="matrix(.75717 0 0 .78043 34.559 137.13)" y1="418.05" x1="101.65" xlink:href="#linearGradient16066"/>
    <linearGradient id="linearGradient16066">
      <stop id="stop16068" style="stop-color:#ffffff" offset="0"/>
      <stop id="stop16070" style="stop-color:#ffffff;stop-opacity:0" offset="1"/>
    </linearGradient>
    <linearGradient id="linearGradient11130" y2="328.16" gradientUnits="userSpaceOnUse" x2="122.82" gradientTransform="matrix(.78043 0 0 .78043 30.885 139.69)" y1="457.41" x1="122.82" xlink:href="#linearGradient15832"/>
    <linearGradient id="linearGradient11132" y2="396.16" gradientUnits="userSpaceOnUse" x2="137.25" gradientTransform="matrix(0 .95886 -1 0 582.16 280.51)" y1="396.16" x1="162.28" xlink:href="#linearGradient15797"/>
    <linearGradient id="linearGradient11134" y2="390.91" gradientUnits="userSpaceOnUse" x2="202.62" gradientTransform="matrix(0 .95886 -1 0 582.16 280.51)" y1="390.91" x1="235.02" xlink:href="#linearGradient15797"/>
    <linearGradient id="linearGradient11136" y2="355.43" gradientUnits="userSpaceOnUse" x2="142.13" y1="374.41" x1="142.13" xlink:href="#linearGradient16066"/>
    <linearGradient id="linearGradient11138" y2="380.27" gradientUnits="userSpaceOnUse" x2="140.27" gradientTransform="matrix(1 0 0 -1 0 865.96)" y1="360.25" x1="140.27" xlink:href="#linearGradient16066"/>
  </defs>
  <g id="g16111" transform="matrix(0.860587, 0, 0, 0.860587, 701.168962, -310.731552)">
    <g id="g16255">
      <path id="rect16113" style="fill:url(#linearGradient11124)" transform="rotate(90)" d="m412.55-200.94h93.227v120.56h-93.227z"/>
      <g id="g16115" transform="matrix(.93272 0 0 .93272 9.451 32.749)">
        <path id="path16117" d="m117.33 436.74c-3.8145 0-6.9808 4.779-7.7799 11.17h62.239c-0.79879-6.3918-3.9651-11.17-7.7799-11.17h-46.679zm-7.7799 29.73c0.79913 6.3909 3.9654 11.146 7.7799 11.146h46.679c3.8148 0 6.9811-4.7538 7.7799-11.146h-62.239z" style="fill:url(#linearGradient11126)"/>
        <path id="path16119" d="m108.76 449.59c-2.2246 0-4.0225 1.8531-4.0225 4.146v6.8775c0 2.2929 1.7979 4.146 4.0225 4.146h63.815c2.2246 0 4.0225-1.8531 4.0225-4.146v-6.8775c0-2.2929-1.7979-4.146-4.0225-4.146h-63.815zm23.33 3.9022c1.0398 0.00001 1.7844 0.1555 2.2715 0.46338l-0.47324 1.0975c-0.56083-0.31761-1.1524-0.48776-1.7746-0.48776-0.36844 0-0.64918 0.0899-0.85182 0.24388-0.20264 0.15396-0.3076 0.33901-0.3076 0.58532 0 0.40837 0.56151 0.82743 1.7036 1.2682 0.60176 0.23336 1.0353 0.46242 1.3014 0.65849 0.26608 0.19608 0.476 0.42198 0.6152 0.68288 0.13918 0.2609 0.21294 0.55712 0.21295 0.87798-0.00001 0.5769-0.30032 1.0418-0.87548 1.4145-0.57516 0.37272-1.3291 0.56094-2.2952 0.56094-0.83921 0-1.5961-0.16862-2.2715-0.51216l0.56788-1.1463c0.63042 0.35003 1.2593 0.53655 1.8693 0.53655 0.93744 0 1.396-0.26188 1.396-0.78043-0.00001-0.24308-0.1102-0.46249-0.33126-0.68288-0.22107-0.22039-0.65893-0.48217-1.3487-0.75604-0.68978-0.27386-1.1566-0.48186-1.396-0.65849-0.23949-0.17663-0.43894-0.39102-0.56788-0.6341-0.12896-0.24307-0.1893-0.50989-0.1893-0.80482 0-0.55096 0.27117-1.0272 0.78083-1.3901 0.50966-0.36299 1.1656-0.53654 1.9639-0.53655zm7.8083 0c1.0316 0.00001 1.8427 0.17835 2.4608 0.51216l-0.66252 1.0243c-0.35615-0.28197-0.91357-0.4146-1.7036-0.41461-0.74915 0.00001-1.3666 0.25856-1.8456 0.75604-0.47896 0.49751-0.70985 1.1163-0.70985 1.8779 0 0.76163 0.21835 1.3819 0.66252 1.8291 0.44416 0.44726 1.0337 0.65849 1.7746 0.65849 0.84739 0 1.5086-0.2276 1.9876-0.70727l0.73351 0.99993c-0.65089 0.54773-1.6063 0.82921-2.8631 0.82921s-2.2145-0.32086-2.9104-0.97554c-0.69592-0.65468-1.0648-1.5516-1.0648-2.6827 0-1.0533 0.38776-1.9258 1.1594-2.634 0.77165-0.70815 1.7778-1.0731 2.9814-1.0731zm-18.598 0.0488c0.93335 0.00001 1.6745 0.17178 2.2005 0.48777 0.52603 0.316 0.78083 0.75475 0.78083 1.3414 0 0.56394-0.38252 1.014-1.1358 1.3414 1.1176 0.30789 1.68 0.93972 1.68 1.9023-0.00001 0.6482-0.30467 1.18-0.9228 1.5609-0.61815 0.38082-1.4114 0.56093-2.3898 0.56093h-2.7448v-7.1214c1.2117-0.0453 2.0446-0.0731 2.5318-0.0731zm4.9926 0.0731h1.5853v7.1214h-1.5853v-7.1214zm17.604 0h1.5853v4.8289c0 0.38244 0.15482 0.68693 0.44957 0.92676 0.29473 0.23984 0.69094 0.36583 1.2067 0.36583 0.57719 0 1.0274-0.10647 1.3487-0.34144 0.32134-0.23497 0.47322-0.56717 0.47323-0.97554v-4.8045h1.609v4.9021c-0.00001 0.73246-0.30262 1.3167-0.9228 1.7316-0.62019 0.41484-1.4488 0.60971-2.4845 0.60971-1.0439 0-1.8465-0.20459-2.4135-0.60971-0.56698-0.40513-0.85183-0.97643-0.85183-1.7316v-4.9021zm8.5418 0h1.609v7.1214h-1.609v-7.1214zm2.6738 0h7.4534v1.1219h-2.9814v5.9996h-1.609v-5.9996h-2.863v-1.1219zm-33.836 0.99992c-0.24971 0.00001-0.56257 0.008-0.9228 0.0243v1.7072c0.24561 0.013 0.51065 0.00001 0.78083 0 1.0398 0.00001 1.5617-0.30772 1.5617-0.92676-0.00001-0.54772-0.47407-0.80481-1.4197-0.80482zm-0.9228 2.7071v2.3657c0.32339 0.0227 0.58024 0.0244 0.78083 0.0244 0.71229 0 1.2403-0.10144 1.5617-0.29266 0.32134-0.19121 0.47322-0.50713 0.47323-0.95115-0.00001-0.40512-0.15074-0.69325-0.44957-0.87798-0.29884-0.18474-0.81663-0.26828-1.5617-0.26828-0.15556 0-0.42379-0.01-0.80449 0z" style="fill:url(#linearGradient11128)"/>
        <path id="path16121" d="m117.29 436.74v8.7311c0 0.56561 0.45871 1.0243 1.0243 1.0243 0.56561 0 1.0243-0.45871 1.0243-1.0243v-8.7311h-2.0242c-0.008 0-0.0162-0.00005-0.0244 0zm3.2193 0v8.7311c0 0.56561 0.43432 1.0243 0.99993 1.0243s1.0243-0.45871 1.0243-1.0243v-8.7311h-2.0242zm3.1705 0v8.7311c0 0.56561 0.4587 1.0243 1.0243 1.0243 0.56561 0 0.99993-0.45871 0.99993-1.0243v-8.7311h-2.0242zm3.1949 0v8.7311c0 0.56561 0.4587 1.0243 1.0243 1.0243s1.0243-0.45871 1.0243-1.0243v-8.7311h-2.0486zm3.1949 0v8.7311c0 0.56561 0.43432 1.0243 0.99993 1.0243 0.5656 0 1.0243-0.45871 1.0243-1.0243v-8.7311h-2.0242zm3.1949 0v8.7311c0 0.56561 0.45871 1.0243 1.0243 1.0243 0.5656 0 0.99992-0.45871 0.99992-1.0243v-8.7311h-2.0242zm3.1705 0v8.7311c0 0.56561 0.4587 1.0243 1.0243 1.0243s1.0487-0.45871 1.0487-1.0243v-8.7311h-2.073zm3.2193 0v8.7311c0 0.56561 0.43432 1.0243 0.99993 1.0243s1.0243-0.45871 1.0243-1.0243v-8.7311h-2.0242zm3.1705 0v8.7311c0 0.56561 0.4831 1.0243 1.0487 1.0243 0.56561 0 0.99992-0.45871 0.99992-1.0243v-8.7311h-2.0486zm3.1949 0v8.7311c0 0.56561 0.4587 1.0243 1.0243 1.0243s1.0243-0.45871 1.0243-1.0243v-8.7311h-2.0486zm3.2193 0v8.7311c0 0.56561 0.43431 1.0243 0.99992 1.0243s1.0243-0.45871 1.0243-1.0243v-8.7311h-2.0242zm3.1705 0v8.7311c0 0.56561 0.4587 1.0243 1.0243 1.0243 0.56561 0 0.99993-0.45871 0.99993-1.0243v-8.7311h-2.0242zm3.1949 0v8.7311c0 0.56561 0.4587 1.0243 1.0243 1.0243 0.56561 0 1.0243-0.45871 1.0243-1.0243v-8.7311h-2.0486zm3.1949 0v8.7311c0 0.56561 0.43432 1.0243 0.99993 1.0243s1.0243-0.45871 1.0243-1.0243v-8.7311h-2.0242zm3.1949 0v8.7311c0 0.56561 0.4587 1.0243 1.0243 1.0243 0.56561 0 1.0243-0.45871 1.0243-1.0243v-8.7311c-0.0164-0.00018-0.0324 0-0.0488 0h-1.9998zm-45.85 0.17072c-0.72274 0.19139-1.4038 0.53482-2.0486 1.0487v7.5116c0 0.56561 0.48309 1.0243 1.0487 1.0243s0.99993-0.45871 0.99993-1.0243v-8.5603zm49.021 0v8.5603c0 0.56561 0.45869 1.0243 1.0243 1.0243s1.0487-0.45871 1.0487-1.0243v-7.5116c-0.64941-0.51744-1.3447-0.85846-2.073-1.0487zm-52.216 2.1706c-0.77699 0.91699-1.4691 2.0555-2.0242 3.39v2.9998c0 0.56561 0.43432 1.0243 0.99994 1.0243 0.56559 0 1.0243-0.45871 1.0243-1.0243v-6.3898zm55.435 0v6.3898c0 0.56561 0.45871 1.0243 1.0243 1.0243 0.5656 0 0.99992-0.45871 0.99992-1.0243v-2.9266c-0.55963-1.3622-1.2349-2.531-2.0242-3.4632zm-56.459 28.778c-0.56561 0-0.99994 0.45871-0.99994 1.0243v2.9998c0.55513 1.3345 1.2472 2.473 2.0242 3.39v-6.3898c0-0.56561-0.45871-1.0243-1.0243-1.0243zm3.2193 0c-0.5656 0-1.0487 0.45871-1.0487 1.0243v7.5116c0.64484 0.51388 1.3259 0.85731 2.0486 1.0487v-8.5603c0-0.56561-0.43432-1.0243-0.99994-1.0243zm3.1705 0c-0.56561 0-1.0243 0.45871-1.0243 1.0243v8.7311c0.008 0.00005 0.0162 0 0.0244 0h2.0242v-8.7311c0-0.56561-0.4587-1.0243-1.0243-1.0243zm3.1949 0c-0.56562 0-0.99993 0.45871-0.99993 1.0243v8.7311h2.0242v-8.7311c0-0.56561-0.4587-1.0243-1.0243-1.0243zm3.1949 0c-0.56561 0-1.0243 0.45871-1.0243 1.0243v8.7311h2.0242v-8.7311c0-0.56561-0.43432-1.0243-0.99993-1.0243zm3.1949 0c-0.56562 0-1.0243 0.45871-1.0243 1.0243v8.7311h2.0486v-8.7311c0-0.56561-0.45871-1.0243-1.0243-1.0243zm3.1705 0c-0.56561 0-0.99993 0.45871-0.99993 1.0243v8.7311h2.0242v-8.7311c0-0.56561-0.4587-1.0243-1.0243-1.0243zm3.2193 0c-0.56561 0-1.0243 0.45871-1.0243 1.0243v8.7311h2.0242v-8.7311c0-0.56561-0.43432-1.0243-0.99992-1.0243zm3.1705 0c-0.56561 0-1.0243 0.45871-1.0243 1.0243v8.7311h2.073v-8.7311c0-0.56561-0.4831-1.0243-1.0487-1.0243zm3.1949 0c-0.56561 0-0.99993 0.45871-0.99993 1.0243v8.7311h2.0242v-8.7311c0-0.56561-0.45871-1.0243-1.0243-1.0243zm3.2193 0c-0.56561 0-1.0487 0.45871-1.0487 1.0243v8.7311h2.0486v-8.7311c0-0.56561-0.43431-1.0243-0.99992-1.0243zm3.1705 0c-0.56562 0-1.0243 0.45871-1.0243 1.0243v8.7311h2.0486v-8.7311c0-0.56561-0.45871-1.0243-1.0243-1.0243zm3.1949 0c-0.56561 0-0.99992 0.45871-0.99992 1.0243v8.7311h2.0242v-8.7311c0-0.56561-0.45871-1.0243-1.0243-1.0243zm3.1949 0c-0.56561 0-1.0243 0.45871-1.0243 1.0243v8.7311h2.0242v-8.7311c0-0.56561-0.43432-1.0243-0.99993-1.0243zm3.1949 0c-0.56562 0-1.0243 0.45871-1.0243 1.0243v8.7311h2.0486v-8.7311c0-0.56561-0.4587-1.0243-1.0243-1.0243zm3.1705 0c-0.56561 0-0.99993 0.45871-0.99993 1.0243v8.7311h2.0242v-8.7311c0-0.56561-0.4587-1.0243-1.0243-1.0243zm3.2193 0c-0.56561 0-1.0243 0.45871-1.0243 1.0243v8.7311h1.9998c0.0164 0 0.0325 0.00018 0.0488 0v-8.7311c0-0.56561-0.45871-1.0243-1.0243-1.0243zm3.1705 0c-0.56562 0-1.0243 0.45871-1.0243 1.0243v8.5603c0.72834-0.19024 1.4236-0.53126 2.073-1.0487v-7.5116c0-0.56561-0.48309-1.0243-1.0487-1.0243zm3.2193 0c-0.56561 0-1.0243 0.45871-1.0243 1.0243v6.3898c0.78935-0.93215 1.4646-2.1009 2.0242-3.4632v-2.9266c0-0.56561-0.43432-1.0243-0.99992-1.0243z" style="fill:url(#linearGradient11130)"/>
      </g>
      <path id="path16123" style="fill:url(#linearGradient11132)" d="m80.375 412.55v23.938c17.153-3.0398 37.897-4.8125 60.281-4.8125 22.371 0 43.134 1.776 60.281 4.8125v-23.938h-120.56z"/>
      <path id="path16125" style="fill:url(#linearGradient11134)" d="m80.375 481.83v23.938h120.56v-23.938c-17.147 3.0366-37.91 4.8438-60.281 4.8438-22.385 0-43.128-1.8038-60.281-4.8438z"/>
      <g id="g16127">
        <path id="path16129" d="m140.66 377.31c-22.385 0-43.128 1.7727-60.281 4.8125v2c17.153-3.0398 37.897-4.8125 60.281-4.8125 22.371 0 43.134 1.776 60.281 4.8125v-2c-17.147-3.0365-37.91-4.8125-60.281-4.8125z" style="opacity:.69469;fill:#ffffff" transform="translate(0 52.362)"/>
        <path id="path16131" style="opacity:.55310;fill:#d38d5f" d="m140.66 427.67c-22.385 0-43.128 1.7727-60.281 4.8125v2c17.153-3.0398 37.897-4.8125 60.281-4.8125 22.371 0 43.134 1.776 60.281 4.8125v-2c-17.147-3.0365-37.91-4.8125-60.281-4.8125z"/>
      </g>
      <g id="g16133" transform="matrix(1 0 0 -1 0 918.32)">
        <path id="path16135" style="opacity:.69469;fill:#ffffff" d="m140.66 377.31c-22.385 0-43.128 1.7727-60.281 4.8125v2c17.153-3.0398 37.897-4.8125 60.281-4.8125 22.371 0 43.134 1.776 60.281 4.8125v-2c-17.147-3.0365-37.91-4.8125-60.281-4.8125z" transform="translate(0 52.362)"/>
        <path id="path16137" style="opacity:.55310;fill:#d38d5f" d="m140.66 427.67c-22.385 0-43.128 1.7727-60.281 4.8125v2c17.153-3.0398 37.897-4.8125 60.281-4.8125 22.371 0 43.134 1.776 60.281 4.8125v-2c-17.147-3.0365-37.91-4.8125-60.281-4.8125z"/>
      </g>
      <path id="path16139" style="fill:url(#linearGradient11136)" transform="translate(0 52.362)" d="m132.53 360.19v13.375c2.6824-0.052 5.39-0.0937 8.125-0.0937 2.7334 0 5.4433 0.0417 8.125 0.0937v-13.375h-16.25z"/>
      <path id="path16141" style="fill:url(#linearGradient11138)" d="m132.53 505.77v-13.375c2.6824 0.052 5.39 0.0937 8.125 0.0937 2.7334 0 5.4433-0.0418 8.125-0.0937v13.375h-16.25z"/>
    </g>
  </g>
</svg>